<svg width="195" height="33" viewBox="0 0 195 33" fill="none" xmlns="http://www.w3.org/2000/svg">
<path fill-rule="evenodd" clip-rule="evenodd" d="M41.8462 12.9043C41.8462 19.4648 41.8462 26.0255 41.8462 32.586H36.923V21.782C33.6773 25.0296 30.2895 28.5223 25.9834 30.5499C21.3357 32.7382 13.5397 33.4664 8.70607 31.2887C3.5732 28.9762 0 23.8175 0 17.8248C0 9.67239 6.61248 3.06348 14.7691 3.06348H32V7.98382H14.7691C9.33131 7.98382 4.92315 12.3898 4.92315 17.8248C4.92315 20.3982 5.91176 22.7414 7.5297 24.4948C10.391 27.5957 15.3626 28.1663 19.6656 27.397C22.8846 26.8215 25.4594 25.5991 27.9811 23.5132C30.0784 21.7781 31.8334 19.7194 33.6762 17.8248H22.1539V12.9043C28.718 12.9043 35.2822 12.9043 41.8462 12.9043Z" fill="#051B78"/>
<path fill-rule="evenodd" clip-rule="evenodd" d="M39.3847 0.602051C42.1035 0.602051 44.3077 2.80621 44.3077 5.52505C44.3077 8.24404 42.1035 10.4482 39.3847 10.4482C36.6659 10.4482 34.4615 8.24404 34.4615 5.52505C34.4615 2.80621 36.6659 0.602051 39.3847 0.602051Z" fill="#DD023B"/>
<path d="M183.385 28.9098V10.6494H187.378V13.6468C187.957 12.4983 188.848 11.6314 190.052 11.0457C191.255 10.46 192.725 10.305 194.462 10.5805V14.7838C192.587 14.2095 190.937 14.3934 189.513 15.3351C188.09 16.2769 187.378 17.7122 187.378 19.6417V28.9098H183.385Z" fill="#051B78"/>
<path d="M170.461 28.9098C167.905 28.9098 165.727 27.9984 163.929 26.1761C162.13 24.3536 161.231 22.1823 161.231 19.6621C161.231 17.1197 162.13 14.9484 163.929 13.1484C165.727 11.3484 167.905 10.4482 170.461 10.4482C173.018 10.4482 175.196 11.354 176.994 13.1653C178.793 14.9765 179.692 17.1422 179.692 19.6621C179.692 22.2046 178.787 24.3817 176.977 26.1929C175.167 28.0042 172.995 28.9098 170.461 28.9098ZM166.491 23.6615C167.577 24.7753 168.9 25.3321 170.461 25.3321C172.023 25.3321 173.346 24.7753 174.432 23.6615C175.518 22.5478 176.061 21.2147 176.061 19.6621C176.061 18.1098 175.518 16.7765 174.432 15.6627C173.346 14.549 172.023 13.9922 170.461 13.9922C168.9 13.9922 167.577 14.549 166.491 15.6627C165.405 16.7765 164.862 18.1098 164.862 19.6621C164.862 21.2147 165.405 22.5478 166.491 23.6615Z" fill="#051B78"/>
<path d="M160 28.4016C157.127 29.1787 154.767 29.0645 152.922 28.0588C151.077 27.0534 150.147 25.2592 150.154 22.6768C150.167 17.8775 150.177 11.8936 150.207 6.75586H154.183V10.37H159.86V13.7637H154.183L154.148 22.6424C154.148 23.7624 154.627 24.5164 155.585 24.9051C156.543 25.2935 158.014 25.1907 160 24.5964V28.4016Z" fill="#051B78"/>
<path d="M114.462 28.4016C111.588 29.1787 109.229 29.0645 107.383 28.0588C105.538 27.0534 104.609 25.2592 104.615 22.6768C104.628 17.8775 104.639 11.8936 104.669 6.75586H108.645V10.37H114.321V13.7637H108.645L108.61 22.6424C108.61 23.7624 109.089 24.5164 110.047 24.9051C111.004 25.2935 112.476 25.1907 114.462 24.5964V28.4016Z" fill="#051B78"/>
<path d="M126.769 28.4016C123.896 29.1787 121.537 29.0645 119.691 28.0588C117.846 27.0534 116.916 25.2592 116.923 22.6768C116.936 17.8775 116.946 11.8936 116.976 6.75586H120.953V10.37H126.629V13.7637H120.953L120.918 22.6424C120.918 23.7624 121.397 24.5164 122.354 24.9051C123.312 25.2935 124.784 25.1907 126.769 24.5964V28.4016Z" fill="#051B78"/>
<path d="M136.835 28.9098C134.757 28.9098 132.97 28.2361 131.475 26.8889C129.979 25.5417 129.231 23.7608 129.231 21.5458V10.4482H133.17V20.484C133.17 21.9226 133.604 23.07 134.472 23.9261C135.34 24.7826 136.39 25.2108 137.623 25.2108C139.062 25.2108 140.238 24.6969 141.152 23.6694C142.065 22.6418 142.522 21.3403 142.522 19.7646V10.4482H146.461V28.6015H142.522V26.1697C141.106 27.9966 139.211 28.9098 136.835 28.9098Z" fill="#051B78"/>
<path d="M91.6877 28.9098C89.1097 28.9098 86.9275 28.0042 85.1412 26.1929C83.3544 24.3817 82.4614 22.2046 82.4614 19.6621C82.4614 17.0972 83.366 14.9202 85.1749 13.1315C86.984 11.3428 89.1548 10.4482 91.6877 10.4482C93.9264 10.4482 95.8995 11.1739 97.6068 12.6253C99.314 14.0765 100.36 15.8934 100.744 18.0759C100.971 19.1334 100.982 20.1459 100.778 21.1133H86.3282C86.5545 22.441 87.165 23.4928 88.1599 24.2691C89.1548 25.0453 90.3309 25.4335 91.6877 25.4335C93.2783 25.4335 94.6243 25.006 95.726 24.1511H100.134C99.4101 25.591 98.257 26.7441 96.674 27.6102C95.0909 28.4766 93.4289 28.9098 91.6877 28.9098ZM86.3282 18.1098H96.9453C96.719 16.9172 96.1255 15.916 95.1644 15.1059C94.2034 14.2959 93.0331 13.8908 91.6538 13.8908C90.2744 13.8908 89.0984 14.3017 88.126 15.1228C87.1536 15.9439 86.5545 16.9396 86.3282 18.1098Z" fill="#051B78"/>
<path d="M68.629 28.9098C65.2902 28.9098 62.453 27.7066 60.118 25.3001C57.783 22.8934 56.6154 19.9942 56.6154 16.6021C56.6154 13.2099 57.7886 10.3107 60.1348 7.90427C62.4812 5.49766 65.3126 4.29443 68.629 4.29443C71.043 4.29443 73.2033 4.96477 75.1097 6.30545C77.0161 7.64628 78.4431 9.42827 79.3907 11.6515H74.959C74.3843 10.7477 73.6561 10.0026 72.7747 9.41687C71.5677 8.61478 70.1859 8.21349 68.629 8.21349C66.3504 8.21349 64.4496 9.02144 62.9268 10.6373C61.4039 12.2531 60.6424 14.2413 60.6424 16.6021C60.6424 18.9628 61.3983 20.951 62.91 22.5668C64.4214 24.1827 66.3278 24.9906 68.629 24.9906C70.4339 24.9906 72.0133 24.452 73.367 23.3747C74.7205 22.2975 75.6229 20.8193 76.0743 18.9398H68.6968L68.629 15.4675H80V16.9459C80 20.3838 78.9225 23.2373 76.7679 25.5063C74.6134 27.7752 71.9003 28.9098 68.629 28.9098Z" fill="#051B78"/>
</svg>
