<svg width="34" height="24" viewBox="0 0 34 24" fill="none" xmlns="http://www.w3.org/2000/svg">
<path fill-rule="evenodd" clip-rule="evenodd" d="M31.3846 9.22682C31.3846 14.1472 31.3846 19.0677 31.3846 23.9881H27.6922V15.8851C25.258 18.3208 22.7171 20.9403 19.4875 22.461C16.0017 24.1022 10.1548 24.6484 6.52956 23.0151C2.6799 21.2807 0 17.4117 0 12.9172C0 6.80288 4.95936 1.84619 11.0769 1.84619H24V5.53645H11.0769C6.99848 5.53645 3.69237 8.8409 3.69237 12.9172C3.69237 14.8473 4.43382 16.6046 5.64728 17.9197C7.79324 20.2454 11.522 20.6733 14.7492 20.0963C17.1634 19.6647 19.0945 18.7479 20.9858 17.1835C22.5588 15.8821 23.875 14.3381 25.2572 12.9172H16.6154V9.22682C21.5385 9.22682 26.4616 9.22682 31.3846 9.22682Z" fill="#051B78"/>
<path fill-rule="evenodd" clip-rule="evenodd" d="M29.5381 0C31.5772 0 33.2303 1.65312 33.2303 3.69225C33.2303 5.7315 31.5772 7.38462 29.5381 7.38462C27.4989 7.38462 25.8457 5.7315 25.8457 3.69225C25.8457 1.65312 27.4989 0 29.5381 0Z" fill="#DD023B"/>
</svg>
