<svg width="17" height="17" viewBox="0 0 17 17" fill="none" xmlns="http://www.w3.org/2000/svg">
<path d="M9.4365 8.49615L16.4715 1.45428C16.5956 1.32955 16.6652 1.16073 16.6651 0.984773C16.665 0.808821 16.5951 0.640086 16.4709 0.515527C16.2221 0.268027 15.784 0.266777 15.5327 0.516777L8.49962 7.55865L1.464 0.514902C1.214 0.268027 0.775874 0.269277 0.527124 0.516152C0.465382 0.577648 0.416505 0.650825 0.383347 0.731413C0.350189 0.812001 0.333414 0.898387 0.333999 0.985528C0.333999 1.16303 0.402749 1.32928 0.527124 1.4524L7.56212 8.49553L0.527749 15.5393C0.403615 15.6642 0.334099 15.8332 0.33445 16.0094C0.334802 16.1855 0.404993 16.3542 0.529624 16.4787C0.650249 16.598 0.820874 16.6668 0.997124 16.6668H1.00087C1.17775 16.6662 1.34837 16.5968 1.4665 16.4762L8.49962 9.43428L15.5352 16.478C15.6596 16.6018 15.8259 16.6705 16.0021 16.6705C16.0893 16.6708 16.1756 16.6538 16.2562 16.6206C16.3368 16.5873 16.41 16.5385 16.4716 16.4769C16.5332 16.4152 16.582 16.342 16.6153 16.2615C16.6485 16.1809 16.6655 16.0946 16.6652 16.0074C16.6652 15.8305 16.5965 15.6637 16.4715 15.5405L9.4365 8.49615Z" fill="#3D3D3D"/>
</svg>
