<svg width="16" height="27" viewBox="0 0 16 27" fill="none" xmlns="http://www.w3.org/2000/svg">
<path d="M7.77084 20.9375C4.76667 20.9375 3.58543 19.5958 3.42501 17.875H0.216675C0.391675 21.0688 2.78334 22.8625 5.58334 23.4604V26.625H9.95834V23.4896C12.8021 22.95 15.0625 21.3021 15.0625 18.3125C15.0625 14.1708 11.5188 12.7562 8.20834 11.8958C4.89792 11.0354 3.83334 10.1458 3.83334 8.76042C3.83334 7.17083 5.30626 6.0625 7.77084 6.0625C10.3667 6.0625 11.3292 7.30208 11.4167 9.125H14.6396C14.5375 6.61667 13.0063 4.3125 9.95834 3.56875V0.375H5.58334V3.525C2.75417 4.1375 0.479175 5.975 0.479175 8.78958C0.479175 12.1583 3.26459 13.8354 7.33334 14.8125C10.9792 15.6875 11.7083 16.9708 11.7083 18.3271C11.7083 19.3333 10.9938 20.9375 7.77084 20.9375Z" fill="white"/>
</svg>
