<svg width="29" height="25" viewBox="0 0 29 25" fill="none" xmlns="http://www.w3.org/2000/svg">
<path d="M26.7708 13.2288L28.8125 15.2851L19.2896 24.8955L14.2292 19.7913L16.2708 17.7351L19.2896 20.7684L26.7708 13.2288ZM10.5833 19.7913L14.9583 24.1663H0.375V21.2497C0.375 18.0268 5.59583 15.4163 12.0417 15.4163L14.7979 15.5768L10.5833 19.7913ZM12.0417 0.833008C13.5888 0.833008 15.0725 1.44759 16.1665 2.54155C17.2604 3.63551 17.875 5.11925 17.875 6.66634C17.875 8.21344 17.2604 9.69717 16.1665 10.7911C15.0725 11.8851 13.5888 12.4997 12.0417 12.4997C10.4946 12.4997 9.01084 11.8851 7.91688 10.7911C6.82291 9.69717 6.20833 8.21344 6.20833 6.66634C6.20833 5.11925 6.82291 3.63551 7.91688 2.54155C9.01084 1.44759 10.4946 0.833008 12.0417 0.833008Z" fill="white"/>
</svg>
