<svg width="35" height="35" viewBox="0 0 35 35" fill="none" xmlns="http://www.w3.org/2000/svg">
<path d="M16.0387 23.3337L23.3304 17.5003L16.0387 11.667V16.042H2.9137V18.9587H16.0387V23.3337Z" fill="white"/>
<path d="M18.9569 4.3731C17.2324 4.36832 15.5242 4.70576 13.9311 5.36588C12.338 6.026 10.8917 6.99567 9.67603 8.21872L11.7381 10.2808C13.666 8.35289 16.2298 7.28976 18.9569 7.28976C21.6839 7.28976 24.2477 8.35289 26.1756 10.2808C28.1035 12.2087 29.1667 14.7725 29.1667 17.4996C29.1667 20.2266 28.1035 22.7904 26.1756 24.7183C24.2477 26.6462 21.6839 27.7093 18.9569 27.7093C16.2298 27.7093 13.666 26.6462 11.7381 24.7183L9.67603 26.7804C12.1537 29.2596 15.4496 30.626 18.9569 30.626C22.4641 30.626 25.76 29.2596 28.2377 26.7804C30.7169 24.3027 32.0833 21.0068 32.0833 17.4996C32.0833 13.9923 30.7169 10.6964 28.2377 8.21872C27.022 6.99567 25.5757 6.026 23.9826 5.36588C22.3895 4.70576 20.6813 4.36832 18.9569 4.3731Z" fill="white"/>
</svg>
