<svg width="27" height="31" viewBox="0 0 27 31" fill="none" xmlns="http://www.w3.org/2000/svg">
<path d="M19.5156 8.66406V7.02344C19.5156 6.87305 19.3926 6.75 19.2422 6.75H6.11719C5.9668 6.75 5.84375 6.87305 5.84375 7.02344V8.66406C5.84375 8.81445 5.9668 8.9375 6.11719 8.9375H19.2422C19.3926 8.9375 19.5156 8.81445 19.5156 8.66406ZM6.11719 11.6719C5.9668 11.6719 5.84375 11.7949 5.84375 11.9453V13.5859C5.84375 13.7363 5.9668 13.8594 6.11719 13.8594H12.4062C12.5566 13.8594 12.6797 13.7363 12.6797 13.5859V11.9453C12.6797 11.7949 12.5566 11.6719 12.4062 11.6719H6.11719ZM11.0391 27.1211H3.10938V3.05859H22.25V14.8164C22.25 14.9668 22.373 15.0898 22.5234 15.0898H24.4375C24.5879 15.0898 24.7109 14.9668 24.7109 14.8164V1.69141C24.7109 1.08643 24.2222 0.597656 23.6172 0.597656H1.74219C1.13721 0.597656 0.648438 1.08643 0.648438 1.69141V28.4883C0.648438 29.0933 1.13721 29.582 1.74219 29.582H11.0391C11.1895 29.582 11.3125 29.459 11.3125 29.3086V27.3945C11.3125 27.2441 11.1895 27.1211 11.0391 27.1211ZM26.2729 28.8813L23.084 25.6924C23.8462 24.6841 24.3008 23.4263 24.3008 22.0625C24.3008 18.7402 21.6074 16.0469 18.2852 16.0469C14.9629 16.0469 12.2695 18.7402 12.2695 22.0625C12.2695 25.3848 14.9629 28.0781 18.2852 28.0781C19.5088 28.0781 20.6436 27.7124 21.5938 27.0869L24.8306 30.3237C24.8853 30.3784 24.9536 30.4023 25.022 30.4023C25.0903 30.4023 25.1621 30.375 25.2134 30.3237L26.2729 29.2642C26.2982 29.2391 26.3182 29.2092 26.3318 29.1764C26.3455 29.1435 26.3525 29.1083 26.3525 29.0728C26.3525 29.0372 26.3455 29.002 26.3318 28.9691C26.3182 28.9363 26.2982 28.9064 26.2729 28.8813ZM18.2852 25.8906C16.1694 25.8906 14.457 24.1782 14.457 22.0625C14.457 19.9468 16.1694 18.2344 18.2852 18.2344C20.4009 18.2344 22.1133 19.9468 22.1133 22.0625C22.1133 24.1782 20.4009 25.8906 18.2852 25.8906Z" fill="white"/>
</svg>
