<svg width="131" height="37" viewBox="0 0 131 37" fill="none" xmlns="http://www.w3.org/2000/svg">
<g clip-path="url(#clip0_2344_12983)">
<path d="M18.402 37C17.5076 36.9953 16.6187 36.8595 15.7634 36.5966C14.8253 36.3045 13.9185 35.9193 13.0564 35.4465C11.878 34.8389 10.7525 34.1327 9.69199 33.3352C8.73616 32.5817 7.83183 31.7645 6.98508 30.8891C5.89965 29.7986 4.87075 28.6528 3.90243 27.456C2.93058 26.3076 2.09125 25.0523 1.40045 23.714L1.34067 23.5938L1.28089 23.4479L1.22111 23.3106L1.16988 23.2076V23.1475V23.036L1.1101 22.8986L1.05886 22.7527L0.947849 22.4695L0.896615 22.3322C0.877314 22.2941 0.862975 22.2537 0.85393 22.212C0.851483 22.1691 0.851483 22.1261 0.85393 22.0833L0.811244 21.9545V21.8344C0.794575 21.7952 0.780327 21.7551 0.768559 21.7142V21.6112V21.4996V21.4567C0.764888 21.4225 0.764888 21.388 0.768559 21.3538V21.2422C0.771001 21.2079 0.771001 21.1735 0.768559 21.1392V20.5985V20.4869V20.4354V20.341V20.2895C0.768559 20.2895 0.768559 20.238 0.768559 20.2122V20.135V20.0578C0.764414 20.0322 0.764414 20.0061 0.768559 19.9805V19.9033C0.768559 19.9033 0.768559 19.9033 0.768559 19.8432C0.768559 19.7831 0.768559 19.7831 0.768559 19.7574V19.7402C0.768559 19.7402 0.768559 19.6715 0.768559 19.6372V19.5857C0.773239 19.5544 0.773239 19.5226 0.768559 19.4913C0.768559 19.4913 0.768559 19.4913 0.768559 19.4398V19.2939C0.764414 19.2683 0.764414 19.2422 0.768559 19.2167C0.768559 19.2167 0.768559 19.1652 0.768559 19.148C0.773407 19.1254 0.773407 19.1019 0.768559 19.0793V18.9935C0.773273 18.9738 0.773273 18.9532 0.768559 18.9334V18.8476V17.9893C0.768559 17.9893 0.768559 17.9292 0.768559 17.8949C0.764563 17.878 0.764563 17.8603 0.768559 17.8434C0.763878 17.8121 0.763878 17.7803 0.768559 17.749V17.6889C0.764717 17.6576 0.764717 17.6259 0.768559 17.5945V17.543C0.768559 17.543 0.768559 17.483 0.768559 17.4486C0.764526 17.4346 0.764526 17.4198 0.768559 17.4057C0.768559 17.4057 0.768559 17.337 0.768559 17.3113V17.1654C0.768559 17.1654 0.768559 17.0967 0.768559 17.0624C0.768559 17.0624 0.768559 16.9937 0.768559 16.9594V16.9079C0.773294 16.8709 0.773294 16.8334 0.768559 16.7963C0.773303 16.7564 0.773303 16.7161 0.768559 16.6762V16.5646V16.4444C0.765766 16.4044 0.765766 16.3643 0.768559 16.3243C0.768559 16.2814 0.768559 16.2299 0.768559 16.187C0.763691 16.1442 0.763691 16.101 0.768559 16.0582C0.765766 16.0182 0.765766 15.9781 0.768559 15.9381V15.8093C0.788318 15.7617 0.805421 15.713 0.819792 15.6634L0.871025 15.5175L0.922258 15.3802C0.936629 15.3306 0.953732 15.2819 0.973491 15.2343L1.02472 15.0884L1.08451 14.9339C1.08451 14.8824 1.08451 14.8309 1.14429 14.788C1.16709 14.7376 1.187 14.6861 1.20401 14.6335L1.2638 14.4876L1.34067 14.3245C2.67279 11.4407 4.67094 9.43238 6.6008 7.45836C7.72798 6.32545 8.77831 5.36418 9.81155 4.50592C10.9927 3.52002 12.2522 2.63301 13.5774 1.85384C14.3139 1.40888 15.1066 1.06536 15.9341 0.832496C16.5599 0.465835 17.232 0.185822 17.9323 0C18.9207 0.00550451 19.9015 0.173677 20.8357 0.497811C21.7239 0.798858 22.5817 1.18392 23.3975 1.64786C24.7156 2.35731 25.98 3.1634 27.1803 4.0596C28.3104 4.90458 29.3777 5.83114 30.374 6.83184C31.4165 7.89588 32.3704 9.04409 33.226 10.2649C34.0249 11.3474 34.6848 12.5268 35.1901 13.7752C35.5262 14.6504 35.8113 15.5445 36.044 16.453C36.2472 17.2387 36.3617 18.0448 36.3856 18.8562C36.396 19.6525 36.2983 20.4466 36.0953 21.2164C35.8555 22.0972 35.5145 22.9469 35.0791 23.7483C34.4507 24.9197 33.7221 26.0339 32.9016 27.0784C32.0786 28.0986 31.1976 29.07 30.263 29.9879C29.2546 31.0017 28.1913 31.9587 27.0779 32.8546C25.9149 33.7895 24.6941 34.6495 23.4231 35.4294C21.9449 36.4137 20.2175 36.9527 18.4447 36.9829L18.402 37ZM21.1346 32.8975C20.3936 33.3336 19.5941 33.6602 18.7606 33.8673C19.5941 33.6602 20.3936 33.3336 21.1346 32.8975ZM10.2471 31.4212L10.4862 31.5843L10.2471 31.4212ZM7.55719 29.1812L7.69384 29.3099L7.55719 29.1812ZM8.85516 16.2213V16.3071V16.3929V16.4788V16.5646V16.659V16.7448V16.8221V16.9079V16.9851V17.0624V17.1311C8.86001 17.1537 8.86001 17.1771 8.85516 17.1997V17.2684V17.3628C8.85516 17.3628 8.85516 17.3628 8.85516 17.4315V17.6117V17.6632V17.8005V17.8606V17.9636C8.85516 17.9636 8.85516 18.0065 8.85516 18.0237C8.85516 18.0237 8.85516 18.0237 8.85516 18.0837V18.2811C8.85861 18.2981 8.85861 18.3156 8.85516 18.3326V19.0793C8.85516 19.0793 8.85516 19.0793 8.85516 19.1308C8.85171 19.1478 8.85171 19.1653 8.85516 19.1823V19.7402V19.8003C8.85516 19.8003 8.85516 19.8003 8.85516 19.8604V20.0492C8.85797 20.0691 8.85797 20.0893 8.85516 20.1092V20.1693C8.85887 20.1863 8.85887 20.2039 8.85516 20.2208V20.2895V20.3496V20.4354V20.4869V20.547V20.6157V20.6843V20.753V20.8216V20.8903V20.9675V21.0276V21.1049V21.1907V21.2508V21.3108C9.69144 22.7794 10.7356 24.118 11.9549 25.2846C12.9218 26.3161 14.0603 27.17 15.3194 27.808C16.2222 28.341 17.2443 28.6362 18.291 28.6662C19.2761 28.6535 20.2367 28.3555 21.0577 27.808C22.4369 26.9496 23.7121 25.9328 24.8576 24.7782C25.9186 23.7785 26.8201 22.6206 27.5304 21.3452C28.5807 19.3711 28.3844 17.9121 27.6073 15.8093C26.9815 14.3929 26.0983 13.1064 25.0028 12.0158C23.8594 10.8673 22.5529 9.89549 21.126 9.132C20.2059 8.57331 19.1602 8.25741 18.086 8.21365C17.2052 8.22235 16.3434 8.47152 15.5926 8.93456C14.1679 9.79464 12.864 10.8424 11.7158 12.0501C10.5196 13.1243 9.5297 14.4102 8.79538 15.8437L8.85516 16.2213ZM7.14732 28.7692L7.38645 29.0095L7.14732 28.7692ZM28.0001 27.3616L27.4108 27.971L26.6509 28.7091L27.4108 27.971L28.0001 27.3616ZM31.7488 22.212C31.7488 22.3064 31.6549 22.3923 31.6122 22.4781C31.3024 23.0671 30.9633 23.64 30.596 24.1946C30.9633 23.64 31.3024 23.0671 31.6122 22.4781L31.7488 22.212ZM32.1757 15.0884C32.407 15.8046 32.5756 16.5398 32.6796 17.2856C32.5765 16.5397 32.4079 15.8044 32.1757 15.0884ZM26.5484 6.86616C26.8815 7.16655 27.2059 7.48413 27.5219 7.80169C28.4345 8.72016 29.2659 9.71662 30.0068 10.7799C30.3313 11.2433 30.6159 11.6896 30.8607 12.1188C29.9195 10.5567 28.7926 9.11565 27.5048 7.82741C27.1889 7.50127 26.8644 7.19232 26.5313 6.89193L26.5484 6.86616ZM20.7076 2.89236L21.4334 3.27C22.1592 3.65623 22.868 4.1283 23.5426 4.53169C22.868 4.08539 22.1592 3.67339 21.4334 3.27L20.7076 2.89236ZM9.29067 20.5985C9.17109 20.3189 9.06845 20.0323 8.98327 19.7402C8.87941 19.3742 8.82202 18.9964 8.81248 18.6159C8.84665 19.3038 9.00885 19.9792 9.29067 20.6071V20.5985Z" fill="#53B7D1"/>
<path d="M57.392 26.8724C58.246 26.8724 58.9889 26.8724 59.6806 26.8209C60.3722 26.7694 61.098 26.7179 61.8495 26.6063C61.9139 26.5932 61.9805 26.5959 62.0437 26.6141C62.1069 26.6324 62.1648 26.6656 62.2126 26.711C62.2603 26.7565 62.2964 26.8128 62.3179 26.8753C62.3395 26.9377 62.3458 27.0044 62.3362 27.0698V29.533C62.3362 29.8162 62.1655 30.0136 61.8154 30.1252C60.9595 30.3882 60.0823 30.5749 59.1938 30.6831C58.2547 30.8186 57.3075 30.8902 56.3588 30.8977C54.8299 30.9399 53.3074 30.6834 51.8757 30.1424C50.7144 29.6774 49.6892 28.9245 48.8955 27.9538C48.0834 26.9229 47.501 25.7287 47.1877 24.4521C46.8226 22.9146 46.6477 21.3378 46.6668 19.7574V18.2382C46.6504 16.6588 46.8195 15.083 47.1706 13.5435C47.4565 12.2701 48.0161 11.0749 48.8101 10.0417C49.5875 9.065 50.6063 8.31035 51.7647 7.85316C53.1963 7.3122 54.7189 7.0557 56.2478 7.09788C58.0262 7.11131 59.7919 7.40081 61.4823 7.95615C61.6317 7.99623 61.7675 8.07628 61.8751 8.18785C61.9451 8.29468 61.9808 8.42051 61.9776 8.54836V10.9171C61.9876 10.9834 61.9813 11.0511 61.9593 11.1144C61.9374 11.1776 61.9004 11.2346 61.8516 11.2802C61.8028 11.3259 61.7437 11.3589 61.6793 11.3764C61.615 11.3939 61.5473 11.3953 61.4823 11.3806C60.876 11.2948 60.21 11.2262 59.4927 11.1833C58.7754 11.1403 58.041 11.1146 57.2981 11.1146C56.4022 11.0886 55.5097 11.2342 54.668 11.5437C53.9787 11.8133 53.3844 12.2822 52.9602 12.8912C52.4887 13.5888 52.1687 14.3783 52.0209 15.2085C51.8233 16.2984 51.7317 17.4051 51.7476 18.5129V19.5342C51.7333 20.6427 51.8305 21.7497 52.0379 22.8385C52.1938 23.6653 52.5227 24.4493 53.0029 25.1387C53.4379 25.7332 54.0294 26.194 54.7107 26.469C55.5482 26.7711 56.4343 26.9137 57.3237 26.8896L57.392 26.8724ZM66.1276 7.99046C66.1276 7.63857 66.2899 7.46693 66.6229 7.46693H70.6791C70.7498 7.45692 70.8218 7.46354 70.8896 7.48631C70.9573 7.50908 71.0189 7.54739 71.0694 7.59815C71.1199 7.64892 71.1579 7.71075 71.1806 7.77883C71.2033 7.84691 71.2099 7.91937 71.1999 7.99046V24.9842C71.1645 25.4783 71.2775 25.9716 71.5244 26.4004C71.6961 26.5778 71.9069 26.7122 72.1398 26.7927C72.3727 26.8732 72.6211 26.8976 72.8651 26.8638H80.6187C80.6894 26.8538 80.7615 26.8605 80.8292 26.8832C80.897 26.906 80.9585 26.9443 81.009 26.995C81.0595 27.0458 81.0976 27.1077 81.1203 27.1758C81.1429 27.2438 81.1495 27.3162 81.1396 27.3873V29.8162C81.1396 30.2368 80.9517 30.46 80.5845 30.4771C79.3833 30.5858 78.0085 30.6803 76.4601 30.7604C74.9145 30.8376 73.3091 30.8719 71.6525 30.8719C70.7915 30.8862 69.9318 30.7998 69.0907 30.6144C68.4624 30.4669 67.8774 30.1729 67.3829 29.7562C66.9389 29.358 66.6187 28.8394 66.4607 28.2628C66.2559 27.5227 66.1609 26.7563 66.1789 25.9884L66.1276 7.99046ZM89.2518 29.9192C89.2616 29.9948 89.254 30.0717 89.2296 30.1439C89.2051 30.216 89.1645 30.2816 89.1109 30.3355C89.0573 30.3894 88.9921 30.4302 88.9202 30.4548C88.8484 30.4793 88.772 30.487 88.6968 30.4771H84.7346C84.6597 30.4873 84.5834 30.4798 84.5119 30.4552C84.4404 30.4307 84.3755 30.3897 84.3225 30.3355C84.2695 30.2814 84.2297 30.2156 84.2064 30.1433C84.183 30.0711 84.1768 29.9944 84.1881 29.9192V8.06773C84.1881 7.67293 84.3674 7.47552 84.7346 7.47552H88.6968C89.0639 7.47552 89.2518 7.67293 89.2518 8.06773V29.9192ZM104.554 26.8638C105.408 26.8638 106.151 26.8638 106.851 26.8123C107.551 26.7608 108.269 26.7093 109.012 26.5977C109.076 26.5825 109.144 26.5837 109.208 26.6011C109.272 26.6185 109.331 26.6517 109.379 26.6976C109.427 26.7436 109.464 26.8009 109.484 26.8643C109.505 26.9278 109.51 26.9955 109.498 27.0612V29.5245C109.498 29.8077 109.327 30.0051 108.977 30.1167C108.122 30.3797 107.244 30.5663 106.356 30.6745C105.413 30.8006 104.463 30.8665 103.512 30.8719C101.983 30.9141 100.461 30.6576 99.0292 30.1167C97.8692 29.6538 96.8462 28.9003 96.0576 27.928C95.2443 26.8979 94.6617 25.7035 94.3497 24.4263C93.9841 22.8861 93.8092 21.3063 93.8288 19.723V18.2124C93.8111 16.6325 93.9831 15.0562 94.3412 13.5177C94.6243 12.2449 95.181 11.0497 95.9722 10.016C96.7528 9.03889 97.7744 8.28434 98.9353 7.82739C100.367 7.2858 101.889 7.02927 103.418 7.07211C105.197 7.08622 106.962 7.37571 108.653 7.93038C108.801 7.9734 108.936 8.05309 109.046 8.16213C109.114 8.26924 109.147 8.39546 109.14 8.52259V10.8914C109.149 10.9568 109.143 11.0235 109.121 11.086C109.1 11.1484 109.064 11.2047 109.016 11.2501C108.968 11.2956 108.91 11.3288 108.847 11.3471C108.784 11.3653 108.717 11.3679 108.653 11.3549C108.038 11.2605 107.381 11.2004 106.655 11.1575C105.929 11.1146 105.203 11.0888 104.46 11.0888C103.564 11.0634 102.672 11.2091 101.83 11.5179C101.142 11.7897 100.548 12.2582 100.122 12.8654C99.6522 13.5629 99.3349 14.3528 99.1914 15.1828C98.9953 16.273 98.9009 17.3792 98.9097 18.4871V19.5084C98.8978 20.6144 98.998 21.7186 99.2085 22.8042C99.3589 23.6353 99.6882 24.4233 100.173 25.1129C100.607 25.7091 101.199 26.1702 101.881 26.4433C102.719 26.7453 103.605 26.8879 104.494 26.8638H104.554ZM129.711 7.46693C129.783 7.45919 129.857 7.47393 129.921 7.50921C129.985 7.54448 130.037 7.59861 130.069 7.66432C130.102 7.73391 130.114 7.81165 130.103 7.88789C130.093 7.96414 130.06 8.03557 130.009 8.09345L123.007 18.5472L130.923 29.8849C130.965 29.9372 130.992 30 131.001 30.0666C131.01 30.1331 131.001 30.2009 130.974 30.2626C130.945 30.3354 130.891 30.3962 130.823 30.4351C130.755 30.474 130.676 30.4888 130.599 30.4771H125.988C125.798 30.4858 125.609 30.4536 125.432 30.3827C125.28 30.2941 125.153 30.1668 125.065 30.0136L118.362 19.7402V29.8935C118.374 29.9695 118.367 30.0471 118.343 30.1201C118.32 30.1931 118.279 30.2594 118.225 30.3137C118.171 30.3681 118.105 30.4089 118.032 30.4328C117.96 30.4567 117.882 30.463 117.807 30.4514H113.845C113.77 30.4615 113.694 30.4541 113.622 30.4295C113.551 30.4049 113.486 30.364 113.433 30.3098C113.38 30.2557 113.34 30.1899 113.317 30.1176C113.293 30.0454 113.287 29.9686 113.298 29.8935V8.06773C113.298 7.67293 113.478 7.47552 113.845 7.47552H117.841C118.208 7.47552 118.396 7.67293 118.396 8.06773V17.337L124.647 7.89607C124.727 7.77019 124.839 7.66751 124.97 7.59826C125.102 7.52901 125.25 7.49558 125.398 7.50124L129.711 7.46693Z" fill="white"/>
</g>
<defs>
<clipPath id="clip0_2344_12983">
<rect width="131" height="37" fill="white"/>
</clipPath>
</defs>
</svg>
