<svg width="24" height="17" viewBox="0 0 24 17" fill="none" xmlns="http://www.w3.org/2000/svg">
<path d="M7.21912 8.42231C9.61948 8.42231 11.4303 6.61151 11.4303 4.21115C11.4303 1.8108 9.61948 0 7.21912 0C4.81876 0 3.00797 1.8108 3.00797 4.21115C3.00797 6.61151 4.81876 8.42231 7.21912 8.42231ZM8.42231 9.56293H6.01593C2.69875 9.56293 0 12.2617 0 15.5789V16.7821H14.4382V15.5789C14.4382 12.2617 11.7395 9.56293 8.42231 9.56293ZM22.0111 3.89833L16.8374 9.0624L15.2829 7.50789L13.5816 9.20919L16.8374 12.4626L23.71 5.60204L22.0111 3.89833Z" fill="#3D3D3D"/>
</svg>
