<svg width="80" height="80" viewBox="0 0 80 80" fill="none" xmlns="http://www.w3.org/2000/svg">
<circle cx="40" cy="40" r="40" fill="#F5F5F5"/>
<path d="M39.5003 25.9167C31.5947 25.9167 24.917 32.5944 24.917 40.5C24.917 48.4056 31.5947 55.0833 39.5003 55.0833C47.4059 55.0833 54.0837 48.4056 54.0837 40.5C54.0837 32.5944 47.4059 25.9167 39.5003 25.9167ZM39.5003 33.2083C42.0189 33.2083 43.8753 35.0633 43.8753 37.5833C43.8753 40.1033 42.0189 41.9583 39.5003 41.9583C36.9832 41.9583 35.1253 40.1033 35.1253 37.5833C35.1253 35.0633 36.9832 33.2083 39.5003 33.2083ZM32.0541 47.4592C33.3622 45.5342 35.5439 44.2508 38.042 44.2508H40.9587C43.4582 44.2508 45.6385 45.5342 46.9466 47.4592C45.0828 49.4542 42.4389 50.7083 39.5003 50.7083C36.5618 50.7083 33.9178 49.4542 32.0541 47.4592Z" fill="#3D3D3D"/>
</svg>
