<svg width="81" height="80" viewBox="0 0 81 80" fill="none" xmlns="http://www.w3.org/2000/svg">
<circle cx="40.5" cy="40" r="40" fill="#F5F5F5"/>
<path d="M40 24.1875C31.5439 24.1875 24.6875 31.0439 24.6875 39.5C24.6875 47.9561 31.5439 54.8125 40 54.8125C48.4561 54.8125 55.3125 47.9561 55.3125 39.5C55.3125 31.0439 48.4561 24.1875 40 24.1875ZM44.9253 39.7358L37.4604 45.167C37.4195 45.1964 37.3713 45.214 37.321 45.2177C37.2708 45.2215 37.2205 45.2114 37.1756 45.1884C37.1307 45.1654 37.0931 45.1306 37.0667 45.0876C37.0404 45.0446 37.0264 44.9952 37.0264 44.9448V34.0894C37.0262 34.0389 37.04 33.9893 37.0663 33.9462C37.0926 33.9031 37.1303 33.8681 37.1752 33.845C37.2202 33.822 37.2706 33.8119 37.321 33.8158C37.3713 33.8197 37.4196 33.8375 37.4604 33.8672L44.9253 39.2949C44.9606 39.3199 44.9893 39.3529 45.0092 39.3913C45.029 39.4296 45.0394 39.4722 45.0394 39.5154C45.0394 39.5586 45.029 39.6011 45.0092 39.6395C44.9893 39.6779 44.9606 39.7109 44.9253 39.7358Z" fill="#007AFF"/>
</svg>
