<svg width="81" height="80" viewBox="0 0 81 80" fill="none" xmlns="http://www.w3.org/2000/svg">
<circle cx="40.5" cy="40" r="40" fill="#F5F5F5"/>
<path fill-rule="evenodd" clip-rule="evenodd" d="M28.5 54.0306V27.8749C28.5 26.8472 28.9039 25.8616 29.6228 25.1349C30.3416 24.4082 31.3167 24 32.3333 24H47.6667C48.6833 24 49.6584 24.4082 50.3772 25.1349C51.0961 25.8616 51.5 26.8472 51.5 27.8749V54.0306C51.5001 54.1988 51.4569 54.3641 51.3746 54.5104C51.2923 54.6566 51.1738 54.7786 51.0306 54.8644C50.8875 54.9503 50.7247 54.9969 50.5583 54.9999C50.3919 55.0028 50.2277 54.9619 50.0817 54.8811L40 49.3206L29.9183 54.8811C29.7723 54.9619 29.6081 55.0028 29.4417 54.9999C29.2753 54.9969 29.1125 54.9503 28.9694 54.8644C28.8262 54.7786 28.7077 54.6566 28.6254 54.5104C28.5431 54.3641 28.4999 54.1988 28.5 54.0306ZM40.3067 31.9436C40.2786 31.8855 40.235 31.8365 40.1808 31.8022C40.1266 31.768 40.0639 31.7498 40 31.7498C39.9361 31.7498 39.8734 31.768 39.8192 31.8022C39.765 31.8365 39.7214 31.8855 39.6933 31.9436L38.4782 34.4332C38.4538 34.4836 38.4177 34.5272 38.373 34.5603C38.3282 34.5933 38.2762 34.6149 38.2213 34.6231L35.4997 35.0222C35.437 35.0318 35.3782 35.0589 35.3299 35.1003C35.2817 35.1418 35.2457 35.1961 35.2262 35.257C35.2067 35.318 35.2044 35.3832 35.2195 35.4454C35.2347 35.5076 35.2666 35.5644 35.3118 35.6092L37.2783 37.5486C37.3588 37.6281 37.3953 37.7424 37.3761 37.8547L36.9142 40.5943C36.9037 40.6576 36.911 40.7225 36.9351 40.7818C36.9591 40.8412 36.9991 40.8925 37.0505 40.9302C37.1019 40.9678 37.1626 40.9902 37.2259 40.9949C37.2891 40.9996 37.3524 40.9863 37.4087 40.9566L39.8428 39.6624C39.8916 39.6366 39.9459 39.6231 40.001 39.6231C40.056 39.6231 40.1103 39.6366 40.1591 39.6624L42.5932 40.9566C42.6494 40.9858 42.7125 40.9986 42.7755 40.9937C42.8384 40.9888 42.8988 40.9663 42.9498 40.9287C43.0009 40.8911 43.0407 40.84 43.0647 40.781C43.0887 40.7219 43.096 40.6573 43.0858 40.5943L42.622 37.8528C42.6122 37.7978 42.6158 37.7411 42.6325 37.6878C42.6492 37.6345 42.6785 37.586 42.7178 37.5467L44.6882 35.6073C44.7334 35.5624 44.7653 35.5057 44.7805 35.4435C44.7956 35.3813 44.7933 35.316 44.7738 35.2551C44.7543 35.1941 44.7183 35.1399 44.6701 35.0984C44.6218 35.0569 44.563 35.0299 44.5003 35.0202L41.7787 34.6211C41.7238 34.613 41.6718 34.5914 41.627 34.5583C41.5823 34.5252 41.5462 34.4816 41.5218 34.4313L40.3067 31.9436Z" fill="url(#paint0_linear_4865_14284)"/>
<defs>
<linearGradient id="paint0_linear_4865_14284" x1="52.2318" y1="21.2747" x2="19.0951" y2="47.7131" gradientUnits="userSpaceOnUse">
<stop stop-color="#FFD700"/>
<stop offset="1" stop-color="#FDEC64"/>
</linearGradient>
</defs>
</svg>
