<svg width="25" height="30" viewBox="0 0 25 30" fill="none" xmlns="http://www.w3.org/2000/svg">
<path d="M22.6631 13.4012L12.9792 24.8411C11.0662 27.101 7.70942 27.7118 5.2773 26.0242C4.62566 25.5756 4.07536 24.9954 3.66193 24.3209C3.24849 23.6464 2.98113 22.8928 2.8771 22.1085C2.77307 21.3243 2.83469 20.527 3.05797 19.768C3.28126 19.0091 3.66125 18.3054 4.1734 17.7025L15.4866 4.33791C16.6856 2.92144 18.7912 2.4951 20.3159 3.54443C20.7262 3.82412 21.0731 4.18697 21.3342 4.60944C21.5952 5.0319 21.7644 5.50454 21.8309 5.99665C21.8974 6.48877 21.8597 6.98938 21.7202 7.46597C21.5807 7.94256 21.3425 8.38448 21.0211 8.76305L11.4104 20.1165C10.907 20.7112 10.0085 20.7859 9.41381 20.2824C8.81911 19.779 8.74442 18.8806 9.24784 18.2859L17.2567 8.82468C17.632 8.38136 17.5756 7.70252 17.1323 7.32724C16.6889 6.95197 16.0101 7.0084 15.6348 7.45172L7.75406 16.7615C6.55502 18.178 6.48221 20.3251 7.76888 21.6556C8.11248 22.0141 8.52764 22.2964 8.9874 22.484C9.44717 22.6717 9.94126 22.7606 10.4376 22.7449C10.9339 22.7293 11.4214 22.6094 11.8685 22.3931C12.3155 22.1768 12.712 21.8689 13.0323 21.4894L22.4874 10.3198C24.4004 8.05995 24.4485 4.64836 22.3825 2.52827C21.8319 1.96064 21.1686 1.51459 20.4353 1.21883C19.7019 0.923072 18.9147 0.784158 18.1244 0.811033C17.3341 0.837909 16.5582 1.02998 15.8466 1.37488C15.135 1.71977 14.5035 2.20986 13.9928 2.81358L2.762 16.0809C0.135076 19.1841 0.0534297 23.8852 2.89875 26.7949C6.18157 30.1306 11.4983 29.8796 14.4455 26.3979L24.2851 14.7742C24.6603 14.3308 24.6039 13.652 24.1606 13.2767C23.7173 12.9014 23.0384 12.9579 22.6631 13.4012Z" fill="#3D3D3D"/>
</svg>
