<svg width="18" height="24" viewBox="0 0 18 24"  xmlns="http://www.w3.org/2000/svg">
<path d="M9.58333 6.60425V0.916748H5.64583C4.98832 0.916748 4.35773 1.17795 3.8928 1.64288C3.42786 2.10781 3.16667 2.7384 3.16667 3.39591V17.6876C3.16667 18.3451 3.42786 18.9757 3.8928 19.4406C4.35773 19.9055 4.98832 20.1667 5.64583 20.1667H15.2708C15.9283 20.1667 16.5589 19.9055 17.0239 19.4406C17.4888 18.9757 17.75 18.3451 17.75 17.6876V9.08341H12.0625C11.405 9.08341 10.7744 8.82222 10.3095 8.35728C9.84453 7.89235 9.58333 7.26176 9.58333 6.60425ZM11.0417 6.60425V1.20841L17.4583 7.62508H12.0625C11.7918 7.62508 11.5321 7.51753 11.3407 7.32609C11.1492 7.13464 11.0417 6.87499 11.0417 6.60425ZM0.25 5.99175C0.249858 5.52679 0.388596 5.07238 0.648425 4.68679C0.908255 4.30121 1.27733 4.00201 1.70833 3.82758V17.6876C1.70833 18.7319 2.12318 19.7334 2.8616 20.4718C3.60002 21.2102 4.60154 21.6251 5.64583 21.6251H14.8392C14.6647 22.0561 14.3655 22.4252 13.98 22.685C13.5944 22.9448 13.14 23.0836 12.675 23.0834H5.64583C4.21477 23.0834 2.84232 22.5149 1.8304 21.503C0.818488 20.4911 0.25 19.1186 0.25 17.6876V5.99175Z" />
</svg>
