<svg width="33" height="33" viewBox="0 0 33 33" fill="none" xmlns="http://www.w3.org/2000/svg">
<rect x="5.73083" y="5.73096" width="21.5378" height="21.5381" fill="white" fill-opacity="0.01"/>
<path d="M10.5047 18.7457L9.75498 21.5445L7.01484 21.6024C6.19594 20.0835 5.73145 18.3457 5.73145 16.499C5.73145 14.7132 6.16574 13.0292 6.93554 11.5464H6.93613L9.37563 11.9936L10.4443 14.4185C10.2206 15.0706 10.0987 15.7706 10.0987 16.499C10.0988 17.2895 10.242 18.0469 10.5047 18.7457Z" fill="#FBBB00"/>
<path d="M27.0813 14.4878C27.205 15.1392 27.2695 15.812 27.2695 16.4996C27.2695 17.2706 27.1884 18.0227 27.034 18.7481C26.5098 21.2167 25.14 23.3723 23.2424 24.8977L23.2418 24.8971L20.1691 24.7403L19.7343 22.0256C20.9934 21.2871 21.9774 20.1315 22.4957 18.7481H16.7373V14.4878H22.5797H27.0813Z" fill="#518EF8"/>
<path d="M23.2412 24.8979L23.2418 24.8984C21.3964 26.3818 19.052 27.2694 16.5 27.2694C12.399 27.2694 8.83342 24.9771 7.01453 21.6038L10.5044 18.7471C11.4138 21.1742 13.7551 22.902 16.5 22.902C17.6799 22.902 18.7852 22.5831 19.7337 22.0263L23.2412 24.8979Z" fill="#28B446"/>
<path d="M23.3745 8.2102L19.8858 11.0664C18.9042 10.4528 17.7439 10.0983 16.5007 10.0983C13.6937 10.0983 11.3086 11.9054 10.4447 14.4196L6.9365 11.5474H6.93591C8.72818 8.09187 12.3387 5.73096 16.5007 5.73096C19.1136 5.73096 21.5094 6.66172 23.3745 8.2102Z" fill="#F14336"/>
</svg>
