<svg width="198" height="172" viewBox="0 0 198 172" fill="none" xmlns="http://www.w3.org/2000/svg">
<path fill-rule="evenodd" clip-rule="evenodd" d="M135.179 107.621L127.268 169.561L131.415 169.507L139.327 108.201L135.179 107.621Z" fill="#D2D2D2"/>
<path fill-rule="evenodd" clip-rule="evenodd" d="M138.541 107.621L146.452 169.561L142.305 169.507L134.393 108.201L138.541 107.621Z" fill="#D2D2D2"/>
<path fill-rule="evenodd" clip-rule="evenodd" d="M162.659 107.621L170.57 169.561L166.423 169.507L158.511 108.201L162.659 107.621Z" fill="#D2D2D2"/>
<path fill-rule="evenodd" clip-rule="evenodd" d="M109.073 117.358C105.499 117.358 102.602 114.46 102.602 110.886V110.886C102.602 107.313 105.499 104.415 109.073 104.415H132.132C137.85 104.415 142.63 100.067 143.171 94.3751L146.746 56.7052C147.286 51.0129 152.067 46.6649 157.784 46.6649H167.36C173.821 46.6649 178.914 52.1679 178.414 58.6101L174.652 107.127C174.205 112.901 169.389 117.358 163.598 117.358H109.073Z" fill="#D2D2D2"/>
<path fill-rule="evenodd" clip-rule="evenodd" d="M102.603 110.832C102.619 110.832 102.636 110.832 102.652 110.832H157.022C162.813 110.832 167.628 106.377 168.077 100.604L171.834 52.2847C171.969 50.5515 171.699 48.8862 171.106 47.3777C169.889 46.9175 168.568 46.6649 167.183 46.6649H157.685C151.968 46.6649 147.189 51.0113 146.647 56.7023L143.077 94.2139C142.535 99.9049 137.755 104.251 132.038 104.251H109.056C105.491 104.251 102.602 107.141 102.602 110.706C102.602 110.748 102.602 110.79 102.603 110.832Z" fill="#B2B0B0"/>
<path fill-rule="evenodd" clip-rule="evenodd" d="M108.064 149.632C108.064 149.632 111.507 157.794 108.685 159.958C105.858 162.122 100.359 167.473 100.359 167.473L118.174 163.654L113.776 148.679L108.064 149.632Z" fill="url(#paint0_linear_290_2385)"/>
<path fill-rule="evenodd" clip-rule="evenodd" d="M109.087 155.007C109.087 155.007 109.525 158.837 108.261 160.144C106.998 161.451 100.158 166.426 99.6222 167.37C99.0865 168.315 100.045 169.357 100.045 169.357C100.045 169.357 107.433 169.991 110.755 167.995C113.154 166.554 116.732 163.965 116.732 163.965L117.679 166.511L120.365 166.402C120.365 166.402 120.721 163.266 120.083 161.762C119.446 160.258 116.164 152.603 116.164 152.603C116.164 152.603 114.9 153.725 113.558 154.29C112.215 154.855 110.533 156.402 110.533 156.402L109.087 155.007Z" fill="#323740"/>
<path fill-rule="evenodd" clip-rule="evenodd" d="M137.866 89.1154C131.877 89.3795 98.5415 96.6587 92.4851 97.8953C86.4286 99.132 81.3083 105.824 85.9266 113.573C91.1137 122.271 104.497 146.974 107.747 152.543C109.355 155.299 117.469 153.754 115.563 149.127C112.01 140.503 110.36 118.839 101.302 110.94C101.302 110.94 131.765 116.174 144.924 110.178C154.487 105.82 152.324 88.4772 137.866 89.1154Z" fill="#42474F"/>
<path fill-rule="evenodd" clip-rule="evenodd" d="M96.0853 50.9086C96.0853 50.9086 96.153 46.0972 94.4483 43.5828C92.7436 41.0683 92.6759 38.3975 91.3857 38.4849C90.0956 38.5723 91.373 44.7804 91.373 44.7804C91.373 44.7804 89.736 44.163 88.5601 43.382C87.3841 42.601 83.8182 38.7509 82.9849 39.4332C81.5721 40.5956 83.8478 47.153 85.0872 48.464C86.3309 49.7754 93.1243 54.0877 93.1243 54.0877L109.764 70.8858L112.888 62.3522L96.0853 50.9086Z" fill="#FFE0D1"/>
<path fill-rule="evenodd" clip-rule="evenodd" d="M132.892 49.3216C130.106 55.7015 125.004 67.4215 122.901 70.9182C120.266 75.2971 116.11 77.2264 111.244 73.9774C109.952 73.1149 106.016 69.8194 106.016 69.8194L110.779 59.4718C110.779 59.4718 113.868 61.9888 113.868 61.9888C113.868 61.9888 119.096 48.7558 123.303 41.0902C126.945 34.4581 137.133 39.6226 132.892 49.3216Z" fill="#FFB66F"/>
<path fill-rule="evenodd" clip-rule="evenodd" d="M113.814 61.9956C113.814 61.9956 112.409 66.6983 112.081 66.426C111.753 66.1538 112.332 60.7666 112.332 60.7666L113.814 61.9956Z" fill="black" fill-opacity="0.159856"/>
<path fill-rule="evenodd" clip-rule="evenodd" d="M111.962 60.0445L107.979 73.2127L103.749 69.935L109.637 58.2611L111.962 60.0445Z" fill="#FFEDC2"/>
<path fill-rule="evenodd" clip-rule="evenodd" d="M137.985 4.81002C137.985 4.81002 140.084 1.39241 143.4 1.64099C146.716 1.88957 150.728 6.88077 150.505 12.4216C150.288 17.9618 151.52 18.8304 153.892 22.0288C160.265 30.6341 150.361 40.7484 150.361 40.7484L137.231 40.7824L136.788 16.618L137.985 4.81002Z" fill="#42474F"/>
<path fill-rule="evenodd" clip-rule="evenodd" d="M143.189 6.79485C152.121 12.8175 146.977 19.8428 146.078 21.4916C144.328 33.4776 147.876 34.0847 153.225 36.7497L151.354 40.0482L143.682 38.6365L137.282 7.41356L143.189 6.79485Z" fill="black" fill-opacity="0.199355"/>
<path fill-rule="evenodd" clip-rule="evenodd" d="M147.376 35.9537C147.376 35.9537 142.814 35.0483 142.678 28.7294C142.543 22.4105 143.294 20.2535 143.294 20.2535L134.69 20.1002C134.69 20.1002 134.597 27.1426 134.595 29.6898C134.592 35.8833 129.763 36.6017 129.763 36.6017C129.763 36.6017 130.767 41.5011 138.563 41.9339C144.65 42.2723 147.376 35.9537 147.376 35.9537Z" fill="#F9C7B0"/>
<path fill-rule="evenodd" clip-rule="evenodd" d="M142.998 6.57228C143.319 2.92504 137.24 2.05247 136.107 4.87158C136.107 4.87158 135.792 7.38231 137.769 8.35719C140.443 9.67045 142.998 6.57228 142.998 6.57228Z" fill="#FB9934"/>
<path fill-rule="evenodd" clip-rule="evenodd" d="M143.788 15.963C147.512 15.0216 148.053 20.5779 144.151 21.3995C144.151 21.3995 143.524 29.5892 135.659 31.2609C129.272 32.6185 126.947 23.7228 126.508 21.9429C126.04 20.0452 124.698 13.769 124.698 13.769L142.661 9.9422L143.788 15.963Z" fill="#FFE0D1"/>
<path fill-rule="evenodd" clip-rule="evenodd" d="M142.529 19.7279C141.853 19.6913 140.935 16.2242 140.935 16.2242C138.943 16.2558 138.515 15.901 136.572 13.8669C130.44 16.5825 126.169 17.9216 126.592 22.6824C126.592 22.6824 119.493 12.9909 127.131 7.38657C133.849 2.46185 142.357 3.93875 144.966 9.49057C146.812 13.4087 146.345 16.6737 146.345 16.6737C146.345 16.6737 145.047 15.3502 143.53 16.072C142.014 16.7938 143.205 19.7646 142.529 19.7279Z" fill="#42474F"/>
<path d="M136.075 25.7604C136.075 25.7604 134.535 27.7245 132.053 26.7193" stroke="#F77B7B" stroke-width="1.5" stroke-linecap="round"/>
<path d="M135.224 27.8366C134.698 28.226 134.141 28.3646 133.583 28.2064" stroke="#F49494" stroke-linecap="round"/>
<path d="M144.025 18.9626C143.802 18.1004 143.924 17.352 144.793 17.022" stroke="#F77B7B" stroke-linecap="round"/>
<path fill-rule="evenodd" clip-rule="evenodd" d="M131.562 35.7575C131.457 35.7525 127.778 37.3464 127.354 37.9608C124.594 41.9639 119.526 56.0532 119.265 59.1096C118.971 62.6353 124.112 68.2515 124.175 73.3554C124.231 78.4599 121.976 93.8292 122.851 95.2649C123.719 96.7006 129.423 103.52 130.613 103.548C131.81 103.576 132.703 99.9954 134.516 100.073C136.321 100.151 140.087 104.898 141.71 104.864C143.327 104.829 160.082 94.3367 158.801 91.3471C157.514 88.3575 151.537 80.9281 152.145 76.8546C152.747 72.7818 157.556 57.747 159.291 52.6299C161.02 47.5128 162.413 43.4366 159.186 41.2347C155.96 39.0328 145.462 35.0052 145.462 35.0052L136.062 40.203C136.062 40.203 132.108 35.7835 131.562 35.7575Z" fill="#FF9F43"/>
<path fill-rule="evenodd" clip-rule="evenodd" d="M134.904 40.0585C132.085 49.326 128.216 58.4576 126.666 67.1477L131.174 64.7471L135.331 67.8611C135.037 58.8264 136.572 49.34 137.277 40.0585H134.904Z" fill="#FFF6E1"/>
<path fill-rule="evenodd" clip-rule="evenodd" d="M151.37 47.1745L151.477 47.9239C152.74 57.2305 151.246 68.5236 148.655 70.2466C146.011 72.0054 135.721 70.2794 135.721 71.6723C135.721 73.0651 149.942 85.8299 147.607 91.9321C146.324 95.2872 146.753 98.271 148.897 100.884L149.519 100.47C154.376 97.2133 159.533 93.0553 158.801 91.3471C157.514 88.3575 151.537 80.9281 152.145 76.8546C152.723 72.9447 157.178 58.9322 159.069 53.2902L159.671 51.5014C160.371 49.404 160.954 47.5041 161.095 45.8648L160.66 45.5862C153.714 41.1847 150.618 41.7142 151.37 47.1745V47.1745Z" fill="black" fill-opacity="0.159856"/>
<path fill-rule="evenodd" clip-rule="evenodd" d="M147.197 35.6615L145.462 35.0052L135.856 39.934C135.856 39.934 137.662 44.4775 140.861 42.215C143.602 40.2802 142.446 38.5777 144.595 37.6994C146.736 36.8212 147.197 35.6615 147.197 35.6615Z" fill="#FFF6E1"/>
<path fill-rule="evenodd" clip-rule="evenodd" d="M135.856 39.934C135.16 41.4629 133.744 42.3562 133.012 42.0785C131.804 41.6198 132.323 39.7922 131.847 38.8689C131.506 38.2139 131.286 38.115 130.987 37.5C130.71 36.9358 130.699 36.2587 130.77 36.0719L131.715 35.6473C131.715 35.6473 133.013 36.858 133.617 37.5C134.37 38.3001 135.856 39.934 135.856 39.934Z" fill="#FFF6E1"/>
<path fill-rule="evenodd" clip-rule="evenodd" d="M146.431 64.4807C146.431 64.4807 140.776 59.5391 139.045 58.9657C137.313 58.3922 127.174 57.7033 127.238 58.9991C127.311 60.3874 132.757 60.3075 133.321 60.9905C133.885 61.6732 134.014 66.3411 136.147 66.8652C138.275 67.3894 144.657 68.2928 144.657 68.2928L159.923 77.3824L160.575 69.0773L146.431 64.4807Z" fill="#FFE0D1"/>
<path fill-rule="evenodd" clip-rule="evenodd" d="M161.476 43.5579C167.434 51.8598 172.521 64.5056 174.474 69.4359C176.427 74.3661 174.457 81.8025 165.871 80.3426C164.421 80.0962 161.169 79.1075 161.169 79.1075L159.117 67.6889L161.764 68.786C161.764 68.786 153.23 53.8523 151.146 49.849C147.665 43.1632 156.228 36.2431 161.476 43.5579Z" fill="#FFB66F"/>
<path fill-rule="evenodd" clip-rule="evenodd" d="M161.763 68.786C161.763 68.786 166.098 70.8762 165.553 69.9568C165.008 69.0373 160.128 65.8818 160.128 65.8818L161.763 68.786Z" fill="black" fill-opacity="0.159856"/>
<path fill-rule="evenodd" clip-rule="evenodd" d="M161.35 68.2584L162.768 80.6056L157.162 78.8466L158.008 66.7462L161.35 68.2584Z" fill="#FFEDC2"/>
<path fill-rule="evenodd" clip-rule="evenodd" d="M87.2606 149.908C87.2606 149.908 87.3644 157.989 80.6194 161.011C73.8787 164.032 69.0762 163.85 69.6874 166.186C70.2987 168.521 87.8441 168.427 89.4826 166.6C90.8791 165.046 93.916 150.576 94.7522 151.683L87.2606 149.908Z" fill="url(#paint1_linear_290_2385)"/>
<path fill-rule="evenodd" clip-rule="evenodd" d="M93.5518 156.278C93.5518 156.278 92.1342 159.71 92.0095 161.79C91.8841 163.871 88.6572 169.785 88.6572 169.785L86.1081 170.101L85.8751 167.956C85.8751 167.956 82.1853 169.509 79.8704 169.757C77.5561 170.005 69.6169 169.073 68.0383 167.778C66.4591 166.483 67.2569 164.659 71.814 163.548C76.3706 162.436 83.4505 159.189 84.7977 156.838C86.145 154.487 86.1532 154.548 86.1532 154.548L86.1262 158.466C86.1262 158.466 87.2924 156.403 88.669 156.128C90.0455 155.853 93.5518 156.278 93.5518 156.278Z" fill="#323740"/>
<path fill-rule="evenodd" clip-rule="evenodd" d="M155.976 86.6172C155.976 86.6172 167.309 103.476 153.76 111.007C142.188 117.437 106.499 109.905 106.499 109.905C106.499 109.905 107.132 114.937 106.499 119.425C104.845 131.146 96.9822 150.674 95.3185 153.128C93.0178 156.521 86.0095 153.962 85.8775 151.137C85.7455 148.311 91.1607 112.226 91.9842 105.344C92.8034 98.4628 95.3899 97.4633 102.944 95.5821C104.68 95.1499 125.203 90.1144 127.083 90.2612C143.238 91.5223 155.976 86.6172 155.976 86.6172Z" fill="#42474F"/>
<path opacity="0.439941" fill-rule="evenodd" clip-rule="evenodd" d="M147.744 109.133C136.028 110.429 105.01 107.757 103.764 108.971C102.575 110.13 102.773 130.296 100.105 141.967C102.733 134.895 105.578 125.95 106.499 119.425C107.132 114.937 106.499 109.905 106.499 109.905L107.711 110.144C114.034 111.356 143.35 116.563 153.76 111.007C159.865 107.748 162.228 102.702 160.847 95.8688C159.182 103.929 154.814 108.351 147.744 109.133Z" fill="white" fill-opacity="0.192499"/>
<ellipse rx="1.96789" ry="3.56656" transform="matrix(-0.97437 0.224951 0.224951 0.97437 86.9879 106.268)" fill="white" fill-opacity="0.192499"/>
<ellipse rx="2.62301" ry="3.89206" transform="matrix(-0.961262 -0.275637 -0.275637 0.961262 96.1773 104)" fill="white" fill-opacity="0.192499"/>
<path d="M67.4623 42.0644C66.6315 40.5235 67.6276 38.6319 69.3683 38.4451L85.8528 36.6762C86.8298 36.5713 87.7757 37.057 88.2598 37.912L99.167 57.1738C100.007 58.6581 99.1219 60.5268 97.4409 60.8162L81.0061 63.6456C79.9629 63.8251 78.9216 63.3184 78.4192 62.3866L67.4623 42.0644Z" fill="#7596FF"/>
<path fill-rule="evenodd" clip-rule="evenodd" d="M68.2337 41.9177C67.4391 40.4234 68.353 38.5913 70.0246 38.3272L86.0928 35.7879C87.1312 35.6238 88.1594 36.1367 88.653 37.0649L99.1279 56.7653C99.9224 58.2596 99.0086 60.0917 97.3369 60.3559L81.2687 62.8952C80.2303 63.0593 79.2021 62.5464 78.7085 61.6181L68.2337 41.9177Z" fill="url(#paint2_linear_290_2385)"/>
<path d="M68.3386 39.9619L87.3519 36.7221L99.0284 58.6825L80.1063 61.5632L68.3386 39.9619Z" fill="white"/>
<path d="M73.3655 37.5437C73.0755 37.0512 73.3806 36.4223 73.9469 36.3452L80.5629 35.4441C81.2018 35.3571 81.8305 35.6621 82.1576 36.2177L83.0742 37.7746C83.3642 38.2671 83.0591 38.896 82.4928 38.9732L75.8768 39.8742C75.2379 39.9612 74.6092 39.6563 74.2821 39.1006L73.3655 37.5437Z" fill="#7367F0"/>
<path fill-rule="evenodd" clip-rule="evenodd" d="M83.1731 43.1392C83.4263 43.0045 83.7405 43.1002 83.8749 43.3529C83.9996 43.5875 83.9254 43.875 83.7114 44.0227L83.6596 44.0542L75.1977 45.4797C74.9445 45.6143 74.6303 45.5187 74.4959 45.266C74.3712 45.0314 74.4454 44.7439 74.6594 44.5962L74.7112 44.5647L83.1731 43.1392Z" fill="#A7C3FF"/>
<path fill-rule="evenodd" clip-rule="evenodd" d="M85.6057 47.7142C85.8589 47.5796 86.1731 47.6753 86.3075 47.928C86.4322 48.1626 86.358 48.4501 86.1441 48.5977L86.0922 48.6293L77.6303 50.0548C77.3771 50.1894 77.0629 50.0937 76.9286 49.8411C76.8038 49.6064 76.878 49.3189 77.092 49.1713L77.1438 49.1397L85.6057 47.7142Z" fill="#A7C3FF"/>
<path fill-rule="evenodd" clip-rule="evenodd" d="M88.0383 52.2893C88.2915 52.1547 88.6057 52.2503 88.7401 52.503C88.8648 52.7376 88.7907 53.0251 88.5767 53.1728L88.5248 53.2043L80.063 54.6298C79.8097 54.7645 79.4955 54.6688 79.3612 54.4161C79.2364 54.1815 79.3106 53.894 79.5246 53.7463L79.5764 53.7148L88.0383 52.2893Z" fill="#A7C3FF"/>
<path fill-rule="evenodd" clip-rule="evenodd" d="M66.6123 89.8619H79.7142V171.239H66.6123V89.8619Z" fill="#D2D2D2"/>
<path fill-rule="evenodd" clip-rule="evenodd" d="M66.6123 86.6649H74.4734V171.239H66.6123V86.6649Z" fill="#EBEBEB"/>
<path fill-rule="evenodd" clip-rule="evenodd" d="M7.00415 89.8619H71.8583V114.269H20.106V171.239H7.00415V89.8619Z" fill="#D2D2D2"/>
<path fill-rule="evenodd" clip-rule="evenodd" d="M7.00415 89.8619H14.8653V171.239H7.00415V89.8619Z" fill="#EBEBEB"/>
<path fill-rule="evenodd" clip-rule="evenodd" d="M169.19 89.8619H182.292V171.239H169.19V89.8619Z" fill="#C5C5C5"/>
<path fill-rule="evenodd" clip-rule="evenodd" d="M109.582 89.8619H174.436V120.075H122.683V171.239H109.582V89.8619Z" fill="#D2D2D2"/>
<path fill-rule="evenodd" clip-rule="evenodd" d="M17.4805 86.6649L117.367 86.6649V120.015H17.4805V86.6649Z" fill="#EBEBEB"/>
<path fill-rule="evenodd" clip-rule="evenodd" d="M107.616 89.8619H115.477V120.015H107.616V89.8619Z" fill="#C3C3C3"/>
<path fill-rule="evenodd" clip-rule="evenodd" d="M109.582 89.8619H117.443V171.239H109.582V89.8619Z" fill="#EBEBEB"/>
<path fill-rule="evenodd" clip-rule="evenodd" d="M112.233 91.4604C112.233 88.8119 114.38 86.6649 117.028 86.6649L184.707 86.6649C187.356 86.6649 189.503 88.8119 189.503 91.4604V91.4604C189.503 94.1089 187.356 96.256 184.707 96.256H117.028C114.38 96.256 112.233 94.1089 112.233 91.4604V91.4604Z" fill="#C5C5C5"/>
<path fill-rule="evenodd" clip-rule="evenodd" d="M9.69531 88.5831H109.581V98.1742H9.69531V88.5831Z" fill="#D2D2D2"/>
<path fill-rule="evenodd" clip-rule="evenodd" d="M0 91.4604C0 88.8119 2.14703 86.6649 4.79552 86.6649H119.198C121.846 86.6649 123.994 88.8119 123.994 91.4604V91.4604C123.994 94.1089 121.846 96.256 119.198 96.256H4.79553C2.14704 96.256 0 94.1089 0 91.4604V91.4604Z" fill="#EBEBEB"/>
<path fill-rule="evenodd" clip-rule="evenodd" d="M135.185 76.8573H138.457C139.089 76.8573 139.602 77.347 139.602 77.951V79.4492C139.602 80.8807 138.388 82.0411 136.89 82.0411H135.185C134.914 82.0411 134.695 81.8312 134.695 81.5724C134.695 81.3135 134.914 81.1036 135.185 81.1036H136.89C137.846 81.1036 138.621 80.3629 138.621 79.4492V77.951C138.621 77.8648 138.548 77.7948 138.457 77.7948H135.185C134.914 77.7948 134.695 77.5849 134.695 77.326C134.695 77.0672 134.914 76.8573 135.185 76.8573Z" fill="#8C81FF"/>
<path fill-rule="evenodd" clip-rule="evenodd" d="M124.32 75.6649C123.597 75.6649 123.012 76.2246 123.012 76.9149V80.0399C123.012 82.2899 124.789 84.1431 127.074 84.3876L127.075 85.0399H132.799L132.799 84.3733C135.027 84.0785 136.743 82.2507 136.743 80.0399V76.9149C136.743 76.2246 136.157 75.6649 135.435 75.6649H124.32Z" fill="#7367F0"/>
<path fill-rule="evenodd" clip-rule="evenodd" d="M136.986 84.7373C136.986 84.5592 136.842 84.4149 136.664 84.4149H123.578C123.4 84.4149 123.255 84.5593 123.255 84.7373V84.7373C123.255 84.9075 123.388 85.0483 123.557 85.0591L128.385 85.3659H131.818L136.684 85.059C136.854 85.0483 136.986 84.9074 136.986 84.7373V84.7373Z" fill="#8C81FF"/>
<path fill-rule="evenodd" clip-rule="evenodd" d="M47.9856 84.4973C47.9856 84.0046 48.385 83.6051 48.8778 83.6051H111.676C112.169 83.6051 112.568 84.0046 112.568 84.4973V84.4973C112.568 84.99 112.169 85.3895 111.676 85.3895H48.8778C48.385 85.3895 47.9856 84.99 47.9856 84.4973V84.4973Z" fill="#8C81FF"/>
<path fill-rule="evenodd" clip-rule="evenodd" d="M90.5288 84.4973C90.5288 84.0046 90.9283 83.6051 91.421 83.6051H111.676C112.169 83.6051 112.568 84.0046 112.568 84.4973V84.4973C112.568 84.99 112.169 85.3895 111.676 85.3895H91.421C90.9283 85.3895 90.5288 84.99 90.5288 84.4973V84.4973Z" fill="#7367F0"/>
<path fill-rule="evenodd" clip-rule="evenodd" d="M45.1246 60.7249C44.8472 58.5719 46.5243 56.6649 48.6951 56.6649H85.2938C87.1041 56.6649 88.6329 58.0094 88.8642 59.8049L91.4174 79.6221C91.6948 81.7751 90.0178 83.6821 87.8469 83.6821H51.2483C49.4379 83.6821 47.9092 82.3377 47.6778 80.5421L45.1246 60.7249Z" fill="#7367F0"/>
<path fill-rule="evenodd" clip-rule="evenodd" d="M45.1246 60.7249C44.8472 58.5719 46.5243 56.6649 48.6951 56.6649H83.9014C85.7118 56.6649 87.2406 58.0094 87.4719 59.8049L90.0251 79.6221C90.3025 81.7751 88.6255 83.6821 86.4546 83.6821H51.2483C49.4379 83.6821 47.9092 82.3377 47.6778 80.5421L45.1246 60.7249Z" fill="url(#paint3_linear_290_2385)"/>
<ellipse rx="2.76483" ry="3.0121" transform="matrix(0.798636 -0.601814 0.601816 0.798635 66.8597 70.6035)" fill="white"/>
<path fill-rule="evenodd" clip-rule="evenodd" d="M182.589 138.821C186.568 129.978 190.183 120.895 193.492 111.613C185.869 118.671 179.942 127.27 180.786 138.821H182.589Z" fill="#57E295"/>
<path fill-rule="evenodd" clip-rule="evenodd" d="M180.468 139.744C179.526 124.666 179.925 110.662 187.818 102.665C186.73 119.221 184.693 130.884 182.114 139.744H180.468Z" fill="#28C76F"/>
<path fill-rule="evenodd" clip-rule="evenodd" d="M180.106 138.174C175.696 127.637 171.265 124.617 167.602 113.8C179.59 119.907 180.341 124.95 182.694 138.174H180.106Z" fill="#57E295"/>
<path fill-rule="evenodd" clip-rule="evenodd" d="M177.732 138.174L169.821 127.637C173.642 128.707 180.028 130.44 180.028 138.174H177.732Z" fill="#28C76F"/>
<path fill-rule="evenodd" clip-rule="evenodd" d="M185.132 138.174H187.771C189.448 134.734 191.811 132.365 197.529 135.236C193.781 129.628 186.091 127.931 185.132 138.174Z" fill="#57E295"/>
<path fill-rule="evenodd" clip-rule="evenodd" d="M182.704 138.174H184.899C188.926 132.515 190.658 130.049 194.826 125.217C189.335 127.264 183.699 130.049 182.704 138.174Z" fill="#28C76F"/>
<path fill-rule="evenodd" clip-rule="evenodd" d="M177.332 136.934H188.246C188.662 136.934 188.999 137.265 188.999 137.673V139.705C191.758 143.123 193.138 146.541 193.138 149.959C193.138 153.272 191.96 156.585 189.603 159.898C189.463 160.096 189.232 160.213 188.986 160.213H176.592C176.346 160.213 176.116 160.096 175.975 159.898C173.619 156.585 172.44 153.272 172.44 149.959C172.44 146.606 173.768 143.252 176.425 139.899L176.58 139.705V137.673C176.58 137.265 176.917 136.934 177.332 136.934Z" fill="#7367F0"/>
<mask id="mask0_290_2385" style="mask-type:alpha" maskUnits="userSpaceOnUse" x="172" y="136" width="22" height="25">
<path fill-rule="evenodd" clip-rule="evenodd" d="M177.332 136.934H188.246C188.662 136.934 188.999 137.265 188.999 137.673V139.705C191.758 143.123 193.138 146.541 193.138 149.959C193.138 153.272 191.96 156.585 189.603 159.898C189.463 160.096 189.232 160.213 188.986 160.213H176.592C176.346 160.213 176.116 160.096 175.975 159.898C173.619 156.585 172.44 153.272 172.44 149.959C172.44 146.606 173.768 143.252 176.425 139.899L176.58 139.705V137.673C176.58 137.265 176.917 136.934 177.332 136.934Z" fill="white"/>
</mask>
<g mask="url(#mask0_290_2385)">
<path fill-rule="evenodd" clip-rule="evenodd" d="M169.806 136.294H179.591C174.906 147.001 184.146 153.341 179.591 164.008H169.806V136.294Z" fill="#857AF9"/>
</g>
<defs>
<linearGradient id="paint0_linear_290_2385" x1="121.256" y1="144.104" x2="119.733" y2="166.503" gradientUnits="userSpaceOnUse">
<stop stop-color="#FDC6C6"/>
<stop offset="1" stop-color="#FAB2B2"/>
</linearGradient>
<linearGradient id="paint1_linear_290_2385" x1="99.0985" y1="145.514" x2="98.0997" y2="167.078" gradientUnits="userSpaceOnUse">
<stop stop-color="#FDC6C6"/>
<stop offset="1" stop-color="#FAB2B2"/>
</linearGradient>
<linearGradient id="paint2_linear_290_2385" x1="56.5899" y1="23.4293" x2="81.4061" y2="70.1019" gradientUnits="userSpaceOnUse">
<stop stop-color="#7367F0"/>
<stop offset="1" stop-color="#8CA5FF"/>
</linearGradient>
<linearGradient id="paint3_linear_290_2385" x1="40.9791" y1="42.3169" x2="40.9791" y2="83.6821" gradientUnits="userSpaceOnUse">
<stop stop-color="#7367F0"/>
<stop offset="1" stop-color="#8CA5FF"/>
</linearGradient>
</defs>
</svg>
