<svg width="910" height="738" viewBox="0 0 910 738" fill="none" xmlns="http://www.w3.org/2000/svg">
<path d="M909.127 368.432C913.742 308.748 899.458 246.406 880.353 190.86C851.991 108.33 796.789 23.7193 703.943 4.18407C650.391 -7.07565 595.885 4.98655 549.991 33.1985C505.85 60.3573 471.403 95.4154 417.129 102.211C362.236 109.082 305.9 106.299 250.697 106.299C108.889 106.299 -6.33706 251.296 22.4372 402.211C51.2114 553.127 186.961 658 302.109 658C405.604 658 490.715 597.614 589.001 581.414C637.757 573.364 686.694 582.893 734.935 570.831C790.988 556.838 843.715 523.41 874.758 475.036C895.978 442.16 906.291 405.848 909.127 368.432Z" fill="#7BCAFF"/>
<path d="M394.189 185.453H259.925V370.63H394.189V185.453Z" stroke="#263238" stroke-miterlimit="10"/>
<path d="M377.689 208.222H276.447V347.861H377.689V208.222Z" stroke="#263238" stroke-miterlimit="10"/>
<path d="M421.421 661.567H343.568L287.295 691.804H372.219L421.421 661.567Z" fill="white" stroke="#263238" stroke-linecap="round" stroke-linejoin="round"/>
<path d="M342.744 668.899H401.603" stroke="#263238" stroke-linecap="round" stroke-linejoin="round"/>
<path d="M333.728 673.59H392.564" stroke="#263238" stroke-linecap="round" stroke-linejoin="round"/>
<path d="M324.688 678.303H383.547" stroke="#263238" stroke-linecap="round" stroke-linejoin="round"/>
<path d="M315.649 682.993H374.508" stroke="#263238" stroke-linecap="round" stroke-linejoin="round"/>
<path d="M287.295 691.805V696.996H373.982L372.219 691.805H287.295Z" fill="white" stroke="#263238" stroke-linecap="round" stroke-linejoin="round"/>
<path d="M373.982 696.995L423.687 666.03L421.421 661.567L372.22 691.804L373.982 696.995Z" fill="white" stroke="#263238" stroke-linecap="round" stroke-linejoin="round"/>
<path d="M288.714 690.165C288.575 689.653 288.506 689.124 288.508 688.594C288.508 687 289.144 685.471 290.277 684.344C291.41 683.216 292.947 682.583 294.549 682.583C295.341 682.578 296.125 682.73 296.856 683.031C297.587 683.332 298.25 683.776 298.806 684.336" stroke="#263238" stroke-linecap="round" stroke-linejoin="round"/>
<path d="M296.609 686.567C296.47 686.047 296.401 685.512 296.403 684.974C296.405 683.785 296.761 682.623 297.426 681.635C298.091 680.647 299.036 679.878 300.141 679.425C301.246 678.971 302.461 678.854 303.633 679.088C304.805 679.322 305.88 679.896 306.724 680.739" stroke="#263238" stroke-linecap="round" stroke-linejoin="round"/>
<path d="M303.886 682.856C303.748 682.344 303.678 681.816 303.68 681.285C303.682 680.099 304.036 678.94 304.699 677.953C305.361 676.967 306.302 676.198 307.404 675.742C308.505 675.287 309.716 675.166 310.886 675.395C312.056 675.624 313.132 676.192 313.978 677.027" stroke="#263238" stroke-linecap="round" stroke-linejoin="round"/>
<path d="M310.866 679.167C310.52 677.891 310.607 676.536 311.113 675.313C311.619 674.09 312.516 673.067 313.666 672.403C314.816 671.739 316.153 671.471 317.472 671.64C318.79 671.809 320.015 672.406 320.958 673.339" stroke="#263238" stroke-linecap="round" stroke-linejoin="round"/>
<path d="M318.67 674.705C318.531 674.185 318.462 673.649 318.464 673.111C318.459 671.922 318.81 670.758 319.473 669.768C320.135 668.778 321.079 668.007 322.183 667.553C323.288 667.098 324.504 666.982 325.675 667.217C326.847 667.453 327.921 668.031 328.762 668.876" stroke="#263238" stroke-linecap="round" stroke-linejoin="round"/>
<path d="M326.817 670.083C326.672 669.564 326.595 669.028 326.588 668.489C326.588 666.895 327.224 665.366 328.357 664.239C329.49 663.112 331.027 662.479 332.629 662.479C334.232 662.482 335.769 663.112 336.909 664.232" stroke="#263238" stroke-linecap="round" stroke-linejoin="round"/>
<path d="M331.302 667.396C331.163 666.884 331.094 666.356 331.096 665.825C331.096 664.231 331.733 662.702 332.866 661.575C333.999 660.448 335.535 659.814 337.138 659.814C338.74 659.818 340.277 660.448 341.417 661.568" stroke="#263238" stroke-linecap="round" stroke-linejoin="round"/>
<path d="M431.834 679.646C431.834 679.646 437.761 692.624 427.943 696.358L486.299 733.63C486.299 733.63 491.997 736.886 499.206 730.419C506.415 723.953 500.419 709.791 497.169 707.992C493.92 706.194 431.834 679.646 431.834 679.646Z" fill="white" stroke="#263238" stroke-linecap="round" stroke-linejoin="round"/>
<path d="M504.996 650.069L429.477 678.917L489.892 711.499C493.056 713.669 495.691 716.516 497.604 719.832C497.95 720.673 498.226 721.542 498.428 722.428C498.784 724.08 498.648 725.8 498.036 727.376C497.424 728.952 496.362 730.316 494.982 731.3C493.601 732.284 491.962 732.846 490.265 732.916C488.568 732.986 486.887 732.562 485.43 731.695L427.944 696.358C427.944 696.358 422.611 696.358 428.722 700.912C433.779 704.714 472.752 728.234 485.178 735.656C486.43 736.396 487.834 736.844 489.284 736.966C490.735 737.088 492.195 736.882 493.554 736.362L575.938 703.188C577.151 702.402 578.184 701.372 578.973 700.164C579.761 698.956 580.286 697.598 580.515 696.176C580.995 693.342 580.518 690.429 579.161 687.892C577.803 685.355 575.64 683.336 573.009 682.15L504.996 650.069Z" fill="#94472C" stroke="#263238" stroke-linecap="round" stroke-linejoin="round"/>
<path d="M200.333 358.176H58.8839V656.262H200.333V358.176Z" fill="white" stroke="#263238" stroke-linecap="round" stroke-linejoin="round"/>
<path d="M208.068 358.176H129.597V656.262H208.068V358.176Z" fill="white" stroke="#263238" stroke-linecap="round" stroke-linejoin="round"/>
<path d="M199.235 358.176H129.597V656.262H199.235V358.176Z" fill="#263238" stroke="#263238" stroke-linecap="round" stroke-linejoin="round"/>
<path d="M191.408 586.977H129.597V648.019H191.408V586.977Z" fill="#232323" stroke="#263238" stroke-linecap="round" stroke-linejoin="round"/>
<path d="M191.408 590.279H129.597V598.112H191.408V590.279Z" fill="white" stroke="#263238" stroke-linecap="round" stroke-linejoin="round"/>
<path d="M191.408 635.201H129.597V643.034H191.408V635.201Z" fill="white" stroke="#263238" stroke-linecap="round" stroke-linejoin="round"/>
<path d="M141.337 588.229V665.415" stroke="#263238" stroke-linecap="round" stroke-linejoin="round"/>
<path d="M162.894 588.229V665.415" stroke="#263238" stroke-linecap="round" stroke-linejoin="round"/>
<path d="M181.819 588.229V665.415" stroke="#263238" stroke-linecap="round" stroke-linejoin="round"/>
<path d="M191.408 369.264H129.597V459.017H191.408V369.264Z" fill="#AA4724" stroke="#263238" stroke-linecap="round" stroke-linejoin="round"/>
<path d="M191.408 373.021H129.597V381.923H191.408V373.021Z" fill="white" stroke="#263238" stroke-linecap="round" stroke-linejoin="round"/>
<path d="M191.408 430.557H129.597V439.459H191.408V430.557Z" fill="white" stroke="#263238" stroke-linecap="round" stroke-linejoin="round"/>
<path d="M141.337 370.698V458.403" stroke="#263238" stroke-linecap="round" stroke-linejoin="round"/>
<path d="M162.894 370.698V458.403" stroke="#263238" stroke-linecap="round" stroke-linejoin="round"/>
<path d="M181.819 370.698V458.403" stroke="#263238" stroke-linecap="round" stroke-linejoin="round"/>
<path d="M191.408 477.438H129.597V567.191H191.408V477.438Z" fill="#AA4724" stroke="#263238" stroke-linecap="round" stroke-linejoin="round"/>
<path d="M191.408 481.194H129.597V490.097H191.408V481.194Z" fill="white" stroke="#263238" stroke-linecap="round" stroke-linejoin="round"/>
<path d="M191.408 538.73H129.597V547.633H191.408V538.73Z" fill="white" stroke="#263238" stroke-linecap="round" stroke-linejoin="round"/>
<path d="M141.337 478.872V566.577" stroke="#263238" stroke-linecap="round" stroke-linejoin="round"/>
<path d="M162.894 478.872V566.577" stroke="#263238" stroke-linecap="round" stroke-linejoin="round"/>
<path d="M181.819 478.872V566.577" stroke="#263238" stroke-linecap="round" stroke-linejoin="round"/>
<path d="M200.31 457.766H129.597V467.966H200.31V457.766Z" fill="white" stroke="#263238" stroke-linecap="round" stroke-linejoin="round"/>
<path d="M200.31 566.622H129.597V576.822H200.31V566.622Z" fill="white" stroke="#263238" stroke-linecap="round" stroke-linejoin="round"/>
<path d="M200.333 358.176V656.262" stroke="#263238" stroke-linecap="round" stroke-linejoin="round"/>
<path d="M119.642 358.175V656.262H129.597V369.264H199.098V358.062L119.642 358.175Z" fill="white" stroke="#263238" stroke-linecap="round" stroke-linejoin="round"/>
<path d="M129.597 369.264V358.176" stroke="#263238" stroke-linecap="round" stroke-linejoin="round"/>
<path d="M293.497 533.06H419.819C419.819 533.06 427.074 534.267 424.648 548.68C422.222 563.092 409.155 654.872 409.155 654.872H253.082L276.86 538.092C276.86 538.092 277.798 531.967 293.497 533.06Z" fill="white" stroke="#263238" stroke-linecap="round" stroke-linejoin="round"/>
<path d="M424.648 548.771C422.245 563.161 409.155 654.964 409.155 654.964H395.905C399.132 633.22 411.123 552.687 413.206 543.398C415.288 534.108 418.675 533.266 419.591 533.197H419.819C419.819 533.197 427.074 534.358 424.648 548.771Z" fill="#263238" stroke="#263238" stroke-linecap="round" stroke-linejoin="round"/>
<path d="M271.001 524.363C271.001 524.363 264.136 523.748 260.291 523.748C256.446 523.748 253.998 526.253 248.849 526.253C239.815 526.367 230.783 525.949 221.799 525C212.348 523.748 201.02 528.757 199.143 538.138C197.267 547.518 192.599 660.564 192.599 660.564H362.15C362.15 660.564 358.626 550.911 356.109 539.026C353.591 527.141 347.298 525.251 338.488 524.613C329.677 523.976 323.132 526.253 305.511 526.253C287.89 526.253 271.001 524.363 271.001 524.363Z" fill="#232323" stroke="#263238" stroke-linecap="round" stroke-linejoin="round"/>
<path d="M257.408 537.227C257.408 537.227 262.602 562.044 277.157 568.237" stroke="#263238" stroke-linecap="round" stroke-linejoin="round"/>
<path d="M243.906 533.061C243.906 533.061 236.629 548.589 247.018 571.335" stroke="#263238" stroke-linecap="round" stroke-linejoin="round"/>
<path d="M330.112 565.143C330.112 565.143 313.475 607.538 277.111 627.164" stroke="#263238" stroke-linecap="round" stroke-linejoin="round"/>
<path d="M261.458 509.972C261.458 509.972 262.717 527.504 264.616 537.522C266.516 547.541 277.203 553.802 289.149 550.045C301.094 546.288 306.129 538.137 306.77 532.513C307.41 526.89 307.388 505.578 307.388 505.578C307.388 505.578 288.599 518.101 261.458 509.972Z" fill="white" stroke="#263238" stroke-linecap="round" stroke-linejoin="round"/>
<path d="M326.13 410.247C326.13 410.247 327.824 407.97 323.27 401.14C318.716 394.309 307.891 389.755 307.891 389.755L314.757 398.863C314.757 398.863 295.373 388.64 287.41 388.64C279.446 388.64 259.49 391.486 259.49 391.486L269.171 393.763C269.171 393.763 245.233 401.14 242.396 404.555C239.558 407.97 225.85 419.286 228.665 419.286C231.48 419.286 245.76 417.009 245.76 417.009C245.76 417.009 231.503 430.67 231.503 436.294C231.503 441.918 244.066 469.309 244.066 469.309C244.066 469.309 252.625 484.609 255.508 477.255C258.392 469.901 253.815 452.21 254.364 450.593C254.913 448.976 287.982 446.039 295.396 446.039C302.811 446.039 301.667 463.617 304.55 466.531C307.434 469.445 321.073 474.454 323.338 474.454C325.604 474.454 329.609 472.747 329.609 470.493C329.755 465.638 330.722 460.843 332.469 456.308C334.758 450.639 337.595 445.538 338.167 438.731C338.74 431.923 334.735 416.622 334.735 416.622H339.861C339.861 416.622 334.689 407.97 326.13 410.247Z" fill="#263238" stroke="#263238" stroke-linecap="round" stroke-linejoin="round"/>
<path d="M246.927 465.233C246.927 465.233 244.066 454.463 238.94 461.818C235.645 466.576 244.066 485.634 248.62 486.863C253.174 488.093 246.927 465.233 246.927 465.233Z" fill="white" stroke="#263238" stroke-linecap="round" stroke-linejoin="round"/>
<path d="M246.927 443.694C246.927 443.694 246.927 485.064 249.764 495.265C252.602 505.465 264.021 520.788 280.544 520.788C297.067 520.788 308.463 512.273 313.017 506.034C317.571 499.796 319.883 487.341 319.883 487.341C319.883 487.341 325.009 491.303 331.325 483.926C337.641 476.549 338.488 463.434 335.902 461.818C331.325 458.994 326.222 462.387 323.933 464.664L319.356 469.217C319.356 469.217 311.942 464.117 311.942 457.31C311.942 450.502 313.086 438.047 313.086 438.047L307.96 441.44L308.532 436.886C308.532 436.886 307.388 438.025 300.545 438.025C293.703 438.025 277.18 439.14 277.18 439.14L285.739 427.756C285.739 427.756 269.216 435.133 263.518 438.525C257.82 441.918 246.927 443.694 246.927 443.694Z" fill="white" stroke="#263238" stroke-linecap="round" stroke-linejoin="round"/>
<path d="M268.324 468.534C268.324 471.585 267.111 474.09 265.6 474.09C264.09 474.09 262.877 471.585 262.877 468.534C262.877 465.483 264.09 462.956 265.6 462.956C267.111 462.956 268.324 465.461 268.324 468.534Z" fill="#263238"/>
<path d="M294.71 469.309C294.71 472.383 293.497 474.864 291.986 474.864C290.476 474.864 289.263 472.383 289.263 469.309C289.263 466.235 290.476 463.73 291.986 463.73C293.497 463.73 294.71 466.212 294.71 469.309Z" fill="#263238"/>
<path d="M272.901 481.672C272.901 481.672 272.901 489.641 282.833 487.751" stroke="#263238" stroke-linecap="round" stroke-linejoin="round"/>
<path d="M269.857 496.107C269.857 496.107 277.866 501.025 288.92 495.72" stroke="#263238" stroke-linecap="round" stroke-linejoin="round"/>
<path d="M255.737 457.765C256.711 455.999 258.267 454.62 260.142 453.862C262.018 453.103 264.099 453.01 266.035 453.598" stroke="#263238" stroke-linecap="round" stroke-linejoin="round"/>
<path d="M286.631 453.599C286.631 453.599 295.785 450.935 299.218 457.014" stroke="#263238" stroke-linecap="round" stroke-linejoin="round"/>
<path d="M200.356 534.586L175.069 603.871C175.069 603.871 158.867 615.551 157.128 618.602C152.802 626.161 158.455 636.817 163.695 642.509C171.934 651.298 188.685 652.55 198.732 646.015C205.3 641.735 209.19 633.037 211.661 625.865L214.316 564.936" fill="#232323"/>
<path d="M200.356 534.586L175.069 603.871C175.069 603.871 158.867 615.551 157.128 618.602C152.802 626.161 158.455 636.817 163.695 642.509C171.934 651.298 188.685 652.55 198.732 646.015C205.3 641.735 209.19 633.037 211.661 625.865L214.316 564.936" stroke="#263238" stroke-linecap="round" stroke-linejoin="round"/>
<path d="M164.13 609.95C164.13 609.95 177.106 599.317 198.457 611.452" stroke="#263238" stroke-linecap="round" stroke-linejoin="round"/>
<path d="M175.344 615.141L192.439 618.829C192.439 618.829 208.824 612.181 210.311 619.581C211.799 626.98 200.631 629.189 197.656 629.189C194.681 629.189 187.244 628.46 184.269 629.189C181.294 629.917 177.564 633.743 170.858 634.38C170.858 634.38 152.276 641.78 144.816 637.34C137.355 632.9 143.328 617.349 153.008 612.181C162.689 607.012 175.344 615.141 175.344 615.141Z" fill="white" stroke="#263238" stroke-linecap="round" stroke-linejoin="round"/>
<path d="M137.172 620.607C137.172 620.607 129.895 616.281 127.561 621.791C125.227 627.301 118.59 640.006 122.755 638.89C126.92 637.774 137.172 620.607 137.172 620.607Z" fill="white" stroke="#263238" stroke-linecap="round" stroke-linejoin="round"/>
<path d="M148.546 612.91C148.546 612.91 136.554 611.635 135.158 615.187C132.55 621.676 129.208 639.618 134.403 641.098C139.598 642.578 141.108 631.467 144.083 624.795C145.824 620.932 147.314 616.962 148.546 612.91Z" fill="white" stroke="#263238" stroke-linecap="round" stroke-linejoin="round"/>
<path d="M155.251 605.511C155.251 605.511 146.303 604.76 143.328 610.702C140.353 616.645 138.751 640.301 141.612 640.301C144.473 640.301 143.763 642.578 148.226 633.038C150.4 628.325 153.764 612.865 153.764 612.865L155.251 605.511Z" fill="white" stroke="#263238" stroke-linecap="round" stroke-linejoin="round"/>
<path d="M177.472 617.146C177.472 617.146 165.641 607.082 162.505 605.351C159.37 603.621 157.265 602.938 153.786 606.057C150.308 609.177 149.621 620.265 146.921 627.187C144.221 634.108 141.337 641.394 144.839 641.394C146.744 641.319 148.6 640.772 150.239 639.802C151.878 638.831 153.246 637.469 154.221 635.839C157.013 632.036 162.231 618.535 162.231 618.535" fill="white"/>
<path d="M177.472 617.146C177.472 617.146 165.641 607.082 162.505 605.351C159.37 603.621 157.265 602.938 153.786 606.057C150.308 609.177 149.621 620.265 146.921 627.187C144.221 634.108 141.337 641.394 144.839 641.394C146.744 641.319 148.6 640.772 150.239 639.802C151.878 638.831 153.246 637.469 154.221 635.839C157.013 632.036 162.231 618.535 162.231 618.535" stroke="#263238" stroke-linecap="round" stroke-linejoin="round"/>
<path d="M160.4 625.457C160.4 625.457 164.588 627.187 170.515 623.385Z" fill="white"/>
<path d="M160.4 625.457C160.4 625.457 164.588 627.187 170.515 623.385" stroke="#263238" stroke-linecap="round" stroke-linejoin="round"/>
<path d="M335.65 524.112C335.65 524.112 349.907 521.403 356.818 528.302C363.729 535.201 383.639 586.908 390.55 604.44C397.461 621.972 404.395 634.472 402.519 643.146C400.642 651.821 386.156 655.054 375.446 655.669C363.363 656.375 355.308 648.839 355.308 646.289C355.308 643.738 350.914 638.137 359.084 618.739L353.431 577.414" fill="#232323"/>
<path d="M335.65 524.112C335.65 524.112 349.907 521.403 356.818 528.302C363.729 535.201 383.639 586.908 390.55 604.44C397.461 621.972 404.395 634.472 402.519 643.146C400.642 651.821 386.156 655.054 375.446 655.669C363.363 656.375 355.308 648.839 355.308 646.289C355.308 643.738 350.914 638.137 359.084 618.739L353.431 577.414" stroke="#263238" stroke-linecap="round" stroke-linejoin="round"/>
<path d="M372.837 621.7C372.837 621.7 360.869 616.531 358.855 616.531C357.173 618.552 356.194 621.06 356.063 623.681C356.063 627.642 356.475 643.922 358.351 644.719C360.228 645.516 366.338 641.941 370.32 636.385C374.302 630.83 375.217 622.884 372.837 621.7Z" fill="white" stroke="#263238" stroke-linecap="round" stroke-linejoin="round"/>
<path d="M364.05 599.499L357.184 654.258L359.473 663.001L363.478 655.441L370.663 600.25C370.76 599.358 370.5 598.463 369.939 597.76C369.378 597.057 368.561 596.602 367.666 596.494V596.494C366.791 596.441 365.93 596.723 365.258 597.282C364.585 597.84 364.153 598.634 364.05 599.499V599.499Z" fill="white" stroke="#263238" stroke-linecap="round" stroke-linejoin="round"/>
<path d="M363.661 655.442L357.276 654.258L359.656 663.001L363.661 655.442Z" fill="white" stroke="#263238" stroke-linecap="round" stroke-linejoin="round"/>
<path d="M367.849 596.495C366.944 596.392 366.036 596.651 365.324 597.215C364.611 597.778 364.153 598.6 364.05 599.5L363.18 606.581L369.84 607.902L370.847 600.251C370.943 599.359 370.683 598.464 370.122 597.761C369.561 597.058 368.744 596.603 367.849 596.495V596.495Z" fill="white" stroke="#263238" stroke-linecap="round" stroke-linejoin="round"/>
<path d="M358.855 616.531C356.864 616.531 352.882 621.7 350.479 624.477C348.076 627.255 348.877 633.198 350.868 637.979C352.859 642.761 353.683 651.481 356.063 651.868C358.443 652.255 360.457 649.887 360.457 645.516C360.457 641.144 359.656 632.014 359.656 632.014" fill="white"/>
<path d="M358.855 616.531C356.864 616.531 352.882 621.7 350.479 624.477C348.076 627.255 348.877 633.198 350.868 637.979C352.859 642.761 353.683 651.481 356.063 651.868C358.443 652.255 360.457 649.887 360.457 645.516C360.457 641.144 359.656 632.014 359.656 632.014" stroke="#263238" stroke-linecap="round" stroke-linejoin="round"/>
<path d="M385.607 644.627C385.607 644.627 388.399 652.186 385.218 656.148C382.037 660.11 371.624 658.425 369.633 656.945C367.643 655.465 378.421 652.664 385.607 644.627Z" fill="white" stroke="#263238" stroke-linecap="round" stroke-linejoin="round"/>
<path d="M384.417 637.568C385.477 638.732 386.188 640.169 386.467 641.715C386.746 643.261 386.583 644.853 385.996 646.311C384.005 651.48 376.842 655.852 371.624 656.648C366.407 657.445 362.059 654.645 364.462 653.074C366.864 651.503 378.81 643.534 384.417 637.568Z" fill="white" stroke="#263238" stroke-linecap="round" stroke-linejoin="round"/>
<path d="M379.611 628.848C379.611 628.848 384.417 633.197 384.417 637.568C384.417 641.94 372.837 652.277 367.254 654.258C361.67 656.239 358.855 654.258 360.388 650.683C361.921 647.108 377.964 629.235 377.964 629.235C377.964 629.235 377.231 628.051 379.611 628.848Z" fill="white" stroke="#263238" stroke-linecap="round" stroke-linejoin="round"/>
<path d="M366.041 628.848C366.041 628.848 357.276 643.921 356.063 648.702C354.85 653.484 359.267 653.461 362.059 651.48C364.851 649.499 378.078 633.607 379.611 628.848C381.145 624.089 378.421 618.921 373.226 619.741C368.032 620.56 366.041 628.848 366.041 628.848Z" fill="white" stroke="#263238" stroke-linecap="round" stroke-linejoin="round"/>
<path d="M809.443 656.341H1" stroke="#263238" stroke-linecap="round" stroke-linejoin="round"/>
<path d="M294.527 653.325H147.127L90.8769 683.562H245.325L294.527 653.325Z" fill="white" stroke="#263238" stroke-linecap="round" stroke-linejoin="round"/>
<path d="M156.784 661.227H265.623" stroke="#263238" stroke-linecap="round" stroke-linejoin="round"/>
<path d="M148.843 666.873H257.682" stroke="#263238" stroke-linecap="round" stroke-linejoin="round"/>
<path d="M140.902 672.497H249.741" stroke="#263238" stroke-linecap="round" stroke-linejoin="round"/>
<path d="M266.172 661.227L235.004 676.459" stroke="#263238" stroke-linecap="round" stroke-linejoin="round"/>
<path d="M249.169 661.227L218 676.459" stroke="#263238" stroke-linecap="round" stroke-linejoin="round"/>
<path d="M64.5139 578.075H218.939L245.325 683.562H90.8769L64.5139 578.075Z" fill="#263238" stroke="#263238" stroke-linecap="round" stroke-linejoin="round"/>
<path d="M90.8768 691.03H245.325V683.539H90.8768V691.03Z" fill="white" stroke="#263238" stroke-linecap="round" stroke-linejoin="round"/>
<path d="M62.7976 578.075H217.245L243.608 683.562H89.1606L62.7976 578.075Z" fill="#EDEBEB" stroke="#263238" stroke-linecap="round" stroke-linejoin="round"/>
<path d="M245.325 683.562L294.526 653.325V659.541L245.325 691.053V683.562Z" fill="#263238" stroke="#263238" stroke-linecap="round" stroke-linejoin="round"/>
<path d="M159.919 627.62C160.161 629.192 159.939 630.8 159.28 632.249C158.622 633.698 157.554 634.926 156.208 635.784C154.862 636.641 153.295 637.092 151.696 637.081C150.098 637.07 148.537 636.598 147.203 635.722C145.868 634.846 144.818 633.604 144.18 632.146C143.541 630.688 143.341 629.077 143.605 627.508C143.868 625.939 144.583 624.48 145.663 623.308C146.743 622.135 148.142 621.3 149.69 620.903C151.942 620.446 154.283 620.896 156.201 622.156C158.119 623.415 159.457 625.38 159.919 627.62Z" stroke="#263238" stroke-linecap="round" stroke-linejoin="round"/>
<path fill-rule="evenodd" clip-rule="evenodd" d="M99.8744 203.082C98.092 202.215 95.7177 203.217 96.7104 205.506C97.7737 207.957 101.698 207.99 103.914 207.943C103.692 207.932 102.976 205.684 102.731 205.345C102.009 204.342 100.97 203.616 99.8744 203.082ZM120.438 247.029C120.888 247.406 120.475 247.065 120.438 247.029V247.029ZM98.1671 214.163C97.1251 214.943 97.0765 216.322 97.929 217.256C98.944 218.367 100.796 218.328 102.178 218.221C102.803 218.173 106.142 217.913 105.35 217.378C105.411 217.4 105.538 217.455 105.674 217.529C105.748 217.791 105.825 218.053 105.905 218.313C105.885 218.324 105.869 218.336 105.848 218.347C105.87 218.338 105.886 218.327 105.906 218.317C106.711 220.917 107.856 223.392 109.355 225.709C108.795 225.492 108.215 225.328 107.626 225.255C105.884 225.038 102.221 226.361 104.171 228.635C106.041 230.814 108.948 228.48 111.068 228.159C113.127 230.973 115.396 233.67 117.775 236.276C117.629 236.321 117.501 236.414 117.428 236.559C116.475 236.084 115.481 235.406 114.598 235.221C113.325 234.956 110.714 234.794 109.753 235.909C108.571 237.281 109.84 238.397 111.239 238.662C113.266 239.045 115.92 238.077 117.87 237.423C118.093 237.461 118.337 237.398 118.482 237.223C118.525 237.209 118.568 237.195 118.61 237.182C121.019 239.776 123.519 242.285 126.005 244.739C125.978 244.737 125.952 244.736 125.924 244.734C125.276 244.317 124.581 243.975 123.828 243.796C122.085 243.378 120.035 243.375 118.622 244.609C117.215 245.837 116.718 247.988 118.176 249.37C121.095 252.136 125.386 245.837 126.857 245.575C129.383 248.043 132.053 250.348 134.765 252.607C134.457 252.515 134.141 252.447 133.815 252.417C131.157 252.165 124.922 255.353 128.186 258.496C131.031 261.235 134.316 255.97 136.605 254.129C139.161 256.235 141.73 258.326 144.228 260.499C142.866 260.143 141.551 260.09 140.092 260.521C138.582 260.967 136.147 262.083 137.103 264.081C138.075 266.113 141 265.191 142.524 264.547C143.355 264.196 145.02 263.01 146.483 262.511C150.468 266.198 153.921 270.259 156.537 275.04C158.17 278.026 159.409 281.215 160.283 284.493C160.841 286.585 161.939 290.099 161.722 292.821C162.762 287.373 160.867 280.827 158.828 275.954C156.952 271.474 154.148 267.54 150.864 263.998C151.685 261.572 158.613 258.078 154.468 255.821C152.267 254.627 150.015 256.603 149.536 258.697C149.206 260.136 149.711 261.945 150.246 263.343C149.213 262.263 148.14 261.218 147.033 260.208C145.504 258.811 143.938 257.455 142.357 256.116C144.958 253.722 147.416 246.875 143.925 245.752C138.77 244.099 141.259 253.443 141.62 255.194C141.722 255.2 141.802 255.17 141.861 255.106C141.832 255.266 141.798 255.437 141.758 255.61C138.732 253.061 135.662 250.562 132.693 247.951C132.96 247.758 133.384 247.019 133.718 246.625C134.471 245.738 135.191 244.812 135.718 243.774C136.549 242.134 137.35 239.518 135.142 238.551C132.741 237.497 131.603 240.456 131.587 242.222C131.577 243.443 131.917 244.604 132.095 245.801C132.151 246.174 131.939 247.857 132.458 247.133C132.434 247.4 132.43 247.594 132.443 247.731C131.909 247.26 131.38 246.784 130.855 246.304C130.879 246.244 130.897 246.178 130.901 246.101C130.929 245.575 130.388 245.372 130.009 245.526C129.315 244.88 128.629 244.226 127.954 243.559C126.524 242.146 125.074 240.693 123.633 239.209C123.945 238.946 123.821 238.582 124.113 238.303C124.404 238.025 124.978 237.872 125.321 237.613C126.183 236.963 126.897 236.016 127.413 235.083C128.266 233.542 129.366 230.308 126.872 229.572C124.3 228.811 122.998 231.923 122.834 233.87C122.802 234.247 123.093 237.645 123.315 238.879C120.649 236.121 118.028 233.259 115.652 230.348C116.372 230.342 118.411 228.899 118.823 228.505C119.828 227.545 121.426 225.422 119.661 224.297C118.092 223.299 116.159 224.741 115.49 226.144C115.38 226.375 114.993 228.525 114.963 229.49C113.98 228.256 113.042 227.014 112.169 225.768C111.587 224.94 111.043 224.09 110.534 223.222C110.656 223.154 110.771 223.036 110.88 222.889C113.496 222.456 116.828 218.459 113.754 217.066C112.29 216.403 110.705 217.767 109.989 218.885C109.842 219.113 109.606 220.263 109.413 221.17C107.948 218.295 106.828 215.251 105.975 212.131C106.203 212.075 106.396 211.905 106.421 211.612C107.69 210.903 108.693 210.314 109.578 208.95C110.129 208.103 111.119 206.168 109.5 205.696C107.393 205.083 106.073 208.234 105.902 209.786C105.882 209.966 105.883 210.49 105.89 210.971C105.817 210.961 105.743 210.962 105.671 210.974C105.185 209.042 104.798 207.085 104.489 205.125C105.638 204.763 105.832 198.848 105.066 198.005C103.354 196.118 102.149 198.841 102.241 200.281C102.351 201.979 103.137 203.524 104.073 204.895C104.174 205.04 104.145 205.033 104.171 204.831C104.185 204.931 104.22 205.005 104.27 205.058C104.223 205.952 104.129 206.867 104.175 207.658C104.307 209.922 104.578 212.2 104.97 214.436C105.066 214.98 105.175 215.519 105.298 216.054C104.373 215.282 103.127 214.596 102.639 214.381C101.373 213.824 99.4231 213.223 98.1671 214.163ZM161.87 292.829C161.812 293.619 161.667 294.342 161.396 294.938C161.599 294.259 161.755 293.554 161.87 292.829Z" fill="#FDFFA6"/>
<g opacity="0.7">
<path fill-rule="evenodd" clip-rule="evenodd" d="M133.95 256.564C138.823 256.312 144.849 259.142 145.369 264.411C145.746 268.24 145.629 272.058 146.214 275.881C146.681 278.936 147.669 281.869 149.017 284.652C150.313 287.329 153.002 289.607 153.701 292.466C154.147 294.288 153.897 296.85 153.283 298.632C152.535 300.799 152.933 300.627 154.422 302.445C157.34 306.008 159.968 309.661 161.827 313.916C164.504 320.045 166.259 327.209 165.265 333.917C165.139 334.769 164.989 337.827 163.81 338.04C162.493 338.279 163.109 336.531 163.179 335.966C163.627 332.362 164.025 329.212 163.485 325.552C161.399 311.43 151.217 302.126 144.586 290.141C144.222 289.522 143.452 288.051 142.917 287.08C142.073 285.547 141.224 282.63 140.08 281.493C137.927 279.352 139.906 283.657 140.326 284.479C140.857 285.518 141.44 286.623 141.984 287.534C144.472 291.756 147.248 296.366 149.817 300.718C138.706 303.237 130.881 289.947 127.899 281.209C125.442 274.011 122.503 257.18 133.95 256.564Z" fill="url(#paint0_linear_790_9168)"/>
<path fill-rule="evenodd" clip-rule="evenodd" d="M199.257 243.195C191.111 243.838 185.882 249.186 183.448 256.665C182.136 260.696 181.986 264.836 181.257 268.979C180.16 275.211 177.8 279.933 173.189 284.373C171.76 285.748 170.708 287.16 169.959 288.67C168.474 290.178 167.181 291.885 166.231 293.971C165.017 296.636 164.674 299.833 166.075 302.49C166.452 303.204 167.392 304.637 168.365 305.289C164.719 313.015 162.714 321.477 162.94 329.929C163.077 335.03 163.327 340.134 163.619 345.23C163.698 346.598 164.145 348.857 164.818 346.563C165.434 344.464 164.662 341.169 164.59 338.977C164.243 328.295 163.946 318.584 168.365 308.605C168.828 307.559 169.32 306.521 169.831 305.492C169.861 305.475 169.889 305.454 169.918 305.433C169.937 305.448 169.955 305.464 169.974 305.479C170.007 305.421 170.052 305.352 170.104 305.275C170.251 305.124 170.379 304.934 170.501 304.721C170.893 304.181 171.336 303.546 171.339 303.198C171.339 303.196 171.337 303.191 171.337 303.189C174.073 298.746 177.207 294.547 180.407 290.431C180.383 290.461 183.879 285.725 183.339 288.344C183.078 289.606 180.507 292.01 179.468 293.346C177.171 296.32 174.473 300.089 172.231 303.732C171.93 303.905 171.504 304.752 171.195 305.382C171.025 305.702 170.866 306.024 170.71 306.305C178.654 308.916 184.833 303.657 189.046 297.539C189.051 297.532 189.056 297.524 189.061 297.517C190.343 295.827 191.656 294.148 193.297 292.812C196.035 290.583 198.967 290.189 202.194 289.092C210.997 286.1 214.739 274.75 215.928 266.328C217.269 256.827 210.709 242.259 199.257 243.195Z" fill="url(#paint1_linear_790_9168)"/>
<path fill-rule="evenodd" clip-rule="evenodd" d="M183.167 216.59C174.807 225.246 170.768 237.253 167.57 248.54C163.998 261.147 161.639 273.949 161.548 287.056C161.489 295.668 161.253 304.333 161.759 312.935C161.938 315.989 162.244 319.05 162.73 322.072C162.771 322.32 163.859 329.068 164.901 327.495C165.494 326.601 163.785 320.496 163.656 319.479C162.93 313.751 162.761 307.981 162.796 302.212C162.855 292.714 162.573 283.264 163.541 273.8C163.685 272.387 163.799 270.903 164.137 269.521C164.495 268.051 164.039 268.693 165.205 268.111C166.339 267.545 167.74 267.626 168.916 266.917C173.582 264.102 175.968 256.872 177.826 252.128C179.95 246.703 181.242 240.918 182.273 235.21C183.03 231.015 183.572 226.846 183.878 222.598C183.975 221.259 183.98 219.859 184.245 218.542C184.316 218.187 184.674 217.559 184.661 217.244C184.633 216.578 184.229 216.187 184.196 215.628C183.846 215.941 183.503 216.262 183.167 216.59Z" fill="url(#paint2_linear_790_9168)"/>
<path fill-rule="evenodd" clip-rule="evenodd" d="M137.583 331.923C137.583 346.239 149.248 357.844 163.637 357.844C178.026 357.844 189.69 346.239 189.69 331.923" fill="#5B5B5B"/>
<path fill-rule="evenodd" clip-rule="evenodd" d="M165.727 332.005H164.35C164.446 330.286 164.572 328.571 164.861 326.872C165.965 320.373 169.418 310.828 176.992 309.773C177.271 309.733 178.299 309.727 179.544 309.799C180.134 309.471 180.795 309.273 181.491 309.227C187.939 308.754 195.14 313.93 198.251 319.316C200.758 323.658 200.335 329.361 198.787 333.974C197.75 337.063 195.486 341.466 191.712 341.509C186.989 341.563 186.762 335.756 186.67 332.361C186.549 327.848 185.976 323.916 182.401 320.84C181.568 320.123 180.657 319.493 179.816 318.786C178.498 317.68 177.042 316.547 176.872 314.717C176.638 312.193 178.071 311.738 180.258 312.207C180.63 312.287 184.386 313.964 183.83 312.639C183.66 312.234 183.04 311.913 182.258 311.673C180.232 311.454 177.817 311.199 177.123 311.351C169.629 312.987 166.712 323.313 165.937 329.875C165.854 330.583 165.786 331.293 165.727 332.005V332.005Z" fill="url(#paint3_linear_790_9168)"/>
</g>
<path d="M566.195 532.03H692.293C692.293 532.03 699.51 533.184 697.112 547.233C694.714 561.281 681.467 655.447 681.467 655.447H525.7L549.613 536.913C549.613 536.913 550.55 530.854 566.195 532.03Z" fill="white" stroke="#263238" stroke-linecap="round" stroke-linejoin="round"/>
<path d="M697.121 546.99C694.766 560.931 681.761 654.551 681.761 654.551H668.8C671.939 633.484 683.846 550.872 685.887 541.761C687.927 532.651 691.268 531.923 692.165 531.879H692.389C692.389 531.879 699.475 533.026 697.121 546.99Z" fill="#263238" stroke="#263238" stroke-linecap="round" stroke-linejoin="round"/>
<path d="M489.523 459.719C489.523 459.719 477.64 473.819 474.115 487.484C470.589 501.149 461.797 535.975 457.837 549.64C453.876 563.305 400.6 657.721 400.6 657.721L421.732 659.028C421.732 659.028 463.514 613.173 472.764 603.864C482.013 594.555 489.042 585.774 489.042 585.774L491.675 655.864H638.2C638.2 655.864 629.844 602.534 622.792 565.942C615.741 529.349 608.712 494.545 592.869 472.512C577.026 450.479 530.023 428.01 530.023 428.01L489.523 459.719Z" fill="#47A4B0"/>
<path d="M477.557 504.213C477.557 504.213 462.842 569.991 454.856 587.705" stroke="#263238" stroke-linecap="round" stroke-linejoin="round"/>
<path d="M481.516 554.281C481.516 554.281 472.614 590.711 465.726 604.372" stroke="#263238" stroke-linecap="round" stroke-linejoin="round"/>
<path d="M530.855 447.27L553.534 462.98" stroke="#263238" stroke-linecap="round" stroke-linejoin="round"/>
<path d="M489.045 584.997L481.562 525.479" stroke="#263238" stroke-linecap="round" stroke-linejoin="round"/>
<path d="M440.736 584.837C425.266 614.687 400.642 656.444 400.642 656.444L421.765 657.742C421.765 657.742 460.028 615.939 471.241 604.486C463.437 599.409 450.118 590.78 440.736 584.837Z" fill="white" stroke="#263238" stroke-linecap="round" stroke-linejoin="round"/>
<path d="M434.488 596.381C434.488 596.381 460.005 614.778 462.201 614.778C464.398 614.778 477.168 602.073 478.038 599.454C478.907 596.836 447.258 575.365 445.496 575.365C443.734 575.365 434.488 590.256 434.488 596.381Z" fill="white" stroke="#263238" stroke-linecap="round" stroke-linejoin="round"/>
<path d="M495.636 473.817L500.053 519.787L507.971 518.034L507.078 507.97" stroke="#263238" stroke-linecap="round" stroke-linejoin="round"/>
<path d="M477.168 467.26L474.971 485.201L491.242 468.58L477.168 467.26Z" fill="white" stroke="#263238" stroke-linecap="round" stroke-linejoin="round"/>
<path d="M486.413 452.369L477.168 467.26L502.25 476.891L509.275 458.517L486.413 452.369Z" fill="white" stroke="#263238" stroke-linecap="round" stroke-linejoin="round"/>
<path d="M419.98 351.71C419.98 351.71 416.455 374.023 417.691 378.417C418.927 382.812 424.717 388.048 425.174 392.078C425.632 396.108 415.037 409.565 418.126 413.071C420.934 415.704 424.219 417.782 427.806 419.196C427.806 419.196 441.01 453.781 447.166 455.102C453.322 456.422 473.118 445.994 473.118 445.994C473.118 445.994 497.764 468.33 499.069 469.628C500.373 470.926 525.02 421.495 525.02 421.495C525.02 421.495 514.035 400.047 514.035 398.727C514.035 397.406 531.199 350.571 530.306 331.764C529.414 312.958 475.383 294.561 464.307 296.291C453.231 298.021 429.98 310.749 429.98 310.749C429.98 310.749 438.333 303.736 431.307 304.169C424.282 304.601 403.137 320.38 404.029 333.95C404.922 347.52 419.98 351.71 419.98 351.71Z" fill="white" stroke="#263238" stroke-linecap="round" stroke-linejoin="round"/>
<path d="M495.201 423.043C499.595 410.794 489.915 387.593 490.807 382.356C491.7 377.119 496.094 364.391 504.012 364.391C511.93 364.391 510.602 380.147 509.733 386.727C508.892 391.353 507.251 395.798 504.881 399.865C504.881 399.865 510.053 398.931 514.172 398.294C515.156 394.355 531.244 349.82 530.398 331.582C529.528 312.752 475.475 294.378 464.398 296.108C453.322 297.839 430.072 310.567 430.072 310.567C430.072 310.567 438.425 303.554 431.399 303.986C424.373 304.419 403.228 320.198 404.121 333.768C405.013 347.338 419.957 351.709 419.957 351.709C419.957 351.709 448.105 337.707 458.22 336.386C468.335 335.066 455.153 346.017 454.261 352.142C453.368 358.267 468.792 363.094 474.513 368.33C480.235 373.567 483.667 407.287 480.235 415.165C476.802 423.043 459.982 419.104 452.064 416.053C444.146 413.002 427.898 419.218 427.898 419.218C427.898 419.218 441.102 453.804 447.258 455.124C450.622 455.83 458.059 453.03 464.124 450.32L473.278 445.926C473.278 445.926 490.807 435.316 495.201 423.043Z" fill="#263238" stroke="#263238" stroke-linecap="round" stroke-linejoin="round"/>
<path d="M438.836 391.077C439.523 393.877 439.248 396.382 438.173 396.632C437.097 396.883 435.678 394.834 434.992 392.079C434.305 389.324 434.58 386.773 435.655 386.5C436.731 386.227 438.127 388.253 438.836 391.077Z" fill="#263238"/>
<path d="M434.488 426.982C437.157 426.916 439.777 426.253 442.154 425.043C444.531 423.833 446.603 422.107 448.219 419.992" stroke="#7D7D7D" stroke-linecap="round" stroke-linejoin="round"/>
<path d="M427.463 380.148C427.463 380.148 428.767 374.023 439.775 378.417" stroke="#263238" stroke-width="2" stroke-linecap="round" stroke-linejoin="round"/>
<path d="M523.372 413.867L493.004 472.952L509.275 493.079L537.011 427.87L523.372 413.867Z" fill="white" stroke="#263238" stroke-linecap="round" stroke-linejoin="round"/>
<path d="M558.957 466.828C558.957 466.828 545.227 465.075 540.032 469.105C534.837 473.135 507.994 536.067 507.994 536.067C515.981 538.395 523.13 542.954 528.59 549.204C536.943 559.268 543.121 577.21 543.121 577.21C543.121 577.21 578.753 533.95 585.343 524.25" fill="#47A4B0"/>
<path d="M558.957 466.828C558.957 466.828 545.227 465.075 540.032 469.105C534.837 473.135 507.994 536.067 507.994 536.067C515.981 538.395 523.13 542.954 528.59 549.204C536.943 559.268 543.121 577.21 543.121 577.21C543.121 577.21 578.753 533.95 585.343 524.25" stroke="#263238" stroke-linecap="round" stroke-linejoin="round"/>
<path d="M561.429 475.73C561.429 475.73 549.598 476.732 545.639 483.586C541.68 490.439 511.106 553.303 511.106 553.303L523.944 564.095C523.944 564.095 550.582 508.13 558.477 498.317C563.646 492.226 570.509 487.79 578.203 485.567" stroke="#263238" stroke-linecap="round" stroke-linejoin="round"/>
<path d="M580.194 505.192L536.759 565.074" stroke="#263238" stroke-linecap="round" stroke-linejoin="round"/>
<path d="M501.357 532.925C501.357 532.925 489.48 540.347 489.48 548.681C489.48 557.014 500.053 575.821 511.472 584.997C522.891 594.172 533.029 591.577 538.751 587.638C544.472 583.699 558.546 581.513 559.347 565.734C560.148 549.956 538.75 527.233 529.436 524.159C520.122 521.085 501.357 532.925 501.357 532.925Z" fill="white" stroke="#263238" stroke-linecap="round" stroke-linejoin="round"/>
<path d="M307.8 584.996C307.8 584.996 302.948 589.39 298.119 592.874C293.291 596.357 288.004 599.021 292.398 601.207C296.792 603.393 301.552 601.639 306.472 600.751C311.392 599.864 317.022 598.475 317.48 595.082C317.937 591.69 317.022 581.057 307.8 584.996Z" fill="white" stroke="#263238" stroke-linecap="round" stroke-linejoin="round"/>
<path d="M531.725 583.153C531.725 583.153 538.75 570.903 532.16 558.654C525.569 546.404 512.799 540.712 504.881 540.712C496.963 540.712 361.899 578.348 361.899 578.348C361.899 578.348 320.981 566.964 316.129 568.717C311.278 570.471 282.26 586.226 275.647 589.209C269.033 592.192 269.056 596.199 272.145 596.632C275.235 597.064 283.13 594.355 287.089 593.148C291.048 591.941 304.252 587 304.252 587C303.153 590.147 302.273 593.365 301.621 596.632C301.621 598.385 313.933 604.965 316.129 604.965C318.326 604.965 325.81 606.263 331.096 604.51C336.382 602.756 328.807 595.402 328.807 595.402L337.961 591.463C337.961 591.463 347.115 596.267 355.125 595.835C359.408 595.742 363.616 594.691 367.437 592.761C367.437 592.761 510.602 588.936 531.725 583.153Z" fill="white" stroke="#263238" stroke-linecap="round" stroke-linejoin="round"/>
<path d="M312.193 583.152C312.193 583.152 306.472 594.104 307.799 596.29C309.127 598.476 320.546 604.6 320.546 604.6" stroke="#263238" stroke-linecap="round" stroke-linejoin="round"/>
<path d="M321.439 583.698C321.439 583.698 315.717 594.627 317.48 596.813C319.242 598.999 331.21 604.691 331.21 604.691" stroke="#263238" stroke-linecap="round" stroke-linejoin="round"/>
<path d="M304.275 587.182L305.145 583.243" stroke="#263238" stroke-linecap="round" stroke-linejoin="round"/>
<path d="M716.936 178.3L706.803 178.207L707.094 146.648C707.094 146.648 708.823 145.564 712.171 145.594C715.876 145.629 717.227 146.741 717.227 146.741L716.936 178.3Z" fill="#AA4724"/>
<path d="M712.171 145.594C711.679 145.594 711.224 145.61 710.802 145.646C713.393 145.905 714.377 146.715 714.377 146.715L714.086 178.273L716.936 178.299L717.227 146.74C717.227 146.74 715.876 145.629 712.171 145.594Z" fill="#993E22"/>
<path d="M717.198 149.878C715.503 149.189 713.575 149.131 711.735 149.26C710.246 149.364 708.747 149.583 707.34 150.097L707.062 150.197L707.046 151.807C707.431 151.598 707.831 151.419 708.243 151.27C710.767 150.342 713.51 150.176 716.129 150.791C716.492 150.873 716.846 150.989 717.186 151.139L717.198 149.878Z" fill="#C69775"/>
<path d="M717.173 152.536C715.479 151.847 713.551 151.789 711.71 151.918C710.221 152.023 708.722 152.241 707.315 152.756L707.037 152.857L707.022 154.467C707.406 154.257 707.806 154.077 708.218 153.928C710.742 153.001 713.485 152.834 716.104 153.449C716.467 153.531 716.821 153.648 717.161 153.798L717.173 152.536Z" fill="#C69775"/>
<path opacity="0.1" d="M708.455 147.718C708.322 148.205 708.455 148.718 708.561 149.212C709.422 153.237 708.421 157.429 708.803 161.525C708.821 161.727 708.92 161.99 709.121 161.964C709.29 161.941 709.346 161.732 709.354 161.56C709.728 157.249 708.932 152.828 709.957 148.623C710.066 148.177 710.271 147.252 709.75 146.958C709.23 146.664 708.581 147.247 708.455 147.718Z" fill="white"/>
<path d="M746.744 179.552H731.897V122.975C731.897 122.975 734.415 121 739.321 121C744.752 121 746.744 122.975 746.744 122.975V179.552Z" fill="#E5B64E"/>
<path d="M739.27 121.004C738.657 121.004 738.045 121.036 737.436 121.1C741.37 121.495 742.869 122.975 742.869 122.975V179.552H746.697V122.975C746.697 122.975 744.7 121.004 739.27 121.004Z" fill="#C99E47"/>
<path d="M744.743 166.28C744.787 165.684 744.754 165.083 744.644 164.495C742.204 164.368 734.053 164.465 734.053 164.465C734.053 164.465 733.826 164.719 734.053 166.481C735.057 165.779 744.787 165.689 744.743 166.28Z" fill="#B77158"/>
<path d="M744.915 169.064C744.959 168.467 744.926 167.867 744.817 167.278C742.376 167.152 734.225 167.248 734.225 167.248C734.225 167.248 733.998 167.502 734.225 169.265C735.23 168.562 744.958 168.472 744.915 169.064Z" fill="#B77158"/>
<path d="M734.796 177.825C737.938 177.434 741.21 177.054 744.202 178.08C744.202 175.657 744.202 173.233 744.202 170.809C744.209 170.73 744.196 170.65 744.164 170.577C744.114 170.502 744.043 170.444 743.959 170.411C743.092 169.971 742.075 169.954 741.102 169.964C739.983 169.974 738.863 170.007 737.745 170.062C736.756 170.111 735.479 170.009 734.551 170.321C734.632 170.957 735.039 177.795 734.796 177.825Z" fill="#B77158"/>
<path opacity="0.25" d="M733.849 123.819C733.353 125.025 733.602 126.388 733.781 127.678C734.505 132.918 733.934 138.249 734.39 143.523C734.432 144.014 734.629 144.646 735.126 144.647C735.661 144.647 735.827 143.933 735.827 143.401C735.809 138.316 735.981 133.235 736.342 128.159C736.409 127.212 736.54 126.155 737.285 125.564C737.942 125.041 739.056 124.867 739.17 124.039C739.3 123.092 737.687 122.315 736.897 122.191C735.673 121.999 734.32 122.669 733.849 123.819Z" fill="white"/>
<path opacity="0.25" d="M734.533 146.849C734.11 147.63 734.3 148.583 734.464 149.456C734.857 151.609 734.97 153.804 734.8 155.986C734.772 156.349 734.737 156.719 734.841 157.068C734.945 157.416 735.224 157.738 735.587 157.775C735.951 157.812 736.311 157.533 736.472 157.194C736.633 156.856 736.644 156.467 736.653 156.092C736.705 153.769 736.709 151.448 736.663 149.131C736.652 148.607 736.637 148.075 736.477 147.575C736.22 146.777 735.157 145.7 734.533 146.849Z" fill="white"/>
<path d="M758.617 178.942L746.749 178.853L747.084 134.858C747.084 134.858 749.108 133.341 753.03 133.37C757.371 133.402 758.952 134.947 758.952 134.947L758.617 178.942Z" fill="#6F53AD"/>
<path d="M752.984 133.37C752.494 133.366 752.005 133.387 751.517 133.434C754.66 133.765 755.849 134.924 755.849 134.924L755.514 178.919L758.571 178.942L758.906 134.947C758.906 134.947 757.324 133.402 752.984 133.37Z" fill="#5E4A96"/>
<path opacity="0.25" d="M748.635 135.527C748.231 136.462 748.422 137.522 748.557 138.527C749.106 142.606 748.617 146.752 748.95 150.852C748.98 151.234 749.135 151.727 749.534 151.73C749.963 151.73 750.099 151.18 750.101 150.766C750.117 146.812 750.285 142.862 750.604 138.918C750.663 138.182 750.773 137.361 751.373 136.904C751.901 136.503 752.792 136.374 752.892 135.731C753.002 134.995 751.716 134.381 751.086 134.28C750.103 134.122 749.018 134.636 748.635 135.527Z" fill="white"/>
<path opacity="0.25" d="M749.046 153.44C748.703 154.045 748.852 154.787 748.975 155.468C749.277 157.144 749.356 158.852 749.209 160.548C749.164 160.827 749.173 161.113 749.234 161.389C749.315 161.659 749.536 161.913 749.827 161.944C750.118 161.975 750.411 161.759 750.537 161.496C750.663 161.232 750.679 160.932 750.688 160.641C750.744 158.837 750.76 157.032 750.737 155.226C750.751 154.818 750.704 154.41 750.598 154.016C750.394 153.396 749.551 152.551 749.046 153.44Z" fill="white"/>
<path d="M731.778 178.464H716.937V132.221C716.937 132.221 719.454 130.609 724.36 130.609C729.79 130.609 731.784 132.221 731.784 132.221L731.778 178.464Z" fill="#5B3E3E"/>
<path d="M724.354 130.609C723.634 130.609 722.967 130.645 722.35 130.705C726.149 131.053 727.602 132.221 727.602 132.221V178.464H731.778V132.221C731.778 132.221 729.785 130.609 724.354 130.609Z" fill="#4C3434"/>
<path d="M731.778 136.814C729.286 135.827 726.465 135.768 723.765 135.982C721.585 136.155 719.393 136.495 717.338 137.267C717.198 137.319 717.063 137.368 716.932 137.418V139.777C717.492 139.465 718.076 139.196 718.677 138.972C722.363 137.581 726.378 137.3 730.223 138.166C730.756 138.281 731.277 138.447 731.778 138.662V136.814Z" fill="#C69775"/>
<path d="M731.778 138.66V136.814C730.455 136.29 729.041 136.03 727.601 135.93V137.753C728.484 137.832 729.359 137.969 730.223 138.166C730.756 138.279 731.277 138.444 731.778 138.66Z" fill="#AD8468"/>
<path d="M731.762 142.59V140.742C730.439 140.218 729.025 139.958 727.585 139.859V141.682C728.467 141.761 729.343 141.898 730.206 142.094C730.74 142.209 731.261 142.375 731.762 142.59V142.59Z" fill="#AD8468"/>
<path d="M731.778 140.714C729.286 139.728 726.465 139.669 723.765 139.882C721.585 140.055 719.393 140.396 717.338 141.167L716.932 141.318V143.677C717.492 143.365 718.076 143.097 718.677 142.874C722.362 141.481 726.378 141.2 730.223 142.066C730.756 142.181 731.277 142.347 731.778 142.562V140.714Z" fill="#C69775"/>
<path d="M731.762 142.59V140.742C730.439 140.218 729.025 139.958 727.585 139.859V141.682C728.467 141.761 729.343 141.898 730.206 142.094C730.74 142.209 731.261 142.375 731.762 142.59V142.59Z" fill="#AD8468"/>
<path d="M729.72 175.949H719.67V166.552C719.67 166.552 722.632 166.028 724.695 166.019C727.066 166.008 729.72 166.552 729.72 166.552V175.949Z" fill="#C69775"/>
<path d="M729.72 166.591C729.72 166.591 728.772 166.397 727.506 166.242C727.514 166.292 727.523 166.342 727.53 166.39C727.714 167.668 727.514 168.975 727.077 170.181C726.825 170.872 726.5 171.534 726.106 172.156C725.747 172.742 725.315 173.28 724.82 173.759C723.448 175.051 721.564 175.637 719.662 175.804V175.98H729.712L729.72 166.591Z" fill="#AD8468"/>
<path opacity="0.1" d="M718.938 133.769C718.752 134.484 718.953 135.234 719.114 135.955C720.43 141.841 719.02 147.998 719.634 153.996C719.665 154.292 719.811 154.679 720.108 154.636C720.355 154.6 720.434 154.288 720.452 154.039C720.942 147.719 719.716 141.252 721.162 135.077C721.315 134.423 721.601 133.066 720.836 132.637C720.07 132.209 719.119 133.078 718.938 133.769Z" fill="white"/>
<path opacity="0.1" d="M719.771 156.344C719.832 157.749 719.893 159.154 719.955 160.558C719.948 160.832 719.997 161.105 720.098 161.36C720.215 161.607 720.468 161.813 720.742 161.792C720.827 161.788 720.908 161.753 720.969 161.694C721.044 161.586 721.074 161.453 721.053 161.323C720.999 160.001 720.946 158.681 720.893 157.362C720.877 156.935 721.031 155.939 720.616 155.654C720.096 155.298 719.751 155.887 719.771 156.344Z" fill="white"/>
<path d="M657.783 132.846L659.054 150.465C659.054 150.465 676.882 183.638 677.284 183.541C677.686 183.445 690.654 179.882 690.654 179.882L657.783 132.846Z" fill="#84321F"/>
<path d="M694.413 177.312L685.538 182.239L657.783 132.846C657.783 132.846 658.321 130.29 661.255 128.664C664.501 126.861 666.659 127.921 666.659 127.921L694.413 177.312Z" fill="#AA4724"/>
<path d="M661.223 128.684C660.855 128.888 660.503 129.121 660.171 129.381C662.716 128.42 664.338 129.214 664.338 129.214L692.092 178.608L694.897 178.259L666.629 127.935C666.629 127.935 664.469 126.876 661.223 128.684Z" fill="#993E22"/>
<path d="M679.855 168.499C681.226 167.329 682.793 166.409 684.486 165.781C684.968 165.602 685.46 165.448 685.958 165.316C685.993 165.303 686.021 165.278 686.038 165.245C686.055 165.213 686.059 165.175 686.049 165.14C686.039 165.104 686.016 165.074 685.985 165.054C685.954 165.035 685.916 165.028 685.88 165.035C684.088 165.504 682.394 166.285 680.876 167.341C680.451 167.638 680.042 167.955 679.648 168.291C679.505 168.407 679.712 168.617 679.855 168.496V168.499Z" fill="#C99E47"/>
<path d="M680.68 169.651C681.59 169.03 682.54 168.469 683.522 167.969C684.008 167.72 684.502 167.488 685.005 167.272C685.261 167.162 685.518 167.055 685.776 166.952C685.908 166.9 686.039 166.85 686.172 166.8C686.224 166.78 686.453 166.659 686.502 166.709C686.633 166.843 686.839 166.637 686.709 166.504C686.578 166.37 686.401 166.406 686.241 166.464C686.018 166.546 685.796 166.633 685.575 166.721C685.154 166.89 684.738 167.069 684.325 167.258C683.485 167.645 682.666 168.077 681.871 168.549C681.416 168.82 680.97 169.104 680.533 169.402C680.378 169.507 680.524 169.759 680.681 169.653L680.68 169.651Z" fill="#C99E47"/>
<path d="M683.771 175.443C684.355 174.812 685.103 174.377 685.874 174.003C686.743 173.582 687.627 173.198 688.508 172.799C688.999 172.561 689.507 172.359 690.027 172.195L689.863 171.982L689.746 172.156C689.638 172.31 689.892 172.455 689.998 172.303L690.115 172.128C690.129 172.103 690.136 172.075 690.134 172.046C690.132 172.018 690.121 171.99 690.104 171.967C690.086 171.945 690.062 171.928 690.035 171.918C690.008 171.909 689.978 171.908 689.95 171.915C688.993 172.19 688.091 172.669 687.188 173.076C686.352 173.456 685.493 173.81 684.715 174.3C684.292 174.557 683.905 174.87 683.564 175.229C683.437 175.366 683.642 175.577 683.77 175.434L683.771 175.443Z" fill="#C99E47"/>
<path d="M684.558 176.686C685.548 176.066 686.561 175.49 687.597 174.958C688.116 174.691 688.641 174.436 689.172 174.193C689.438 174.07 689.704 173.951 689.971 173.835C690.108 173.776 690.245 173.719 690.383 173.658C690.5 173.595 690.638 173.576 690.768 173.607C690.947 173.667 691.024 173.385 690.847 173.327C690.65 173.278 690.442 173.303 690.262 173.397C690.048 173.485 689.836 173.578 689.624 173.672C689.191 173.863 688.759 174.063 688.333 174.268C687.471 174.684 686.624 175.13 685.792 175.606C685.325 175.874 684.863 176.15 684.408 176.435C684.249 176.533 684.396 176.783 684.555 176.686H684.558Z" fill="#C99E47"/>
<path d="M645.895 129.171L640.236 138.66L651.891 181.696H664.023L652.661 140.038L645.895 129.171Z" fill="#3D4731"/>
<path d="M670.898 180.991L661.1 183.691L645.895 129.171C645.895 129.171 647.026 126.813 650.264 125.919C653.847 124.931 655.692 126.468 655.692 126.468L670.898 180.991Z" fill="#4F5E40"/>
<path d="M650.23 125.929C649.825 126.041 649.43 126.183 649.047 126.355C651.748 126.021 653.137 127.169 653.137 127.169L668.341 181.689L670.865 180.992L655.658 126.475C655.658 126.475 653.813 124.942 650.23 125.929Z" fill="#3D4731"/>
<path d="M647.851 130.309L647.905 130.26C647.917 130.249 647.997 130.185 647.939 130.23C647.88 130.275 647.949 130.223 647.957 130.219L648.017 130.178C648.111 130.117 648.209 130.061 648.31 130.012C648.36 129.986 648.413 129.964 648.464 129.94C648.372 129.984 648.464 129.94 648.505 129.925C648.612 129.883 648.719 129.845 648.827 129.808C649.294 129.651 649.762 129.498 650.222 129.351C651.166 129.038 652.133 128.796 653.114 128.627L653.332 128.595H653.313L653.448 128.578C653.585 128.562 653.722 128.548 653.859 128.538C654.142 128.515 654.426 128.505 654.71 128.507C654.865 128.507 655.014 128.446 655.124 128.337C655.233 128.228 655.295 128.081 655.295 127.927C655.295 127.773 655.233 127.625 655.124 127.516C655.014 127.407 654.865 127.346 654.71 127.346C652.592 127.334 650.546 127.999 648.563 128.671C648.004 128.861 647.464 129.084 647.025 129.484C646.915 129.593 646.854 129.741 646.854 129.895C646.854 130.049 646.915 130.197 647.025 130.306C647.136 130.412 647.284 130.471 647.438 130.471C647.592 130.471 647.74 130.412 647.851 130.306V130.309Z" fill="#C99E47"/>
<path d="M648.196 132.583C648.311 132.583 648.424 132.549 648.52 132.486C648.616 132.422 648.691 132.331 648.735 132.225C648.78 132.119 648.791 132.002 648.769 131.889C648.746 131.777 648.69 131.673 648.609 131.592C648.527 131.511 648.423 131.455 648.31 131.433C648.196 131.411 648.079 131.422 647.972 131.466C647.865 131.51 647.774 131.584 647.71 131.68C647.646 131.776 647.611 131.888 647.611 132.003C647.611 132.157 647.673 132.304 647.782 132.413C647.892 132.522 648.041 132.583 648.196 132.583V132.583Z" fill="#C99E47"/>
<path d="M648.476 132.473C648.703 132.367 648.932 132.264 649.162 132.167C649.073 132.204 649.193 132.156 649.222 132.144L649.396 132.073L649.746 131.938C650.208 131.767 650.676 131.612 651.149 131.474C651.622 131.336 652.1 131.22 652.584 131.125C652.817 131.077 653.058 131.034 653.297 130.994C653.413 130.975 653.53 130.957 653.647 130.941L653.833 130.914C653.824 130.914 653.742 130.925 653.811 130.914L653.944 130.898C654.496 130.83 655.049 130.788 655.605 130.771C655.759 130.771 655.908 130.71 656.018 130.601C656.127 130.492 656.189 130.344 656.189 130.19C656.189 130.036 656.127 129.888 656.018 129.779C655.908 129.671 655.759 129.609 655.605 129.609C653.543 129.675 651.504 130.067 649.567 130.771C648.999 130.979 648.44 131.211 647.891 131.468C647.614 131.597 647.52 132.015 647.682 132.263C647.763 132.392 647.891 132.487 648.039 132.525C648.188 132.564 648.346 132.544 648.481 132.47L648.476 132.473Z" fill="#C99E47"/>
<path d="M659.933 173.395C659.967 173.363 660 173.33 660.037 173.299C660.073 173.267 660.154 173.22 660.066 173.273C660.159 173.214 660.248 173.157 660.345 173.099C660.442 173.041 660.515 173.014 660.601 172.976C660.496 173.022 660.62 172.969 660.661 172.954L660.82 172.898C661.251 172.762 661.689 172.651 662.133 172.564C662.601 172.465 663.072 172.381 663.548 172.315L663.631 172.303C663.607 172.303 663.526 172.317 663.644 172.303L663.811 172.282L664.176 172.242C664.419 172.217 664.662 172.196 664.905 172.18C665.459 172.143 666.013 172.129 666.567 172.135C666.722 172.135 666.87 172.074 666.98 171.965C667.089 171.856 667.151 171.708 667.151 171.554C667.151 171.4 667.089 171.252 666.98 171.143C666.87 171.034 666.722 170.973 666.567 170.973C665.551 170.961 664.535 171.023 663.528 171.157C662.53 171.289 661.511 171.454 660.551 171.764C660.012 171.921 659.516 172.199 659.103 172.577C658.997 172.687 658.938 172.834 658.939 172.986C658.94 173.138 659.002 173.284 659.11 173.391C659.218 173.499 659.365 173.56 659.518 173.562C659.671 173.563 659.819 173.504 659.929 173.399L659.933 173.395Z" fill="#C99E47"/>
<path d="M660.854 175.77C661.027 175.655 661.21 175.554 661.399 175.467C661.459 175.438 661.383 175.467 661.375 175.477L661.445 175.449L661.586 175.396C661.689 175.359 661.794 175.326 661.898 175.294C662.331 175.162 662.769 175.048 663.204 174.928C663.671 174.8 664.128 174.669 664.592 174.547C664.819 174.488 665.047 174.431 665.276 174.382C665.385 174.358 665.495 174.336 665.606 174.316L665.771 174.288L665.854 174.275C665.865 174.275 665.971 174.259 665.915 174.266C665.859 174.273 665.942 174.266 665.948 174.266L666.057 174.255L666.25 174.239C666.379 174.231 666.508 174.228 666.637 174.229C666.766 174.23 666.894 174.236 667.021 174.249L667.103 174.257C667.042 174.257 667.065 174.257 667.113 174.257C667.186 174.268 667.259 174.281 667.331 174.296C667.629 174.359 667.976 174.21 668.05 173.891C668.116 173.601 667.962 173.243 667.642 173.177C666.608 172.962 665.568 173.107 664.553 173.359C663.609 173.591 662.667 173.86 661.734 174.131C661.212 174.264 660.716 174.48 660.264 174.769C660.014 174.941 659.873 175.286 660.054 175.564C660.215 175.811 660.585 175.957 660.854 175.772V175.77Z" fill="#C99E47"/>
<path d="M661.193 167.568C661.478 166.709 661.699 165.831 661.854 164.939H660.728L661.546 167.66C661.68 168.104 661.814 168.548 661.946 168.992C662.011 169.205 662.063 169.422 662.14 169.631C662.175 169.748 662.243 169.853 662.336 169.934C662.429 170.014 662.542 170.067 662.664 170.085C662.786 170.103 662.911 170.082 663.022 170.027C663.132 169.972 663.224 169.885 663.283 169.778C663.335 169.689 663.362 169.589 663.362 169.487C663.362 169.385 663.335 169.285 663.283 169.197L663.272 169.178C663.236 169.106 663.187 169.043 663.126 168.991C663.065 168.939 662.994 168.9 662.917 168.877C662.84 168.853 662.759 168.846 662.68 168.855C662.6 168.864 662.523 168.89 662.453 168.93C662.384 168.97 662.323 169.024 662.276 169.088C662.228 169.152 662.194 169.225 662.177 169.303C662.159 169.381 662.157 169.462 662.172 169.54C662.187 169.619 662.218 169.693 662.263 169.759C662.263 169.765 662.271 169.771 662.275 169.778V169.197L662.262 169.22L662.613 168.953L662.588 168.961L663.038 169.019L663.015 169.005L663.225 169.213C663.259 169.311 663.268 169.329 663.249 169.272L663.225 169.19L663.183 169.05L663.092 168.745C663.036 168.561 662.98 168.376 662.925 168.19C662.804 167.792 662.684 167.394 662.566 166.996C662.332 166.209 662.096 165.423 661.856 164.636C661.821 164.515 661.747 164.408 661.646 164.331C661.544 164.254 661.421 164.212 661.293 164.21C661.054 164.22 660.774 164.381 660.73 164.636C660.575 165.527 660.353 166.406 660.069 167.265C660.048 167.339 660.042 167.415 660.052 167.491C660.061 167.567 660.086 167.64 660.124 167.706C660.161 167.773 660.212 167.831 660.273 167.878C660.333 167.925 660.402 167.959 660.476 167.979C660.626 168.017 660.784 167.996 660.918 167.92C661.052 167.845 661.151 167.721 661.195 167.574L661.193 167.568Z" fill="#C99E47"/>
<path d="M631.137 178.247V163.488H574.227C574.227 163.488 572.24 165.992 572.24 170.868C572.24 176.266 574.227 178.247 574.227 178.247H631.137Z" fill="#E5B64E"/>
<path d="M572.238 170.817C572.238 170.208 572.271 169.6 572.335 168.994C572.733 172.904 574.222 174.395 574.222 174.395H631.137V178.195H574.227C574.227 178.195 572.238 176.215 572.238 170.817Z" fill="#C99E47"/>
<path d="M617.786 176.258C617.185 176.302 616.582 176.269 615.99 176.16C615.862 173.734 615.959 165.631 615.959 165.631C615.959 165.631 616.216 165.406 617.988 165.631C617.281 166.63 617.191 176.302 617.786 176.258Z" fill="#B77158"/>
<path d="M620.586 176.425C619.985 176.468 619.382 176.435 618.79 176.326C618.662 173.9 618.759 165.797 618.759 165.797C618.759 165.797 619.016 165.572 620.788 165.797C620.081 166.8 619.991 176.472 620.586 176.425Z" fill="#B77158"/>
<path d="M629.402 166.369C629.007 169.491 628.626 172.744 629.656 175.719H622.344C622.264 175.726 622.183 175.712 622.11 175.681C622.035 175.631 621.977 175.561 621.943 175.478C621.5 174.615 621.483 173.606 621.493 172.637C621.504 171.524 621.538 170.412 621.592 169.3C621.641 168.317 621.54 167.047 621.853 166.125C622.491 166.203 629.372 166.611 629.402 166.369Z" fill="#B77158"/>
<path opacity="0.25" d="M575.071 165.428C576.285 164.935 577.655 165.183 578.953 165.361C584.225 166.081 589.587 165.513 594.892 165.966C595.387 166.008 596.024 166.198 596.024 166.698C596.024 167.23 595.305 167.395 594.77 167.395C589.655 167.377 584.544 167.548 579.437 167.907C578.486 167.974 577.422 168.103 576.826 168.844C576.3 169.497 576.125 170.605 575.292 170.718C574.34 170.847 573.558 169.244 573.433 168.459C573.24 167.241 573.915 165.896 575.071 165.428Z" fill="white"/>
<path opacity="0.25" d="M598.239 166.11C599.024 165.688 599.984 165.877 600.863 166.04C603.029 166.43 605.237 166.543 607.432 166.375C607.796 166.347 608.17 166.312 608.519 166.414C608.869 166.516 609.195 166.795 609.231 167.156C609.267 167.518 608.987 167.877 608.647 168.036C608.306 168.195 607.915 168.208 607.538 168.216C605.2 168.268 602.866 168.271 600.534 168.225C600.007 168.215 599.472 168.201 598.97 168.04C598.171 167.785 597.083 166.729 598.239 166.11Z" fill="white"/>
<path d="M631.111 163.561V151.764H586.851C586.851 151.764 585.31 153.764 585.31 157.662C585.31 161.977 586.851 163.561 586.851 163.561H631.111Z" fill="#6F53AD"/>
<path d="M585.31 157.621C585.31 157.134 585.335 156.648 585.385 156.164C585.695 159.29 586.851 160.481 586.851 160.481H631.111V163.519H586.851C586.851 163.519 585.31 161.936 585.31 157.621Z" fill="#5E4A96"/>
<path opacity="0.25" d="M587.513 153.309C588.456 152.915 589.522 153.114 590.531 153.256C594.631 153.837 598.805 153.372 602.926 153.739C603.311 153.773 603.806 153.929 603.806 154.32C603.806 154.745 603.248 154.876 602.832 154.875C598.854 154.861 594.881 154.998 590.912 155.285C590.173 155.339 589.345 155.442 588.883 156.033C588.474 156.556 588.337 157.441 587.689 157.532C586.949 157.635 586.341 156.353 586.244 155.725C586.088 154.762 586.613 153.688 587.513 153.309Z" fill="white"/>
<path opacity="0.25" d="M605.534 153.858C606.145 153.521 606.89 153.676 607.574 153.802C609.258 154.115 610.976 154.205 612.683 154.069C612.964 154.028 613.251 154.039 613.528 154.102C613.8 154.184 614.053 154.406 614.082 154.695C614.111 154.985 613.891 155.276 613.626 155.392C613.361 155.509 613.057 155.529 612.764 155.536C610.948 155.578 609.133 155.581 607.318 155.543C606.907 155.555 606.497 155.505 606.102 155.396C605.474 155.197 604.63 154.355 605.534 153.858Z" fill="white"/>
<path d="M631.111 151.835V140.037H578.175C578.175 140.037 576.331 142.037 576.331 145.936C576.331 150.25 578.175 151.835 578.175 151.835H631.111Z" fill="#4F5E40"/>
<path d="M576.328 145.894C576.328 145.407 576.358 144.921 576.418 144.438C576.788 147.563 578.171 148.755 578.171 148.755H631.108V151.799H578.171C578.171 151.799 576.328 150.21 576.328 145.894Z" fill="#3D4731"/>
<path d="M764.891 178.246H563.919V188.588H764.891V178.246Z" fill="#CCA079"/>
<path d="M645.895 178.464H631.048V132.221C631.048 132.221 633.566 130.609 638.472 130.609C643.902 130.609 645.895 132.221 645.895 132.221V178.464Z" fill="#5B3E3E"/>
<path d="M638.472 130.609C637.751 130.609 637.085 130.645 636.468 130.705C640.266 131.053 641.719 132.221 641.719 132.221V178.464H645.895V132.221C645.895 132.221 643.902 130.609 638.472 130.609Z" fill="#4C3434"/>
<path d="M645.895 136.814C643.402 135.827 640.581 135.768 637.883 135.982C635.703 136.155 633.51 136.495 631.456 137.267L631.049 137.418V139.777C631.612 139.465 632.198 139.196 632.802 138.972C636.487 137.581 640.503 137.3 644.348 138.166C644.881 138.281 645.401 138.447 645.902 138.662L645.895 136.814Z" fill="#C69775"/>
<path d="M645.895 138.66V136.814C644.573 136.29 643.158 136.03 641.719 135.93V137.753C642.602 137.832 643.477 137.969 644.341 138.166C644.874 138.279 645.394 138.444 645.895 138.66V138.66Z" fill="#AD8468"/>
<path d="M645.878 142.59V140.742C644.557 140.218 643.142 139.958 641.702 139.859V141.682C642.584 141.761 643.46 141.898 644.324 142.094C644.857 142.209 645.378 142.375 645.878 142.59V142.59Z" fill="#AD8468"/>
<path d="M645.895 140.714C643.402 139.728 640.581 139.669 637.883 139.882C635.703 140.055 633.51 140.396 631.456 141.167L631.049 141.318V143.677C631.612 143.365 632.198 143.096 632.802 142.874C636.487 141.481 640.503 141.2 644.348 142.066C644.881 142.181 645.401 142.347 645.902 142.562L645.895 140.714Z" fill="#C69775"/>
<path d="M645.878 142.59V140.742C644.557 140.218 643.142 139.958 641.702 139.859V141.682C642.584 141.761 643.46 141.898 644.324 142.094C644.857 142.209 645.378 142.375 645.878 142.59V142.59Z" fill="#AD8468"/>
<path d="M643.838 175.949H633.788V166.552C633.788 166.552 636.748 166.028 638.813 166.019C641.183 166.008 643.838 166.552 643.838 166.552V175.949Z" fill="#C69775"/>
<path d="M643.838 166.591C643.838 166.591 642.89 166.397 641.618 166.242C641.627 166.292 641.635 166.342 641.642 166.39C641.827 167.668 641.626 168.975 641.19 170.181C640.939 170.872 640.613 171.534 640.219 172.156C639.86 172.742 639.428 173.28 638.934 173.759C637.563 175.051 635.678 175.637 633.777 175.804V175.98H643.826L643.838 166.591Z" fill="#AD8468"/>
<path opacity="0.1" d="M633.056 133.769C632.869 134.484 633.071 135.234 633.232 135.955C634.548 141.841 633.137 147.998 633.752 153.996C633.783 154.292 633.929 154.679 634.22 154.636C634.468 154.6 634.547 154.288 634.57 154.039C635.06 147.719 633.833 141.252 635.279 135.077C635.432 134.423 635.719 133.066 634.954 132.637C634.188 132.209 633.235 133.078 633.056 133.769Z" fill="white"/>
<path opacity="0.1" d="M633.889 156.344L634.071 160.558C634.066 160.832 634.115 161.105 634.216 161.36C634.333 161.607 634.585 161.813 634.86 161.792C634.945 161.788 635.025 161.753 635.087 161.694C635.162 161.586 635.192 161.453 635.17 161.323C635.117 160.001 635.064 158.681 635.011 157.362C634.993 156.935 635.148 155.939 634.734 155.654C634.212 155.298 633.869 155.887 633.889 156.344Z" fill="white"/>
<path d="M618.68 141.935C618.442 144.161 618.324 146.397 618.329 148.635C618.329 149.237 618.354 149.863 618.575 150.431C618.684 150.713 618.972 150.94 619.293 150.837C619.57 150.747 619.819 150.425 619.701 150.122C619.657 150.008 619.621 149.892 619.591 149.774C619.576 149.716 619.564 149.658 619.553 149.597C619.553 149.572 619.545 149.546 619.54 149.521C619.512 149.358 619.54 149.589 619.54 149.495C619.52 149.242 619.505 148.991 619.502 148.738C619.502 148.197 619.502 147.657 619.519 147.117C619.545 146.017 619.599 144.917 619.684 143.819C619.733 143.19 619.791 142.561 619.858 141.933C619.89 141.63 619.566 141.339 619.273 141.352C618.923 141.367 618.724 141.608 618.689 141.933L618.68 141.935Z" fill="#C99E47"/>
<path d="M620.886 141.941C620.687 144.419 620.591 146.905 620.599 149.399V149.918C620.599 150.136 620.589 150.358 620.706 150.554C620.793 150.698 620.933 150.803 621.096 150.847C621.26 150.89 621.434 150.868 621.581 150.786C621.654 150.744 621.718 150.689 621.769 150.623C621.82 150.557 621.857 150.481 621.879 150.401C621.901 150.32 621.906 150.236 621.895 150.154C621.884 150.071 621.857 149.991 621.815 149.919C621.733 149.796 621.606 149.708 621.461 149.674C621.316 149.64 621.164 149.663 621.035 149.737C620.906 149.811 620.81 149.931 620.768 150.073C620.725 150.215 620.738 150.368 620.805 150.5C620.805 150.5 620.814 150.513 620.818 150.52L620.759 150.073L620.797 149.979L621.008 149.769L620.983 149.783L621.277 149.704H621.252L621.546 149.785L621.518 149.766L621.727 149.975C621.743 149.997 621.764 150.282 621.773 150.113C621.773 150.084 621.773 150.055 621.773 150.026C621.773 149.959 621.773 149.891 621.773 149.824C621.773 149.69 621.773 149.556 621.773 149.421C621.773 149.151 621.773 148.883 621.773 148.608C621.773 148.07 621.781 147.532 621.796 146.994C621.82 145.919 621.865 144.843 621.93 143.768C621.967 143.155 622.01 142.541 622.059 141.928C622.059 141.774 621.998 141.627 621.888 141.518C621.779 141.409 621.63 141.348 621.475 141.348C621.321 141.351 621.175 141.414 621.066 141.522C620.957 141.63 620.894 141.776 620.891 141.928L620.886 141.941Z" fill="#C99E47"/>
<path d="M627.979 142.012C627.89 144.258 627.924 146.507 628.082 148.749C628.127 149.381 628.181 150.012 628.245 150.644C628.275 150.944 628.491 151.24 628.829 151.224C629.12 151.212 629.446 150.968 629.413 150.644C629.186 148.405 629.082 146.156 629.101 143.906C629.108 143.272 629.123 142.638 629.148 142.005C629.148 141.851 629.086 141.703 628.977 141.594C628.867 141.485 628.719 141.424 628.564 141.424C628.41 141.427 628.263 141.489 628.154 141.598C628.045 141.706 627.983 141.852 627.979 142.005V142.012Z" fill="#C99E47"/>
<path d="M581.881 142.604C581.223 142.912 581.103 143.776 581.074 144.414C581.042 145.111 581.221 145.808 581.699 146.326C582.126 146.791 582.751 147.043 583.357 147.183C584.056 147.337 584.768 147.431 585.483 147.464C586.716 147.534 588.271 147.531 589.115 146.471C589.527 145.953 589.719 145.295 589.65 144.638C589.581 143.986 589.293 143.376 588.832 142.906C587.688 141.723 585.939 141.618 584.414 141.953C584.34 141.973 584.27 142.007 584.21 142.054C584.149 142.101 584.099 142.159 584.061 142.226C584.023 142.292 583.999 142.365 583.989 142.441C583.98 142.517 583.985 142.593 584.006 142.667C584.05 142.814 584.149 142.938 584.283 143.013C584.417 143.089 584.575 143.11 584.724 143.072C584.875 143.04 585.027 143.01 585.18 142.986C585.197 142.986 585.31 142.968 585.237 142.977L585.296 142.97C585.378 142.962 585.458 142.954 585.54 142.948C585.696 142.938 585.852 142.935 586.008 142.938C586.08 142.938 586.152 142.938 586.225 142.947L586.334 142.956C586.379 142.956 586.45 142.969 586.366 142.956C586.644 142.995 586.916 143.065 587.177 143.164C587.294 143.206 587.162 143.155 587.16 143.156C587.188 143.165 587.215 143.177 587.24 143.192C587.3 143.22 587.357 143.25 587.417 143.281C587.526 143.341 587.63 143.409 587.732 143.478C587.835 143.546 587.732 143.471 587.72 143.466C587.744 143.482 587.767 143.5 587.787 143.521C587.838 143.563 587.885 143.606 587.933 143.651C587.981 143.696 588.015 143.732 588.05 143.774C588.07 143.795 588.089 143.817 588.107 143.839C588.167 143.908 588.158 143.859 588.107 143.839C588.143 143.854 588.187 143.948 588.208 143.98C588.243 144.034 588.277 144.09 588.307 144.147C588.321 144.172 588.335 144.198 588.347 144.225C588.359 144.251 588.4 144.326 588.362 144.251C588.325 144.177 588.362 144.26 588.373 144.279C588.383 144.299 588.396 144.346 588.407 144.379C588.424 144.433 588.439 144.487 588.451 144.542C588.459 144.576 588.466 144.61 588.473 144.645C588.48 144.68 588.487 144.761 588.473 144.672C588.459 144.582 588.479 144.764 588.48 144.788C588.48 144.851 588.48 144.914 588.48 144.977C588.483 145.034 588.479 145.09 588.466 145.145C588.512 145.02 588.473 145.088 588.466 145.135C588.466 145.162 588.456 145.19 588.449 145.217C588.435 145.271 588.42 145.324 588.403 145.377C588.395 145.404 588.384 145.429 588.376 145.456C588.355 145.523 588.427 145.353 588.376 145.456C588.352 145.506 588.327 145.555 588.299 145.604C588.282 145.633 588.263 145.662 588.244 145.691C588.226 145.72 588.183 145.784 588.229 145.716C588.275 145.649 588.229 145.716 588.209 145.738L588.152 145.801C588.106 145.849 588.057 145.892 588.008 145.935C587.915 146.016 588.022 145.923 588.022 145.924C588 145.942 587.976 145.959 587.951 145.973C587.896 146.009 587.84 146.042 587.781 146.072L587.703 146.111C587.686 146.119 587.599 146.156 587.674 146.125C587.749 146.094 587.66 146.125 587.641 146.137L587.537 146.173C587.417 146.211 587.294 146.242 587.169 146.266C587.111 146.277 587.052 146.287 586.991 146.297C586.906 146.311 587.098 146.285 587.011 146.297L586.895 146.31C586.627 146.332 586.359 146.341 586.091 146.335C585.767 146.335 585.445 146.32 585.123 146.29C584.962 146.277 584.8 146.261 584.64 146.242L584.523 146.229C584.426 146.218 584.606 146.24 584.509 146.229C584.412 146.217 584.34 146.204 584.256 146.19C583.993 146.152 583.732 146.1 583.474 146.033C583.357 146.001 583.24 145.964 583.124 145.917L583.043 145.886C582.966 145.856 583.135 145.93 583.063 145.893C582.99 145.856 582.946 145.838 582.89 145.807C582.834 145.775 582.767 145.736 582.709 145.691C582.684 145.676 582.661 145.66 582.64 145.642C582.739 145.746 582.651 145.642 582.628 145.627C582.581 145.585 582.536 145.54 582.494 145.492C582.481 145.478 582.421 145.407 582.471 145.47C582.522 145.533 582.438 145.418 582.428 145.401C582.384 145.347 582.35 145.285 582.328 145.219C582.341 145.314 582.348 145.27 582.328 145.231C582.308 145.191 582.297 145.144 582.284 145.099C582.264 145.033 582.248 144.965 582.237 144.896C582.23 144.859 582.196 144.764 582.237 144.889C582.229 144.851 582.225 144.812 582.226 144.773C582.216 144.623 582.216 144.472 582.226 144.322L582.233 144.228C582.233 144.196 582.252 144.05 582.233 144.195C582.24 144.127 582.253 144.061 582.266 143.996C582.279 143.931 582.29 143.88 582.308 143.816C582.315 143.79 582.324 143.764 582.332 143.738C582.367 143.613 582.272 143.839 582.332 143.726C582.345 143.704 582.358 143.68 582.37 143.658C582.399 143.615 582.399 143.614 582.37 143.658C582.341 143.702 582.341 143.695 582.37 143.658C582.439 143.632 582.332 143.59 582.338 143.673C582.338 143.659 582.432 143.621 582.44 143.616C582.718 143.486 582.81 143.069 582.65 142.821C582.569 142.692 582.441 142.597 582.292 142.559C582.144 142.52 581.986 142.54 581.851 142.614L581.881 142.604Z" fill="#C99E47"/>
<path opacity="0.25" d="M578.962 141.587C580.091 141.194 581.366 141.392 582.574 141.534C587.483 142.115 592.469 141.65 597.399 142.017C597.859 142.051 598.451 142.208 598.451 142.598C598.451 143.023 597.782 143.155 597.282 143.153C592.525 143.139 587.77 143.276 583.02 143.563C582.135 143.617 581.15 143.72 580.591 144.313C580.103 144.834 579.939 145.719 579.165 145.81C578.279 145.913 577.552 144.631 577.436 144.004C577.26 143.037 577.887 141.963 578.962 141.587Z" fill="white"/>
<path opacity="0.25" d="M600.508 142.132C601.24 141.795 602.132 141.95 602.948 142.077C604.969 142.39 607.018 142.479 609.059 142.344C609.398 142.322 609.745 142.294 610.071 142.376C610.397 142.459 610.698 142.681 610.733 142.97C610.769 143.259 610.5 143.551 610.188 143.667C609.876 143.783 609.508 143.804 609.157 143.811C606.986 143.853 604.815 143.855 602.643 143.818C602.154 143.829 601.665 143.78 601.187 143.67C600.445 143.472 599.438 142.628 600.508 142.132Z" fill="white"/>
<path d="M668.744 142.475C667.43 142.475 665.744 140.917 664.642 138.687C664.021 137.43 663.667 136.132 663.647 135.03C663.626 133.869 663.98 133.047 664.645 132.723C664.847 132.626 665.069 132.576 665.294 132.578C666.607 132.578 668.294 134.136 669.396 136.366C670.018 137.623 670.371 138.922 670.39 140.023C670.413 141.185 670.057 142.006 669.393 142.33C669.191 142.428 668.969 142.477 668.744 142.475V142.475ZM665.294 133.043C665.141 133.041 664.989 133.074 664.851 133.14C664.365 133.373 664.097 134.063 664.114 135.021C664.133 136.056 664.465 137.285 665.062 138.483C666.071 140.527 667.62 142.011 668.744 142.011C668.897 142.013 669.049 141.979 669.187 141.913C669.673 141.681 669.942 140.991 669.924 140.032C669.904 138.997 669.574 137.768 668.977 136.571C667.966 134.526 666.416 133.043 665.294 133.043Z" fill="#C99E47"/>
<path d="M748.692 165.068C749.054 164.795 749.501 164.759 749.94 164.757C750.488 164.757 751.036 164.771 751.584 164.777C752.692 164.793 753.804 164.771 754.913 164.839C755.487 164.857 756.054 164.972 756.589 165.178C756.657 165.214 756.736 165.224 756.81 165.204C756.884 165.185 756.948 165.138 756.989 165.074C757.028 165.007 757.039 164.928 757.019 164.854C757 164.779 756.951 164.716 756.885 164.676C755.833 164.234 754.694 164.238 753.572 164.223C752.385 164.207 751.197 164.179 750.01 164.176C749.455 164.176 748.856 164.221 748.397 164.566C748.333 164.607 748.286 164.67 748.266 164.744C748.247 164.818 748.256 164.896 748.292 164.963C748.332 165.029 748.396 165.077 748.471 165.097C748.545 165.117 748.625 165.106 748.692 165.068V165.068Z" fill="#E5B64E"/>
<path d="M748.062 176.966C749.17 176.587 750.296 176.19 751.466 176.048C752.636 175.905 753.803 176.034 754.933 176.304C755.588 176.461 756.23 176.661 756.866 176.885C756.903 176.895 756.942 176.898 756.98 176.893C757.018 176.889 757.055 176.877 757.088 176.858C757.121 176.839 757.151 176.814 757.174 176.784C757.198 176.754 757.215 176.719 757.225 176.682C757.236 176.646 757.238 176.607 757.234 176.569C757.229 176.531 757.217 176.495 757.198 176.462C757.179 176.429 757.154 176.399 757.123 176.376C757.093 176.353 757.058 176.335 757.021 176.325C755.866 175.928 754.684 175.599 753.465 175.468C752.252 175.35 751.026 175.46 749.853 175.793C749.195 175.971 748.55 176.192 747.907 176.412C747.833 176.434 747.771 176.484 747.733 176.551C747.695 176.617 747.684 176.696 747.703 176.77C747.724 176.844 747.774 176.907 747.841 176.944C747.908 176.982 747.987 176.992 748.062 176.972V176.966Z" fill="#E5B64E"/>
<path d="M750.573 167.541C750.667 167.287 750.99 167.192 751.236 167.143C751.566 167.089 751.905 167.107 752.227 167.198C752.542 167.274 752.816 167.469 752.99 167.742C753.144 167.996 753.198 168.299 753.142 168.591C753.025 169.137 752.558 169.456 752.105 169.735C751.622 170.035 751.09 170.316 750.73 170.763C750.48 171.092 750.331 171.487 750.302 171.899C750.245 172.416 750.217 172.944 750.175 173.457C750.176 173.533 750.207 173.607 750.262 173.661C750.316 173.715 750.39 173.746 750.467 173.747L753.973 173.761C754.349 173.761 754.35 173.18 753.973 173.18L750.467 173.166L750.759 173.457C750.799 172.963 750.832 172.469 750.876 171.976C750.89 171.65 751.01 171.337 751.216 171.084C751.619 170.629 752.211 170.387 752.712 170.031C753.287 169.629 753.757 169.077 753.744 168.341C753.729 167.491 753.129 166.822 752.313 166.621C751.526 166.427 750.333 166.504 750.008 167.386C749.998 167.423 749.995 167.461 750 167.499C750.004 167.537 750.016 167.573 750.035 167.607C750.054 167.64 750.08 167.669 750.11 167.692C750.14 167.716 750.175 167.733 750.212 167.743C750.249 167.753 750.287 167.756 750.325 167.752C750.364 167.747 750.4 167.735 750.434 167.716C750.467 167.697 750.496 167.672 750.52 167.642C750.544 167.612 750.561 167.577 750.571 167.541H750.573Z" fill="#E5B64E"/>
<path d="M573.748 228.555L567.613 220.627L532.357 221.31C532.357 221.31 531.229 221.33 529.733 223.982C528.681 225.84 528.111 232.372 528.111 232.372L573.748 228.555Z" fill="#788C61"/>
<path d="M572.557 222.295L566.823 213.699H545.262C545.262 213.699 544.113 213.815 543.594 214.385C543.076 214.954 541.479 224.692 541.479 224.692L572.557 222.3V222.295Z" fill="#DD5A31"/>
<path d="M548.486 244.947H448L461.356 234.508H548.486H635.616L648.971 244.947H548.486Z" fill="#9B785D"/>
<path d="M499.815 196.791C499.815 196.791 498.536 204.007 498.263 204.399C497.989 204.79 505.633 235.478 505.633 235.478L512.246 241.351L499.815 196.791Z" fill="#4C3434"/>
<path d="M648.971 244.947H448V255.289H648.971V244.947Z" fill="#CCA079"/>
<path d="M469.314 242.015C469.314 242.015 467.54 243.353 464.672 243.353C460.731 243.353 459.147 242.015 459.147 242.015V173.506C459.147 173.506 460.872 172.188 464.231 172.188C467.949 172.188 469.314 173.506 469.314 173.506V242.015Z" fill="#E8E89C"/>
<path d="M464.231 172.188H464.016C465.652 172.577 466.304 173.207 466.304 173.207V241.716C466.304 241.716 464.551 243.04 461.708 243.055C462.682 243.26 463.676 243.359 464.672 243.351C467.54 243.351 469.314 242.013 469.314 242.013V173.506C469.314 173.506 467.949 172.188 464.231 172.188Z" fill="#CECC8D"/>
<path d="M526.553 237.411C526.553 237.411 524.333 240.315 520.952 240.939C516.083 241.846 512.246 241.354 512.246 241.354L499.815 196.795C499.815 196.795 501.802 194.572 506.535 193.269C511.767 191.827 514.122 192.85 514.122 192.85L526.553 237.411Z" fill="#5B3E3E"/>
<path d="M506.535 193.27C505.841 193.461 505.208 193.673 504.629 193.894C508.382 193.216 510.097 193.961 510.097 193.961L523.302 240.096L526.553 237.412L514.122 192.847C514.122 192.847 511.767 191.825 506.535 193.27Z" fill="#4C3434"/>
<path d="M515.357 197.277C512.69 196.989 509.956 197.681 507.41 198.604C505.355 199.351 503.334 200.26 501.562 201.549L501.211 201.803L501.846 204.077C502.302 203.627 502.792 203.213 503.312 202.838C506.489 200.517 510.283 199.18 514.221 198.993C514.767 198.962 515.315 198.984 515.857 199.058L515.357 197.277Z" fill="#C69775"/>
<path d="M515.852 199.052L515.356 197.271C513.94 197.118 512.508 197.242 511.094 197.529L511.58 199.287C512.451 199.128 513.332 199.028 514.217 198.987C514.763 198.956 515.311 198.977 515.852 199.052Z" fill="#AD8468"/>
<path d="M516.892 202.843L516.396 201.062C514.982 200.909 513.548 201.033 512.134 201.32L512.625 203.078C513.496 202.919 514.376 202.819 515.261 202.778C515.806 202.747 516.352 202.769 516.892 202.843V202.843Z" fill="#AD8468"/>
<path d="M516.405 201.032C513.737 200.743 511.003 201.435 508.459 202.359C506.404 203.105 504.383 204.014 502.616 205.304C502.499 205.391 502.382 205.474 502.265 205.558L502.899 207.831C503.355 207.381 503.845 206.967 504.365 206.592C507.542 204.272 511.337 202.935 515.275 202.748C515.821 202.717 516.369 202.738 516.911 202.813L516.405 201.032Z" fill="#C69775"/>
<path d="M516.892 202.843L516.396 201.062C514.982 200.909 513.548 201.033 512.134 201.32L512.625 203.078C513.496 202.919 514.376 202.819 515.261 202.778C515.806 202.747 516.352 202.769 516.892 202.843V202.843Z" fill="#AD8468"/>
<path d="M523.894 235.531L514.206 238.202L511.68 229.152C511.68 229.152 514.393 227.86 516.382 227.303C518.663 226.663 521.369 226.48 521.369 226.48L523.894 235.531Z" fill="#C69775"/>
<path d="M521.379 226.512C521.379 226.512 520.413 226.577 519.15 226.765C519.173 226.811 519.194 226.856 519.213 226.901C519.734 228.081 519.893 229.396 519.797 230.675C519.741 231.408 519.606 232.133 519.394 232.838C519.207 233.497 518.936 234.13 518.589 234.722C517.615 236.332 515.955 237.394 514.168 238.063L514.215 238.234L523.904 235.562L521.379 226.512Z" fill="#AD8468"/>
<path opacity="0.1" d="M502.165 197.751C502.178 198.49 502.574 199.159 502.922 199.81C505.773 205.133 506.069 211.439 508.274 217.057C508.383 217.335 508.625 217.668 508.902 217.548C509.135 217.447 509.122 217.125 509.073 216.881C507.846 210.66 504.926 204.755 504.66 198.421C504.63 197.75 504.543 196.365 503.69 196.159C502.837 195.954 502.152 197.037 502.165 197.751Z" fill="white"/>
<path opacity="0.1" d="M509.036 219.283C509.473 220.619 509.91 221.956 510.346 223.294C510.412 223.56 510.532 223.81 510.697 224.029C510.878 224.236 511.175 224.367 511.433 224.274C511.514 224.248 511.582 224.193 511.626 224.12C511.669 223.995 511.662 223.858 511.606 223.739C511.2 222.481 510.794 221.223 510.388 219.965C510.256 219.558 510.138 218.557 509.661 218.393C509.068 218.188 508.892 218.847 509.036 219.283Z" fill="white"/>
<path d="M613.864 198.774L614.378 204.077L605.968 237.474L600.468 243.057L612.433 198.594L613.864 198.774Z" fill="#84321F"/>
<path d="M600.468 243.058C600.468 243.058 598.071 243.889 595.998 243.058C593.434 242.03 592.687 240.735 592.687 240.735L606.084 196.452C606.084 196.452 607.869 195.303 610.44 196.072C613.286 196.922 613.864 198.777 613.864 198.777L600.468 243.058Z" fill="#AA4724"/>
<path d="M610.441 196.057C610.026 195.933 609.598 195.851 609.165 195.814C611.035 196.744 611.458 198.08 611.458 198.08L597.742 243.419L600.469 243.047L613.865 198.764C613.865 198.764 613.286 196.909 610.441 196.057Z" fill="#993E22"/>
<path d="M609.663 198.69C610.821 198.817 612.105 199.126 612.718 200.113C612.572 200.529 612.45 200.953 612.354 201.383C612.289 200.783 611.615 200.476 611.039 200.283C610.122 199.978 609.198 199.67 608.24 199.547C607.282 199.423 606.273 199.497 605.406 199.922C605.547 198.876 605.64 198.603 606.691 198.572C607.684 198.542 608.677 198.582 609.663 198.69V198.69Z" fill="#C69775"/>
<path d="M602.385 235.933L602.76 234.641C602.79 234.567 602.79 234.484 602.76 234.409C602.724 234.355 602.671 234.315 602.61 234.293C600.415 233.259 598.009 232.746 595.581 232.794C595.548 232.789 595.514 232.79 595.482 232.799C595.45 232.807 595.42 232.822 595.394 232.843C595.369 232.864 595.348 232.89 595.333 232.92C595.318 232.95 595.31 232.982 595.308 233.015C595.201 233.473 595.048 233.944 595.003 234.409C595.38 234.489 596.005 234.253 596.448 234.268C597.148 234.298 597.843 234.398 598.523 234.568C598.873 234.648 602.438 235.753 602.385 235.933Z" fill="#C69775"/>
<path d="M603.196 233.424L603.571 232.132C603.601 232.058 603.601 231.975 603.571 231.9C603.534 231.847 603.481 231.806 603.419 231.784C601.225 230.75 598.819 230.237 596.391 230.286C596.324 230.281 596.258 230.297 596.202 230.333C596.156 230.38 596.126 230.441 596.118 230.506C596.011 230.964 595.858 231.435 595.813 231.9C596.19 231.98 596.816 231.745 597.258 231.759C597.958 231.789 598.653 231.889 599.333 232.06C599.675 232.139 603.244 233.244 603.196 233.424Z" fill="#C69775"/>
<path d="M573.748 243.656H530.928C530.928 243.656 527.484 242.207 527.518 236.2C527.552 230.16 531.051 228.555 531.051 228.555H573.748V231.11H569.273L569.315 241.245H573.755L573.748 243.656Z" fill="#4F5E40"/>
<path d="M573.018 241.245H531.932C531.932 241.245 529.465 240.272 529.498 236.241C529.53 232.189 531.932 231.109 531.932 231.109H573.018C573.018 231.109 571.528 233.033 571.412 236.372C571.328 238.792 573.018 241.245 573.018 241.245Z" fill="#F7E4BC"/>
<path d="M530.801 233.473H571.896L571.688 234.247L530.801 233.473Z" fill="#D1C0A1"/>
<path d="M530.324 236.695H571.421L571.486 237.475L530.324 236.695Z" fill="#D1C0A1"/>
<path d="M530.71 238.305H571.668L571.896 239.013L530.71 238.305Z" fill="#D1C0A1"/>
<path d="M531.446 237.453C531.385 238.785 531.336 240.178 531.961 241.388C531.219 241.424 530.509 241.04 530.043 240.52C529.578 240.001 529.322 239.359 529.125 238.711C528.674 237.238 528.485 235.657 528.95 234.187C529.356 232.899 530.694 231.043 532.361 230.958C531.459 232.944 531.545 235.302 531.446 237.453Z" fill="#4C3434"/>
<path d="M572.557 228.641H543.681C543.681 228.641 541.358 228.031 541.381 225.505C541.404 222.978 543.764 222.293 543.764 222.293H572.557V223.367H569.541L569.569 227.625H572.561L572.557 228.641Z" fill="#AA4724"/>
<path d="M572.063 227.628H544.357C544.357 227.628 542.693 227.22 542.721 225.527C542.749 223.835 544.357 223.371 544.357 223.371H572.063C571.426 223.938 571.038 224.73 570.98 225.578C570.924 226.597 572.063 227.628 572.063 227.628Z" fill="#F7E4BC"/>
<path d="M543.594 224.362H571.307L571.166 224.688L543.594 224.362Z" fill="#D1C0A1"/>
<path d="M543.273 225.716H570.986L571.03 226.043L543.273 225.716Z" fill="#D1C0A1"/>
<path d="M543.533 226.393H571.153L571.307 226.689L543.533 226.393Z" fill="#D1C0A1"/>
<path d="M544.03 226.033C543.988 226.593 543.956 227.179 544.381 227.686C543.922 227.701 543.47 227.574 543.087 227.323C542.817 227.128 542.604 226.865 542.468 226.562C542.164 225.943 542.037 225.284 542.351 224.661C542.626 224.12 543.528 223.341 544.651 223.305C544.039 224.139 544.097 225.13 544.03 226.033Z" fill="#4C3434"/>
<path d="M563.55 247.843C563.537 246.406 563.684 244.972 563.649 243.535C563.593 241.142 563.469 238.656 561.429 236.723L555.848 236.678C556.955 237.232 557.459 238.527 557.679 239.74C558.062 241.857 557.87 244.03 557.913 246.181C557.956 248.332 558.255 250.575 559.487 252.345C559.72 250.953 560.228 249.622 560.983 248.428C561.247 249.244 561.691 249.992 562.284 250.615C562.877 251.238 563.603 251.721 564.409 252.029C563.746 250.748 563.563 249.28 563.55 247.843Z" fill="#AA4724"/>
<path d="M467.39 237.32C467.39 239.317 466.118 240.935 464.548 240.935C462.979 240.935 461.708 239.317 461.708 237.32C461.708 235.323 462.98 233.704 464.548 233.704C466.117 233.704 467.39 235.32 467.39 237.32Z" fill="#AFAC79"/>
<path d="M465.026 176.254H462.811V216.922H465.026V176.254Z" fill="#AFAC79"/>
<path d="M465.026 219.43H462.811V225.761H465.026V219.43Z" fill="#AFAC79"/>
<path d="M479.481 242.015C479.481 242.015 477.706 243.353 474.839 243.353C470.897 243.353 469.314 242.015 469.314 242.015V173.506C469.314 173.506 471.039 172.188 474.397 172.188C478.117 172.188 479.481 173.506 479.481 173.506V242.015Z" fill="#E8E89C"/>
<path d="M474.397 172.188H474.182C475.818 172.577 476.47 173.207 476.47 173.207V241.716C476.47 241.716 474.717 243.04 471.874 243.055C472.849 243.26 473.843 243.359 474.839 243.351C477.707 243.351 479.482 242.013 479.482 242.013V173.506C479.482 173.506 478.117 172.188 474.397 172.188Z" fill="#CECC8D"/>
<path d="M477.557 237.32C477.557 239.317 476.284 240.935 474.716 240.935C473.148 240.935 471.874 239.317 471.874 237.32C471.874 235.323 473.147 233.704 474.716 233.704C476.286 233.704 477.557 235.32 477.557 237.32Z" fill="#AFAC79"/>
<path d="M474.716 176.254H472.978V216.922H474.716V176.254Z" fill="#AFAC79"/>
<path d="M474.716 219.43H472.977V225.761H474.716V219.43Z" fill="#AFAC79"/>
<path d="M489.648 242.015C489.648 242.015 487.873 243.353 485.007 243.353C481.064 243.353 479.482 242.015 479.482 242.015V173.506C479.482 173.506 481.205 172.188 484.565 172.188C488.283 172.188 489.648 173.506 489.648 173.506V242.015Z" fill="#E8E89C"/>
<path d="M484.565 172.188H484.349C485.985 172.577 486.637 173.207 486.637 173.207V241.716C486.637 241.716 484.884 243.04 482.041 243.055C483.016 243.26 484.01 243.359 485.007 243.351C487.873 243.351 489.648 242.013 489.648 242.013V173.506C489.648 173.506 488.283 172.188 484.565 172.188Z" fill="#CECC8D"/>
<path d="M487.724 237.32C487.724 239.317 486.451 240.935 484.883 240.935C483.315 240.935 482.041 239.317 482.041 237.32C482.041 235.323 483.313 233.704 484.883 233.704C486.452 233.704 487.724 235.32 487.724 237.32Z" fill="#AFAC79"/>
<path d="M484.883 176.254H483.144V216.922H484.883V176.254Z" fill="#AFAC79"/>
<path d="M484.883 219.43H483.144V225.761H484.883V219.43Z" fill="#AFAC79"/>
<path d="M499.815 242.015C499.815 242.015 498.04 243.353 495.173 243.353C491.23 243.353 489.648 242.015 489.648 242.015V173.506C489.648 173.506 491.372 172.188 494.731 172.188C498.45 172.188 499.815 173.506 499.815 173.506V242.015Z" fill="#E8E89C"/>
<path d="M494.731 172.188H494.516C496.152 172.577 496.803 173.207 496.803 173.207V241.716C496.803 241.716 495.05 243.04 492.207 243.055C493.182 243.26 494.177 243.359 495.173 243.351C498.04 243.351 499.815 242.013 499.815 242.013V173.506C499.815 173.506 498.45 172.188 494.731 172.188Z" fill="#CECC8D"/>
<path d="M636.889 241.773C636.889 241.773 633.967 242.6 629.243 242.6C622.748 242.6 620.141 241.773 620.141 241.773V199.469C620.141 199.469 622.98 198.656 628.515 198.656C634.64 198.656 636.889 199.469 636.889 199.469V241.773Z" fill="#E5B64E"/>
<path d="M628.515 198.654H628.164C630.852 198.895 631.932 199.284 631.932 199.284V241.593C631.932 241.593 629.039 242.406 624.362 242.418C625.654 242.525 627.269 242.602 629.246 242.602C633.97 242.602 636.892 241.775 636.892 241.775V199.469C636.892 199.469 634.64 198.654 628.515 198.654Z" fill="#C99E47"/>
<path d="M620.14 241.484C620.14 241.484 618.68 242.14 616.318 242.14C613.071 242.14 611.761 241.484 611.761 241.484V207.881C611.761 207.881 613.18 207.234 615.948 207.234C619.01 207.234 620.135 207.881 620.135 207.881L620.14 241.484Z" fill="#4F5E40"/>
<path d="M615.954 207.234H615.776C617.122 207.425 617.661 207.734 617.661 207.734V241.336C617.661 241.336 616.214 241.985 613.876 241.992C614.686 242.093 615.502 242.142 616.318 242.138C618.68 242.138 620.141 241.481 620.141 241.481V207.881C620.141 207.881 619.016 207.234 615.954 207.234Z" fill="#3D4731"/>
<path d="M497.89 237.32C497.89 239.317 496.619 240.935 495.049 240.935C493.48 240.935 492.207 239.317 492.207 237.32C492.207 235.323 493.48 233.704 495.049 233.704C496.619 233.704 497.89 235.32 497.89 237.32Z" fill="#AFAC79"/>
<path d="M495.503 176.254H493.311V216.922H495.503V176.254Z" fill="#AFAC79"/>
<path d="M495.503 219.43H493.311V225.761H495.503V219.43Z" fill="#AFAC79"/>
<path d="M621.578 233.113C623.52 233.345 625.461 233.609 627.409 233.774C629.204 233.926 631.032 233.961 632.803 233.622C633.799 233.435 634.762 233.107 635.664 232.649C635.998 232.479 635.703 231.977 635.368 232.149C633.815 232.944 632.072 233.249 630.343 233.296C628.558 233.346 626.777 233.148 625.007 232.937L621.578 232.532C621.501 232.532 621.426 232.563 621.372 232.617C621.317 232.672 621.286 232.745 621.286 232.822C621.288 232.899 621.319 232.971 621.374 233.025C621.428 233.079 621.501 233.111 621.578 233.113V233.113Z" fill="#B77158"/>
<path d="M621.807 235.723C625.239 236.635 628.832 236.775 632.324 236.132C633.309 235.95 634.282 235.706 635.235 235.4C635.586 235.284 635.439 234.724 635.08 234.84C631.78 235.896 628.284 236.205 624.848 235.745C623.873 235.613 622.908 235.419 621.958 235.164C621.594 235.068 621.439 235.629 621.802 235.724L621.807 235.723Z" fill="#B77158"/>
<path d="M633.647 205.072C633.647 206.388 631.704 207.456 629.307 207.456C626.91 207.456 624.967 206.388 624.967 205.072C624.967 203.756 626.91 202.688 629.307 202.688C631.704 202.688 633.647 203.755 633.647 205.072Z" fill="#B77158"/>
<path opacity="0.28" d="M621.384 202.15C621.227 203.266 621.635 204.37 621.919 205.461C623.034 209.744 622.257 214.258 622.291 218.684C622.291 219.427 622.326 220.179 622.525 220.891C622.631 221.268 622.862 221.692 623.255 221.713C623.817 221.742 624.018 220.993 624.03 220.435C624.091 217.271 624.153 214.107 624.214 210.943C624.248 209.2 624.293 207.422 624.966 205.819C625.323 204.97 625.848 204.192 626.175 203.335C626.502 202.478 626.61 201.459 626.137 200.663C624.993 198.761 621.642 200.307 621.384 202.15Z" fill="white"/>
<path opacity="0.28" d="M622.658 223.52C622.483 223.877 622.522 224.295 622.564 224.689C622.661 225.592 622.757 226.496 622.854 227.401C622.897 227.808 622.988 228.285 623.362 228.457C623.757 228.639 624.236 228.33 624.414 227.933C624.591 227.536 624.544 227.083 624.531 226.649C624.512 226.077 624.551 225.503 624.648 224.938C624.725 224.492 624.835 224.025 624.686 223.598C624.414 222.82 623.006 222.809 622.658 223.52Z" fill="white"/>
<path d="M584.319 221.638L575.672 221.115L578.851 240.813C578.851 240.813 579.348 241.466 581.236 241.828C582.68 242.106 585.947 242.106 587.39 241.828C589.277 241.466 589.775 240.813 589.775 240.813L592.955 221.115L584.319 221.638Z" fill="#E5B64E"/>
<path d="M588.185 221.405C588.178 221.706 588.173 222.005 588.161 222.304C588.087 224.046 587.747 225.766 587.389 227.473C586.805 230.246 586.155 233.065 584.676 235.488C583.595 237.258 581.999 238.813 580.049 239.601C579.713 239.738 579.192 239.8 578.711 239.913L578.857 240.817C578.857 240.817 579.354 241.47 581.243 241.832C582.686 242.11 585.953 242.11 587.396 241.832C589.284 241.47 589.781 240.817 589.781 240.817L592.961 221.119L588.185 221.405Z" fill="#D8A64E"/>
<path d="M592.961 221.115C592.961 221.607 589.092 222.004 584.313 222.004C579.535 222.004 575.666 221.607 575.666 221.115C575.666 220.624 579.535 220.227 584.313 220.227C589.092 220.227 592.961 220.624 592.961 221.115Z" fill="#A8803F"/>
<path opacity="0.28" d="M577.622 223.597C577.602 223.781 577.615 223.966 577.661 224.145L579.319 232.715C579.387 233.063 579.637 233.528 579.969 233.382C580.202 233.283 580.215 232.962 580.188 232.709C579.887 229.877 579.434 227.037 579.618 224.194C579.638 223.879 579.661 223.544 579.501 223.265C579.154 222.671 577.742 222.901 577.622 223.597Z" fill="white"/>
<path opacity="0.28" d="M580.292 234.35C580.097 234.194 579.783 234.35 579.686 234.582C579.589 234.814 579.643 235.073 579.696 235.316L579.977 236.562C579.995 236.721 580.065 236.87 580.177 236.987C580.347 237.128 580.621 237.082 580.784 236.933C580.94 236.773 581.036 236.564 581.056 236.342C581.102 235.985 581.092 235.624 581.027 235.27C580.962 234.839 580.761 234.323 580.326 234.281L580.292 234.35Z" fill="white"/>
<path d="M586.317 222.004L590.405 210.541L593.166 206.826L592.56 211.14L588.588 221.888L586.317 222.004Z" fill="#4F5E40"/>
<path d="M583.022 221.995L581.085 208.831V202.981L583.538 208.139L585.355 222.004L583.022 221.995Z" fill="#84321F"/>
<path d="M580.876 202.062L581.084 205.398L582.143 205.208L580.876 202.062Z" fill="#4C3434"/>
<path d="M592.163 208.178L593.889 205.764L592.933 208.49L592.163 208.178Z" fill="#4C3434"/>
<path d="M600.468 243.047L611.767 241.483V237.084L605.968 237.474L600.468 243.047Z" fill="#7F624E"/>
<path d="M512.246 241.352L499.815 239.729V234.509L505.251 234.277L512.246 241.352Z" fill="#7F624E"/>
<defs>
<linearGradient id="paint0_linear_790_9168" x1="120.326" y1="262.627" x2="182.624" y2="270.725" gradientUnits="userSpaceOnUse">
<stop stop-color="#00780C"/>
<stop offset="1" stop-color="#00FF19"/>
</linearGradient>
<linearGradient id="paint1_linear_790_9168" x1="223.259" y1="248.893" x2="129.622" y2="277.475" gradientUnits="userSpaceOnUse">
<stop stop-color="#00780C"/>
<stop offset="1" stop-color="#00FF19"/>
</linearGradient>
<linearGradient id="paint2_linear_790_9168" x1="190.122" y1="220.813" x2="125.361" y2="243.648" gradientUnits="userSpaceOnUse">
<stop stop-color="#00780C"/>
<stop offset="1" stop-color="#00FF19"/>
</linearGradient>
<linearGradient id="paint3_linear_790_9168" x1="204.845" y1="310.974" x2="157.072" y2="342.593" gradientUnits="userSpaceOnUse">
<stop stop-color="#00780C"/>
<stop offset="1" stop-color="#00FF19"/>
</linearGradient>
</defs>
</svg>
