<svg width="317" height="135" viewBox="0 0 317 135" fill="none" xmlns="http://www.w3.org/2000/svg">
<path d="M268.936 57.2994L258.803 57.2065L259.094 25.6475C259.094 25.6475 260.823 24.5637 264.171 24.5939C267.876 24.6287 269.227 25.7404 269.227 25.7404L268.936 57.2994Z" fill="#AA4724"/>
<path d="M264.171 24.5942C263.679 24.5942 263.224 24.6105 262.802 24.6465C265.393 24.9056 266.377 25.7152 266.377 25.7152L266.086 57.273L268.936 57.2997L269.227 25.7408C269.227 25.7408 267.876 24.6291 264.171 24.5942Z" fill="#993E22"/>
<path d="M269.198 28.8779C267.503 28.1891 265.575 28.131 263.735 28.2599C262.246 28.3645 260.747 28.5829 259.34 29.0975L259.062 29.1974L259.046 30.8074C259.431 30.5985 259.831 30.4187 260.243 30.2695C262.767 29.3421 265.51 29.1757 268.129 29.791C268.492 29.8727 268.846 29.9894 269.186 30.1394L269.198 28.8779Z" fill="#C69775"/>
<path d="M269.173 31.5366C267.479 30.8478 265.551 30.7897 263.71 30.9186C262.221 31.0232 260.722 31.2416 259.315 31.7561L259.037 31.8572L259.022 33.4672C259.406 33.2575 259.806 33.0773 260.218 32.9282C262.742 32.0014 265.485 31.835 268.104 32.4496C268.467 32.5313 268.821 32.6481 269.161 32.7981L269.173 31.5366Z" fill="#C69775"/>
<path opacity="0.1" d="M260.455 26.7175C260.322 27.2042 260.455 27.7176 260.561 28.2113C261.422 32.2363 260.421 36.4286 260.803 40.5245C260.821 40.7266 260.92 40.9892 261.121 40.9636C261.29 40.9404 261.346 40.7313 261.354 40.5594C261.728 36.2486 260.932 31.8274 261.957 27.6224C262.066 27.1763 262.271 26.2516 261.75 25.9578C261.23 25.6639 260.581 26.247 260.455 26.7175Z" fill="white"/>
<path d="M298.744 58.5516H283.897V1.97476C283.897 1.97476 286.415 0 291.321 0C296.752 0 298.744 1.97476 298.744 1.97476V58.5516Z" fill="#E5B64E"/>
<path d="M291.27 0.00341973C290.657 0.00314367 290.045 0.0353225 289.436 0.0998294C293.37 0.494781 294.869 1.97469 294.869 1.97469V58.5516H298.697V1.97469C298.697 1.97469 296.7 0.00341973 291.27 0.00341973Z" fill="#C99E47"/>
<path d="M296.743 45.2799C296.787 44.683 296.754 44.083 296.644 43.4945C294.204 43.3679 286.053 43.4643 286.053 43.4643C286.053 43.4643 285.826 43.7187 286.053 45.4809C287.057 44.7781 296.787 44.6887 296.743 45.2799Z" fill="#B77158"/>
<path d="M296.915 48.0632C296.959 47.4663 296.926 46.8663 296.817 46.2777C294.376 46.1511 286.225 46.2475 286.225 46.2475C286.225 46.2475 285.998 46.5019 286.225 48.2641C287.23 47.5613 296.958 47.4719 296.915 48.0632Z" fill="#B77158"/>
<path d="M286.796 56.8254C289.938 56.4339 293.21 56.0541 296.202 57.0798C296.202 54.6567 296.202 52.2331 296.202 49.8092C296.209 49.7298 296.196 49.6498 296.164 49.5769C296.114 49.5022 296.043 49.4443 295.959 49.4108C295.092 48.9705 294.075 48.9542 293.102 48.9635C291.983 48.9736 290.863 49.0065 289.745 49.0623C288.756 49.1111 287.479 49.0088 286.551 49.3213C286.632 49.9567 287.039 56.7952 286.796 56.8254Z" fill="#B77158"/>
<path opacity="0.25" d="M285.849 2.81931C285.353 4.02508 285.602 5.38766 285.781 6.67822C286.505 11.9183 285.934 17.249 286.39 22.5228C286.432 23.0141 286.629 23.6461 287.126 23.6472C287.661 23.6472 287.827 22.9328 287.827 22.4008C287.809 17.316 287.981 12.2354 288.342 7.15914C288.409 6.21241 288.54 5.15534 289.285 4.56407C289.942 4.04134 291.056 3.8671 291.17 3.03886C291.3 2.09214 289.687 1.31501 288.897 1.19071C287.673 0.999047 286.32 1.66931 285.849 2.81931Z" fill="white"/>
<path opacity="0.25" d="M286.533 25.8496C286.11 26.6302 286.3 27.5839 286.464 28.4563C286.857 30.6098 286.97 32.8047 286.8 34.9869C286.772 35.3493 286.737 35.7199 286.841 36.0684C286.945 36.4169 287.224 36.7386 287.587 36.7758C287.951 36.813 288.311 36.533 288.472 36.195C288.633 35.8569 288.644 35.4678 288.653 35.0926C288.705 32.7694 288.709 30.4488 288.663 28.131C288.652 27.6071 288.637 27.0751 288.477 26.5756C288.22 25.7775 287.157 24.7007 286.533 25.8496Z" fill="white"/>
<path d="M310.617 57.9429L298.749 57.8534L299.084 13.8581C299.084 13.8581 301.108 12.341 305.03 12.37C309.371 12.4026 310.952 13.9475 310.952 13.9475L310.617 57.9429Z" fill="#6F53AD"/>
<path d="M304.984 12.3701C304.494 12.3661 304.005 12.3875 303.517 12.434C306.66 12.7651 307.849 13.9243 307.849 13.9243L307.514 57.9197L310.571 57.9429L310.906 13.9476C310.906 13.9476 309.324 12.4026 304.984 12.3701Z" fill="#5E4A96"/>
<path opacity="0.25" d="M300.635 14.5272C300.231 15.4623 300.422 16.5229 300.557 17.5277C301.106 21.6062 300.617 25.752 300.95 29.8525C300.98 30.2347 301.135 30.7272 301.534 30.7307C301.963 30.7307 302.099 30.1801 302.101 29.7666C302.117 25.8124 302.285 21.8629 302.604 17.918C302.663 17.1827 302.773 16.3614 303.373 15.9049C303.901 15.503 304.792 15.3741 304.892 14.7317C305.002 13.9952 303.716 13.3819 303.086 13.2808C302.103 13.1228 301.018 13.6363 300.635 14.5272Z" fill="white"/>
<path opacity="0.25" d="M301.046 32.4393C300.703 33.0445 300.852 33.7868 300.975 34.4675C301.277 36.1431 301.356 37.8512 301.209 39.5473C301.164 39.8267 301.173 40.1121 301.234 40.3883C301.315 40.6589 301.536 40.9122 301.827 40.9435C302.118 40.9749 302.411 40.7588 302.537 40.4951C302.663 40.2315 302.679 39.9318 302.688 39.6402C302.744 37.8366 302.76 36.0318 302.737 34.2259C302.751 33.8178 302.704 33.4099 302.598 33.0154C302.394 32.3951 301.551 31.5506 301.046 32.4393Z" fill="white"/>
<path d="M283.778 57.4631H268.937V11.2201C268.937 11.2201 271.454 9.60889 276.36 9.60889C281.79 9.60889 283.784 11.2201 283.784 11.2201L283.778 57.4631Z" fill="#5B3E3E"/>
<path d="M276.354 9.60889C275.634 9.60889 274.967 9.6449 274.35 9.70414C278.149 10.0526 279.602 11.2201 279.602 11.2201V57.4631H283.778V11.2201C283.778 11.2201 281.785 9.60889 276.354 9.60889Z" fill="#4C3434"/>
<path d="M283.778 15.8142C281.286 14.828 278.465 14.7687 275.765 14.9825C273.585 15.1556 271.393 15.4959 269.338 16.2672C269.198 16.3195 269.063 16.3683 268.932 16.4182V18.7775C269.492 18.4655 270.076 18.1964 270.677 17.9725C274.363 16.5811 278.378 16.3007 282.223 17.1663C282.756 17.2814 283.277 17.4475 283.778 17.6623V15.8142Z" fill="#C69775"/>
<path d="M283.778 17.66V15.8142C282.455 15.2903 281.041 15.0301 279.601 14.9302V16.7539C280.484 16.8321 281.359 16.9699 282.223 17.1663C282.756 17.2796 283.277 17.4449 283.778 17.66Z" fill="#AD8468"/>
<path d="M283.762 21.5899V19.7417C282.439 19.2178 281.025 18.9576 279.585 18.8589V20.6815C280.467 20.7602 281.343 20.898 282.206 21.0938C282.74 21.2086 283.261 21.3747 283.762 21.5899V21.5899Z" fill="#AD8468"/>
<path d="M283.778 19.7136C281.286 18.7274 278.465 18.6682 275.765 18.8819C273.585 19.055 271.393 19.3953 269.338 20.1666L268.932 20.3177V22.6769C269.492 22.3648 270.076 22.096 270.677 21.8731C274.362 20.4808 278.378 20.1999 282.223 21.0657C282.756 21.1808 283.277 21.3469 283.778 21.5618V19.7136Z" fill="#C69775"/>
<path d="M283.762 21.5899V19.7417C282.439 19.2178 281.025 18.9576 279.585 18.8589V20.6815C280.467 20.7602 281.343 20.898 282.206 21.0938C282.74 21.2086 283.261 21.3747 283.762 21.5899V21.5899Z" fill="#AD8468"/>
<path d="M281.72 54.9494H271.67V45.5519C271.67 45.5519 274.632 45.028 276.695 45.0187C279.066 45.0082 281.72 45.5519 281.72 45.5519V54.9494Z" fill="#C69775"/>
<path d="M281.72 45.5902C281.72 45.5902 280.772 45.3962 279.506 45.2417C279.514 45.2916 279.523 45.3416 279.53 45.3892C279.714 46.667 279.514 47.975 279.077 49.1808C278.825 49.8717 278.5 50.5338 278.106 51.1555C277.747 51.7414 277.315 52.28 276.82 52.7586C275.448 54.0503 273.564 54.6369 271.662 54.803V54.9796H281.712L281.72 45.5902Z" fill="#AD8468"/>
<path opacity="0.1" d="M270.938 12.7694C270.752 13.4849 270.953 14.2342 271.114 14.9555C272.43 20.8415 271.02 26.9981 271.634 32.9967C271.665 33.2929 271.811 33.6797 272.108 33.6368C272.355 33.6008 272.434 33.2883 272.452 33.0397C272.942 26.7193 271.716 20.2525 273.162 14.0773C273.315 13.4234 273.601 12.0666 272.836 11.6379C272.07 11.2093 271.119 12.0782 270.938 12.7694Z" fill="white"/>
<path opacity="0.1" d="M271.771 35.3434C271.832 36.749 271.893 38.1538 271.955 39.5578C271.948 39.8318 271.997 40.1044 272.098 40.3593C272.215 40.6068 272.468 40.8124 272.742 40.7915C272.827 40.7874 272.908 40.7527 272.969 40.6939C273.044 40.5854 273.074 40.4522 273.053 40.3222C272.999 39.001 272.946 37.6806 272.893 36.361C272.877 35.9347 273.031 34.938 272.616 34.6534C272.096 34.298 271.751 34.8869 271.771 35.3434Z" fill="white"/>
<path d="M209.783 11.8462L211.054 29.4657C211.054 29.4657 228.882 62.6382 229.284 62.5418C229.686 62.4453 242.654 58.8826 242.654 58.8826L209.783 11.8462Z" fill="#84321F"/>
<path d="M246.413 56.3121L237.538 61.2397L209.783 11.8463C209.783 11.8463 210.321 9.29078 213.255 7.6645C216.501 5.86166 218.659 6.92106 218.659 6.92106L246.413 56.3121Z" fill="#AA4724"/>
<path d="M213.223 7.68307C212.855 7.88787 212.503 8.1209 212.171 8.38004C214.716 7.41938 216.338 8.21393 216.338 8.21393L244.092 57.6073L246.897 57.2588L218.629 6.93498C218.629 6.93498 216.469 5.87558 213.223 7.68307Z" fill="#993E22"/>
<path d="M231.855 47.4987C233.226 46.3291 234.793 45.4089 236.486 44.7805C236.968 44.6016 237.46 44.4483 237.958 44.3159C237.993 44.3031 238.021 44.2779 238.038 44.2453C238.055 44.2126 238.059 44.1749 238.049 44.1395C238.039 44.1042 238.016 44.0738 237.985 44.0544C237.954 44.035 237.916 44.028 237.88 44.0347C236.088 44.504 234.394 45.2847 232.876 46.3406C232.451 46.638 232.042 46.9547 231.648 47.2908C231.505 47.4069 231.712 47.6172 231.855 47.4964V47.4987Z" fill="#C99E47"/>
<path d="M232.68 48.6511C233.59 48.031 234.54 47.4691 235.522 46.969C236.008 46.7204 236.502 46.4881 237.005 46.2721C237.261 46.1621 237.518 46.0556 237.776 45.9526C237.908 45.9003 238.039 45.8504 238.172 45.8004C238.224 45.7807 238.453 45.6599 238.502 45.7098C238.633 45.8434 238.839 45.6378 238.709 45.5042C238.578 45.3706 238.401 45.4067 238.241 45.4647C238.018 45.546 237.796 45.6332 237.575 45.7214C237.154 45.8903 236.738 46.0692 236.325 46.2581C235.485 46.646 234.666 47.0771 233.871 47.5498C233.416 47.8201 232.97 48.1043 232.533 48.4025C232.378 48.507 232.524 48.7591 232.681 48.6534L232.68 48.6511Z" fill="#C99E47"/>
<path d="M235.771 54.4421C236.355 53.8113 237.103 53.3769 237.874 53.0028C238.743 52.5812 239.627 52.1978 240.508 51.7982C240.999 51.5603 241.507 51.3584 242.027 51.1942L241.863 50.9816L241.746 51.1559C241.638 51.3092 241.892 51.4544 241.998 51.3022L242.115 51.128C242.129 51.103 242.136 51.0744 242.134 51.0458C242.132 51.0172 242.121 50.9898 242.104 50.967C242.086 50.9442 242.062 50.9271 242.035 50.9177C242.008 50.9083 241.978 50.9071 241.95 50.9142C240.993 51.1896 240.091 51.6681 239.188 52.0759C238.352 52.4557 237.493 52.81 236.715 53.2991C236.292 53.5568 235.905 53.8693 235.564 54.2284C235.437 54.3654 235.642 54.5768 235.77 54.434L235.771 54.4421Z" fill="#C99E47"/>
<path d="M236.558 55.6861C237.548 55.0666 238.561 54.4908 239.597 53.9588C240.116 53.6916 240.641 53.4364 241.172 53.1933C241.438 53.0709 241.704 52.9516 241.971 52.8355C242.108 52.7762 242.245 52.7193 242.383 52.6589C242.5 52.5951 242.638 52.5769 242.768 52.6078C242.947 52.667 243.024 52.3859 242.847 52.3278C242.65 52.2788 242.442 52.3036 242.262 52.3975C242.048 52.4858 241.836 52.5788 241.624 52.6728C241.191 52.8634 240.759 53.0632 240.333 53.2688C239.471 53.6846 238.624 54.1307 237.792 54.6069C237.325 54.8741 236.863 55.1502 236.408 55.4352C236.249 55.5339 236.396 55.7837 236.555 55.6861H236.558Z" fill="#C99E47"/>
<path d="M197.895 8.1709L192.236 17.6602L203.891 60.696H216.023L204.661 19.0379L197.895 8.1709Z" fill="#3D4731"/>
<path d="M222.898 59.9909L213.1 62.6905L197.895 8.17086C197.895 8.17086 199.026 5.81277 202.264 4.91832C205.847 3.93094 207.692 5.46776 207.692 5.46776L222.898 59.9909Z" fill="#4F5E40"/>
<path d="M202.23 4.92958C201.825 5.04124 201.43 5.18377 201.047 5.35589C203.748 5.02134 205.137 6.16903 205.137 6.16903L220.341 60.6898L222.865 59.9929L207.658 5.47554C207.658 5.47554 205.813 3.9422 202.23 4.92958Z" fill="#3D4731"/>
<path d="M199.851 9.30916L199.905 9.26037C199.917 9.24875 199.997 9.18486 199.939 9.23017C199.88 9.27547 199.949 9.22319 199.957 9.21855L200.017 9.17789C200.111 9.11669 200.209 9.06122 200.31 9.01178C200.36 8.98622 200.413 8.96415 200.464 8.93976C200.372 8.9839 200.464 8.93976 200.505 8.92466C200.612 8.88284 200.719 8.84451 200.827 8.8085C201.294 8.65052 201.762 8.49834 202.222 8.35082C203.166 8.03807 204.133 7.79617 205.114 7.62713L205.332 7.5946H205.313L205.448 7.57833C205.585 7.56207 205.722 7.54813 205.859 7.53768C206.142 7.51522 206.426 7.50515 206.71 7.50748C206.865 7.50748 207.014 7.44628 207.124 7.33736C207.233 7.22844 207.295 7.08071 207.295 6.92666C207.295 6.77262 207.233 6.62489 207.124 6.51597C207.014 6.40705 206.865 6.34585 206.71 6.34585C204.592 6.33424 202.546 6.99869 200.563 7.67127C200.004 7.86061 199.464 8.08365 199.025 8.48441C198.915 8.59332 198.854 8.74103 198.854 8.89504C198.854 9.04905 198.915 9.19675 199.025 9.30567C199.136 9.41153 199.284 9.47062 199.438 9.47062C199.592 9.47062 199.74 9.41153 199.851 9.30567V9.30916Z" fill="#C99E47"/>
<path d="M200.196 11.584C200.311 11.584 200.424 11.5499 200.52 11.4861C200.616 11.4223 200.691 11.3316 200.735 11.2254C200.78 11.1193 200.791 11.0025 200.769 10.8899C200.746 10.7772 200.69 10.6737 200.609 10.5925C200.527 10.5113 200.423 10.4559 200.31 10.4335C200.196 10.4111 200.079 10.4226 199.972 10.4666C199.865 10.5105 199.774 10.585 199.71 10.6805C199.646 10.776 199.611 10.8883 199.611 11.0032C199.611 11.1572 199.673 11.3049 199.782 11.4139C199.892 11.5228 200.041 11.584 200.196 11.584V11.584Z" fill="#C99E47"/>
<path d="M200.476 11.4723C200.703 11.3666 200.932 11.2632 201.162 11.1668C201.073 11.204 201.193 11.1552 201.222 11.1435L201.396 11.0727L201.746 10.9379C202.208 10.766 202.676 10.6111 203.149 10.4733C203.622 10.3355 204.1 10.2193 204.584 10.1248C204.817 10.076 205.058 10.033 205.297 9.99355C205.413 9.97496 205.53 9.95637 205.647 9.94011L205.833 9.91339C205.824 9.91339 205.742 9.92501 205.811 9.91339L205.944 9.89713C206.496 9.82976 207.049 9.78755 207.605 9.77051C207.759 9.77051 207.908 9.70932 208.018 9.6004C208.127 9.49148 208.189 9.34374 208.189 9.1897C208.189 9.03566 208.127 8.88793 208.018 8.779C207.908 8.67008 207.759 8.60889 207.605 8.60889C205.543 8.67476 203.504 9.06688 201.567 9.77051C200.999 9.97805 200.44 10.2104 199.891 10.4675C199.614 10.5964 199.52 11.0146 199.682 11.262C199.763 11.392 199.891 11.486 200.039 11.5247C200.188 11.5634 200.346 11.5438 200.481 11.47L200.476 11.4723Z" fill="#C99E47"/>
<path d="M211.933 52.3951C211.967 52.3625 212 52.33 212.037 52.2986C212.073 52.2673 212.154 52.2196 212.066 52.2731C212.159 52.2138 212.248 52.1569 212.345 52.0988C212.442 52.0408 212.515 52.014 212.601 51.9757C212.496 52.0222 212.62 51.9687 212.661 51.9536L212.82 51.8979C213.251 51.7623 213.689 51.651 214.133 51.5645C214.601 51.4646 215.072 51.3813 215.548 51.3147L215.631 51.3031C215.607 51.3031 215.526 51.3171 215.644 51.3031L215.811 51.2822L216.176 51.2416C216.419 51.2168 216.662 51.1963 216.905 51.18C217.459 51.1428 218.013 51.1289 218.567 51.1347C218.722 51.1347 218.87 51.0735 218.98 50.9646C219.089 50.8557 219.151 50.7079 219.151 50.5539C219.151 50.3998 219.089 50.2521 218.98 50.1432C218.87 50.0343 218.722 49.9731 218.567 49.9731C217.551 49.9614 216.535 50.0228 215.528 50.1566C214.53 50.289 213.511 50.454 212.551 50.7641C212.012 50.9206 211.516 51.1989 211.103 51.5773C210.997 51.6868 210.938 51.8335 210.939 51.9858C210.94 52.1381 211.002 52.2838 211.11 52.3915C211.218 52.4992 211.365 52.5602 211.518 52.5616C211.671 52.5629 211.819 52.5043 211.929 52.3985L211.933 52.3951Z" fill="#C99E47"/>
<path d="M212.854 54.7704C213.027 54.655 213.21 54.5536 213.399 54.4673C213.459 54.4382 213.383 54.4672 213.375 54.4765L213.445 54.4487L213.586 54.3964C213.689 54.3592 213.794 54.3255 213.898 54.2942C214.331 54.1617 214.769 54.0479 215.204 53.9283C215.671 53.8005 216.128 53.6692 216.592 53.5472C216.819 53.488 217.047 53.4311 217.276 53.3823C217.385 53.3579 217.495 53.3358 217.606 53.3161L217.771 53.2882L217.854 53.2754C217.865 53.2754 217.971 53.2592 217.915 53.2661C217.859 53.2731 217.942 53.2661 217.948 53.2661L218.057 53.2545L218.25 53.2394C218.379 53.2313 218.508 53.2278 218.637 53.229C218.766 53.2301 218.894 53.2359 219.021 53.2487L219.103 53.2568C219.042 53.2568 219.065 53.2568 219.113 53.2568C219.186 53.2685 219.259 53.2812 219.331 53.2963C219.629 53.3591 219.976 53.2104 220.05 52.8909C220.116 52.6005 219.962 52.2427 219.642 52.1765C218.608 51.9616 217.568 52.1068 216.553 52.3589C215.609 52.5912 214.667 52.8596 213.734 53.1314C213.212 53.2642 212.716 53.4795 212.264 53.7691C212.014 53.941 211.873 54.286 212.054 54.5637C212.215 54.8111 212.585 54.9575 212.854 54.7716V54.7704Z" fill="#C99E47"/>
<path d="M213.193 46.5682C213.478 45.7092 213.699 44.8306 213.854 43.9395H212.728L213.546 46.66C213.68 47.1037 213.814 47.5479 213.946 47.9924C214.011 48.2049 214.063 48.4222 214.14 48.6313C214.175 48.7485 214.243 48.8534 214.336 48.9338C214.429 49.0142 214.542 49.0668 214.664 49.0855C214.786 49.1026 214.911 49.0823 215.022 49.0274C215.132 48.9724 215.224 48.8853 215.283 48.7776C215.335 48.6893 215.362 48.5892 215.362 48.4872C215.362 48.3853 215.335 48.2851 215.283 48.1968L215.272 48.1782C215.236 48.1065 215.187 48.0427 215.126 47.9908C215.065 47.9389 214.994 47.9001 214.917 47.8768C214.84 47.8535 214.759 47.8462 214.68 47.8553C214.6 47.8644 214.523 47.8897 214.453 47.9297C214.384 47.9697 214.323 48.0236 214.276 48.0878C214.228 48.1521 214.194 48.2254 214.177 48.3032C214.159 48.381 214.157 48.4617 214.172 48.5401C214.187 48.6185 214.218 48.6931 214.263 48.759C214.263 48.7648 214.271 48.7707 214.275 48.7776V48.1968L214.262 48.22L214.613 47.9529L214.588 47.961L215.038 48.0191L215.015 48.0051L215.225 48.2131C215.259 48.3107 215.268 48.3292 215.249 48.2723L215.225 48.1898L215.183 48.0505L215.092 47.7449C215.036 47.5606 214.98 47.3755 214.925 47.1897C214.804 46.7924 214.684 46.3944 214.566 45.9955C214.332 45.2095 214.096 44.4231 213.856 43.6363C213.821 43.5146 213.747 43.4075 213.646 43.3308C213.544 43.254 213.421 43.2117 213.293 43.21C213.054 43.2204 212.774 43.3807 212.73 43.6363C212.575 44.5274 212.353 45.4061 212.069 46.265C212.048 46.3386 212.042 46.4154 212.052 46.4911C212.061 46.5668 212.086 46.6399 212.124 46.7062C212.161 46.7725 212.212 46.8308 212.273 46.8777C212.333 46.9246 212.402 46.9592 212.476 46.9794C212.626 47.017 212.784 46.9958 212.918 46.9203C213.052 46.8447 213.151 46.7207 213.195 46.574L213.193 46.5682Z" fill="#C99E47"/>
<path d="M183.137 57.2462V42.4878H126.227C126.227 42.4878 124.24 44.9911 124.24 49.8676C124.24 55.2657 126.227 57.2462 126.227 57.2462H183.137Z" fill="#E5B64E"/>
<path d="M124.238 49.8162C124.238 49.2074 124.271 48.599 124.335 47.9937C124.733 51.9037 126.222 53.394 126.222 53.394H183.137V57.1949H126.227C126.227 57.1949 124.238 55.2143 124.238 49.8162Z" fill="#C99E47"/>
<path d="M169.786 55.2575C169.185 55.3012 168.582 55.2684 167.99 55.1599C167.862 52.7332 167.959 44.6309 167.959 44.6309C167.959 44.6309 168.216 44.4056 169.988 44.6309C169.281 45.6299 169.191 55.3016 169.786 55.2575Z" fill="#B77158"/>
<path d="M172.586 55.4256C171.985 55.4683 171.382 55.4351 170.79 55.3269C170.662 52.9002 170.759 44.7979 170.759 44.7979C170.759 44.7979 171.016 44.5726 172.788 44.7979C172.081 45.8004 171.991 55.4721 172.586 55.4256Z" fill="#B77158"/>
<path d="M181.402 45.3694C181.007 48.4919 180.626 51.7444 181.656 54.7193H174.344C174.264 54.7262 174.183 54.713 174.11 54.681C174.035 54.6317 173.977 54.5613 173.943 54.4789C173.5 53.6158 173.483 52.6064 173.493 51.6376C173.504 50.5247 173.538 49.4123 173.592 48.3002C173.641 47.3175 173.54 46.0478 173.853 45.1255C174.491 45.2033 181.372 45.6111 181.402 45.3694Z" fill="#B77158"/>
<path opacity="0.25" d="M127.071 44.4275C128.285 43.935 129.655 44.1824 130.953 44.3602C136.225 45.0804 141.587 44.5123 146.892 44.9654C147.387 45.0072 148.024 45.1977 148.024 45.6972C148.024 46.2292 147.305 46.3942 146.77 46.3942C141.655 46.3764 136.544 46.5471 131.437 46.9064C130.486 46.9738 129.422 47.1028 128.826 47.8439C128.3 48.4967 128.125 49.6049 127.292 49.7176C126.34 49.8465 125.558 48.2435 125.433 47.4582C125.24 46.2408 125.915 44.8957 127.071 44.4275Z" fill="white"/>
<path opacity="0.25" d="M150.239 45.1092C151.024 44.6875 151.984 44.8769 152.863 45.0395C155.029 45.4299 157.237 45.5424 159.432 45.3741C159.796 45.3462 160.17 45.3113 160.519 45.4136C160.869 45.5158 161.195 45.7946 161.231 46.1558C161.267 46.5171 160.987 46.876 160.647 47.0352C160.306 47.1943 159.915 47.2071 159.538 47.2152C157.2 47.2671 154.866 47.2702 152.534 47.2245C152.007 47.2141 151.472 47.2001 150.97 47.0398C150.171 46.7843 149.083 45.7283 150.239 45.1092Z" fill="white"/>
<path d="M183.111 42.5606V30.7632H138.851C138.851 30.7632 137.31 32.7635 137.31 36.6619C137.31 40.9762 138.851 42.5606 138.851 42.5606H183.111Z" fill="#6F53AD"/>
<path d="M137.31 36.6203C137.31 36.1337 137.335 35.6475 137.385 35.1636C137.695 38.2895 138.851 39.4802 138.851 39.4802H183.111V42.519H138.851C138.851 42.519 137.31 40.9357 137.31 36.6203Z" fill="#5E4A96"/>
<path opacity="0.25" d="M139.513 32.3097C140.456 31.9159 141.522 32.1145 142.531 32.2562C146.631 32.837 150.805 32.3724 154.926 32.7394C155.311 32.7731 155.806 32.93 155.806 33.3203C155.806 33.7454 155.248 33.8767 154.832 33.8755C150.854 33.8616 146.881 33.9983 142.912 34.2856C142.173 34.339 141.345 34.4424 140.883 35.0337C140.474 35.5564 140.337 36.4415 139.689 36.5322C138.949 36.6355 138.341 35.3531 138.244 34.7258C138.088 33.7629 138.613 32.6883 139.513 32.3097Z" fill="white"/>
<path opacity="0.25" d="M157.534 32.8574C158.145 32.5205 158.89 32.675 159.574 32.8016C161.258 33.1145 162.976 33.2044 164.683 33.0688C164.964 33.0272 165.251 33.0382 165.528 33.1013C165.8 33.1838 166.053 33.4057 166.082 33.6949C166.111 33.9842 165.891 34.2757 165.626 34.3919C165.361 34.5081 165.057 34.529 164.764 34.5359C162.948 34.5778 161.133 34.5801 159.318 34.5429C158.907 34.5541 158.497 34.5044 158.102 34.3954C157.474 34.1967 156.63 33.3546 157.534 32.8574Z" fill="white"/>
<path d="M183.111 30.8351V19.0376H130.175C130.175 19.0376 128.331 21.0379 128.331 24.9363C128.331 29.2506 130.175 30.8351 130.175 30.8351H183.111Z" fill="#4F5E40"/>
<path d="M128.328 24.8947C128.328 24.4077 128.358 23.9212 128.418 23.438C128.788 26.5639 130.171 27.7557 130.171 27.7557H183.108V30.7992H130.171C130.171 30.7992 128.328 29.2101 128.328 24.8947Z" fill="#3D4731"/>
<path d="M316.891 57.2456H115.919V67.5875H316.891V57.2456Z" fill="#CCA079"/>
<path d="M197.895 57.4631H183.048V11.2201C183.048 11.2201 185.566 9.60889 190.472 9.60889C195.902 9.60889 197.895 11.2201 197.895 11.2201V57.4631Z" fill="#5B3E3E"/>
<path d="M190.472 9.60889C189.751 9.60889 189.085 9.6449 188.468 9.70414C192.266 10.0526 193.719 11.2201 193.719 11.2201V57.4631H197.895V11.2201C197.895 11.2201 195.902 9.60889 190.472 9.60889Z" fill="#4C3434"/>
<path d="M197.895 15.8142C195.402 14.828 192.581 14.7687 189.883 14.9825C187.703 15.1556 185.51 15.4959 183.456 16.2672L183.049 16.4182V18.7775C183.612 18.4652 184.198 18.1961 184.802 17.9725C188.487 16.581 192.503 16.3006 196.348 17.1663C196.881 17.2814 197.401 17.4475 197.902 17.6623L197.895 15.8142Z" fill="#C69775"/>
<path d="M197.895 17.66V15.8142C196.573 15.2903 195.158 15.0301 193.719 14.9302V16.7539C194.602 16.8321 195.477 16.9699 196.341 17.1663C196.874 17.2796 197.394 17.4449 197.895 17.66V17.66Z" fill="#AD8468"/>
<path d="M197.878 21.5899V19.7417C196.557 19.2178 195.142 18.9576 193.702 18.8589V20.6815C194.584 20.7601 195.46 20.8979 196.324 21.0938C196.857 21.2086 197.378 21.3747 197.878 21.5899V21.5899Z" fill="#AD8468"/>
<path d="M197.895 19.7136C195.402 18.7274 192.581 18.6682 189.883 18.8819C187.703 19.055 185.51 19.3953 183.456 20.1666L183.049 20.3177V22.6769C183.612 22.3645 184.198 22.0958 184.802 21.8731C188.487 20.4807 192.503 20.1999 196.348 21.0657C196.881 21.1808 197.401 21.3469 197.902 21.5618L197.895 19.7136Z" fill="#C69775"/>
<path d="M197.878 21.5899V19.7417C196.557 19.2178 195.142 18.9576 193.702 18.8589V20.6815C194.584 20.7601 195.46 20.8979 196.324 21.0938C196.857 21.2086 197.378 21.3747 197.878 21.5899V21.5899Z" fill="#AD8468"/>
<path d="M195.838 54.9494H185.788V45.5519C185.788 45.5519 188.748 45.028 190.813 45.0187C193.183 45.0082 195.838 45.5519 195.838 45.5519V54.9494Z" fill="#C69775"/>
<path d="M195.838 45.5902C195.838 45.5902 194.89 45.3962 193.618 45.2417C193.627 45.2916 193.635 45.3416 193.642 45.3892C193.827 46.667 193.626 47.975 193.19 49.1808C192.939 49.8717 192.613 50.5338 192.219 51.1555C191.86 51.7414 191.428 52.28 190.934 52.7586C189.563 54.0503 187.678 54.6369 185.777 54.803V54.9796H195.826L195.838 45.5902Z" fill="#AD8468"/>
<path opacity="0.1" d="M185.056 12.7694C184.869 13.4849 185.071 14.2342 185.232 14.9555C186.548 20.8415 185.137 26.9981 185.752 32.9967C185.783 33.2929 185.929 33.6797 186.22 33.6368C186.468 33.6008 186.547 33.2883 186.57 33.0397C187.06 26.7193 185.833 20.2525 187.279 14.0773C187.432 13.4234 187.719 12.0666 186.954 11.6379C186.188 11.2093 185.235 12.0782 185.056 12.7694Z" fill="white"/>
<path opacity="0.1" d="M185.889 35.3434L186.071 39.5578C186.066 39.8319 186.115 40.1043 186.216 40.3593C186.333 40.6068 186.585 40.8124 186.86 40.7915C186.945 40.7874 187.025 40.7527 187.087 40.6939C187.162 40.5855 187.192 40.4521 187.17 40.3222C187.117 39.001 187.064 37.6806 187.011 36.361C186.993 35.9347 187.148 34.938 186.734 34.6534C186.212 34.298 185.869 34.8869 185.889 35.3434Z" fill="white"/>
<path d="M170.68 20.9356C170.442 23.1611 170.324 25.3978 170.329 27.6358C170.329 28.2376 170.354 28.8637 170.575 29.4317C170.684 29.714 170.972 29.9405 171.293 29.8371C171.57 29.7477 171.819 29.4259 171.701 29.1227C171.657 29.0089 171.621 28.8925 171.591 28.7742C171.576 28.7161 171.564 28.6581 171.553 28.5977C171.553 28.5721 171.545 28.5465 171.54 28.521C171.512 28.3584 171.54 28.5895 171.54 28.4954C171.52 28.2422 171.505 27.9913 171.502 27.7381C171.502 27.1979 171.502 26.6577 171.519 26.1176C171.545 25.0172 171.599 23.9179 171.684 22.8197C171.733 22.1901 171.791 21.5613 171.858 20.9333C171.89 20.6301 171.566 20.3397 171.273 20.3525C170.923 20.3676 170.724 20.608 170.689 20.9333L170.68 20.9356Z" fill="#C99E47"/>
<path d="M172.886 20.9408C172.687 23.4189 172.591 25.9048 172.599 28.3984V28.9176C172.599 29.136 172.589 29.3579 172.706 29.553C172.793 29.6976 172.933 29.8029 173.096 29.8463C173.26 29.8897 173.434 29.8678 173.581 29.7854C173.654 29.7438 173.718 29.6884 173.769 29.6224C173.82 29.5563 173.857 29.4808 173.879 29.4003C173.901 29.3198 173.906 29.2358 173.895 29.1532C173.884 29.0706 173.857 28.9909 173.815 28.9188C173.733 28.7952 173.606 28.7075 173.461 28.6736C173.316 28.6397 173.164 28.6621 173.035 28.7362C172.906 28.8104 172.81 28.9308 172.768 29.0726C172.725 29.2145 172.738 29.3673 172.805 29.4996C172.805 29.4996 172.814 29.5124 172.818 29.5193L172.759 29.0721L172.797 28.978L173.008 28.7689L172.983 28.7829L173.277 28.7039H173.252L173.546 28.784L173.518 28.7654L173.727 28.9745C173.743 28.9966 173.764 29.2812 173.773 29.1128C173.773 29.0837 173.773 29.0547 173.773 29.0257C173.773 28.9583 173.773 28.8909 173.773 28.8235C173.773 28.6899 173.773 28.5552 173.773 28.4205C173.773 28.151 173.773 27.8826 173.773 27.6073C173.773 27.0691 173.781 26.5313 173.796 25.9938C173.82 24.9182 173.865 23.8429 173.93 22.768C173.967 22.1546 174.01 21.5402 174.059 20.928C174.059 20.7739 173.998 20.6262 173.888 20.5173C173.779 20.4084 173.63 20.3472 173.475 20.3472C173.321 20.3507 173.175 20.413 173.066 20.5212C172.957 20.6294 172.894 20.7751 172.891 20.928L172.886 20.9408Z" fill="#C99E47"/>
<path d="M179.979 21.0111C179.89 23.2571 179.924 25.5063 180.082 27.7485C180.127 28.3805 180.181 29.012 180.245 29.6431C180.275 29.944 180.491 30.2391 180.829 30.224C181.12 30.2112 181.446 29.9672 181.413 29.6431C181.186 27.4047 181.082 25.1555 181.101 22.9057C181.108 22.2715 181.123 21.6376 181.148 21.0042C181.148 20.8501 181.086 20.7024 180.977 20.5935C180.867 20.4845 180.719 20.4233 180.564 20.4233C180.41 20.4266 180.263 20.4888 180.154 20.5971C180.045 20.7053 179.983 20.8511 179.979 21.0042V21.0111Z" fill="#C99E47"/>
<path d="M133.881 21.6047C133.223 21.9126 133.103 22.7768 133.074 23.4145C133.042 24.1115 133.221 24.8085 133.699 25.3266C134.126 25.7912 134.751 26.0433 135.357 26.1839C136.056 26.3379 136.768 26.4319 137.483 26.465C138.716 26.5347 140.271 26.5312 141.115 25.4718C141.527 24.9535 141.719 24.2957 141.65 23.6387C141.581 22.9863 141.293 22.3761 140.832 21.9068C139.688 20.7231 137.939 20.6185 136.414 20.9531C136.34 20.9734 136.27 21.0079 136.21 21.0548C136.149 21.1017 136.099 21.16 136.061 21.2263C136.023 21.2926 135.999 21.3657 135.989 21.4414C135.98 21.5171 135.985 21.5939 136.006 21.6675C136.05 21.8141 136.149 21.9382 136.283 22.0137C136.417 22.0892 136.575 22.1104 136.724 22.0729C136.875 22.0403 137.027 22.0101 137.18 21.9869C137.197 21.9869 137.31 21.9683 137.237 21.9776L137.296 21.9707C137.378 21.9625 137.458 21.9544 137.54 21.9486C137.696 21.9385 137.852 21.935 138.008 21.9381C138.08 21.9381 138.152 21.9381 138.225 21.9474L138.334 21.9567C138.379 21.9567 138.45 21.9695 138.366 21.9567C138.644 21.9956 138.916 22.0654 139.177 22.1646C139.294 22.2065 139.162 22.1553 139.16 22.1565C139.188 22.1659 139.215 22.178 139.24 22.1925C139.3 22.2204 139.357 22.2506 139.417 22.282C139.526 22.3412 139.63 22.4097 139.732 22.4783C139.835 22.5468 139.732 22.4713 139.72 22.4667C139.744 22.4821 139.767 22.5005 139.787 22.5213C139.838 22.5631 139.885 22.6061 139.933 22.6514C139.981 22.6967 140.015 22.7327 140.05 22.7745C140.07 22.7954 140.089 22.8175 140.107 22.8395C140.167 22.9081 140.158 22.8593 140.107 22.8395C140.143 22.8546 140.187 22.9487 140.208 22.9801C140.243 23.0347 140.277 23.0905 140.307 23.1474C140.321 23.1729 140.335 23.1985 140.347 23.2252C140.359 23.2519 140.4 23.3263 140.362 23.2519C140.325 23.1776 140.362 23.2601 140.373 23.2798C140.383 23.2996 140.396 23.346 140.407 23.3797C140.424 23.4331 140.439 23.4874 140.451 23.5423C140.459 23.576 140.466 23.6109 140.473 23.6457C140.48 23.6806 140.487 23.7619 140.473 23.6724C140.459 23.583 140.479 23.7642 140.48 23.7886C140.48 23.8513 140.48 23.9141 140.48 23.9779C140.483 24.0341 140.479 24.0903 140.466 24.1452C140.512 24.0209 140.473 24.0883 140.466 24.1359C140.466 24.1626 140.456 24.1905 140.449 24.2172C140.435 24.2714 140.42 24.3249 140.403 24.3775C140.395 24.4042 140.384 24.4298 140.376 24.4565C140.355 24.5239 140.427 24.3531 140.376 24.4565C140.352 24.5065 140.327 24.5553 140.299 24.604C140.282 24.6331 140.263 24.6621 140.244 24.6912C140.226 24.7202 140.183 24.7841 140.229 24.7167C140.275 24.6494 140.229 24.7167 140.209 24.7388L140.152 24.8015C140.106 24.8492 140.057 24.8921 140.008 24.9351C139.915 25.0164 140.022 24.9235 140.022 24.9247C140 24.943 139.976 24.9593 139.951 24.9734C139.896 25.0093 139.84 25.0422 139.781 25.0722L139.703 25.1117C139.686 25.1198 139.599 25.157 139.674 25.1256C139.749 25.0943 139.66 25.1256 139.641 25.1372L139.537 25.1732C139.417 25.2118 139.294 25.2429 139.169 25.2662C139.111 25.2778 139.052 25.2871 138.991 25.2975C138.906 25.3115 139.098 25.2859 139.011 25.2975L138.895 25.3103C138.627 25.3328 138.359 25.3413 138.091 25.3359C137.767 25.3359 137.445 25.3208 137.123 25.2906C136.962 25.2778 136.8 25.2615 136.64 25.2429L136.523 25.229C136.426 25.2185 136.606 25.2406 136.509 25.229C136.412 25.2174 136.34 25.2046 136.256 25.1907C135.993 25.1524 135.732 25.1 135.474 25.0339C135.357 25.0013 135.24 24.9642 135.124 24.9177L135.043 24.8863C134.966 24.8561 135.135 24.9305 135.063 24.8933C134.99 24.8561 134.946 24.8387 134.89 24.8073C134.834 24.776 134.767 24.7365 134.709 24.6912C134.684 24.6768 134.661 24.6604 134.64 24.6424C134.739 24.7469 134.651 24.6424 134.628 24.6273C134.581 24.585 134.536 24.54 134.494 24.4925C134.481 24.4786 134.421 24.4077 134.471 24.4705C134.522 24.5332 134.438 24.4182 134.428 24.4019C134.384 24.3476 134.35 24.2859 134.328 24.2196C134.341 24.3148 134.348 24.2707 134.328 24.2312C134.308 24.1917 134.297 24.1441 134.284 24.0999C134.264 24.0332 134.248 23.9653 134.237 23.8966C134.23 23.8595 134.196 23.7642 134.237 23.8897C134.229 23.8514 134.225 23.8125 134.226 23.7735C134.216 23.6234 134.216 23.4728 134.226 23.3228L134.233 23.2287C134.233 23.1962 134.252 23.051 134.233 23.195C134.24 23.1276 134.253 23.0614 134.266 22.9964C134.279 22.9313 134.29 22.8802 134.308 22.8163C134.315 22.7908 134.324 22.764 134.332 22.7385C134.367 22.613 134.272 22.8395 134.332 22.7269C134.345 22.7048 134.358 22.6804 134.37 22.6583C134.399 22.6154 134.399 22.6142 134.37 22.6583C134.341 22.7025 134.341 22.6955 134.37 22.6583C134.439 22.6328 134.332 22.591 134.338 22.6734C134.338 22.6595 134.432 22.6212 134.44 22.6165C134.718 22.4864 134.81 22.0694 134.65 21.822C134.569 21.692 134.441 21.598 134.292 21.5593C134.144 21.5206 133.986 21.5402 133.851 21.614L133.881 21.6047Z" fill="#C99E47"/>
<path opacity="0.25" d="M130.962 20.5875C132.091 20.1937 133.366 20.3923 134.574 20.5341C139.483 21.1149 144.469 20.6502 149.399 21.0173C149.859 21.051 150.451 21.2078 150.451 21.5981C150.451 22.0233 149.782 22.1545 149.282 22.1534C144.525 22.1394 139.77 22.2761 135.02 22.5634C134.135 22.6168 133.15 22.7202 132.591 23.3127C132.103 23.8342 131.939 24.7194 131.165 24.81C130.279 24.9134 129.552 23.6309 129.436 23.0037C129.26 22.0372 129.887 20.9627 130.962 20.5875Z" fill="white"/>
<path opacity="0.25" d="M152.508 21.1323C153.24 20.7954 154.132 20.9499 154.948 21.0765C156.969 21.3897 159.018 21.4793 161.059 21.3437C161.398 21.3216 161.745 21.2938 162.071 21.3762C162.397 21.4587 162.698 21.6806 162.733 21.9698C162.769 22.2591 162.5 22.5506 162.188 22.6668C161.876 22.783 161.508 22.8039 161.157 22.8108C158.986 22.8527 156.815 22.855 154.643 22.8178C154.154 22.8292 153.665 22.7797 153.187 22.6703C152.445 22.4717 151.438 21.6283 152.508 21.1323Z" fill="white"/>
<path d="M220.744 21.4747C219.43 21.4747 217.744 19.917 216.642 17.6867C216.021 16.4298 215.667 15.1311 215.647 14.0299C215.626 12.8683 215.98 12.047 216.645 11.7229C216.847 11.6254 217.069 11.5757 217.294 11.5777C218.607 11.5777 220.294 13.1354 221.396 15.3657C222.018 16.6226 222.371 17.9213 222.39 19.0225C222.413 20.1842 222.057 21.0054 221.393 21.3295C221.191 21.4271 220.969 21.4769 220.744 21.4747V21.4747ZM217.294 12.0423C217.141 12.0403 216.989 12.0737 216.851 12.1399C216.365 12.3722 216.097 13.0622 216.114 14.0206C216.133 15.0556 216.465 16.2846 217.062 17.4822C218.071 19.5267 219.62 21.0101 220.744 21.0101C220.897 21.0121 221.049 20.9787 221.187 20.9125C221.673 20.6802 221.942 19.9902 221.924 19.0318C221.904 17.9968 221.574 16.7678 220.977 15.5702C219.966 13.5257 218.416 12.0423 217.294 12.0423Z" fill="#C99E47"/>
<path d="M300.692 44.0674C301.054 43.7944 301.501 43.7584 301.94 43.7561C302.488 43.7561 303.036 43.77 303.584 43.777C304.692 43.7921 305.804 43.77 306.913 43.8386C307.487 43.8565 308.054 43.9712 308.589 44.1778C308.657 44.2139 308.736 44.2233 308.81 44.2039C308.884 44.1844 308.948 44.1378 308.989 44.0732C309.028 44.0068 309.039 43.9277 309.019 43.8533C309 43.7789 308.951 43.7152 308.885 43.6759C307.833 43.2334 306.694 43.238 305.572 43.2229C304.385 43.2066 303.197 43.1788 302.01 43.1753C301.455 43.1753 300.856 43.2206 300.397 43.5656C300.333 43.6062 300.286 43.6699 300.266 43.7436C300.247 43.8174 300.256 43.8957 300.292 43.9629C300.332 44.029 300.396 44.077 300.471 44.0965C300.545 44.1161 300.625 44.1056 300.692 44.0674V44.0674Z" fill="#E5B64E"/>
<path d="M300.062 55.9659C301.17 55.586 302.296 55.1899 303.466 55.047C304.636 54.9042 305.803 55.0331 306.933 55.3038C307.588 55.4606 308.23 55.6604 308.866 55.8846C308.903 55.8947 308.942 55.8975 308.98 55.8928C309.018 55.8881 309.055 55.876 309.088 55.8572C309.121 55.8384 309.151 55.8132 309.174 55.7831C309.198 55.753 309.215 55.7186 309.225 55.6819C309.236 55.6451 309.238 55.6067 309.234 55.5689C309.229 55.531 309.217 55.4945 309.198 55.4613C309.179 55.4281 309.154 55.399 309.123 55.3756C309.093 55.3521 309.058 55.3348 309.021 55.3247C307.866 54.9274 306.684 54.5987 305.465 54.4674C304.252 54.3491 303.026 54.4594 301.853 54.7927C301.195 54.9704 300.55 55.1911 299.907 55.4118C299.833 55.434 299.771 55.4835 299.733 55.5502C299.695 55.6168 299.684 55.6954 299.703 55.7696C299.724 55.8434 299.774 55.906 299.841 55.9439C299.908 55.9817 299.987 55.9917 300.062 55.9717V55.9659Z" fill="#E5B64E"/>
<path d="M302.573 46.5406C302.667 46.2873 302.99 46.1921 303.236 46.1433C303.566 46.0887 303.905 46.1073 304.227 46.1979C304.542 46.2744 304.816 46.4692 304.99 46.7415C305.144 46.9963 305.198 47.2987 305.142 47.5907C305.025 48.1366 304.558 48.4561 304.105 48.7349C303.622 49.0346 303.09 49.3157 302.73 49.7629C302.48 50.0924 302.331 50.4871 302.302 50.899C302.245 51.4159 302.217 51.9444 302.175 52.4567C302.176 52.5334 302.207 52.6068 302.262 52.661C302.316 52.7153 302.39 52.7462 302.467 52.7471L305.973 52.7611C306.349 52.7611 306.35 52.1802 305.973 52.1802L302.467 52.1663L302.759 52.4567C302.799 51.963 302.832 51.4693 302.876 50.9756C302.89 50.6497 303.01 50.337 303.216 50.0835C303.619 49.6293 304.211 49.3865 304.712 49.0311C305.287 48.6291 305.757 48.0774 305.744 47.3409C305.729 46.4906 305.129 45.8215 304.313 45.6205C303.526 45.4266 302.333 45.5044 302.008 46.3861C301.998 46.4228 301.995 46.4612 302 46.4991C302.004 46.5369 302.016 46.5735 302.035 46.6066C302.054 46.6398 302.08 46.6689 302.11 46.6924C302.14 46.7158 302.175 46.7331 302.212 46.7433C302.249 46.7534 302.287 46.7562 302.325 46.7515C302.364 46.7468 302.4 46.7347 302.434 46.7159C302.467 46.6971 302.496 46.6719 302.52 46.6418C302.544 46.6117 302.561 46.5773 302.571 46.5406H302.573Z" fill="#E5B64E"/>
<path d="M125.748 107.555L119.613 99.6265L84.3574 100.31C84.3574 100.31 83.2286 100.329 81.7328 102.981C80.6811 104.84 80.1108 111.372 80.1108 111.372L125.748 107.555Z" fill="#788C61"/>
<path d="M124.557 101.296L118.823 92.6997H97.2619C97.2619 92.6997 96.1132 92.8159 95.5944 93.3851C95.0755 93.9543 93.4792 103.692 93.4792 103.692L124.557 101.3V101.296Z" fill="#DD5A31"/>
<path d="M100.486 123.948H0L13.3556 113.508H100.486H187.616L200.971 123.948H100.486Z" fill="#9B785D"/>
<path d="M51.8147 75.7915C51.8147 75.7915 50.5362 83.0075 50.2628 83.399C49.9893 83.7905 57.633 114.478 57.633 114.478L64.2459 120.351L51.8147 75.7915Z" fill="#4C3434"/>
<path d="M200.971 123.948H0V134.29H200.971V123.948Z" fill="#CCA079"/>
<path d="M21.3138 121.015C21.3138 121.015 19.5399 122.353 16.6722 122.353C12.7306 122.353 11.1472 121.015 11.1472 121.015V52.5055C11.1472 52.5055 12.872 51.187 16.2305 51.187C19.9489 51.187 21.3138 52.5055 21.3138 52.5055V121.015Z" fill="#E8E89C"/>
<path d="M16.2306 51.187H16.0156C17.6516 51.5762 18.3036 52.2069 18.3036 52.2069V120.716C18.3036 120.716 16.5508 122.039 13.7076 122.054C14.6822 122.259 15.6762 122.359 16.6723 122.35C19.54 122.35 21.3139 121.012 21.3139 121.012V52.5055C21.3139 52.5055 19.949 51.187 16.2306 51.187Z" fill="#CECC8D"/>
<path d="M78.5531 116.411C78.5531 116.411 76.3328 119.315 72.9521 119.939C68.0827 120.846 64.2462 120.355 64.2462 120.355L51.8149 75.795C51.8149 75.795 53.8015 73.5728 58.5354 72.2695C63.7671 70.8279 66.1218 71.8501 66.1218 71.8501L78.5531 116.411Z" fill="#5B3E3E"/>
<path d="M58.5353 72.2693C57.8412 72.461 57.2078 72.6724 56.6294 72.8931C60.3817 72.2159 62.0972 72.9605 62.0972 72.9605L75.302 119.096L78.553 116.411L66.1217 71.8465C66.1217 71.8465 63.767 70.8243 58.5353 72.2693Z" fill="#4C3434"/>
<path d="M67.3568 76.2765C64.6901 75.9885 61.9556 76.6808 59.4105 77.6031C57.3549 78.35 55.3345 79.2596 53.5618 80.549L53.2112 80.8022L53.8457 83.0767C54.3016 82.6264 54.7919 82.212 55.3123 81.8372C58.4887 79.5166 62.2833 78.1791 66.2209 77.9923C66.7671 77.9614 67.315 77.9832 67.8569 78.0573L67.3568 76.2765Z" fill="#C69775"/>
<path d="M67.8522 78.0515L67.3555 76.2708C65.9404 76.1174 64.5077 76.2417 63.0938 76.5287L63.5799 78.2862C64.4512 78.1272 65.3324 78.0271 66.2173 77.9865C66.7631 77.9551 67.3107 77.9769 67.8522 78.0515Z" fill="#AD8468"/>
<path d="M68.8922 81.8435L68.3956 80.0628C66.9816 79.9094 65.5478 80.0337 64.1338 80.3206L64.6246 82.0782C65.4956 81.9197 66.3764 81.8196 67.2609 81.7785C67.8055 81.7473 68.3519 81.7691 68.8922 81.8435V81.8435Z" fill="#AD8468"/>
<path d="M68.4049 80.0324C65.7371 79.7431 63.0026 80.4355 60.4586 81.359C58.4043 82.1047 56.3827 83.0143 54.6158 84.3037C54.4989 84.3908 54.3821 84.4744 54.2652 84.5581L54.8986 86.8314C55.3547 86.3814 55.845 85.967 56.3651 85.5919C59.5421 83.2716 63.3371 81.9346 67.2749 81.7481C67.8211 81.7167 68.369 81.7385 68.9109 81.8132L68.4049 80.0324Z" fill="#C69775"/>
<path d="M68.8922 81.8435L68.3956 80.0628C66.9816 79.9094 65.5478 80.0337 64.1338 80.3206L64.6246 82.0782C65.4956 81.9197 66.3764 81.8196 67.2609 81.7785C67.8055 81.7473 68.3519 81.7691 68.8922 81.8435V81.8435Z" fill="#AD8468"/>
<path d="M75.8944 114.531L66.2057 117.203L63.6804 108.153C63.6804 108.153 66.3927 106.861 68.3816 106.303C70.6627 105.663 73.3691 105.481 73.3691 105.481L75.8944 114.531Z" fill="#C69775"/>
<path d="M73.3786 105.512C73.3786 105.512 72.4133 105.577 71.1501 105.765C71.1727 105.811 71.1937 105.856 71.2132 105.901C71.7344 107.082 71.8933 108.397 71.7975 109.675C71.7412 110.409 71.6061 111.134 71.3943 111.838C71.2067 112.498 70.9361 113.131 70.5892 113.723C69.6146 115.333 67.9552 116.394 66.1685 117.063L66.2152 117.234L75.9038 114.562L73.3786 105.512Z" fill="#AD8468"/>
<path opacity="0.1" d="M54.1647 76.7507C54.1776 77.4895 54.5737 78.1586 54.922 78.8103C57.7733 84.1328 58.0689 90.4393 60.274 96.0569C60.3827 96.3345 60.6246 96.6679 60.9016 96.5483C61.1353 96.4472 61.1224 96.1254 61.0733 95.8815C59.8463 89.6598 56.9261 83.7553 56.6596 77.421C56.6304 76.7496 56.5428 75.3649 55.6897 75.1593C54.8367 74.9537 54.1519 76.0375 54.1647 76.7507Z" fill="white"/>
<path opacity="0.1" d="M61.036 98.2827C61.4731 99.6193 61.9097 100.956 62.346 102.294C62.4123 102.56 62.5315 102.81 62.6966 103.029C62.8777 103.236 63.1745 103.367 63.4328 103.274C63.5138 103.248 63.5824 103.193 63.6256 103.12C63.6692 102.995 63.662 102.858 63.6057 102.739C63.1998 101.481 62.7939 100.223 62.3881 98.9645C62.256 98.558 62.138 97.5566 61.6612 97.3929C61.0676 97.1884 60.8923 97.847 61.036 98.2827Z" fill="white"/>
<path d="M165.864 77.7743L166.378 83.0771L157.968 116.475L152.468 122.058L164.433 77.5942L165.864 77.7743Z" fill="#84321F"/>
<path d="M152.468 122.058C152.468 122.058 150.071 122.888 147.998 122.058C145.434 121.03 144.687 119.734 144.687 119.734L158.084 75.4511C158.084 75.4511 159.869 74.3022 162.44 75.0712C165.286 75.9215 165.864 77.7766 165.864 77.7766L152.468 122.058Z" fill="#AA4724"/>
<path d="M162.441 75.0567C162.026 74.932 161.598 74.8507 161.165 74.814C163.035 75.7433 163.458 77.0791 163.458 77.0791L149.742 122.418L152.469 122.047L165.865 77.7633C165.865 77.7633 165.286 75.9082 162.441 75.0567Z" fill="#993E22"/>
<path d="M161.663 77.6909C162.821 77.8175 164.105 78.1265 164.718 79.1139C164.572 79.5297 164.45 79.9536 164.354 80.3836C164.289 79.783 163.615 79.4763 163.039 79.2835C162.122 78.978 161.198 78.6702 160.24 78.547C159.282 78.4239 158.273 78.4971 157.406 78.9222C157.547 77.8768 157.64 77.6038 158.691 77.5724C159.684 77.5429 160.677 77.5825 161.663 77.6909V77.6909Z" fill="#C69775"/>
<path d="M154.385 114.932L154.76 113.641C154.79 113.566 154.79 113.483 154.76 113.408C154.724 113.355 154.671 113.314 154.61 113.292C152.415 112.259 150.009 111.746 147.581 111.794C147.548 111.788 147.514 111.79 147.482 111.798C147.45 111.807 147.42 111.822 147.394 111.843C147.369 111.864 147.348 111.89 147.333 111.919C147.318 111.949 147.31 111.981 147.308 112.014C147.201 112.472 147.048 112.944 147.003 113.408C147.38 113.489 148.005 113.253 148.448 113.268C149.148 113.297 149.843 113.398 150.523 113.568C150.873 113.648 154.438 114.752 154.385 114.932Z" fill="#C69775"/>
<path d="M155.196 112.424L155.571 111.133C155.601 111.058 155.601 110.975 155.571 110.9C155.534 110.847 155.481 110.807 155.419 110.784C153.225 109.75 150.819 109.238 148.391 109.287C148.324 109.281 148.258 109.297 148.202 109.333C148.156 109.38 148.126 109.441 148.118 109.506C148.011 109.964 147.858 110.436 147.813 110.9C148.19 110.981 148.816 110.746 149.258 110.76C149.958 110.789 150.653 110.89 151.333 111.061C151.675 111.14 155.244 112.244 155.196 112.424Z" fill="#C69775"/>
<path d="M125.748 122.656H82.9281C82.9281 122.656 79.4843 121.207 79.5182 115.2C79.5521 109.16 83.0508 107.555 83.0508 107.555H125.748V110.11H121.273L121.315 120.245H125.755L125.748 122.656Z" fill="#4F5E40"/>
<path d="M125.018 120.244H83.9318C83.9318 120.244 81.4649 119.272 81.4976 115.241C81.5304 111.188 83.9318 110.109 83.9318 110.109H125.018C125.018 110.109 123.528 112.033 123.412 115.371C123.328 117.792 125.018 120.244 125.018 120.244Z" fill="#F7E4BC"/>
<path d="M82.8008 112.473H123.896L123.688 113.248L82.8008 112.473Z" fill="#D1C0A1"/>
<path d="M82.3242 115.695H123.421L123.486 116.475L82.3242 115.695Z" fill="#D1C0A1"/>
<path d="M82.71 117.305H123.668L123.896 118.014L82.71 117.305Z" fill="#D1C0A1"/>
<path d="M83.4458 116.453C83.385 117.785 83.3359 119.178 83.9611 120.388C83.2191 120.424 82.5086 120.04 82.0435 119.52C81.5784 119.001 81.3225 118.359 81.125 117.711C80.6739 116.238 80.4846 114.657 80.9497 113.187C81.3564 111.899 82.6944 110.043 84.3608 109.958C83.4586 111.944 83.5451 114.302 83.4458 116.453Z" fill="#4C3434"/>
<path d="M124.557 107.641H95.6808C95.6808 107.641 93.3577 107.031 93.3811 104.504C93.4045 101.978 95.7638 101.292 95.7638 101.292H124.557V102.367H121.541L121.569 106.624H124.561L124.557 107.641Z" fill="#AA4724"/>
<path d="M124.063 106.628H96.3573C96.3573 106.628 94.6933 106.219 94.7213 104.527C94.7493 102.834 96.3573 102.371 96.3573 102.371H124.063C123.426 102.938 123.038 103.73 122.98 104.578C122.924 105.596 124.063 106.628 124.063 106.628Z" fill="#F7E4BC"/>
<path d="M95.5943 103.362H123.307L123.166 103.688L95.5943 103.362Z" fill="#D1C0A1"/>
<path d="M95.2731 104.716H122.986L123.03 105.043L95.2731 104.716Z" fill="#D1C0A1"/>
<path d="M95.5334 105.393H123.153L123.307 105.689L95.5334 105.393Z" fill="#D1C0A1"/>
<path d="M96.0304 105.034C95.9883 105.594 95.9556 106.179 96.381 106.687C95.9223 106.701 95.4704 106.574 95.0873 106.323C94.8173 106.128 94.6037 105.866 94.468 105.562C94.1642 104.943 94.0368 104.285 94.3511 103.662C94.6258 103.121 95.5279 102.341 96.6509 102.305C96.0386 103.139 96.097 104.13 96.0304 105.034Z" fill="#4C3434"/>
<path d="M115.55 126.844C115.537 125.407 115.684 123.972 115.649 122.535C115.593 120.142 115.469 117.656 113.429 115.724L107.848 115.678C108.955 116.232 109.459 117.528 109.679 118.74C110.062 120.858 109.87 123.03 109.913 125.181C109.956 127.333 110.255 129.576 111.487 131.345C111.72 129.954 112.228 128.622 112.983 127.428C113.247 128.245 113.691 128.992 114.284 129.615C114.877 130.239 115.603 130.722 116.409 131.029C115.746 129.749 115.563 128.281 115.55 126.844Z" fill="#AA4724"/>
<path d="M19.3904 116.32C19.3904 118.317 18.1178 119.935 16.5484 119.935C14.9791 119.935 13.7076 118.317 13.7076 116.32C13.7076 114.323 14.9802 112.704 16.5484 112.704C18.1167 112.704 19.3904 114.32 19.3904 116.32Z" fill="#AFAC79"/>
<path d="M17.0262 55.2534H14.8105V95.9219H17.0262V55.2534Z" fill="#AFAC79"/>
<path d="M17.0263 98.4302H14.8107V104.761H17.0263V98.4302Z" fill="#AFAC79"/>
<path d="M31.4815 121.015C31.4815 121.015 29.7064 122.353 26.8387 122.353C22.8971 122.353 21.3137 121.015 21.3137 121.015V52.5055C21.3137 52.5055 23.0385 51.187 26.397 51.187C30.1166 51.187 31.4815 52.5055 31.4815 52.5055V121.015Z" fill="#E8E89C"/>
<path d="M26.3971 51.187H26.1821C27.8181 51.5762 28.4701 52.2069 28.4701 52.2069V120.716C28.4701 120.716 26.7173 122.039 23.8741 122.054C24.8487 122.259 25.8427 122.359 26.8388 122.35C29.7065 122.35 31.4816 121.012 31.4816 121.012V52.5055C31.4816 52.5055 30.1167 51.187 26.3971 51.187Z" fill="#CECC8D"/>
<path d="M29.5569 116.32C29.5569 118.317 28.2843 119.935 26.7161 119.935C25.1479 119.935 23.8741 118.317 23.8741 116.32C23.8741 114.323 25.1467 112.704 26.7161 112.704C28.2855 112.704 29.5569 114.32 29.5569 116.32Z" fill="#AFAC79"/>
<path d="M26.7164 55.2534H24.9775V95.9219H26.7164V55.2534Z" fill="#AFAC79"/>
<path d="M26.7163 98.4302H24.9774V104.761H26.7163V98.4302Z" fill="#AFAC79"/>
<path d="M41.6483 121.015C41.6483 121.015 39.8732 122.353 37.0067 122.353C33.0639 122.353 31.4817 121.015 31.4817 121.015V52.5055C31.4817 52.5055 33.2053 51.187 36.565 51.187C40.2834 51.187 41.6483 52.5055 41.6483 52.5055V121.015Z" fill="#E8E89C"/>
<path d="M36.565 51.187H36.3488C37.9848 51.5762 38.6369 52.2069 38.6369 52.2069V120.716C38.6369 120.716 36.884 122.039 34.0409 122.054C35.0158 122.259 36.0103 122.359 37.0067 122.35C39.8732 122.35 41.6483 121.012 41.6483 121.012V52.5055C41.6483 52.5055 40.2834 51.187 36.565 51.187Z" fill="#CECC8D"/>
<path d="M39.7237 116.32C39.7237 118.317 38.4511 119.935 36.8829 119.935C35.3146 119.935 34.0409 118.317 34.0409 116.32C34.0409 114.323 35.3135 112.704 36.8829 112.704C38.4523 112.704 39.7237 114.32 39.7237 116.32Z" fill="#AFAC79"/>
<path d="M36.8829 55.2534H35.144V95.9219H36.8829V55.2534Z" fill="#AFAC79"/>
<path d="M36.8828 98.4302H35.1439V104.761H36.8828V98.4302Z" fill="#AFAC79"/>
<path d="M51.8148 121.015C51.8148 121.015 50.0397 122.353 47.1732 122.353C43.2304 122.353 41.6482 121.015 41.6482 121.015V52.5055C41.6482 52.5055 43.3718 51.187 46.7315 51.187C50.4499 51.187 51.8148 52.5055 51.8148 52.5055V121.015Z" fill="#E8E89C"/>
<path d="M46.7315 51.187H46.5164C48.1524 51.5762 48.8033 52.2069 48.8033 52.2069V120.716C48.8033 120.716 47.0505 122.039 44.2073 122.054C45.1823 122.259 46.1767 122.359 47.1732 122.35C50.0397 122.35 51.8148 121.012 51.8148 121.012V52.5055C51.8148 52.5055 50.4499 51.187 46.7315 51.187Z" fill="#CECC8D"/>
<path d="M188.889 120.773C188.889 120.773 185.967 121.6 181.243 121.6C174.748 121.6 172.141 120.773 172.141 120.773V78.4689C172.141 78.4689 174.98 77.6558 180.515 77.6558C186.64 77.6558 188.889 78.4689 188.889 78.4689V120.773Z" fill="#E5B64E"/>
<path d="M180.515 77.6548H180.164C182.852 77.8952 183.932 78.2844 183.932 78.2844V120.593C183.932 120.593 181.039 121.406 176.362 121.419C177.654 121.526 179.269 121.602 181.246 121.602C185.97 121.602 188.892 120.775 188.892 120.775V78.4691C188.892 78.4691 186.64 77.6548 180.515 77.6548Z" fill="#C99E47"/>
<path d="M172.14 120.484C172.14 120.484 170.68 121.14 168.318 121.14C165.071 121.14 163.761 120.484 163.761 120.484V86.8814C163.761 86.8814 165.18 86.2344 167.948 86.2344C171.01 86.2344 172.135 86.8814 172.135 86.8814L172.14 120.484Z" fill="#4F5E40"/>
<path d="M167.954 86.2344H167.776C169.122 86.4249 169.661 86.7339 169.661 86.7339V120.336C169.661 120.336 168.214 120.985 165.876 120.992C166.686 121.093 167.502 121.142 168.318 121.138C170.68 121.138 172.141 120.481 172.141 120.481V86.8814C172.141 86.8814 171.016 86.2344 167.954 86.2344Z" fill="#3D4731"/>
<path d="M49.8901 116.32C49.8901 118.317 48.6187 119.935 47.0493 119.935C45.4799 119.935 44.2073 118.317 44.2073 116.32C44.2073 114.323 45.4799 112.704 47.0493 112.704C48.6187 112.704 49.8901 114.32 49.8901 116.32Z" fill="#AFAC79"/>
<path d="M47.5028 55.2534H45.3105V95.9219H47.5028V55.2534Z" fill="#AFAC79"/>
<path d="M47.5029 98.4302H45.3107V104.761H47.5029V98.4302Z" fill="#AFAC79"/>
<path d="M173.578 112.113C175.52 112.345 177.461 112.609 179.409 112.774C181.204 112.926 183.032 112.961 184.803 112.622C185.799 112.435 186.762 112.107 187.664 111.649C187.998 111.479 187.703 110.977 187.368 111.149C185.815 111.944 184.072 112.249 182.343 112.296C180.558 112.346 178.777 112.148 177.007 111.937L173.578 111.532C173.501 111.532 173.426 111.563 173.372 111.617C173.317 111.672 173.286 111.745 173.286 111.822C173.288 111.899 173.319 111.971 173.374 112.025C173.428 112.079 173.501 112.111 173.578 112.113V112.113Z" fill="#B77158"/>
<path d="M173.807 114.723C177.239 115.635 180.832 115.775 184.324 115.132C185.309 114.951 186.282 114.706 187.235 114.4C187.586 114.284 187.439 113.724 187.08 113.84C183.78 114.896 180.284 115.205 176.848 114.745C175.873 114.614 174.908 114.42 173.958 114.165C173.594 114.068 173.439 114.629 173.802 114.724L173.807 114.723Z" fill="#B77158"/>
<path d="M185.647 84.0728C185.647 85.3889 183.704 86.4565 181.307 86.4565C178.91 86.4565 176.967 85.3889 176.967 84.0728C176.967 82.7567 178.91 81.688 181.307 81.688C183.704 81.688 185.647 82.7555 185.647 84.0728Z" fill="#B77158"/>
<path opacity="0.28" d="M173.384 81.1508C173.227 82.266 173.635 83.3707 173.919 84.4615C175.034 88.7444 174.257 93.2584 174.291 97.6842C174.291 98.4277 174.326 99.1792 174.525 99.8913C174.631 100.269 174.862 100.693 175.255 100.714C175.817 100.743 176.018 99.9935 176.03 99.436C176.091 96.2717 176.153 93.1074 176.214 89.9432C176.248 88.2007 176.293 86.4223 176.966 84.8193C177.323 83.9701 177.848 83.193 178.175 82.3357C178.502 81.4784 178.61 80.4597 178.137 79.664C176.993 77.7612 173.642 79.3073 173.384 81.1508Z" fill="white"/>
<path opacity="0.28" d="M174.658 102.521C174.483 102.877 174.522 103.295 174.564 103.689C174.661 104.593 174.757 105.497 174.854 106.401C174.897 106.808 174.988 107.285 175.362 107.457C175.757 107.64 176.236 107.331 176.414 106.934C176.591 106.536 176.544 106.083 176.531 105.65C176.512 105.077 176.551 104.504 176.648 103.939C176.725 103.493 176.835 103.026 176.686 102.598C176.414 101.82 175.006 101.81 174.658 102.521Z" fill="white"/>
<path d="M136.319 100.638L127.672 100.116L130.851 119.813C130.851 119.813 131.348 120.466 133.236 120.829C134.68 121.106 137.947 121.106 139.39 120.829C141.277 120.466 141.775 119.813 141.775 119.813L144.955 100.116L136.319 100.638Z" fill="#E5B64E"/>
<path d="M140.185 100.405C140.178 100.706 140.173 101.005 140.161 101.304C140.087 103.046 139.747 104.766 139.389 106.473C138.805 109.246 138.155 112.065 136.676 114.488C135.595 116.258 133.999 117.813 132.049 118.601C131.713 118.738 131.192 118.8 130.711 118.913L130.857 119.817C130.857 119.817 131.354 120.47 133.243 120.832C134.686 121.11 137.953 121.11 139.396 120.832C141.284 120.47 141.781 119.817 141.781 119.817L144.961 100.119L140.185 100.405Z" fill="#D8A64E"/>
<path d="M144.961 100.116C144.961 100.607 141.092 101.004 136.313 101.004C131.535 101.004 127.666 100.607 127.666 100.116C127.666 99.6243 131.535 99.2271 136.313 99.2271C141.092 99.2271 144.961 99.6243 144.961 100.116Z" fill="#A8803F"/>
<path opacity="0.28" d="M129.622 102.597C129.602 102.781 129.615 102.966 129.661 103.145L131.319 111.715C131.387 112.063 131.637 112.528 131.969 112.382C132.202 112.283 132.215 111.962 132.188 111.709C131.887 108.877 131.434 106.037 131.618 103.194C131.638 102.879 131.661 102.544 131.501 102.265C131.154 101.671 129.742 101.901 129.622 102.597Z" fill="white"/>
<path opacity="0.28" d="M132.292 113.35C132.097 113.195 131.783 113.35 131.686 113.583C131.589 113.815 131.643 114.074 131.696 114.317L131.977 115.562C131.995 115.722 132.065 115.871 132.177 115.987C132.347 116.129 132.621 116.082 132.784 115.934C132.94 115.773 133.036 115.565 133.056 115.342C133.102 114.986 133.092 114.624 133.027 114.27C132.962 113.839 132.761 113.324 132.326 113.282L132.292 113.35Z" fill="white"/>
<path d="M138.317 101.004L142.405 89.5415L145.166 85.8267L144.56 90.1409L140.588 100.888L138.317 101.004Z" fill="#4F5E40"/>
<path d="M135.022 100.995L133.085 87.8314V81.9814L135.538 87.1391L137.355 101.004L135.022 100.995Z" fill="#84321F"/>
<path d="M132.876 81.0615L133.084 84.3977L134.143 84.2084L132.876 81.0615Z" fill="#4C3434"/>
<path d="M144.163 87.1775L145.889 84.7637L144.933 87.49L144.163 87.1775Z" fill="#4C3434"/>
<path d="M152.468 122.047L163.767 120.484V116.084L157.968 116.475L152.468 122.047Z" fill="#7F624E"/>
<path d="M64.2462 120.351L51.8149 118.728V113.508L57.2512 113.277L64.2462 120.351Z" fill="#7F624E"/>
</svg>
