<svg width="37" height="36" viewBox="0 0 37 36" fill="none" xmlns="http://www.w3.org/2000/svg">
<path d="M36.3841 10.6256C36.3639 9.11401 36.0805 7.61747 35.5464 6.20291C35.0833 5.00973 34.376 3.92611 33.4697 3.02128C32.5634 2.11646 31.4779 1.41032 30.2828 0.947999C28.8841 0.42382 27.4064 0.140386 25.9127 0.109768C23.9896 0.0239496 23.3798 0 18.498 0C13.6162 0 12.9904 1.33828e-07 11.0813 0.109768C9.58828 0.140611 8.11131 0.424041 6.71324 0.947999C5.51789 1.41 4.43229 2.11602 3.52592 3.02089C2.61955 3.92575 1.91235 5.00954 1.44958 6.20291C0.923474 7.59823 0.640184 9.07307 0.61195 10.5637C0.525988 12.4856 0.5 13.0944 0.5 17.9681C0.5 22.8418 0.5 23.4645 0.61195 25.3724C0.641937 26.8653 0.923811 28.3382 1.44958 29.7372C1.91313 30.9302 2.62085 32.0136 3.52753 32.9181C4.4342 33.8225 5.5199 34.5283 6.71524 34.9901C8.10949 35.5354 9.58671 35.8391 11.0833 35.8882C13.0084 35.9741 13.6182 36 18.5 36C23.3818 36 24.0076 36 25.9167 35.8882C27.4103 35.8589 28.8881 35.5761 30.2868 35.052C31.4816 34.5891 32.5668 33.8828 33.473 32.9781C34.3793 32.0733 35.0868 30.99 35.5504 29.7971C36.0762 28.4 36.3581 26.9272 36.3881 25.4323C36.474 23.5124 36.5 22.9037 36.5 18.0279C36.496 13.1542 36.496 12.5355 36.3841 10.6256ZM18.486 27.1846C13.3803 27.1846 9.24411 23.0553 9.24411 17.9581C9.24411 12.8609 13.3803 8.73157 18.486 8.73157C20.9371 8.73157 23.2878 9.70365 25.021 11.434C26.7542 13.1643 27.7279 15.5111 27.7279 17.9581C27.7279 20.4051 26.7542 22.7519 25.021 24.4822C23.2878 26.2125 20.9371 27.1846 18.486 27.1846ZM28.0957 10.5417C27.8127 10.542 27.5323 10.4865 27.2707 10.3785C27.0091 10.2705 26.7715 10.112 26.5713 9.91218C26.3711 9.71235 26.2124 9.47507 26.1042 9.21393C25.996 8.95278 25.9404 8.6729 25.9407 8.39029C25.9407 8.10789 25.9964 7.82825 26.1047 7.56734C26.2129 7.30644 26.3716 7.06937 26.5716 6.86968C26.7716 6.66999 27.0091 6.51159 27.2704 6.40352C27.5318 6.29545 27.8119 6.23983 28.0947 6.23983C28.3776 6.23983 28.6577 6.29545 28.9191 6.40352C29.1804 6.51159 29.4179 6.66999 29.6179 6.86968C29.8179 7.06937 29.9766 7.30644 30.0848 7.56734C30.1931 7.82825 30.2488 8.10789 30.2488 8.39029C30.2488 9.57978 29.2852 10.5417 28.0957 10.5417Z" fill="#3D3D3D"/>
</svg>
