<svg width="609" height="450" viewBox="0 0 609 450" fill="none" xmlns="http://www.w3.org/2000/svg">
<path d="M253.372 169.904L253.209 169.331C254.687 168.91 256.159 168.415 257.583 167.867L257.798 168.41C256.36 168.978 254.869 169.478 253.372 169.904ZM248.833 170.991C247.306 171.279 245.749 171.499 244.214 171.646L244.16 171.051C245.681 170.907 247.219 170.692 248.727 170.407L248.833 170.991ZM262.065 166.541L261.794 165.998C263.152 165.316 264.51 164.561 265.825 163.756L266.138 164.262C264.831 165.088 263.459 165.859 262.065 166.541ZM239.542 171.855C237.993 171.855 236.423 171.784 234.877 171.643L234.934 171.048C236.458 171.189 238.009 171.26 239.552 171.257L239.542 171.855ZM269.995 161.632L269.634 161.157C270.856 160.233 272.049 159.241 273.182 158.206L273.581 158.646C272.443 159.692 271.237 160.697 270.001 161.632H269.995ZM230.253 170.996C228.729 170.725 227.2 170.352 225.708 169.926L225.871 169.353C227.346 169.774 228.86 170.13 230.362 170.412L230.253 170.996ZM276.879 155.343L276.439 154.941C277.469 153.808 278.458 152.615 279.381 151.39L279.857 151.749C278.93 152.988 277.928 154.196 276.885 155.343H276.879ZM221.288 168.443C219.843 167.883 218.406 167.25 217.015 166.557L217.287 166.014C218.661 166.696 220.079 167.323 221.508 167.878L221.288 168.443ZM282.5 147.894L281.992 147.581C282.807 146.277 283.554 144.922 284.236 143.55L284.779 143.822C284.07 145.212 283.315 146.571 282.5 147.894ZM212.937 164.289C211.617 163.474 210.318 162.588 209.082 161.656L209.441 161.178C210.663 162.102 211.946 162.977 213.244 163.781L212.937 164.289ZM286.657 139.545L286.113 139.331C286.657 137.902 287.162 136.429 287.583 134.957L288.156 135.12C287.719 136.611 287.219 138.1 286.657 139.545ZM205.485 158.679C204.336 157.636 203.225 156.527 202.179 155.384L202.619 154.982C203.652 156.112 204.752 157.207 205.879 158.242L205.485 158.679ZM289.232 130.575L288.645 130.466C288.917 128.959 289.142 127.421 289.284 125.897L289.879 125.951C289.721 127.494 289.504 129.051 289.232 130.575ZM199.191 151.798C198.256 150.562 197.368 149.266 196.55 147.948L197.058 147.636C197.873 148.937 198.743 150.217 199.666 151.439L199.191 151.798ZM290.08 121.29H289.482C289.482 119.757 289.409 118.209 289.265 116.671L289.86 116.614C290.004 118.171 290.077 119.738 290.08 121.29ZM194.279 143.87C193.589 142.485 192.956 141.048 192.394 139.6L192.951 139.385C193.494 140.817 194.13 142.235 194.812 143.604L194.279 143.87ZM289.208 112.004L288.623 112.113C288.352 110.613 287.985 109.103 287.564 107.625L287.531 107.513L288.105 107.348L288.137 107.462C288.564 108.956 288.922 110.485 289.208 112.004ZM191.484 135.011L190.911 135.174L190.894 135.12C190.473 133.642 190.117 132.132 189.832 130.635L190.419 130.523C190.691 132.007 191.052 133.512 191.468 134.957L191.484 135.011ZM286.059 103.142C285.516 101.711 284.877 100.292 284.193 98.9233L284.736 98.6516C285.429 100.037 286.064 101.471 286.638 102.919L286.059 103.142ZM189.77 125.962L189.177 126.019C189.031 124.473 188.955 122.906 188.952 121.357H189.55C189.552 122.881 189.626 124.43 189.77 125.957V125.962ZM281.943 94.9026C281.128 93.6013 280.256 92.3218 279.33 91.0993L279.805 90.738C280.742 91.974 281.631 93.2672 282.449 94.5848L281.943 94.9026ZM189.756 116.742L189.161 116.688C189.302 115.144 189.52 113.588 189.802 112.069L190.389 112.181C190.109 113.677 189.895 115.215 189.756 116.742ZM276.374 87.5568C275.339 86.4266 274.239 85.3318 273.114 84.2968L273.513 83.8567C274.663 84.8971 275.776 86.0056 276.825 87.1465L276.374 87.5568ZM191.432 107.679L190.859 107.516C191.283 106.027 191.783 104.528 192.342 103.091L192.886 103.305C192.356 104.734 191.861 106.207 191.432 107.679ZM269.544 81.3709C268.319 80.4527 267.037 79.5779 265.741 78.7738L266.053 78.2658C267.374 79.0808 268.672 79.9637 269.911 80.8955L269.544 81.3709ZM194.768 99.0836L194.225 98.8119C194.915 97.4237 195.676 96.049 196.491 94.7369L196.999 95.0493C196.205 96.3533 195.45 97.7089 194.768 99.0836ZM261.699 76.5353C260.324 75.8561 258.903 75.2313 257.474 74.6771L257.689 74.1337C259.134 74.6907 260.574 75.3236 261.962 76.0137L261.699 76.5353ZM199.609 91.2378L199.131 90.8792C200.066 89.6404 201.065 88.4342 202.106 87.2824L202.549 87.6817C201.519 88.8173 200.53 90.0126 199.609 91.2378ZM253.1 73.2209C251.625 72.8026 250.112 72.4494 248.61 72.1696L248.718 71.5828C250.242 71.8545 251.772 72.2239 253.263 72.6477L253.1 73.2209ZM205.803 84.4136L205.399 83.9735C206.545 82.9249 207.751 81.9197 208.985 80.9852L209.346 81.4606C208.123 82.3842 206.933 83.3785 205.803 84.4136ZM244.035 71.5285C242.508 71.3872 240.96 71.3193 239.417 71.322V70.7271C240.968 70.7271 242.538 70.7922 244.081 70.9335L244.035 71.5285ZM213.146 78.8471L212.831 78.3418C214.149 77.5269 215.521 76.758 216.906 76.0653L217.178 76.6086C215.803 77.2959 214.448 78.0403 213.146 78.8471ZM234.82 71.5475C233.299 71.6942 231.761 71.9115 230.253 72.1995L230.142 71.6127C231.669 71.3247 233.223 71.1019 234.76 70.9552L234.82 71.5475ZM221.394 74.7341L221.177 74.1908C222.619 73.6312 224.108 73.1313 225.602 72.7021L225.765 73.2753C224.288 73.6882 222.818 74.1826 221.394 74.7341Z" fill="#A8A8A8"/>
<path d="M369.645 195.944V195.129C371.712 195.129 373.799 195.031 375.844 194.857L375.918 195.656C373.845 195.846 371.731 195.944 369.645 195.944ZM363.372 195.672C361.289 195.482 359.197 195.194 357.148 194.816L357.295 194.026C359.319 194.401 361.386 194.686 363.443 194.873L363.372 195.672ZM382.142 194.792L381.995 194.004C384.024 193.626 386.07 193.148 388.037 192.586L388.257 193.357C386.244 193.928 384.187 194.409 382.142 194.792ZM351.036 193.379C349.028 192.809 347.023 192.14 345.078 191.388L345.366 190.638C347.29 191.382 349.27 192.045 351.253 192.608L351.036 193.379ZM394.212 191.358L393.924 190.611C395.845 189.864 397.754 189.019 399.599 188.098L399.955 188.815C398.08 189.75 396.149 190.603 394.204 191.358H394.212ZM339.335 188.85C337.466 187.921 335.622 186.892 333.845 185.791L334.269 185.11C336.024 186.196 337.847 187.215 339.702 188.133L339.335 188.85ZM405.445 185.753L405.021 185.071C406.771 183.985 408.493 182.803 410.14 181.556L410.623 182.197C408.944 183.458 407.203 184.653 405.432 185.753H405.445ZM328.651 182.241C326.985 180.986 325.358 179.635 323.815 178.231L324.358 177.636C325.882 179.027 327.491 180.353 329.137 181.602L328.651 182.241ZM415.44 178.179L414.896 177.587C416.42 176.196 417.885 174.721 419.284 173.197L419.879 173.74C418.474 175.278 416.98 176.772 415.44 178.179ZM319.371 173.792C317.961 172.252 316.61 170.627 315.35 168.964L315.988 168.481C317.233 170.111 318.572 171.741 319.963 173.251L319.371 173.792ZM311.78 163.789C310.677 162.015 309.645 160.171 308.713 158.307L309.43 157.948C310.351 159.79 311.373 161.613 312.462 163.365L311.78 163.789ZM430.498 158.236L429.781 157.88C430.702 156.033 431.547 154.123 432.291 152.2L433.038 152.491C432.297 154.449 431.441 156.37 430.498 158.236ZM306.168 152.564C305.412 150.619 304.739 148.617 304.165 146.609L304.937 146.389C305.502 148.372 306.168 150.353 306.915 152.273L306.168 152.564ZM435.032 146.533L434.261 146.316C434.823 144.332 435.301 142.3 435.676 140.271L436.467 140.418C436.095 142.472 435.614 144.528 435.043 146.533H435.032ZM302.731 140.497C302.348 138.448 302.055 136.356 301.864 134.275L302.66 134.202C302.851 136.259 303.141 138.326 303.519 140.35L302.731 140.497ZM437.328 134.197L436.529 134.123C436.717 132.078 436.801 129.991 436.801 127.924V127.766H437.616V127.921C437.621 130.016 437.526 132.127 437.336 134.197H437.328ZM302.372 128.003H301.557V127.924C301.557 125.859 301.65 123.773 301.829 121.727L302.628 121.8C302.446 123.822 302.356 125.875 302.356 127.924L302.372 128.003ZM436.524 121.578C436.331 119.521 436.04 117.454 435.66 115.433L436.448 115.283C436.833 117.332 437.127 119.423 437.322 121.502L436.524 121.578ZM303.497 115.661L302.709 115.517C303.087 113.463 303.568 111.404 304.135 109.399L304.907 109.616C304.345 111.589 303.872 113.623 303.497 115.65V115.661ZM434.231 109.391C433.663 107.41 432.995 105.43 432.245 103.512L432.992 103.219C433.75 105.164 434.427 107.166 435 109.171L434.231 109.391ZM306.871 103.729L306.121 103.441C306.874 101.493 307.727 99.5592 308.656 97.6901L309.373 98.046C308.455 99.8825 307.613 101.795 306.871 103.718V103.729ZM312.391 92.6208L311.71 92.1997C312.796 90.4258 314 88.6681 315.258 87.0164L315.899 87.4972C314.654 89.1353 313.475 90.8577 312.391 92.61V92.6208ZM423.163 87.3043C421.916 85.6743 420.58 84.0443 419.186 82.5393L419.778 81.996C421.186 83.5363 422.541 85.1582 423.802 86.818L423.163 87.3043ZM319.86 82.7077L319.267 82.1644C320.672 80.6213 322.163 79.1245 323.704 77.7172L324.247 78.3067C322.723 79.7031 321.248 81.181 319.86 82.7077ZM414.788 78.1573C413.261 76.7691 411.65 75.4407 410.004 74.1964L410.487 73.558C412.153 74.8104 413.783 76.1606 415.326 77.5624L414.788 78.1573ZM329.012 74.335L328.528 73.6966C330.191 72.436 331.932 71.238 333.69 70.135L334.114 70.8142C332.375 71.9036 330.656 73.088 329.012 74.335ZM404.88 70.6947C403.122 69.608 401.297 68.5947 399.447 67.6792L399.8 66.9728C401.669 67.9019 403.516 68.9288 405.293 70.0264L404.88 70.6947ZM339.542 67.7878L339.183 67.0706C341.047 66.1361 342.986 65.2776 344.921 64.5224L345.214 65.2695C343.293 66.0111 341.392 66.8587 339.542 67.7878ZM393.769 65.1853C391.846 64.4436 389.862 63.7835 387.879 63.2238L388.097 62.4523C390.104 63.0174 392.109 63.6857 394.057 64.4355L393.769 65.1853ZM351.096 63.2836L350.876 62.5121C352.881 61.9389 354.937 61.4526 356.988 61.0695L357.138 61.8574C355.108 62.2377 353.073 62.7158 351.096 63.2836ZM381.835 61.8112C379.811 61.439 377.741 61.1565 375.684 60.9717L375.755 60.173C377.836 60.3605 379.93 60.6457 381.979 61.0233L381.835 61.8112ZM363.283 60.9962L363.209 60.1975C365.279 60.0046 367.39 59.9041 369.482 59.9014V60.7028C367.415 60.7082 365.328 60.806 363.283 60.9962Z" fill="#A8A8A8"/>
<path d="M405.26 400.741V399.383C408.762 399.383 412.294 399.22 415.755 398.899L415.88 400.258C412.375 400.578 408.803 400.738 405.26 400.741ZM394.644 400.263C391.112 399.945 387.58 399.448 384.114 398.815L384.361 397.481C387.784 398.114 391.286 398.595 394.769 398.913L394.644 400.263ZM426.407 398.791L426.16 397.457C429.591 396.818 433.03 396.009 436.385 395.055L436.755 396.359C433.362 397.318 429.879 398.133 426.407 398.791ZM373.763 396.397C370.368 395.436 366.972 394.303 363.679 393.029L364.171 391.763C367.431 393.02 370.778 394.142 374.133 395.091L373.763 396.397ZM446.842 392.98L446.353 391.714C449.613 390.453 452.835 389.022 455.956 387.462L456.562 388.677C453.394 390.255 450.126 391.703 446.833 392.972L446.842 392.98ZM353.962 388.736C350.802 387.161 347.675 385.422 344.671 383.561L345.388 382.406C348.355 384.246 351.443 385.965 354.565 387.519L353.962 388.736ZM465.842 383.493L465.127 382.339C468.086 380.502 471.001 378.5 473.785 376.392L474.6 377.478C471.791 379.608 468.83 381.632 465.834 383.493H465.842ZM335.901 377.552C333.084 375.425 330.332 373.14 327.719 370.76L328.634 369.758C331.215 372.108 333.935 374.376 336.719 376.468L335.901 377.552ZM482.778 370.676L481.865 369.673C484.443 367.321 486.942 364.822 489.292 362.243L490.295 363.156C487.907 365.767 485.375 368.296 482.769 370.676H482.778ZM320.202 363.251C317.819 360.643 315.529 357.894 313.41 355.08L314.497 354.265C316.602 357.044 318.865 359.76 321.221 362.339L320.202 363.251ZM497.094 354.979L496.008 354.164C498.113 351.38 500.115 348.459 501.952 345.501L503.106 346.215C501.235 349.212 499.211 352.162 497.081 354.979H497.094ZM307.376 346.321C305.51 343.333 303.763 340.2 302.185 337.044L303.399 336.435C304.959 339.557 306.684 342.64 308.528 345.604L307.376 346.321ZM508.29 336.927L507.075 336.321C508.632 333.197 510.064 329.964 511.322 326.712L512.588 327.201C511.297 330.488 509.852 333.765 508.276 336.927H508.29ZM297.879 327.326C296.599 324.034 295.458 320.643 294.491 317.25L295.795 316.878C296.752 320.233 297.879 323.583 299.142 326.834L297.879 327.326ZM515.962 317.12L514.658 316.75C515.608 313.398 516.415 309.959 517.051 306.522L518.388 306.772C517.727 310.244 516.912 313.727 515.948 317.12H515.962ZM292.054 306.902C291.408 303.439 290.913 299.896 290.587 296.375L291.946 296.25C292.266 299.73 292.761 303.229 293.394 306.652L292.054 306.902ZM291.449 285.759H290.09V285.625C290.09 282.132 290.248 278.603 290.56 275.142L291.919 275.261C291.609 278.684 291.451 282.17 291.451 285.625L291.449 285.759ZM518.466 274.867C518.14 271.39 517.651 267.891 517.002 264.468L518.336 264.215C518.988 267.679 519.488 271.222 519.817 274.743L518.466 274.867ZM293.342 264.857L292.006 264.609C292.647 261.135 293.459 257.652 294.418 254.256L295.725 254.626C294.763 257.981 293.962 261.423 293.329 264.857H293.342ZM514.584 254.245C513.625 250.89 512.495 247.543 511.227 244.291L512.49 243.8C513.775 247.09 514.918 250.477 515.888 253.87L514.584 254.245ZM299.047 244.661L297.781 244.172C299.053 240.879 300.498 237.606 302.068 234.441L303.285 235.047C301.728 238.171 300.291 241.406 299.034 244.661H299.047ZM506.959 234.696C505.394 231.577 503.666 228.497 501.819 225.533L502.971 224.816C504.84 227.804 506.589 230.934 508.17 234.088L506.959 234.696ZM308.392 225.864L307.238 225.15C309.093 222.162 311.115 219.198 313.242 216.375L314.328 217.19C312.209 219.98 310.213 222.909 308.379 225.864H308.392ZM495.858 216.883C493.747 214.107 491.482 211.393 489.124 208.817L490.126 207.902C492.511 210.507 494.802 213.254 496.937 216.052L495.858 216.883ZM321.017 209.105L320.014 208.19C322.391 205.579 324.904 203.044 327.52 200.662L328.436 201.664C325.863 204.02 323.367 206.522 321.017 209.105ZM336.502 194.927L335.687 193.84C338.501 191.708 341.446 189.678 344.443 187.812L345.16 188.967C342.207 190.822 339.286 192.827 336.502 194.927ZM464.894 188.766C461.922 186.929 458.833 185.215 455.709 183.664L456.312 182.447C459.474 184.017 462.601 185.753 465.608 187.608L464.894 188.766ZM354.326 183.838L353.717 182.623C356.874 181.042 360.142 179.591 363.432 178.312L363.924 179.575C360.68 180.849 357.444 182.284 354.326 183.846V183.838ZM446.097 179.442C442.837 178.187 439.488 177.073 436.13 176.125L436.499 174.818C439.895 175.777 443.291 176.907 446.584 178.176L446.097 179.442ZM373.878 176.234L373.505 174.93C376.898 173.96 380.381 173.137 383.85 172.485L384.1 173.819C380.672 174.46 377.233 175.272 373.878 176.231V176.234ZM425.899 173.737C422.473 173.107 418.971 172.629 415.491 172.319L415.614 170.961C419.145 171.276 422.677 171.759 426.143 172.398L425.899 173.737ZM394.502 172.354L394.377 170.996C397.882 170.67 401.441 170.502 404.994 170.496V171.854C401.498 171.873 397.966 172.039 394.502 172.362V172.354Z" fill="#A8A8A8"/>
<path d="M187.727 167.622L187.455 166.72C189.783 166.058 192.1 165.281 194.342 164.417L194.692 165.289C192.424 166.166 190.074 166.946 187.727 167.622ZM180.579 169.315C178.178 169.766 175.73 170.114 173.304 170.342L173.217 169.407C175.613 169.182 178.031 168.839 180.405 168.391L180.579 169.315ZM201.416 162.328L200.998 161.488C203.157 160.415 205.293 159.228 207.341 157.957L207.835 158.753C205.76 160.04 203.6 161.241 201.416 162.328ZM165.966 170.692C163.521 170.692 161.057 170.581 158.631 170.358L158.718 169.424C161.12 169.646 163.562 169.755 165.972 169.752L165.966 170.692ZM213.896 154.604L213.331 153.854C215.252 152.401 217.134 150.839 218.911 149.214L219.544 149.907C217.743 151.551 215.841 153.132 213.896 154.604ZM151.348 169.342C148.952 168.894 146.545 168.329 144.195 167.66L144.467 166.759C146.787 167.419 149.166 167.978 151.53 168.421L151.348 169.342ZM224.733 144.705L224.032 144.074C225.662 142.292 227.213 140.41 228.667 138.484L229.414 139.049C227.95 140.999 226.371 142.901 224.733 144.705ZM137.229 165.316C134.953 164.433 132.693 163.436 130.506 162.349L130.924 161.507C133.097 162.594 135.32 163.569 137.566 164.441L137.229 165.316ZM233.568 132.988L232.772 132.496C234.04 130.442 235.217 128.31 236.303 126.15L237.143 126.568C236.053 128.747 234.853 130.907 233.568 132.988ZM124.086 158.796C122.011 157.514 119.968 156.12 118.02 154.653L118.585 153.903C120.511 155.351 122.527 156.731 124.581 157.997L124.086 158.796ZM240.115 119.853L239.243 119.513C240.115 117.264 240.892 114.949 241.555 112.629L242.456 112.901C241.785 115.223 240.998 117.565 240.112 119.842L240.115 119.853ZM112.358 149.956C110.549 148.326 108.799 146.571 107.153 144.77L107.846 144.137C109.476 145.916 111.201 147.641 112.989 149.263L112.358 149.956ZM244.135 105.726L243.214 105.552C243.66 103.181 243.997 100.76 244.22 98.3612L245.154 98.4481C244.934 100.877 244.592 103.325 244.135 105.726ZM102.453 139.125C100.978 137.18 99.5818 135.142 98.2942 133.066L99.0929 132.572C100.362 134.623 101.744 136.647 103.2 138.549L102.453 139.125ZM245.494 91.1077H244.554C244.554 88.698 244.437 86.2584 244.214 83.8569L245.146 83.77C245.38 86.2014 245.494 88.6681 245.494 91.1077ZM94.719 126.65C93.6324 124.476 92.6354 122.208 91.7552 119.929L92.6299 119.589C93.502 121.841 94.4881 124.077 95.5585 126.231L94.719 126.65ZM244.135 76.4948L243.212 76.6686C242.769 74.3051 242.207 71.928 241.546 69.6053L241.495 69.4287L242.397 69.1706L242.448 69.3472C243.111 71.6998 243.679 74.1041 244.135 76.4948ZM90.3208 112.708L89.4161 112.963L89.3917 112.876C88.7315 110.554 88.1692 108.179 87.7236 105.813L88.6446 105.636C89.0874 107.97 89.6416 110.317 90.2936 112.613L90.3208 112.708ZM239.172 62.5474C238.297 60.2953 237.308 58.0622 236.235 55.9079L237.075 55.4895C238.161 57.6629 239.161 59.9286 240.047 62.2078L239.172 62.5474ZM87.6258 98.4562L86.6913 98.5432C86.4604 96.1145 86.3409 93.6532 86.3381 91.2082H87.2754C87.2781 93.6152 87.3976 96.0547 87.6258 98.4562ZM232.695 49.5699C231.424 47.5216 230.039 45.5112 228.582 43.5933L229.33 43.0255C230.805 44.9679 232.207 47.0054 233.494 49.0782L232.695 49.5699ZM87.6014 83.952L86.6668 83.8651C86.8896 81.4364 87.2292 78.9751 87.6774 76.5871L88.5984 76.7583C88.1556 79.1299 87.8214 81.5505 87.6014 83.952ZM223.929 38.016C222.299 36.2393 220.566 34.5169 218.767 32.8978L219.414 32.1996C221.223 33.8296 222.975 35.5818 224.624 37.3803L223.929 38.016ZM90.2583 69.6895L89.3563 69.4342C90.0219 67.087 90.807 64.7425 91.6872 62.4659L92.562 62.8028C91.6927 65.0549 90.9157 67.3722 90.2583 69.6895ZM213.179 28.274C211.264 26.826 209.234 25.4514 207.189 24.1855L207.68 23.3868C209.759 24.669 211.802 26.06 213.752 27.5242L213.179 28.274ZM95.4906 56.1578L94.6511 55.7395C95.7378 53.5661 96.9358 51.3928 98.2181 49.3173L99.0168 49.809C97.7508 51.8628 96.5636 53.9981 95.4906 56.1578ZM200.829 20.6647C198.656 19.578 196.431 18.6081 194.181 17.7388L194.521 16.8641C196.798 17.7442 199.058 18.7386 201.245 19.8252L200.829 20.6647ZM103.108 43.8106L102.358 43.2483C103.825 41.2977 105.401 39.3906 107.039 37.584L107.735 38.2143C106.129 39.9991 104.559 41.8818 103.108 43.8106ZM187.295 15.4405C184.972 14.7804 182.595 14.2235 180.231 13.7834L180.4 12.8624C182.799 13.3079 185.206 13.8703 187.555 14.5359L187.295 15.4405ZM112.858 33.0689L112.222 32.3789C114.024 30.7299 115.923 29.1461 117.865 27.6736L118.433 28.4207C116.512 29.8769 114.635 31.4417 112.858 33.0689ZM173.032 12.7891C170.628 12.5717 168.188 12.4631 165.779 12.4685V11.5312C168.224 11.5312 170.688 11.6345 173.114 11.8545L173.032 12.7891ZM124.415 24.3213L123.92 23.5063C125.993 22.2186 128.153 21.0151 130.337 19.9257L130.756 20.7652C128.596 21.8491 126.463 23.039 124.415 24.3213ZM158.528 12.8325C156.132 13.0634 153.714 13.4057 151.34 13.8567L151.166 12.9358C153.567 12.4794 156.012 12.1208 158.438 11.9007L158.528 12.8325ZM137.395 17.8502L137.055 16.9754C139.324 16.0952 141.674 15.3074 144.018 14.6337L144.276 15.5356C141.951 16.1903 139.636 16.97 137.395 17.8393V17.8502Z" fill="#464B52"/>
<path d="M480.661 77.6032C437.869 76.6958 402.313 110.774 401.406 153.569C400.498 196.365 434.573 231.918 477.369 232.825C520.164 233.732 555.717 199.657 556.627 156.862C557.537 114.066 523.457 78.5132 480.661 77.6032ZM480.316 213.749C447.988 214.466 421.202 188.842 420.482 156.517C419.765 124.188 445.388 97.4022 477.714 96.6823C510.042 95.9651 536.828 121.586 537.548 153.914C538.265 186.234 512.645 213.029 480.316 213.749Z" fill="#424242"/>
<path d="M607.625 135.161C606.38 132.885 604.231 132.694 598.439 132.241C591.281 131.681 584.098 131.374 576.956 130.67C575.652 130.543 573.875 129.312 573.346 128.149C569.934 120.565 566.959 112.781 563.495 105.221C562.487 103.02 562.341 101.654 563.908 99.725C569.426 92.9334 574.761 85.9977 580.159 79.1083C581.034 77.9917 581.868 76.8453 583.354 74.8757L554.875 48.1547C546.834 55.0876 539.42 61.2734 532.272 67.7526C529.751 70.0373 527.988 70.597 524.611 68.9724C517.714 65.6527 510.354 63.3 503.275 60.3389C502.188 59.8852 500.993 58.4046 500.83 57.2555C499.531 48.4725 498.214 39.6787 497.45 30.8414C497.086 26.6007 495.277 25.2233 491.384 25.3673C489.882 25.4216 488.363 24.9354 486.85 24.6963L466.475 25.15C465.744 25.389 465.032 25.7558 464.285 25.8536C456.461 26.8533 457.714 26.2122 457.111 33.5608C456.377 42.5257 455.793 51.4907 455.231 59.2549L425.513 72.6127L399.352 52.121C388.757 60.1596 380.273 69.7412 372.728 80.5019C379.564 88.3993 386.211 96.1173 392.913 103.786C394.117 105.161 394.543 106.158 393.677 108.166C390.232 116.022 386.986 123.979 384.09 132.053C383.256 134.379 382.21 134.982 380.042 135.237C371.093 136.294 362.169 137.557 353.22 138.652C350.998 138.924 349.865 139.638 349.531 142.151C348.029 153.428 348.955 164.566 350.848 175.694C351.221 177.894 352.549 178.188 354.44 178.304C363.177 178.834 371.903 179.579 380.642 180.048C383.16 180.184 384.301 180.885 385.288 183.482C388.686 192.447 392.623 201.233 396.632 210.796L376.972 235.898C385.122 246.715 394.375 255.754 405.391 263.129L429.884 241.719C438.711 244.849 446.839 247.968 455.136 250.549C458.271 251.524 459.507 252.896 459.822 256.118C460.661 264.697 461.832 273.233 462.96 281.793C463.182 283.483 462.992 285.705 465.78 285.621C477.117 285.282 488.455 284.946 499.792 284.613C502.202 284.542 503.017 283.254 503.15 280.872C503.642 272.002 504.525 263.151 504.867 254.279C505 250.856 506.63 249.801 509.461 248.666C516.453 245.86 523.424 242.896 530.048 239.337C532.905 237.805 534.353 237.954 536.728 239.921C544.351 246.245 552.213 252.268 559.836 258.28C566.82 254.317 582.476 237.566 586.918 229.416C580.262 221.858 573.606 214.148 566.75 206.628C565.033 204.746 565.147 203.455 566.062 201.217C569.018 194.001 571.463 186.577 574.345 179.329C574.829 178.109 576.413 176.691 577.654 176.511C585.533 175.381 593.465 174.526 601.39 173.67C605.818 173.192 607.608 173.015 608.453 171.325L607.625 135.161ZM534.633 213.243C521.208 226.11 503.736 233.924 485.196 235.354C466.655 236.783 448.192 231.74 432.953 221.083C417.714 210.426 406.641 194.814 401.622 176.909C396.603 159.003 397.948 139.911 405.427 122.886C412.906 105.861 426.057 91.9552 442.64 83.5391C459.222 75.1231 478.209 72.717 496.367 76.731C514.524 80.745 530.728 90.9306 542.217 105.552C553.707 120.174 559.771 138.327 559.377 156.919C559.182 167.477 556.895 177.892 552.648 187.56C548.401 197.228 542.278 205.958 534.633 213.243Z" fill="#424242"/>
<path d="M347.241 9.62125L349.496 24.1065L339.007 16.8014L307.056 1.37891L331.538 3.06323C331.538 3.06323 344.054 5.80706 344.741 6.40201C345.429 6.99696 347.241 9.62125 347.241 9.62125Z" fill="#757575"/>
<path d="M357.863 0.602051L307.056 1.3763L347.241 9.62136L357.863 0.602051Z" fill="#CBCBCB"/>
<path d="M331.24 24.6066L344.309 13.615L307.056 1.37646L331.24 24.6066Z" fill="#CBCBCB"/>
<path d="M419.36 61.2676L418.17 61.417C418.132 61.0883 418.086 60.7623 418.034 60.4363C417.859 59.314 417.622 58.2021 417.325 57.1057C417.054 56.0951 416.719 55.0763 416.342 54.0793L417.458 53.661C417.85 54.696 418.195 55.7528 418.477 56.8014C418.786 57.9397 419.032 59.0943 419.213 60.2597C419.27 60.5776 419.319 60.9199 419.36 61.2676ZM412.905 47.3203C411.523 45.1867 409.96 43.1761 408.233 41.311L409.113 40.496C410.892 42.411 412.503 44.4761 413.927 46.6683L412.905 47.3203ZM375.464 45.3317C374.649 45.5517 372.582 45.6441 371.232 44.8807C370.178 44.2549 369.329 43.3366 368.787 42.2374L369.849 41.6941C370.286 42.5895 370.977 43.3368 371.835 43.8429C372.807 44.3863 374.522 44.3564 375.165 44.1825C375.206 44.1722 375.246 44.1586 375.285 44.1418C375.337 44.1092 375.394 44.0684 375.453 44.025L376.141 45.0057L375.937 45.1442C375.792 45.2316 375.633 45.2941 375.467 45.329L375.464 45.3317ZM402.661 36.095C400.68 34.4868 398.6 33.0043 396.434 31.656L397.067 30.64C399.276 32.0129 401.398 33.5227 403.419 35.1605L402.661 36.095ZM380.286 38.176L379.11 37.9587C379.248 37.2198 379.311 36.4689 379.297 35.7174C379.27 34.6308 379.111 33.5516 378.822 32.5036C378.659 31.899 378.459 31.3048 378.224 30.7242L379.335 30.2787C379.587 30.8995 379.802 31.5344 379.979 32.1803C380.291 33.3225 380.464 34.4984 380.493 35.6821C380.51 36.5183 380.441 37.354 380.286 38.176ZM369.691 34.7313L368.605 34.2396C369.637 31.9494 371.631 29.9173 374.071 28.665L374.234 28.5835L374.777 29.6565L374.625 29.7299C372.405 30.8627 370.612 32.6856 369.689 34.734L369.691 34.7313ZM389.417 28.9203C387.244 28.3064 385.502 27.9423 384.666 27.9233C383.709 27.8989 382.835 27.907 381.992 27.9532L381.93 26.7579C382.802 26.7117 383.707 26.7008 384.695 26.7253C385.97 26.7579 388.404 27.3936 389.74 27.7685L389.417 28.9203ZM374.204 24.4188C372.523 22.5406 370.574 20.9212 368.42 19.6131L369.042 18.5889C371.297 19.9587 373.337 21.6551 375.095 23.6228L374.204 24.4188Z" fill="#A8A8A8"/>
<path d="M361.495 16.7147C360.247 16.3993 358.975 16.1894 357.692 16.0871L357.787 14.8945C359.132 15.0018 360.466 15.2217 361.775 15.552L361.495 16.7147Z" fill="#A8A8A8"/>
<path d="M393.495 339.761C390.308 338.625 387.078 337.587 383.916 336.403C383.591 336.251 383.304 336.03 383.074 335.756C382.845 335.481 382.677 335.16 382.585 334.814C381.965 330.943 381.571 327.039 380.925 323.173C380.737 322.048 380.838 321.407 381.789 320.728C385.133 318.321 388.415 315.822 391.715 313.352C392.259 312.953 392.772 312.537 393.69 311.82L384.024 296.164C379.515 298.337 375.383 300.239 371.335 302.298C369.906 303.026 369.037 303.061 367.7 301.91C364.983 299.552 361.913 297.563 359.058 295.357C358.82 295.143 358.631 294.88 358.504 294.586C358.377 294.292 358.315 293.974 358.322 293.654C358.811 289.5 359.295 285.338 360.034 281.225C360.389 279.25 359.743 278.402 357.95 277.987C357.26 277.829 356.627 277.419 355.969 277.125L346.643 274.824C346.283 274.875 345.919 274.891 345.556 274.873C341.875 274.368 342.525 274.229 341.346 277.498C339.911 281.48 338.542 285.485 337.328 288.951L322.169 291.372C319.142 287.321 315.977 283.091 312.794 278.834C306.988 281.187 301.949 284.498 297.186 288.465C299.324 292.898 301.397 297.226 303.503 301.537C303.88 302.312 303.959 302.817 303.31 303.624C300.778 306.772 298.322 309.992 296.013 313.309C295.347 314.262 294.798 314.395 293.78 314.257C289.58 313.637 285.358 313.116 281.161 312.51C280.118 312.361 279.514 312.548 279.053 313.648C276.983 318.593 276.034 323.773 275.521 329.065C275.42 330.114 275.991 330.424 276.836 330.695C280.742 332.013 284.619 333.412 288.536 334.713C289.667 335.085 290.099 335.528 290.226 336.846C290.669 341.345 291.375 345.811 292.027 350.663L279.995 359.655C282.367 365.577 285.467 370.829 289.572 375.536L303.345 368.813C306.972 371.32 310.286 373.741 313.742 375.933C315.048 376.748 315.44 377.541 315.187 379.044C314.513 383.048 313.997 387.08 313.456 391.108C313.35 391.902 312.992 392.891 314.271 393.195L329.862 396.922C330.968 397.194 331.492 396.699 331.851 395.632C333.166 391.66 334.657 387.753 335.904 383.749C336.385 382.209 337.263 381.932 338.683 381.76C342.216 381.385 345.725 380.815 349.194 380.052C350.683 379.707 351.324 379.951 352.161 381.138C354.85 384.942 357.689 388.661 360.411 392.331C364.076 391.388 373.256 385.694 376.279 382.535C374.182 378.28 372.106 373.953 369.909 369.69C369.365 368.623 369.572 368.06 370.265 367.145C372.495 364.227 374.519 361.149 376.722 358.207C377.094 357.712 377.988 357.262 378.575 357.335C382.299 357.791 386.01 358.375 389.713 358.965C391.786 359.291 392.623 359.432 393.215 358.767L397.29 342.219C397.026 341.029 396.073 340.679 393.495 339.761ZM363.131 342.124C362.263 345.641 360.711 348.952 358.563 351.869C356.416 354.786 353.715 357.252 350.614 359.125C347.514 360.998 344.075 362.242 340.494 362.786C336.913 363.33 333.26 363.163 329.743 362.295C326.226 361.428 322.914 359.876 319.997 357.729C317.08 355.581 314.614 352.88 312.74 349.78C310.867 346.68 309.623 343.241 309.079 339.659C308.534 336.078 308.701 332.425 309.569 328.908C311.323 321.805 315.826 315.691 322.087 311.908C328.349 308.125 335.857 306.984 342.959 308.737C350.06 310.491 356.174 314.994 359.956 321.255C363.737 327.516 364.877 335.023 363.125 342.124H363.131Z" fill="#424242"/>
<path d="M591.164 325.87C589.176 324.947 587.157 324.094 585.188 323.132C584.988 323.015 584.816 322.856 584.684 322.665C584.552 322.474 584.464 322.257 584.424 322.029C584.259 319.497 584.237 316.954 584.052 314.422C584.001 313.686 584.104 313.279 584.756 312.896C587.057 311.537 589.323 310.13 591.599 308.736C591.966 308.508 592.327 308.269 592.957 307.864L587.665 297.193C584.628 298.318 581.849 299.296 579.116 300.388C578.152 300.771 577.589 300.741 576.799 299.918C575.169 298.236 573.327 296.778 571.618 295.178C571.477 295.025 571.371 294.844 571.307 294.646C571.244 294.449 571.224 294.24 571.249 294.034C571.811 291.388 572.373 288.734 573.096 286.126C573.444 284.873 573.077 284.289 571.947 283.914C571.518 283.729 571.108 283.503 570.722 283.241L564.848 281.198C564.614 281.209 564.379 281.198 564.147 281.165C561.805 280.622 562.246 280.567 561.276 282.602C560.113 285.085 558.991 287.584 557.999 289.747L548.084 290.396C546.375 287.606 544.587 284.691 542.792 281.752C538.907 282.923 535.457 284.756 532.153 287.025C533.264 290.013 534.343 292.925 535.44 295.832C535.639 296.354 535.658 296.685 535.193 297.163C533.37 299.043 531.593 300.967 529.906 302.969C529.42 303.545 529.059 303.605 528.412 303.447C525.742 302.795 523.055 302.206 520.382 301.564C519.716 301.407 519.317 301.491 518.953 302.173C517.323 305.235 516.402 308.516 515.755 311.899C515.628 312.57 515.975 312.792 516.505 313.029C518.95 314.115 521.36 315.254 523.808 316.319C524.511 316.626 524.764 316.949 524.769 317.794C524.783 320.722 524.97 323.648 525.101 326.81L516.807 331.89C517.92 335.764 519.685 339.42 522.028 342.7L531.308 339.193C533.498 341.027 535.486 342.784 537.584 344.406C538.377 345.017 538.583 345.542 538.331 346.498C537.654 349.038 537.078 351.605 536.492 354.17C536.375 354.675 536.084 355.292 536.888 355.563C540.165 356.674 543.441 357.786 546.717 358.9C547.413 359.136 547.782 358.856 548.075 358.188C549.162 355.707 550.357 353.271 551.401 350.771C551.803 349.807 552.381 349.685 553.302 349.657C555.602 349.628 557.899 349.47 560.181 349.185C561.159 349.052 561.558 349.247 562.025 350.065C563.531 352.684 565.139 355.243 566.674 357.772C569.094 357.384 575.353 354.265 577.491 352.409C576.405 349.541 575.318 346.628 574.155 343.749C573.865 343.026 574.036 342.662 574.536 342.119C576.149 340.369 577.638 338.508 579.236 336.745C579.397 336.583 579.592 336.458 579.807 336.38C580.022 336.302 580.252 336.271 580.48 336.291C582.854 336.81 585.212 337.408 587.568 338.008C588.885 338.345 589.415 338.484 589.836 338.093L593.46 327.672C593.365 326.892 592.77 326.609 591.164 325.87ZM571.45 325.574C569.894 330.048 566.625 333.72 562.362 335.783C558.098 337.847 553.19 338.132 548.717 336.577C544.243 335.021 540.571 331.752 538.508 327.489C536.444 323.226 536.159 318.317 537.714 313.844C539.27 309.37 542.539 305.698 546.802 303.635C551.065 301.571 555.974 301.286 560.447 302.841C564.921 304.397 568.593 307.666 570.656 311.929C572.72 316.192 573.005 321.101 571.45 325.574Z" fill="#424242"/>
<path d="M203.062 87.788L204.124 83.0664L200.848 79.5076C200.764 79.4164 200.707 79.3036 200.684 79.1818C200.66 79.06 200.672 78.9341 200.716 78.8183C200.76 78.7025 200.836 78.6014 200.935 78.5264C201.034 78.4514 201.151 78.4054 201.275 78.3938L206.083 77.9564L208.444 73.7374C208.505 73.6296 208.594 73.541 208.703 73.4815C208.811 73.422 208.934 73.3941 209.058 73.4009C209.181 73.4077 209.301 73.4489 209.402 73.5199C209.503 73.5909 209.583 73.6888 209.631 73.8026L211.533 78.2498L216.276 79.1979C216.397 79.2226 216.51 79.2807 216.6 79.3656C216.69 79.4506 216.755 79.559 216.786 79.6787C216.818 79.7984 216.816 79.9246 216.78 80.0432C216.744 80.1617 216.676 80.2679 216.583 80.3497L212.954 83.5445L213.521 88.3503C213.536 88.4734 213.515 88.598 213.462 88.71C213.41 88.8221 213.327 88.9172 213.223 88.9847C213.119 89.0522 212.998 89.0893 212.874 89.092C212.75 89.0946 212.628 89.0626 212.522 88.9996L208.373 86.5329L203.986 88.5513C203.872 88.6046 203.746 88.6245 203.621 88.6087C203.497 88.5928 203.379 88.542 203.282 88.462C203.186 88.382 203.114 88.2762 203.075 88.1569C203.036 88.0376 203.031 87.9096 203.062 87.788Z" fill="#6D6D6D"/>
<path d="M202.777 284.596L201.69 284.514C201.902 281.724 201.989 278.899 201.946 276.12L203.032 276.104C203.078 278.915 202.992 281.773 202.777 284.596ZM201.75 293.017C201.28 295.808 200.663 298.603 199.952 301.325L198.903 301.053C199.617 298.361 200.215 295.601 200.68 292.844L201.75 293.017ZM202.513 267.606L201.427 267.723C201.128 264.949 200.693 262.156 200.136 259.423L201.201 259.209C201.772 261.988 202.212 264.813 202.513 267.619V267.606ZM197.39 309.442C196.417 312.091 195.306 314.726 194.089 317.277L193.108 316.807C194.312 314.289 195.409 311.686 196.368 309.07L197.39 309.442ZM199.128 250.98L198.091 251.295C197.276 248.625 196.338 245.962 195.287 243.379L196.292 242.968C197.357 245.582 198.311 248.28 199.128 250.98ZM190.074 324.783C188.626 327.207 187.047 329.592 185.379 331.871L184.505 331.233C186.151 328.978 187.71 326.614 189.142 324.226L190.074 324.783ZM192.725 235.267L191.764 235.767C190.479 233.294 189.047 230.849 187.55 228.5L188.463 227.913C189.992 230.276 191.432 232.751 192.725 235.253V235.267ZM180.052 338.5C178.186 340.616 176.197 342.673 174.141 344.61L173.396 343.819C175.428 341.917 177.395 339.874 179.24 337.783L180.052 338.5ZM183.554 220.969L182.698 221.637C180.981 219.437 179.139 217.291 177.227 215.261L178.017 214.517C179.943 216.573 181.804 218.744 183.554 220.969ZM167.705 350.133C165.48 351.871 163.149 353.528 160.775 355.055L160.188 354.145C162.532 352.635 164.836 350.996 167.034 349.277L167.705 350.133ZM171.913 208.595L171.196 209.41C169.104 207.56 166.901 205.788 164.651 204.142L165.292 203.264C167.558 204.938 169.786 206.731 171.902 208.6L171.913 208.595ZM153.423 359.318C150.919 360.622 148.324 361.822 145.711 362.887L145.301 361.885C147.881 360.831 150.446 359.644 152.923 358.353L153.423 359.318ZM158.205 198.567L157.661 199.499C155.265 198.068 152.771 196.731 150.258 195.527L150.728 194.547C153.249 195.769 155.771 197.125 158.194 198.573L158.205 198.567ZM137.702 365.729C134.999 366.544 132.225 367.25 129.46 367.815L129.242 366.75C131.975 366.207 134.716 365.501 137.392 364.691L137.702 365.729ZM142.883 191.241L142.508 192.259C139.892 191.295 137.199 190.442 134.502 189.725L134.773 188.676C137.498 189.41 140.226 190.271 142.872 191.246L142.883 191.241ZM121.062 369.125C118.262 369.429 115.406 369.606 112.581 369.652L112.562 368.565C115.357 368.522 118.177 368.348 120.946 368.046L121.062 369.125ZM126.474 186.875L126.295 187.943C123.551 187.478 120.747 187.128 117.957 186.921H117.745L117.827 185.834L118.039 185.851C120.851 186.063 123.689 186.41 126.463 186.88L126.474 186.875ZM104.168 368.315L104.083 369.402H103.98C101.193 369.19 98.3919 368.859 95.6508 368.389L95.8301 367.318C98.5468 367.772 101.31 368.111 104.062 368.321L104.168 368.315ZM109.351 186.666C106.558 186.712 103.738 186.891 100.97 187.195L100.851 186.109C103.651 185.802 106.507 185.62 109.332 185.565L109.351 186.666ZM87.6177 365.531L87.346 366.579C84.613 365.857 81.8855 364.998 79.2395 364.026L79.6117 363.007C82.2224 363.974 84.9119 364.822 87.6095 365.533L87.6177 365.531ZM92.6707 188.499C89.9377 189.062 87.1993 189.757 84.5207 190.57L84.2055 189.532C86.9059 188.717 89.6769 188.005 92.4425 187.437L92.6707 188.499ZM71.8665 359.747L71.3992 360.728C68.851 359.513 66.3299 358.163 63.9039 356.715L64.4473 355.783C66.8488 357.22 69.34 358.551 71.8583 359.752L71.8665 359.747ZM76.6179 193.387C74.0371 194.441 71.4753 195.631 69.0113 196.918L68.5087 195.957C71.0134 194.65 73.6079 193.444 76.2186 192.376L76.6179 193.387ZM57.4519 351.151L56.8107 352.026C54.5315 350.364 52.3011 348.573 50.1821 346.704L50.8993 345.889C52.9857 347.742 55.1916 349.505 57.4437 351.157L57.4519 351.151ZM61.7415 201.148C59.397 202.661 57.096 204.3 54.8982 206.022L54.2299 205.169C56.4521 203.427 58.7803 201.768 61.152 200.235L61.7415 201.148ZM44.8602 340.051L44.0723 340.795C42.1326 338.742 40.269 336.574 38.5276 334.351L39.3834 333.68C41.0949 335.884 42.9368 338.027 44.852 340.056L44.8602 340.051ZM48.5358 211.499C46.5065 213.417 44.5423 215.449 42.6977 217.543L41.8827 216.826C43.7463 214.707 45.7349 212.651 47.786 210.711L48.5358 211.499ZM34.5151 326.832L33.6023 327.419C32.0728 325.047 30.6357 322.572 29.3317 320.084L30.2934 319.584C31.5703 322.067 32.9911 324.512 34.5042 326.843L34.5151 326.832ZM37.4437 224.096C35.7974 226.351 34.2407 228.714 32.8254 231.108L31.8908 230.564C33.3361 228.141 34.9117 225.753 36.5771 223.471L37.4437 224.096ZM26.7509 311.961L25.7457 312.371C24.6781 309.755 23.7191 307.063 22.8987 304.362L23.9392 304.047C24.7487 306.715 25.6941 309.377 26.7509 311.961ZM28.8427 238.527C27.642 241.045 26.5471 243.65 25.5827 246.269L24.564 245.897C25.5366 243.246 26.6422 240.61 27.8566 238.059L28.8427 238.527ZM21.8718 295.905L20.8096 296.123C20.2445 293.36 19.8017 290.534 19.4947 287.725L20.5814 287.609C20.8775 290.382 21.3149 293.175 21.8718 295.905ZM23.0698 254.281C22.3581 256.973 21.7631 259.736 21.3013 262.493L20.2309 262.314C20.6982 259.524 21.2986 256.728 22.0185 254.004L23.0698 254.281ZM20.0489 279.225L18.9622 279.244C18.9161 276.43 19.0003 273.572 19.2122 270.749L20.2988 270.831C20.0842 273.621 20.0109 276.446 20.0489 279.225Z" fill="#A8A8A8"/>
<path d="M35.7675 317.992L28.6173 317.014L23.7382 322.339C23.6139 322.476 23.4538 322.575 23.2759 322.626C23.098 322.676 22.9096 322.676 22.7319 322.625C22.5542 322.574 22.3945 322.474 22.2708 322.336C22.1471 322.199 22.0644 322.029 22.0321 321.847L20.7661 314.76L14.1972 311.79C14.0289 311.714 13.8852 311.592 13.7825 311.439C13.6799 311.285 13.6223 311.106 13.6164 310.921C13.6104 310.736 13.6563 310.554 13.7489 310.394C13.8415 310.234 13.9771 310.103 14.1402 310.016L20.508 306.612L21.323 299.454C21.3437 299.27 21.4155 299.096 21.5302 298.95C21.645 298.805 21.7981 298.695 21.9722 298.632C22.1464 298.569 22.3346 298.556 22.5156 298.595C22.6966 298.634 22.8632 298.722 22.9965 298.851L28.1962 303.836L35.2595 302.38C35.4403 302.343 35.6279 302.357 35.8009 302.422C35.9739 302.486 36.1256 302.597 36.2386 302.743C36.3517 302.889 36.4217 303.063 36.4407 303.247C36.4597 303.43 36.427 303.616 36.3462 303.782L33.1894 310.266L36.751 316.515C36.8428 316.674 36.8883 316.857 36.8823 317.041C36.8762 317.225 36.8189 317.404 36.7167 317.558C36.6146 317.711 36.4716 317.833 36.3039 317.91C36.1362 317.987 35.9505 318.015 35.7675 317.992Z" fill="#6D6D6D"/>
<path d="M310.802 96.5981L310.77 92.5992L307.466 90.3552C307.379 90.2992 307.31 90.2196 307.267 90.1257C307.224 90.0318 307.209 89.9276 307.223 89.8252C307.236 89.7229 307.279 89.6266 307.346 89.5477C307.413 89.4688 307.501 89.4106 307.599 89.3799L311.384 88.1113L312.489 84.2672C312.516 84.1677 312.571 84.078 312.646 84.0083C312.722 83.9387 312.816 83.892 312.918 83.8738C313.019 83.8556 313.124 83.8665 313.219 83.9054C313.314 83.9443 313.397 84.0094 313.456 84.0933L315.828 87.3126L319.816 87.1767C319.92 87.1709 320.023 87.1948 320.113 87.2455C320.203 87.2963 320.277 87.3718 320.326 87.4631C320.375 87.5545 320.396 87.6579 320.388 87.7612C320.38 87.8645 320.343 87.9633 320.281 88.0461L317.961 91.306L319.319 95.0659C319.356 95.1621 319.366 95.267 319.345 95.3682C319.325 95.4695 319.277 95.5629 319.206 95.6376C319.134 95.7123 319.043 95.7651 318.943 95.7899C318.843 95.8147 318.738 95.8105 318.64 95.7777L314.837 94.5715L311.691 97.0165C311.611 97.0818 311.515 97.1232 311.413 97.1359C311.311 97.1486 311.207 97.1321 311.114 97.0883C311.021 97.0445 310.942 96.9751 310.887 96.8884C310.832 96.8016 310.803 96.7009 310.802 96.5981Z" fill="#6D6D6D"/>
<path d="M491.688 355.145L494.321 350.206L491.754 345.243C491.688 345.116 491.659 344.973 491.67 344.83C491.682 344.687 491.732 344.55 491.817 344.434C491.902 344.319 492.017 344.229 492.149 344.175C492.282 344.121 492.427 344.105 492.569 344.129L498.067 345.099L501.993 341.108C502.093 341.006 502.22 340.934 502.359 340.9C502.499 340.866 502.645 340.872 502.781 340.917C502.917 340.962 503.038 341.044 503.129 341.154C503.221 341.264 503.28 341.398 503.299 341.54L504.066 347.08L509.059 349.576C509.187 349.64 509.295 349.739 509.37 349.861C509.445 349.983 509.485 350.123 509.485 350.266C509.485 350.409 509.445 350.55 509.37 350.672C509.295 350.794 509.187 350.892 509.059 350.956L504.033 353.401L503.193 358.932C503.172 359.074 503.112 359.207 503.019 359.316C502.926 359.425 502.805 359.506 502.668 359.55C502.532 359.594 502.386 359.599 502.247 359.564C502.108 359.529 501.981 359.456 501.881 359.353L498.007 355.333L492.495 356.254C492.355 356.277 492.211 356.261 492.079 356.207C491.947 356.154 491.833 356.064 491.749 355.949C491.665 355.834 491.615 355.698 491.604 355.556C491.594 355.414 491.623 355.272 491.688 355.145Z" fill="#6D6D6D"/>
<path d="M465.293 121.29C464.625 121.317 462.8 121.931 460.132 126.981C456.72 133.43 451.732 152.912 451.732 152.912L466.619 158.456L468.521 154.381L471.672 123.074C471.672 123.074 465.478 121.281 465.293 121.29Z" fill="#DD513A"/>
<path d="M484.973 118.483C480.716 118.483 470.183 119.73 465.293 121.292C465.293 121.292 461.702 152.162 468.526 175.626C470.056 180.877 467.263 197.392 467.263 197.392L511.379 196.81C511.379 196.81 506.152 156.875 508.119 150.431C510.086 143.987 510.135 121.504 510.135 121.504C510.135 121.504 509.833 121.458 500.221 119.798C495.18 118.968 490.082 118.529 484.973 118.483Z" fill="#F47458"/>
<path d="M490.868 255.509C490.868 255.509 489.893 266.772 488.097 269.891C486.301 273.01 488.192 278.312 488.287 279.041C488.382 279.769 492.063 280.809 497.92 280.187C503.778 279.565 503.68 278.209 503.21 276.028C502.74 273.846 499.618 271.035 499.431 268.964C499.243 266.894 501.224 259.399 501.224 259.399L490.868 255.509Z" fill="#F7A491"/>
<path d="M472.24 188.089C472.24 188.089 441.789 186.397 434.986 190.518C428.184 194.639 439.819 214.848 439.819 214.848C439.819 214.848 461.009 213.87 502.514 216.267C512.343 216.834 513.191 190.64 511.352 188.472C509.512 186.304 472.24 188.089 472.24 188.089Z" fill="#E0973F"/>
<path d="M498.651 281.067C504.679 280.426 503.935 277.465 503.449 275.215C503.145 273.808 501.414 272.148 500.382 270.578C499.838 271.007 498.966 271.765 496.347 272.54C493.631 273.355 489.901 271.752 487.526 270.757C486.679 273.906 486.641 277.924 486.711 278.535C486.817 279.285 492.62 281.711 498.651 281.067Z" fill="#DD513A"/>
<path d="M494.568 209.869C493.351 219.076 487.328 264.908 487.328 264.908L501.305 266.642C501.305 266.642 518.494 206.821 517.605 197.671C516.717 188.521 510.289 187.75 510.289 187.75C510.289 187.75 497.787 185.503 494.568 209.869Z" fill="#F7CC7F"/>
<path d="M510.618 124.93C506.492 123.384 504.476 160.548 503.919 175.846C496.614 176.549 483.883 175.846 480.713 175.612C479.222 175.501 475.785 174.254 474.302 174.047C472.819 173.841 471.403 173.746 470.656 173.876C470.384 173.922 462.778 177.036 462.118 177.72C461.303 178.565 459.129 180.709 459.496 181.624C459.863 182.54 463.696 179.051 463.696 179.051L465.568 178C463.237 180.279 458.79 183.276 459.431 184.368C460.072 185.46 464.065 182.39 466.923 180.317C464.478 182.531 461.428 186.492 462.128 187.109C462.759 187.652 466.222 183.077 469.925 181.754C471.284 181.265 472.666 182.621 473.745 182.784C474.538 182.906 475.763 183.162 476.54 182.942L480.55 181.803C481.908 181.928 481.949 182.735 483.329 183.029C484.929 183.371 487.556 183.729 489.594 184.227C501.335 187.095 505.25 188.427 508.847 188.424C519.733 188.421 520.366 128.587 510.618 124.93Z" fill="#F7A491"/>
<path d="M518.445 159.823C519.216 144.153 519.105 124.84 510.322 121.545C506.855 120.246 500.746 128.065 501.843 160.14C506.532 160.526 513.416 160.839 518.445 159.823Z" fill="#DD513A"/>
<path d="M447.782 265.607C447.782 265.607 449.797 269.171 448.211 272.162C446.624 275.153 438.29 279.546 437.42 281.168C436.551 282.79 436.893 283.936 436.893 283.936L461.639 277.867L459.738 270.41L457.423 265.248L447.782 265.607Z" fill="#F7A491"/>
<path d="M446.934 273.756C446.934 273.756 453.892 274.96 456.649 272.759C459.406 270.559 459.224 270.157 460.24 270.535C460.895 270.776 461.889 273.748 462.517 275.84C462.596 276.104 462.62 276.381 462.588 276.654C462.557 276.928 462.47 277.192 462.333 277.431C462.197 277.67 462.013 277.879 461.793 278.045C461.574 278.211 461.323 278.33 461.055 278.397L435.285 284.764C433.329 285.142 432.025 283.919 433.351 282.349C434.253 281.263 435.386 280.448 436.011 279.874C437.929 278.147 446.934 273.756 446.934 273.756Z" fill="#DD513A"/>
<path d="M450.205 195.308C448.238 191.165 443.761 185.772 435.883 189.019C428.369 192.118 426.353 199.733 428.722 207.53C431.091 215.327 446.701 261.165 447.244 267.468L459.703 267.549C459.703 267.549 457.44 231.255 456.883 222.482C456.35 214.042 453.612 202.477 450.205 195.308Z" fill="#F7CC7F"/>
<path d="M429.977 153.091H471.629C472.168 153.091 472.695 153.252 473.142 153.553C473.59 153.854 473.938 154.281 474.142 154.781L486.967 186.166H509.931C510.24 186.167 510.535 186.29 510.753 186.508C510.971 186.727 511.094 187.023 511.094 187.332C511.094 187.64 510.971 187.936 510.753 188.155C510.535 188.373 510.24 188.496 509.931 188.497H444.576C443.694 188.495 442.831 188.238 442.093 187.755C441.354 187.273 440.771 186.587 440.414 185.78L427.51 156.929C427.323 156.516 427.242 156.063 427.275 155.61C427.308 155.158 427.454 154.721 427.699 154.339C427.944 153.957 428.281 153.643 428.679 153.425C429.077 153.207 429.523 153.092 429.977 153.091Z" fill="#13375B"/>
<path d="M452.403 171.366C452.674 172.776 453.911 173.719 455.141 173.472C456.372 173.224 457.141 171.882 456.858 170.483C456.576 169.084 455.353 168.131 454.122 168.378C452.892 168.625 452.123 169.956 452.403 171.366Z" fill="white"/>
<path d="M475.076 80.779C476.333 80.3629 477.563 79.8703 478.76 79.3039C480.118 78.6519 481.857 77.8912 482.96 77.7201C485.285 77.3615 489.279 77.6005 491.485 79.9939C494.231 82.9822 499.113 80.5372 498.13 96.139C497.016 113.797 487.192 111.868 486.953 111.57C486.714 111.271 478.192 100.266 478.192 100.266C478.192 100.266 475.204 106.786 475.204 106.547C475.204 106.307 459.996 85.8565 475.076 80.779Z" fill="#0E2E35"/>
<path d="M482.533 112.884L481.686 119.195C481.686 119.195 479.784 128.29 482.229 130.045C484.674 131.8 492.623 118.937 492.623 118.937L491.783 102.938L482.533 112.884Z" fill="#F7A491"/>
<path d="M492.055 108.117C490.037 113.572 485.228 116.927 481.813 118.228L482.533 112.876L491.77 102.931L492.055 108.117Z" fill="#F47458"/>
<path d="M483.036 85.5249C477.855 84.6882 473.21 88.8528 473.34 94.0362C473.405 96.7479 473.642 99.4528 474.049 102.135C475.176 109.423 480.148 115.84 483.435 115.267C486.722 114.694 494.994 108.407 493.538 98.0352C492.639 91.632 488.469 86.4024 483.036 85.5249Z" fill="#F7A491"/>
<path d="M491.256 99.2742C491.528 100.877 492.818 101.991 494.125 101.763C495.432 101.534 496.263 100.051 495.986 98.4483C495.709 96.8454 494.427 95.7316 493.12 95.9598C491.813 96.188 490.979 97.6713 491.256 99.2742Z" fill="#F7A491"/>
<path d="M493.12 95.9597C493.12 95.9597 489.146 96.9486 487.67 94.3922C486.195 91.8358 480.919 86.3183 474.215 88.6057C467.51 90.8932 480.115 83.042 480.651 83.042C481.186 83.042 487.624 82.9985 487.624 82.9985C487.624 82.9985 492.588 87.0735 492.767 87.5272C492.946 87.9809 494.375 92.8654 494.375 92.8654L493.12 95.9597Z" fill="#0E2E35"/>
<path d="M485.848 106.636L478.616 108.019C478.616 108.019 479.306 110.736 482.503 110.228C486.402 109.589 485.848 106.636 485.848 106.636Z" fill="white"/>
<path d="M209.132 315.602H174.871C169.917 373.943 155.799 419.129 130 447.602H254C226.678 418.704 213.129 372.999 209.132 315.602Z" fill="url(#paint0_linear_448_7535)"/>
<path d="M147.811 448.033C148.724 444.435 148.634 440.654 147.552 437.103C146.469 433.552 144.435 430.364 141.67 427.887C138.905 425.409 135.514 423.736 131.866 423.049C128.217 422.362 124.45 422.686 120.973 423.988C117.962 417.508 112.931 412.178 106.635 408.798C100.339 405.418 93.1168 404.17 86.0517 405.242C78.9866 406.313 72.459 409.645 67.4477 414.739C62.4364 419.833 59.2113 426.415 58.2561 433.496C57.9274 433.475 57.5932 433.464 57.2591 433.464C54.2193 433.464 51.24 434.313 48.6578 435.917C46.0756 437.521 43.9933 439.815 42.6462 442.54C41.385 441.396 39.8383 440.613 38.1693 440.275C36.5003 439.937 34.771 440.055 33.1638 440.618C31.5566 441.181 30.1311 442.167 29.0378 443.473C27.9445 444.778 27.2239 446.355 26.952 448.036L147.811 448.033Z" fill="url(#paint1_linear_448_7535)"/>
<path d="M374.356 448.034C374.378 447.762 374.391 447.49 374.391 447.219C374.348 444.552 373.258 442.01 371.357 440.14C369.456 438.27 366.896 437.222 364.23 437.222C361.563 437.222 359.003 438.27 357.102 440.14C355.201 442.01 354.111 444.552 354.068 447.219C354.068 447.49 354.068 447.762 354.103 448.034H374.356Z" fill="url(#paint2_linear_448_7535)"/>
<path d="M351.115 448.034C351.169 447.439 351.202 446.838 351.202 446.23C351.202 443.03 350.429 439.878 348.948 437.043C347.467 434.207 345.322 431.772 342.696 429.945C340.07 428.117 337.041 426.953 333.867 426.55C330.693 426.147 327.469 426.518 324.47 427.631C324.196 423.932 323.183 420.326 321.49 417.026C319.798 413.726 317.459 410.799 314.615 408.419C311.77 406.039 308.476 404.255 304.929 403.171C301.381 402.088 297.653 401.728 293.964 402.112C290.274 402.496 286.7 403.617 283.452 405.409C280.204 407.2 277.349 409.625 275.056 412.54C272.763 415.456 271.078 418.801 270.102 422.38C269.126 425.958 268.878 429.696 269.373 433.372C266.721 432.559 263.93 432.297 261.173 432.602C258.416 432.908 255.75 433.774 253.34 435.149C250.93 436.523 248.827 438.375 247.16 440.593C245.493 442.81 244.297 445.345 243.646 448.042L351.115 448.034Z" fill="url(#paint3_linear_448_7535)"/>
<path d="M171.171 303.651H213.166V314.189C213.166 314.606 213 315.006 212.705 315.301C212.41 315.596 212.01 315.762 211.593 315.762H172.744C172.327 315.762 171.927 315.596 171.632 315.301C171.337 315.006 171.171 314.606 171.171 314.189V303.648V303.651Z" fill="#DD513A"/>
<path d="M159.435 245.022C159.435 245.022 143.595 266.123 132.334 279.1C117.121 296.615 121.171 298.845 134.779 347.419C169.422 324.091 154.646 290.429 167.083 283.645C189.802 271.265 159.435 245.022 159.435 245.022Z" fill="#2D5DA3"/>
<path d="M224.907 245.022C224.907 245.022 240.748 266.123 252.011 279.1C267.224 296.615 263.171 298.845 249.566 347.419C214.923 324.091 229.702 290.429 217.262 283.645C194.554 271.265 224.907 245.022 224.907 245.022Z" fill="#2D5DA3"/>
<path d="M235.257 228.375C235.257 187.696 211.75 151.38 199.579 135.302C198.732 134.183 197.641 133.272 196.389 132.638C195.137 132.004 193.757 131.663 192.353 131.642C190.95 131.621 189.56 131.92 188.289 132.517C187.019 133.113 185.901 133.992 185.021 135.085C172.625 150.472 149.085 185.126 149.085 226.4C149.085 243.075 160.514 290.435 166.471 302.505C167.168 303.923 168.248 305.119 169.589 305.955C170.93 306.791 172.479 307.236 174.059 307.237H211.193C212.774 307.235 214.322 306.791 215.663 305.956C217.005 305.12 218.086 303.925 218.783 302.507C224.741 290.435 235.257 245.053 235.257 228.375Z" fill="#2D5DA3"/>
<path d="M218.784 302.507C224.741 290.437 235.257 245.055 235.257 228.378C235.257 203.602 226.537 180.445 216.969 162.49C209.47 158.581 201.141 156.532 192.685 156.514C183.149 156.514 174.119 159.119 166.061 163.764C156.999 180.776 149.093 202.471 149.093 226.394C149.093 243.069 160.522 290.429 166.48 302.499C167.176 303.918 168.256 305.113 169.597 305.949C170.938 306.786 172.487 307.23 174.067 307.231H211.193C212.773 307.23 214.321 306.787 215.662 305.952C217.004 305.117 218.085 303.924 218.784 302.507Z" fill="#2C2C2C"/>
<g style="mix-blend-mode:multiply">
<path d="M193.82 235.455C208.431 235.455 220.275 223.61 220.275 209C220.275 194.389 208.431 182.545 193.82 182.545C179.209 182.545 167.365 194.389 167.365 209C167.365 223.61 179.209 235.455 193.82 235.455Z" fill="#EBD6AC"/>
</g>
<path d="M218.42 212.913C220.761 198.491 210.967 184.902 196.546 182.561C182.124 180.22 168.535 190.014 166.194 204.436C163.853 218.858 173.646 232.447 188.068 234.788C202.49 237.129 216.079 227.335 218.42 212.913Z" fill="#5184CE"/>
<path d="M167.031 209.054C167.033 204.919 168.004 200.843 169.865 197.151C171.727 193.46 174.427 190.255 177.75 187.795C181.073 185.335 184.926 183.688 189.001 182.986C193.075 182.284 197.257 182.546 201.212 183.751C197.892 182.567 194.369 182.058 190.85 182.255C187.33 182.452 183.886 183.35 180.718 184.896C177.551 186.443 174.724 188.606 172.405 191.26C170.085 193.914 168.319 197.005 167.211 200.351C166.102 203.697 165.674 207.231 165.95 210.745C166.226 214.258 167.201 217.682 168.819 220.813C170.437 223.945 172.664 226.722 175.37 228.981C178.075 231.24 181.205 232.936 184.575 233.968C179.44 232.13 174.998 228.749 171.858 224.289C168.717 219.829 167.032 214.508 167.031 209.054Z" fill="#224E8F"/>
<g style="mix-blend-mode:multiply">
<path d="M194.652 231.709C194.652 232.104 194.535 232.491 194.316 232.821C194.096 233.15 193.784 233.406 193.418 233.558C193.053 233.71 192.651 233.75 192.263 233.673C191.875 233.595 191.518 233.405 191.238 233.125C190.958 232.845 190.768 232.489 190.691 232.101C190.614 231.713 190.654 231.31 190.805 230.945C190.957 230.579 191.214 230.267 191.543 230.048C191.872 229.828 192.259 229.711 192.655 229.712C193.184 229.713 193.692 229.923 194.066 230.298C194.44 230.672 194.651 231.179 194.652 231.709Z" fill="#D1CFCB"/>
</g>
<g style="mix-blend-mode:multiply">
<path d="M194.524 186.289C194.524 186.684 194.407 187.07 194.187 187.398C193.968 187.726 193.656 187.982 193.291 188.134C192.926 188.285 192.525 188.324 192.137 188.247C191.75 188.17 191.394 187.98 191.115 187.701C190.836 187.421 190.646 187.066 190.569 186.678C190.491 186.291 190.531 185.889 190.682 185.525C190.833 185.16 191.089 184.848 191.418 184.629C191.746 184.409 192.132 184.292 192.527 184.292C193.056 184.292 193.564 184.502 193.939 184.877C194.313 185.251 194.524 185.759 194.524 186.289Z" fill="#D1CFCB"/>
</g>
<g style="mix-blend-mode:multiply">
<path d="M211.606 193.879C211.607 194.274 211.49 194.661 211.27 194.99C211.051 195.319 210.739 195.576 210.374 195.728C210.008 195.88 209.606 195.92 209.218 195.843C208.83 195.766 208.474 195.576 208.194 195.296C207.914 195.017 207.723 194.66 207.646 194.272C207.568 193.884 207.608 193.482 207.759 193.117C207.91 192.751 208.167 192.439 208.496 192.219C208.824 191.999 209.211 191.882 209.607 191.882C210.136 191.882 210.645 192.092 211.02 192.467C211.394 192.841 211.605 193.349 211.606 193.879Z" fill="#D1CFCB"/>
</g>
<g style="mix-blend-mode:multiply">
<path d="M178.392 225.251C178.392 225.646 178.275 226.032 178.056 226.36C177.836 226.688 177.525 226.944 177.16 227.095C176.795 227.247 176.393 227.286 176.006 227.209C175.619 227.132 175.263 226.942 174.984 226.663C174.704 226.383 174.514 226.028 174.437 225.64C174.36 225.253 174.4 224.851 174.551 224.487C174.702 224.122 174.958 223.81 175.286 223.59C175.615 223.371 176.001 223.254 176.396 223.254C176.925 223.254 177.433 223.464 177.807 223.839C178.182 224.213 178.392 224.721 178.392 225.251Z" fill="#D1CFCB"/>
</g>
<g style="mix-blend-mode:multiply">
<path d="M211.606 224.371C211.606 224.766 211.489 225.153 211.269 225.481C211.049 225.81 210.737 226.066 210.372 226.218C210.006 226.369 209.604 226.409 209.217 226.332C208.829 226.254 208.472 226.064 208.193 225.784C207.913 225.505 207.723 225.148 207.646 224.761C207.568 224.373 207.608 223.971 207.759 223.605C207.911 223.24 208.167 222.928 208.496 222.708C208.825 222.488 209.211 222.371 209.607 222.371C209.869 222.371 210.129 222.423 210.372 222.523C210.614 222.624 210.835 222.771 211.02 222.957C211.206 223.142 211.353 223.363 211.454 223.605C211.554 223.848 211.606 224.108 211.606 224.371Z" fill="#D1CFCB"/>
</g>
<g style="mix-blend-mode:multiply">
<path d="M177.602 193.569C177.602 193.964 177.485 194.35 177.265 194.678C177.046 195.007 176.734 195.263 176.369 195.414C176.004 195.565 175.603 195.604 175.215 195.527C174.828 195.45 174.472 195.26 174.193 194.981C173.914 194.702 173.724 194.346 173.647 193.959C173.57 193.571 173.609 193.17 173.76 192.805C173.911 192.44 174.167 192.128 174.496 191.909C174.824 191.689 175.21 191.572 175.605 191.572C176.134 191.573 176.642 191.784 177.016 192.158C177.39 192.532 177.601 193.04 177.602 193.569Z" fill="#D1CFCB"/>
</g>
<g style="mix-blend-mode:multiply">
<path d="M217.512 209.054C217.513 209.45 217.396 209.837 217.176 210.166C216.957 210.495 216.645 210.752 216.28 210.904C215.914 211.055 215.512 211.095 215.124 211.018C214.736 210.942 214.38 210.751 214.1 210.472C213.82 210.192 213.629 209.836 213.552 209.448C213.474 209.06 213.514 208.658 213.665 208.293C213.816 207.927 214.073 207.615 214.402 207.395C214.73 207.175 215.117 207.058 215.513 207.058C215.775 207.057 216.035 207.109 216.278 207.209C216.52 207.309 216.741 207.456 216.926 207.641C217.112 207.827 217.259 208.047 217.36 208.29C217.46 208.532 217.512 208.792 217.512 209.054Z" fill="#D1CFCB"/>
</g>
<g style="mix-blend-mode:multiply">
<path d="M171.41 209.054C171.41 209.449 171.293 209.835 171.074 210.164C170.854 210.492 170.543 210.748 170.178 210.899C169.813 211.05 169.411 211.09 169.024 211.013C168.637 210.936 168.281 210.746 168.002 210.466C167.722 210.187 167.532 209.831 167.455 209.444C167.378 209.057 167.418 208.655 167.569 208.29C167.72 207.925 167.976 207.614 168.304 207.394C168.633 207.175 169.019 207.058 169.414 207.058C169.943 207.058 170.451 207.268 170.826 207.642C171.2 208.017 171.41 208.525 171.41 209.054Z" fill="#D1CFCB"/>
</g>
<path d="M192.299 228.071C203.017 228.071 211.707 219.381 211.707 208.663C211.707 197.944 203.017 189.255 192.299 189.255C181.58 189.255 172.891 197.944 172.891 208.663C172.891 219.381 181.58 228.071 192.299 228.071Z" fill="#ADC8F0"/>
<g style="mix-blend-mode:multiply">
<path d="M175.116 211.054C175.116 207.295 176.208 203.618 178.258 200.467C180.309 197.317 183.23 194.83 186.667 193.309C190.104 191.787 193.909 191.296 197.619 191.896C201.33 192.495 204.786 194.159 207.569 196.686C205.91 194.574 203.831 192.831 201.464 191.564C199.096 190.298 196.492 189.536 193.815 189.328C191.138 189.12 188.447 189.469 185.912 190.354C183.377 191.239 181.053 192.641 179.088 194.47C177.122 196.299 175.557 198.516 174.493 200.981C173.428 203.446 172.886 206.105 172.902 208.79C172.918 211.475 173.49 214.128 174.583 216.58C175.677 219.032 177.267 221.231 179.253 223.037C176.567 219.621 175.109 215.4 175.116 211.054Z" fill="#DAECF2"/>
</g>
<path d="M194.295 231.399C194.296 231.795 194.179 232.182 193.96 232.511C193.74 232.84 193.428 233.097 193.062 233.249C192.697 233.4 192.295 233.44 191.907 233.363C191.518 233.286 191.162 233.095 190.882 232.816C190.602 232.536 190.412 232.179 190.335 231.791C190.258 231.403 190.298 231.001 190.449 230.635C190.601 230.27 190.858 229.958 191.187 229.738C191.516 229.519 191.903 229.402 192.299 229.402C192.828 229.402 193.336 229.613 193.711 229.987C194.085 230.362 194.295 230.87 194.295 231.399Z" fill="#878583"/>
<g style="mix-blend-mode:screen">
<path d="M192.299 232.507C192.079 232.507 191.865 232.442 191.683 232.32C191.501 232.198 191.359 232.025 191.275 231.823C191.191 231.62 191.169 231.397 191.212 231.182C191.254 230.967 191.36 230.77 191.515 230.615C191.67 230.46 191.867 230.354 192.082 230.311C192.297 230.269 192.52 230.291 192.723 230.374C192.925 230.458 193.099 230.6 193.22 230.783C193.342 230.965 193.407 231.179 193.407 231.398C193.407 231.692 193.29 231.974 193.082 232.182C192.875 232.39 192.593 232.507 192.299 232.507Z" fill="#858585"/>
</g>
<path d="M194.168 185.979C194.168 186.374 194.051 186.76 193.831 187.088C193.612 187.417 193.3 187.673 192.935 187.824C192.57 187.975 192.169 188.015 191.782 187.938C191.394 187.861 191.039 187.67 190.759 187.391C190.48 187.112 190.29 186.756 190.213 186.369C190.136 185.981 190.175 185.58 190.326 185.215C190.478 184.85 190.733 184.538 191.062 184.319C191.39 184.1 191.776 183.982 192.171 183.982C192.433 183.982 192.693 184.034 192.935 184.134C193.178 184.235 193.398 184.382 193.583 184.567C193.769 184.753 193.916 184.973 194.016 185.215C194.116 185.457 194.168 185.717 194.168 185.979Z" fill="#878583"/>
<g style="mix-blend-mode:screen">
<path d="M192.171 187.087C191.952 187.087 191.737 187.022 191.555 186.9C191.373 186.778 191.231 186.605 191.147 186.403C191.063 186.2 191.041 185.977 191.084 185.762C191.127 185.547 191.232 185.35 191.387 185.195C191.542 185.04 191.74 184.934 191.955 184.891C192.17 184.849 192.393 184.871 192.595 184.954C192.798 185.038 192.971 185.18 193.093 185.363C193.214 185.545 193.279 185.759 193.279 185.979C193.279 186.272 193.163 186.554 192.955 186.762C192.747 186.97 192.465 187.087 192.171 187.087Z" fill="#858585"/>
</g>
<path d="M211.264 193.569C211.264 193.965 211.148 194.352 210.928 194.681C210.709 195.01 210.396 195.267 210.031 195.418C209.665 195.57 209.263 195.61 208.875 195.533C208.487 195.456 208.13 195.265 207.851 194.986C207.571 194.706 207.38 194.349 207.303 193.961C207.226 193.573 207.266 193.171 207.418 192.805C207.569 192.44 207.826 192.128 208.155 191.908C208.485 191.689 208.872 191.572 209.267 191.572C209.797 191.573 210.304 191.784 210.678 192.158C211.053 192.532 211.263 193.04 211.264 193.569Z" fill="#878583"/>
<g style="mix-blend-mode:screen">
<path d="M209.253 194.677C209.034 194.678 208.819 194.613 208.635 194.491C208.452 194.37 208.31 194.196 208.225 193.993C208.14 193.79 208.118 193.567 208.161 193.351C208.203 193.135 208.309 192.937 208.464 192.781C208.619 192.626 208.817 192.52 209.033 192.477C209.249 192.434 209.472 192.455 209.675 192.539C209.879 192.623 210.052 192.766 210.174 192.949C210.297 193.131 210.362 193.346 210.362 193.566C210.362 193.86 210.245 194.143 210.037 194.351C209.83 194.559 209.548 194.677 209.253 194.677Z" fill="#858585"/>
</g>
<path d="M178.045 224.941C178.045 225.336 177.927 225.722 177.708 226.05C177.489 226.379 177.177 226.635 176.812 226.786C176.447 226.937 176.046 226.976 175.658 226.899C175.271 226.822 174.915 226.632 174.636 226.353C174.357 226.074 174.166 225.718 174.089 225.331C174.012 224.943 174.052 224.542 174.203 224.177C174.354 223.812 174.61 223.5 174.938 223.281C175.267 223.061 175.653 222.944 176.048 222.944C176.577 222.944 177.085 223.155 177.46 223.529C177.834 223.904 178.045 224.412 178.045 224.941Z" fill="#878583"/>
<g style="mix-blend-mode:screen">
<path d="M176.048 226.05C175.828 226.05 175.614 225.985 175.432 225.863C175.25 225.741 175.107 225.568 175.024 225.366C174.94 225.163 174.918 224.94 174.961 224.725C175.003 224.51 175.109 224.313 175.264 224.158C175.419 224.003 175.616 223.897 175.831 223.854C176.046 223.812 176.269 223.833 176.472 223.917C176.674 224.001 176.847 224.143 176.969 224.326C177.091 224.508 177.156 224.722 177.156 224.941C177.156 225.235 177.039 225.517 176.831 225.725C176.623 225.933 176.342 226.05 176.048 226.05Z" fill="#858585"/>
</g>
<path d="M211.264 224.058C211.264 224.454 211.148 224.841 210.928 225.17C210.709 225.499 210.396 225.756 210.031 225.908C209.665 226.059 209.263 226.099 208.875 226.022C208.487 225.945 208.13 225.755 207.851 225.475C207.571 225.195 207.38 224.839 207.303 224.45C207.226 224.062 207.266 223.66 207.418 223.295C207.569 222.929 207.826 222.617 208.155 222.397C208.485 222.178 208.872 222.061 209.267 222.062C209.797 222.062 210.304 222.273 210.678 222.647C211.053 223.021 211.263 223.529 211.264 224.058Z" fill="#878583"/>
<g style="mix-blend-mode:screen">
<path d="M209.251 225.167C209.863 225.167 210.359 224.671 210.359 224.059C210.359 223.446 209.863 222.95 209.251 222.95C208.639 222.95 208.142 223.446 208.142 224.059C208.142 224.671 208.639 225.167 209.251 225.167Z" fill="#858585"/>
</g>
<path d="M177.246 193.252C177.246 193.647 177.129 194.033 176.909 194.361C176.69 194.689 176.378 194.945 176.013 195.096C175.648 195.248 175.247 195.287 174.859 195.21C174.472 195.133 174.116 194.943 173.837 194.664C173.558 194.384 173.368 194.029 173.291 193.641C173.214 193.254 173.253 192.852 173.404 192.488C173.555 192.123 173.811 191.811 174.14 191.591C174.468 191.372 174.854 191.255 175.249 191.255C175.511 191.255 175.771 191.307 176.013 191.407C176.255 191.507 176.475 191.654 176.661 191.84C176.846 192.025 176.993 192.245 177.094 192.488C177.194 192.73 177.246 192.989 177.246 193.252Z" fill="#878583"/>
<g style="mix-blend-mode:screen">
<path d="M175.249 194.359C175.03 194.359 174.816 194.294 174.633 194.173C174.451 194.051 174.309 193.878 174.225 193.675C174.141 193.473 174.119 193.25 174.162 193.035C174.205 192.82 174.31 192.622 174.465 192.467C174.62 192.312 174.818 192.207 175.033 192.164C175.248 192.121 175.471 192.143 175.673 192.227C175.876 192.311 176.049 192.453 176.171 192.635C176.292 192.817 176.357 193.032 176.357 193.251C176.357 193.545 176.241 193.827 176.033 194.035C175.825 194.243 175.543 194.359 175.249 194.359Z" fill="#858585"/>
</g>
<path d="M217.154 208.748C217.154 209.143 217.037 209.53 216.818 209.86C216.598 210.189 216.286 210.446 215.921 210.597C215.555 210.749 215.153 210.789 214.765 210.712C214.377 210.635 214.02 210.444 213.74 210.164C213.461 209.884 213.27 209.528 213.193 209.14C213.116 208.752 213.156 208.349 213.307 207.984C213.459 207.619 213.716 207.306 214.045 207.087C214.374 206.867 214.761 206.75 215.157 206.751C215.686 206.751 216.194 206.961 216.569 207.336C216.943 207.71 217.154 208.218 217.154 208.748Z" fill="#878583"/>
<g style="mix-blend-mode:screen">
<path d="M215.157 209.869C214.938 209.869 214.723 209.804 214.541 209.682C214.359 209.561 214.217 209.387 214.133 209.185C214.049 208.982 214.027 208.76 214.07 208.545C214.113 208.329 214.218 208.132 214.373 207.977C214.528 207.822 214.726 207.716 214.941 207.674C215.156 207.631 215.379 207.653 215.581 207.737C215.784 207.821 215.957 207.963 216.078 208.145C216.2 208.327 216.265 208.542 216.265 208.761C216.265 209.054 216.148 209.336 215.94 209.544C215.732 209.751 215.451 209.868 215.157 209.869Z" fill="#858585"/>
</g>
<path d="M171.057 208.748C171.057 209.143 170.94 209.529 170.721 209.857C170.501 210.185 170.189 210.441 169.825 210.592C169.46 210.744 169.058 210.783 168.671 210.706C168.284 210.629 167.928 210.439 167.649 210.16C167.369 209.88 167.179 209.525 167.102 209.137C167.025 208.75 167.065 208.348 167.216 207.984C167.367 207.619 167.623 207.307 167.951 207.087C168.279 206.868 168.666 206.751 169.06 206.751C169.59 206.751 170.098 206.961 170.472 207.336C170.847 207.71 171.057 208.218 171.057 208.748Z" fill="#878583"/>
<g style="mix-blend-mode:screen">
<path d="M169.058 209.869C168.838 209.869 168.624 209.804 168.442 209.682C168.26 209.561 168.117 209.387 168.034 209.185C167.95 208.982 167.928 208.76 167.971 208.545C168.013 208.329 168.119 208.132 168.274 207.977C168.429 207.822 168.626 207.716 168.841 207.674C169.056 207.631 169.279 207.653 169.482 207.737C169.684 207.821 169.857 207.963 169.979 208.145C170.101 208.327 170.166 208.542 170.166 208.761C170.166 209.055 170.049 209.337 169.841 209.544C169.634 209.752 169.352 209.869 169.058 209.869Z" fill="#858585"/>
</g>
<g style="mix-blend-mode:screen">
<path d="M204.396 209.326C203.71 211.972 202.351 214.395 200.451 216.36C198.551 218.325 196.175 219.764 193.554 220.538C190.932 221.312 188.155 221.395 185.493 220.777C182.83 220.159 180.373 218.863 178.36 217.014C179.6 219.172 181.319 221.017 183.382 222.409C185.446 223.8 187.801 224.701 190.267 225.043C192.733 225.384 195.244 225.157 197.608 224.378C199.972 223.599 202.127 222.29 203.907 220.55C205.688 218.811 207.046 216.687 207.879 214.341C208.712 211.995 208.998 209.49 208.714 207.017C208.429 204.544 207.583 202.169 206.239 200.074C204.896 197.978 203.091 196.218 200.962 194.928C202.666 196.865 203.87 199.19 204.469 201.7C205.067 204.21 205.042 206.828 204.396 209.326Z" fill="#7A7A7A"/>
</g>
<path d="M197.681 300.861C197.681 326.574 195.13 343.167 192.168 347.419C189.107 342.991 186.656 326.574 186.656 300.861C186.656 275.147 192.168 254.3 192.168 254.3C192.168 254.3 197.681 275.145 197.681 300.861Z" fill="#2D5DA3"/>
<g style="mix-blend-mode:screen">
<path d="M154.486 235.262C154.486 192.281 179.751 156.207 193.062 140.178L193.097 140.135C194.342 138.654 192.761 136.525 190.924 137.231C189.458 137.799 188.162 138.734 187.162 139.948C174.763 154.889 151.226 188.508 151.226 228.56C151.226 244.512 161.489 283.955 167.512 296.452C161.163 276.639 154.486 248.867 154.486 235.262Z" fill="#592D24"/>
</g>
<path d="M0 448.103C0 448.932 1.0845 449.602 2.41885 449.602H605.581C606.915 449.602 608 448.932 608 448.103C608 447.272 606.915 446.602 605.581 446.602H2.41885C1.0845 446.602 0 447.272 0 448.103Z" fill="#E7E7E7"/>
<defs>
<linearGradient id="paint0_linear_448_7535" x1="192" y1="315.602" x2="192" y2="447.602" gradientUnits="userSpaceOnUse">
<stop stop-color="#E1ECF8"/>
<stop offset="1" stop-color="#C4C4C4" stop-opacity="0"/>
</linearGradient>
<linearGradient id="paint1_linear_448_7535" x1="87.6937" y1="404.868" x2="87.6937" y2="448.036" gradientUnits="userSpaceOnUse">
<stop stop-color="#E1ECF8"/>
<stop offset="1" stop-color="#C4C4C4" stop-opacity="0"/>
</linearGradient>
<linearGradient id="paint2_linear_448_7535" x1="364.23" y1="437.222" x2="364.23" y2="448.034" gradientUnits="userSpaceOnUse">
<stop stop-color="#E1ECF8"/>
<stop offset="1" stop-color="#C4C4C4" stop-opacity="0"/>
</linearGradient>
<linearGradient id="paint3_linear_448_7535" x1="297.424" y1="401.963" x2="297.424" y2="448.042" gradientUnits="userSpaceOnUse">
<stop stop-color="#E1ECF8"/>
<stop offset="1" stop-color="#C4C4C4" stop-opacity="0"/>
</linearGradient>
</defs>
</svg>
