<svg width="280" height="47" viewBox="0 0 280 47" fill="none" xmlns="http://www.w3.org/2000/svg">
<path fill-rule="evenodd" clip-rule="evenodd" d="M60.1538 18.2859C60.1538 27.7165 60.1538 37.1476 60.1538 46.5783H53.0768V31.0476C48.4112 35.7159 43.5412 40.7366 37.3511 43.6513C30.67 46.797 19.4633 47.8439 12.515 44.7134C5.13647 41.3892 0 33.9736 0 25.3591C0 13.64 9.50544 4.13965 21.2306 4.13965H46V11.2126H21.2306C13.4138 11.2126 7.07703 17.5462 7.07703 25.3591C7.07703 29.0584 8.49816 32.4266 10.8239 34.9472C14.937 39.4048 22.0838 40.225 28.2693 39.1191C32.8966 38.2919 36.5979 36.5345 40.2229 33.5361C43.2377 31.0419 45.7605 28.0825 48.4096 25.3591H31.8462V18.2859C41.2821 18.2859 50.7181 18.2859 60.1538 18.2859Z" fill="white"/>
<path fill-rule="evenodd" clip-rule="evenodd" d="M56.6154 0.601562C60.5237 0.601562 63.6922 3.77004 63.6922 7.67837C63.6922 11.5869 60.5237 14.7554 56.6154 14.7554C52.707 14.7554 49.5383 11.5869 49.5383 7.67837C49.5383 3.77004 52.707 0.601562 56.6154 0.601562Z" fill="#DD023B"/>
<path d="M263.615 41.2943V15.045H269.356V19.3538C270.187 17.7029 271.469 16.4567 273.199 15.6147C274.929 14.7727 277.043 14.5499 279.538 14.9459V20.9882C276.843 20.1627 274.472 20.427 272.425 21.7808C270.379 23.1345 269.356 25.1978 269.356 27.9714V41.2943H263.615Z" fill="white"/>
<path d="M245.038 41.2943C241.363 41.2943 238.233 39.9843 235.647 37.3646C233.062 34.7448 231.769 31.6235 231.769 28.0008C231.769 24.3461 233.062 21.2249 235.647 18.6373C238.233 16.0498 241.363 14.7559 245.038 14.7559C248.713 14.7559 251.844 16.0579 254.429 18.6617C257.015 21.2653 258.308 24.3784 258.308 28.0008C258.308 31.6557 257.007 34.7852 254.405 37.3887C251.803 39.9925 248.681 41.2943 245.038 41.2943ZM239.331 33.7499C240.892 35.351 242.794 36.1515 245.038 36.1515C247.282 36.1515 249.185 35.351 250.746 33.7499C252.307 32.149 253.088 30.2327 253.088 28.0008C253.088 25.7693 252.307 23.8528 250.746 22.2516C249.185 20.6507 247.282 19.8503 245.038 19.8503C242.794 19.8503 240.892 20.6507 239.331 22.2516C237.77 23.8528 236.989 25.7693 236.989 28.0008C236.989 30.2327 237.77 32.149 239.331 33.7499Z" fill="white"/>
<path d="M230 40.563C225.869 41.68 222.478 41.5159 219.825 40.0703C217.172 38.6249 215.836 36.0457 215.846 32.3336C215.865 25.4347 215.879 16.8328 215.922 9.44727H221.638V14.6426H229.798V19.521H221.638L221.588 32.2842C221.588 33.8941 222.277 34.9781 223.653 35.5368C225.03 36.0952 227.145 35.9474 230 35.0931V40.563Z" fill="white"/>
<path d="M164.538 40.563C160.408 41.68 157.016 41.5159 154.364 40.0703C151.711 38.6249 150.375 36.0457 150.385 32.3336C150.403 25.4347 150.418 16.8328 150.461 9.44727H156.177V14.6426H164.337V19.521H156.177L156.127 32.2842C156.127 33.8941 156.815 34.9781 158.192 35.5368C159.569 36.0952 161.684 35.9474 164.538 35.0931V40.563Z" fill="white"/>
<path d="M182.231 40.563C178.1 41.68 174.709 41.5159 172.056 40.0703C169.403 38.6249 168.067 36.0457 168.077 32.3336C168.095 25.4347 168.11 16.8328 168.154 9.44727H173.869V14.6426H182.029V19.521H173.869L173.819 32.2842C173.819 33.8941 174.507 34.9781 175.884 35.5368C177.261 36.0952 179.376 35.9474 182.231 35.0931V40.563Z" fill="white"/>
<path d="M196.701 41.2943C193.714 41.2943 191.145 40.3259 188.995 38.3893C186.844 36.4527 185.769 33.8927 185.769 30.7086V14.7559H191.432V29.1822C191.432 31.2502 192.056 32.8996 193.303 34.1303C194.551 35.3615 196.061 35.977 197.834 35.977C199.902 35.977 201.592 35.2383 202.906 33.7613C204.219 32.2841 204.875 30.4132 204.875 28.1481V14.7559H210.538V40.8512H204.875V37.3554C202.84 39.9816 200.115 41.2943 196.701 41.2943Z" fill="white"/>
<path d="M131.801 41.2943C128.095 41.2943 124.958 39.9925 122.39 37.3887C119.822 34.7852 118.538 31.6557 118.538 28.0008C118.538 24.3137 119.838 21.1842 122.439 18.613C125.039 16.0418 128.16 14.7559 131.801 14.7559C135.019 14.7559 137.855 15.7989 140.31 17.8853C142.764 19.9715 144.267 22.5833 144.82 25.7206C145.145 27.2407 145.161 28.6963 144.869 30.0869H124.097C124.422 31.9954 125.299 33.5075 126.73 34.6233C128.16 35.7392 129.85 36.2972 131.801 36.2972C134.087 36.2972 136.022 35.6827 137.606 34.4537H143.942C142.902 36.5236 141.244 38.1811 138.969 39.4262C136.693 40.6716 134.304 41.2943 131.801 41.2943ZM124.097 25.7693H139.359C139.033 24.055 138.18 22.6157 136.799 21.4512C135.417 20.2869 133.735 19.7045 131.752 19.7045C129.769 19.7045 128.079 20.2952 126.681 21.4755C125.283 22.6559 124.422 24.0871 124.097 25.7693Z" fill="white"/>
<path d="M98.6542 41.2938C93.8546 41.2938 89.7762 39.5642 86.4196 36.1049C83.0629 32.6452 81.3845 28.4776 81.3845 23.6014C81.3845 18.7251 83.071 14.5576 86.4437 11.0983C89.8167 7.63882 93.8868 5.90918 98.6542 5.90918C102.124 5.90918 105.23 6.87279 107.97 8.80002C110.711 10.7275 112.762 13.2891 114.124 16.485H107.754C106.927 15.1858 105.881 14.1147 104.614 13.2727C102.879 12.1197 100.892 11.5428 98.6542 11.5428C95.3786 11.5428 92.6462 12.7043 90.4573 15.0271C88.2681 17.3497 87.1734 20.2078 87.1734 23.6014C87.1734 26.9949 88.26 29.853 90.4331 32.1756C92.6057 34.4985 95.3461 35.6599 98.6542 35.6599C101.249 35.6599 103.519 34.8857 105.465 33.3371C107.411 31.7887 108.708 29.6636 109.357 26.962H98.7515L98.6542 21.9704H115V24.0957C115 29.0377 113.451 33.1395 110.354 36.4012C107.257 39.6628 103.357 41.2938 98.6542 41.2938Z" fill="white"/>
</svg>
