<svg width="45" height="32" viewBox="0 0 45 32" fill="none" xmlns="http://www.w3.org/2000/svg">
<path fill-rule="evenodd" clip-rule="evenodd" d="M41.8462 12.3023C41.8462 18.8627 41.8462 25.4235 41.8462 31.9839H36.923V21.18C33.6773 24.4275 30.2895 27.9202 25.9834 29.9478C21.3357 32.1361 13.5397 32.8644 8.70607 30.6867C3.5732 28.3741 0 23.2155 0 17.2228C0 9.07034 6.61248 2.46143 14.7691 2.46143H32V7.38177H14.7691C9.33131 7.38177 4.92315 11.7877 4.92315 17.2228C4.92315 19.7962 5.91176 22.1393 7.5297 23.8928C10.391 26.9937 15.3626 27.5643 19.6656 26.795C22.8846 26.2195 25.4594 24.997 27.9811 22.9112C30.0784 21.176 31.8334 19.1173 33.6762 17.2228H22.1539V12.3023C28.718 12.3023 35.2822 12.3023 41.8462 12.3023Z" fill="#051B78"/>
<path fill-rule="evenodd" clip-rule="evenodd" d="M39.3841 0C42.1029 0 44.3071 2.20416 44.3071 4.923C44.3071 7.64199 42.1029 9.84615 39.3841 9.84615C36.6653 9.84615 34.4609 7.64199 34.4609 4.923C34.4609 2.20416 36.6653 0 39.3841 0Z" fill="#DD023B"/>
</svg>
