<svg width="30" height="31" viewBox="0 0 30 31" fill="none" xmlns="http://www.w3.org/2000/svg">
<path d="M3.00439 8.92756L14.9999 14.9246L26.9954 8.92756C26.951 8.16323 26.616 7.44479 26.0591 6.9194C25.5022 6.39401 24.7655 6.10142 23.9999 6.10156H5.99989C5.23427 6.10142 4.49757 6.39401 3.94066 6.9194C3.38376 7.44479 3.0488 8.16323 3.00439 8.92756Z" fill="white"/>
<path d="M27 12.2783L15 18.2783L3 12.2783V21.1013C3 21.897 3.31607 22.66 3.87868 23.2226C4.44129 23.7852 5.20435 24.1013 6 24.1013H24C24.7956 24.1013 25.5587 23.7852 26.1213 23.2226C26.6839 22.66 27 21.897 27 21.1013V12.2783Z" fill="white"/>
</svg>
