<svg width="1438" height="983" viewBox="0 0 1438 983" fill="none" xmlns="http://www.w3.org/2000/svg">
<g clip-path="url(#clip0_8_559)">
<rect x="-2" y="-0.397949" width="1440" height="983" fill="white"/>
<path d="M921.068 217.602C922.677 217.763 924.272 217.9 925.857 218.09C927.939 218.349 930.054 218.628 932.145 218.953C937.117 219.72 942.082 220.55 947.058 221.296C949.981 221.734 952.929 222.013 955.852 222.438C959.567 222.98 963.288 223.539 966.976 224.199C969.02 224.565 969.817 225.686 969.739 227.768C969.668 228.723 969.547 229.673 969.377 230.615C969.124 232.399 968.85 234.184 968.606 235.948C968.22 238.755 967.869 241.566 967.476 244.371C967.06 247.345 966.625 250.309 966.173 253.264C965.876 255.233 965.552 257.202 965.189 259.162C964.891 260.813 964.106 261.398 962.387 261.244C960.436 261.059 958.491 260.816 956.548 260.548C953.277 260.09 949.987 259.599 946.71 259.111C942.841 258.534 938.974 257.95 935.11 257.359C931.008 256.72 926.91 256.06 922.811 255.402C920.64 255.051 918.472 254.7 916.306 254.323C914.257 253.966 913.588 252.886 913.882 250.813C914.272 248.086 914.516 245.34 914.882 242.61C915.352 239.085 915.899 235.573 916.369 232.051C916.708 229.559 916.964 227.057 917.291 224.562C917.475 223.096 917.654 221.626 917.91 220.169C918.222 218.376 919.242 217.587 921.068 217.602ZM962.113 260.619C963.88 260.646 964.276 260.352 964.594 259.087C964.692 258.701 964.749 258.302 964.808 257.898C965.332 254.421 965.864 250.947 966.367 247.47C966.831 244.264 967.259 241.057 967.708 237.851C967.999 235.755 968.297 233.661 968.6 231.569C968.776 230.341 969.029 229.119 969.127 227.887C969.272 226.085 968.588 225.21 966.836 224.77C966.218 224.616 965.581 224.526 964.951 224.425C962.467 224.027 959.984 223.604 957.491 223.236C953.892 222.724 950.279 222.305 946.683 221.775C942.334 221.133 938.004 220.368 933.65 219.753C930.08 219.25 926.511 218.884 922.927 218.462C922.177 218.343 921.42 218.275 920.661 218.257C919.471 218.28 918.787 218.851 918.579 220.017C918.308 221.505 918.094 223.012 917.901 224.514C917.585 227.016 917.345 229.526 917.008 232.022C916.539 235.463 915.97 238.889 915.521 242.333C915.135 245.227 914.846 248.133 914.495 251.033C914.299 252.657 914.793 253.371 916.363 253.648C917.933 253.924 919.59 254.198 921.205 254.462C924.557 255.016 927.909 255.557 931.261 256.107C933.938 256.544 936.615 257 939.292 257.419C942.212 257.865 945.142 258.273 948.069 258.686C950.484 259.025 952.901 259.357 955.32 259.682C957.729 260.033 960.144 260.355 962.122 260.619H962.113Z" fill="black"/>
<path d="M909.861 254.564C911.265 254.715 912.58 254.817 913.88 255.01C916.604 255.414 919.322 255.872 922.044 256.301C926.113 256.94 930.179 257.589 934.238 258.198C937.32 258.662 940.413 259.067 943.5 259.51C946.939 260.01 950.374 260.533 953.812 261.027C955.989 261.342 958.172 261.622 960.356 261.919C962.372 262.202 964.389 262.514 966.402 262.811C966.756 262.865 967.095 262.99 967.449 263.055C967.55 263.059 967.648 263.086 967.737 263.132C967.827 263.178 967.905 263.243 967.966 263.323C968.028 263.403 968.071 263.495 968.093 263.593C968.116 263.691 968.116 263.793 968.095 263.891C968.086 264.052 968.086 264.212 968.095 264.373C968.118 266.901 966.86 267.808 964.407 267.529C962.348 267.294 960.308 266.874 958.256 266.58C955.403 266.175 952.545 265.83 949.693 265.426C946.84 265.021 943.929 264.557 941.044 264.144C938.905 263.846 936.761 263.576 934.622 263.269C931.737 262.856 928.858 262.404 925.97 261.988C923.831 261.69 921.678 261.479 919.551 261.095C916.958 260.646 914.379 260.099 911.818 259.537C909.611 259.055 909.263 257.493 909.507 255.852C909.598 255.415 909.716 254.985 909.861 254.564V254.564ZM910.456 255.236C909.549 256.991 910.099 258.386 911.943 258.954C912.17 259.033 912.401 259.097 912.636 259.147C916.289 259.801 919.935 260.512 923.602 261.086C927.511 261.681 931.446 262.163 935.366 262.713C938.37 263.133 941.371 263.582 944.375 264.025C947.536 264.489 950.692 264.974 953.857 265.426C957.34 265.925 960.82 266.452 964.311 266.868C966.709 267.166 967.485 266.464 967.434 264.177C967.421 264.049 967.4 263.921 967.372 263.796C967.254 263.696 967.119 263.62 966.973 263.57C948.168 260.792 929.329 258.014 910.456 255.236V255.236Z" fill="black"/>
<path d="M918.478 247.419C918.671 246.039 918.85 244.653 919.055 243.273C919.382 241.102 919.715 238.928 920.069 236.76C920.503 234.083 920.979 231.406 921.401 228.729C921.663 227.072 921.919 225.41 922.065 223.738C922.199 222.215 923.478 221.463 924.742 221.549C925.896 221.626 927.041 221.823 928.186 222.004C931.657 222.551 935.125 223.117 938.596 223.673C941.751 224.18 944.905 224.687 948.06 225.193C950.865 225.636 953.672 226.052 956.477 226.501C958.446 226.817 960.415 227.135 962.369 227.516C963.916 227.813 964.481 228.625 964.276 230.169C963.916 232.845 963.499 235.546 963.143 238.238C962.705 241.527 962.342 244.823 961.87 248.106C961.572 250.275 961.144 252.434 960.71 254.584C960.391 256.155 959.603 256.782 957.988 256.666C956.435 256.553 954.898 256.268 953.354 256.048C950.431 255.629 947.51 255.205 944.589 254.775C941.784 254.358 938.982 253.906 936.175 253.508C933.879 253.181 931.568 252.969 929.283 252.601C926.407 252.137 923.492 251.884 920.676 251.06C919.296 250.658 918.647 249.912 918.594 248.52C918.594 248.16 918.594 247.8 918.594 247.44L918.478 247.419ZM919.108 247.265L919.23 247.283V247.877C919.23 249.814 919.659 250.367 921.559 250.73C923.127 251.027 924.712 251.253 926.288 251.506C927.749 251.741 929.206 251.988 930.669 252.193C934.036 252.666 937.406 253.118 940.782 253.582C942.679 253.844 944.577 254.111 946.475 254.382C948.689 254.699 950.905 255.021 953.122 255.346C954.701 255.581 956.272 255.911 957.86 256.06C959.347 256.196 959.984 255.596 960.213 254.117C960.353 253.225 960.486 252.3 960.623 251.39C961.188 247.639 961.762 243.892 962.316 240.138C962.671 237.729 963.007 235.315 963.324 232.896C963.464 231.825 963.589 230.749 963.636 229.672C963.681 228.72 963.437 228.449 962.574 228.185C962.379 228.13 962.18 228.087 961.98 228.057C958.55 227.486 955.124 226.9 951.692 226.35C947.388 225.657 943.066 224.999 938.774 224.318C935.22 223.759 931.669 223.185 928.114 222.626C927.018 222.415 925.911 222.261 924.798 222.162C923.46 222.09 922.898 222.602 922.654 223.905C922.544 224.5 922.502 225.094 922.413 225.689C922.005 228.417 921.601 231.141 921.175 233.866C920.848 235.948 920.482 238.03 920.158 240.135C919.781 242.521 919.456 244.894 919.108 247.265V247.265Z" fill="black"/>
<path d="M934.232 260.063C934.554 260.955 935.282 261.128 936.044 261.232C937.944 261.494 939.842 261.761 941.742 262.005C942.141 262.009 942.539 261.98 942.932 261.916C941.51 260.979 940.104 261.217 938.84 260.908C937.576 260.598 936.201 260.465 934.878 260.253L934.896 259.974C935.187 259.9 935.487 259.864 935.788 259.867C937.769 260.12 939.747 260.375 941.716 260.691C942.225 260.796 942.71 260.998 943.143 261.286C943.738 261.648 943.685 262.202 943.06 262.475C942.692 262.628 942.29 262.685 941.894 262.639C939.646 262.341 937.397 262.008 935.16 261.616C934.738 261.541 934.34 261.17 934 260.86C933.893 260.762 934 260.42 934.021 260.188L934.232 260.063Z" fill="black"/>
<path d="M573.185 873.634L572.44 873.818C572.476 873.623 572.545 873.434 572.645 873.262C573.412 872.409 574.224 871.597 575.078 870.832C575.529 870.485 576.072 870.279 576.639 870.239C579.379 870.021 582.119 869.824 584.872 869.715C590.765 869.485 596.657 869.286 602.55 869.119C604.944 869.05 607.341 869.099 609.739 869.043C610.239 869.043 610.727 868.786 611.405 868.602C611.533 868.826 611.622 869.07 611.669 869.323C611.998 873.644 612.242 877.971 612.601 882.288C612.815 884.887 613.226 887.469 613.467 890.067C613.621 891.786 613.559 893.525 613.717 895.244C614.046 898.85 614.458 902.452 614.866 906.052C615.001 907.237 615.245 908.41 615.41 909.592C615.446 909.829 615.429 910.251 615.298 910.31C614.254 910.876 614.83 911.591 615.113 912.418C613.796 912.622 612.518 912.912 611.221 913C607.065 913.284 602.902 913.504 598.743 913.722C594.584 913.939 590.418 914.12 586.259 914.337C584.533 914.43 582.814 914.591 581.088 914.683C580.563 914.701 580.054 914.866 579.62 915.161C578.174 916.122 576.909 915.717 576.451 914.018C576.107 912.603 575.904 911.156 575.846 909.701C575.543 905.018 575.381 900.325 575.026 895.646C574.795 892.606 574.308 889.586 573.962 886.553C573.616 883.52 573.26 880.576 573.027 877.579C572.925 876.262 573.112 874.945 573.168 873.608C573.876 873.463 573.856 873.937 573.827 874.401C573.739 875.497 573.708 876.596 573.731 877.694C573.856 879.637 574.09 881.574 574.294 883.51C574.475 885.225 574.667 886.941 574.871 888.657C575.164 891.117 575.579 893.571 575.753 896.037C576.083 900.648 576.241 905.258 576.517 909.852C576.612 911.171 576.785 912.483 577.038 913.781C577.136 914.318 577.43 914.874 578.23 914.868C578.26 914.696 578.278 914.522 578.286 914.347C578.207 912.533 578.115 910.725 578.036 908.904C577.831 904.254 577.667 899.601 577.42 894.951C577.166 890.169 576.837 885.4 576.537 880.616C576.491 879.865 576.445 879.111 576.396 878.36C576.264 876.384 576.119 874.378 576.007 872.386C575.987 872.04 575.846 871.589 576.606 871.25C577.038 878.574 577.594 885.74 577.924 892.912C578.273 900.157 578.645 907.428 579 914.509C579.367 914.323 579.757 914.185 580.16 914.1C581.569 913.939 582.985 913.827 584.401 913.745C586.127 913.649 587.859 913.606 589.585 913.531L600.215 913.047C600.567 913.047 600.923 912.997 601.275 912.971C603.531 912.819 605.787 912.688 608.04 912.513C610.104 912.355 612.163 912.154 614.32 911.96C614.211 911.084 614.082 910.346 614.03 909.605C613.77 906.111 613.529 902.617 613.286 899.123C613.127 896.818 613.009 894.513 612.811 892.227C612.515 888.789 612.13 885.354 611.846 881.913C611.57 878.557 611.382 875.192 611.129 871.833C611.073 871.105 610.911 870.384 610.799 869.577C607.546 869.666 604.443 869.732 601.345 869.837C595.937 870.017 590.531 870.212 585.126 870.423C582.82 870.512 580.515 870.697 578.21 870.69C575.905 870.683 574.439 871.938 573.185 873.634Z" fill="black"/>
<path d="M594.561 881.053C595.094 881.159 595.479 881.271 595.878 881.307C596.35 881.33 596.801 881.511 597.159 881.82C597.517 882.129 597.762 882.549 597.854 883.013C597.994 883.488 597.973 883.996 597.794 884.458C597.615 884.921 597.289 885.311 596.866 885.568C596.236 885.971 595.555 886.287 594.841 886.507C594.007 886.78 593.138 886.938 592.318 887.136C592.206 887.04 592.084 886.988 592.084 886.932C592.061 884.725 591.001 882.763 590.622 880.635C590.454 879.697 590.477 878.811 591.261 878.228C592.167 877.553 593.217 877.194 594.37 877.678C595.358 878.099 595.707 878.959 595.239 879.944C595.065 880.296 594.827 880.619 594.561 881.053ZM592.624 882.18L592.466 881.775C592.815 881.462 593.171 881.156 593.51 880.833C593.844 880.546 594.151 880.228 594.426 879.884C594.939 879.166 594.617 878.383 593.767 878.185C592.246 877.833 590.951 878.952 591.291 880.467C591.712 882.348 592.311 884.185 592.881 886.204C593.75 886.041 594.607 885.821 595.447 885.545C595.974 885.323 596.436 884.968 596.787 884.515C597.61 883.461 597.149 882.259 595.832 882.032C595.175 881.966 594.512 881.972 593.856 882.048C593.448 882.058 593.036 882.13 592.624 882.18Z" fill="black"/>
<path d="M586.166 883.938C584.981 884.172 583.894 884.36 582.82 884.597C581.655 884.867 581.503 885.101 581.483 886.349C581.483 887.057 581.483 887.768 581.421 888.47C581.381 888.875 581.388 889.359 580.808 889.632C580.725 889.474 580.666 889.304 580.634 889.128C580.762 887.152 580.887 885.177 581.055 883.201C581.125 882.409 581.255 881.624 581.444 880.853C581.665 879.934 582.201 879.246 583.193 879.074C584.184 878.903 584.81 879.46 585.28 880.194C585.755 880.938 586.179 881.714 586.548 882.516C586.779 883.013 587.059 883.326 587.866 883.23L587.079 883.935C587.294 884.661 587.569 885.368 587.899 886.049C588.31 886.774 588.228 887.366 587.701 888.048C586.808 886.849 586.812 885.335 586.166 883.938ZM585.837 883.28C585.692 882.187 585.219 881.163 584.48 880.345C583.716 879.423 582.791 879.535 582.28 880.622C581.752 881.704 581.579 882.926 581.786 884.113L585.837 883.28Z" fill="black"/>
<path d="M608.524 883.217C608.461 883.745 608.253 884.244 607.921 884.66C607.589 885.075 607.148 885.388 606.646 885.565C604.341 886.507 601.423 885.091 600.564 882.749C599.704 880.408 601.335 877.48 603.676 876.841C604.145 876.705 604.637 876.665 605.122 876.726C605.607 876.786 606.074 876.946 606.495 877.194C606.643 877.279 606.702 877.523 606.956 877.938C606.129 877.708 605.573 877.447 605.003 877.421C604.436 877.397 603.871 877.51 603.357 877.75C602.803 878.025 602.314 878.413 601.921 878.89C601.576 879.348 601.321 879.868 601.17 880.421C600.95 881.194 600.997 882.019 601.302 882.762C601.607 883.506 602.153 884.125 602.853 884.521C604.783 885.654 606.202 885.364 608.524 883.217Z" fill="black"/>
<path d="M194.072 146.632C192.602 145.54 191.648 144.001 190.623 142.54C188.269 139.191 186.826 135.433 185.88 131.472C184.789 126.859 184.796 122.188 185.292 117.508C185.397 116.499 185.647 115.505 185.825 114.51C186.002 113.515 186.009 112.566 185.508 111.653C185.385 111.443 185.314 111.207 185.3 110.964C185.299 110.668 185.301 110.215 185.476 110.107C185.819 109.925 186.208 109.852 186.594 109.897C186.872 109.967 187.118 110.13 187.291 110.359C188.641 111.909 190.53 112.534 192.346 113.218C195.122 114.29 197.709 115.798 200.009 117.686C203.581 120.551 206.558 124.088 208.769 128.098C210.061 130.444 211.029 132.976 212.084 135.447C212.325 136.009 212.62 136.357 213.205 136.393C216.494 136.621 218.714 138.559 220.665 140.981C222.086 142.746 223.032 144.78 224.102 146.751C224.745 147.93 225.383 149.114 226.017 150.303C226.113 150.557 226.184 150.82 226.23 151.087C225.018 150.562 223.992 150.017 222.899 149.67C221.726 149.338 220.534 149.072 219.33 148.875C218.187 148.653 217.032 148.483 215.802 148.277L216.175 151.991C215.421 152.723 214.765 153.447 214.015 154.063C212.557 155.257 210.993 156.288 209.163 156.857C208.228 157.147 207.304 157.474 206.401 157.849C206.226 157.951 206.02 157.99 205.819 157.958C205.618 157.927 205.434 157.827 205.298 157.675C204.726 157.104 204.145 156.543 203.439 155.852C202.013 158.97 201.025 162.097 201.036 165.523C200.151 165.499 199.72 164.952 199.333 164.484C198.405 163.4 197.542 162.262 196.748 161.076C195.257 158.766 194.071 156.311 193.529 153.585C193.208 151.938 193.245 150.241 193.639 148.61C193.797 147.937 193.913 147.252 194.045 146.571C194.208 146.762 194.508 146.951 194.512 147.147C194.515 147.596 194.448 148.042 194.314 148.47C193.815 150.288 193.804 152.205 194.282 154.028C194.969 156.889 196.346 159.423 198.003 161.816C198.671 162.795 199.352 163.806 200.366 164.593C200.646 161.099 201.665 157.92 203.26 154.738C204.189 155.674 205.015 156.493 205.766 157.257C209.516 156.448 212.954 154.579 215.671 151.871C215.579 150.516 215.042 149.218 215.141 147.722C218.388 147.922 221.6 148.505 224.709 149.461C223.594 147.09 222.355 144.779 221 142.536C219.711 140.49 218.089 138.687 215.777 137.709C214.878 137.332 213.949 137.032 212.998 136.813C212.111 136.61 211.652 136.118 211.341 135.258C208.888 128.601 205.276 122.734 199.668 118.235C197.43 116.44 195.081 114.869 192.342 113.909C190.308 113.196 188.3 112.379 186.757 110.756C186.592 110.583 186.302 110.526 185.927 110.351C185.96 110.757 185.908 111.029 186 111.206C186.771 112.542 186.662 113.943 186.343 115.359C185.851 117.63 185.608 119.948 185.616 122.272C185.595 126.045 185.928 129.754 187.035 133.379C188.27 137.576 190.338 141.48 193.115 144.86C193.537 145.36 193.759 146.037 194.072 146.632Z" fill="#7A7A7A"/>
<path d="M212.107 166.714L211.862 170.442C210.61 169.32 209.604 167.953 208.904 166.425C208.586 165.766 208.36 165.067 208.233 164.346C207.88 162.174 208.786 160.441 210.363 159.038C212.094 157.54 214.126 156.43 216.322 155.783C216.439 155.764 216.554 155.731 216.664 155.685C217.912 154.913 218.881 155.53 219.855 156.272C221.686 157.69 223.753 161.641 223.351 164.374C222.934 163.734 222.476 163.122 221.98 162.541C221.426 161.994 220.798 161.527 220.115 161.154C221.286 165.241 222.321 169.3 221.782 173.744C219.792 172.986 218.179 171.853 216.622 170.679C215.064 169.505 213.636 168.075 212.107 166.714ZM222.437 161.561C222.343 161.217 222.228 160.879 222.094 160.548C221.283 158.792 220.345 157.144 218.553 156.165C218.294 156.007 217.999 155.917 217.695 155.903C217.392 155.889 217.089 155.951 216.816 156.083C215.775 156.557 214.681 156.953 213.722 157.548C212.498 158.269 211.344 159.102 210.273 160.036C209.724 160.534 209.306 161.159 209.054 161.856C208.802 162.553 208.724 163.302 208.827 164.036C209.041 165.863 210.012 167.362 211.159 168.741C211.246 168.722 211.336 168.703 211.426 168.687L211.253 163.944C213.771 168.031 217.14 170.706 221.258 172.778C221.519 168.336 220.421 164.326 218.974 160.277C220.386 160.307 221.279 161.114 222.437 161.561Z" fill="#7A7A7A"/>
<path d="M197.858 126.408C197.423 127.944 195.923 128.975 194.447 128.771C193.031 128.576 191.466 126.864 191.457 125.479C191.444 125.07 191.544 124.665 191.744 124.308C191.944 123.95 192.238 123.655 192.594 123.452C192.934 123.267 193.224 123.004 193.441 122.684C193.886 122.026 194.705 122.024 195.441 122.194C197.148 122.592 198.345 124.707 197.858 126.408ZM195.361 122.789C194.043 122.416 192.5 123.841 192.18 125.016C191.866 126.127 192.951 127.659 194.266 128.04C195.511 128.392 196.871 127.558 197.241 126.205C197.611 124.852 196.633 123.123 195.361 122.789Z" fill="#7A7A7A"/>
<path d="M598.643 212.063C599.752 211.663 600.848 211.247 601.973 210.866C604.777 209.921 607.587 208.976 610.394 208.03C610.709 207.93 610.996 207.813 611.421 207.659C609.884 206.304 608.431 205.078 607.036 203.787C602.77 199.839 598.725 195.674 594.815 191.374C593.533 189.966 592.165 188.63 590.883 187.222C589.258 185.435 587.676 183.611 586.079 181.803C585.994 181.708 585.934 181.592 585.846 181.488C583.826 179.453 583.275 179.314 580.673 180.543C578.376 181.626 576.136 182.821 573.858 183.945C573.228 184.26 573.067 184.682 573.193 185.382C573.32 186.263 573.392 187.151 573.408 188.041C573.593 191.598 573.858 195.151 573.931 198.711C574.079 206.219 574.126 213.726 574.211 221.237C574.211 221.817 574.167 222.396 574.139 223.162C573.486 222.661 573.619 222.119 573.606 221.669C573.562 220.056 573.562 218.443 573.556 216.83C573.556 214.325 573.556 211.82 573.556 209.316C573.515 205.412 573.505 201.506 573.364 197.606C573.241 194.348 572.951 191.1 572.733 187.839C572.642 186.494 572.532 185.149 572.44 183.917C576.059 181.791 579.87 180.012 583.823 178.602C584.044 178.958 584.138 179.305 584.371 179.453C585.817 180.398 586.892 181.68 588.032 182.956C590.237 185.476 592.471 187.971 594.787 190.385C598.689 194.451 602.636 198.476 606.629 202.46C608.157 203.985 609.858 205.337 611.468 206.78C611.9 207.167 612.294 207.602 612.653 207.964C612.171 208.131 611.742 208.295 611.311 208.431C610.681 208.635 610.006 208.799 609.364 209.017C606.437 210.015 603.52 211.036 600.587 212.016C599.975 212.221 599.326 212.583 598.681 212.032L598.643 212.063Z" fill="#7A7A7A"/>
<path d="M610.778 190.949L606.941 193.642L604.66 190.719L602.017 192.669C600.813 191.437 599.922 189.953 599.084 188.258C600.634 188.472 601.289 187.282 602.354 186.664L600.416 183.227C601.891 182.424 602.993 181.122 604.739 180.795L606.292 183.514L610.447 181.239L612.338 184.73C611.128 185.675 609.628 186.05 608.945 187.386C609.543 188.561 610.123 189.679 610.778 190.949ZM601.229 183.545C602.13 184.506 602.253 185.826 603.491 186.503L600.218 189.162C600.848 190.076 601.428 190.898 602.029 191.755L604.947 189.811L606.837 192.574C608.151 192.225 608.39 192.08 610.028 190.646C609.688 190.085 609.329 189.518 608.992 188.939C608.655 188.359 608.308 187.707 607.892 186.957L611.619 184.487L610.069 182.074L606.172 184.44L604.241 181.406L601.229 183.545Z" fill="#7A7A7A"/>
<path d="M598.665 212.038C597.959 211.695 597.275 211.309 596.617 210.882C595.08 209.751 593.596 208.553 592.024 207.331L586.87 209.391C587.115 211.997 586.381 214.634 586.847 217.381L588.193 217.249C587.402 217.983 577.245 222.028 575.355 222.384C574.998 222.395 574.641 222.371 574.29 222.311C574.649 222.012 574.775 221.826 574.92 221.788C578.07 221.054 580.991 219.662 583.993 218.509C584.428 218.342 584.853 218.14 585.301 218.017C585.893 217.854 586.085 217.491 586.088 216.899C586.104 214.779 586.135 212.658 586.205 210.541C586.246 210.264 586.193 209.98 586.055 209.736C585.917 209.492 585.701 209.301 585.442 209.193L592.641 206.402C592.975 206.899 593.155 207.347 593.486 207.63C594.746 208.651 596.047 209.587 597.291 210.607C597.771 211.061 598.219 211.547 598.63 212.063L598.665 212.038Z" fill="#7A7A7A"/>
<path d="M590.354 198.551C587.071 199.436 584.147 200.819 581.035 201.619C580.997 201.528 580.959 201.437 580.918 201.345L582.081 200.643C582.424 197.202 581.819 193.68 582.679 190.026C585.455 192.757 587.704 195.693 590.354 198.551ZM583.319 191.547L583.004 191.623C582.689 194.493 582.805 197.369 582.849 200.381L589.106 198.176L583.319 191.547Z" fill="#7A7A7A"/>
<path d="M292.062 816.236C283.304 820.539 274.509 824.588 266.149 829.76C265.382 828.834 264.292 828.838 263.222 828.674C259.788 828.146 256.378 827.474 252.94 826.986C250.165 826.576 247.362 826.379 244.567 826.105C239.629 825.621 234.686 825.166 229.748 824.666C228.588 824.527 227.465 824.167 226.44 823.605C227.178 823.338 227.547 823.228 227.899 823.076C231.637 821.437 235.424 819.929 239.104 818.158C245.973 814.896 252.803 811.552 259.595 808.126C260.568 807.659 261.66 807.499 262.726 807.667C264.812 807.868 266.907 808.036 268.997 808.13C276.271 808.466 283.55 808.749 290.824 809.081C294.242 809.236 297.656 809.454 301.07 809.671C301.747 809.751 302.42 809.866 303.086 810.015C301.574 811.622 299.84 812.421 298.168 813.294C296.496 814.167 294.828 814.933 293.168 815.753C294.177 820.867 295.217 825.863 296.127 830.887C297.037 835.912 297.767 840.998 298.586 846.133C299.689 846.399 300.074 847.055 300.226 848.182C300.369 849.211 301.201 850.133 301.656 851.137C302.066 851.998 302.533 852.862 302.185 853.944L299.816 849.383L299.406 849.53L300.226 853.953C298.996 852.576 298.734 850.871 298.467 849.215C297.615 849.092 297.451 849.658 297.418 850.1C297.387 850.921 297.417 851.743 297.508 852.559C297.608 853.266 297.659 853.98 297.66 854.694C296.652 853.055 296.066 851.346 296.73 849.403C296.849 849.063 297.095 848.584 296.959 848.375C296.226 847.223 297.062 846.797 297.914 846.256C295.672 836.437 295.324 826.179 292.062 816.236ZM229.248 823.613C229.674 823.787 230.114 823.924 230.563 824.023C232.645 824.261 234.73 824.475 236.817 824.666C242.366 825.166 247.932 825.486 253.46 826.174C257.559 826.674 261.604 827.556 265.653 828.371C265.969 828.433 266.295 828.428 266.609 828.357C266.924 828.287 267.221 828.152 267.48 827.961C274.857 823.617 282.566 819.929 290.271 816.22C293.5 814.667 296.693 813.031 299.894 811.417C300.307 811.154 300.701 810.862 301.074 810.544C299.967 810.404 299.152 810.24 298.336 810.208C291.496 809.913 284.652 809.675 277.816 809.359C272.689 809.118 267.571 808.769 262.444 808.507C261.63 808.421 260.807 808.502 260.026 808.745C258.747 809.236 257.567 809.974 256.337 810.589C250.805 813.335 245.272 816.109 239.727 818.785C236.305 820.441 232.83 821.961 229.248 823.601V823.613ZM299.406 847.26C298.422 847.231 298.422 847.231 297.717 847.842C298.5 848.571 298.881 848.055 299.406 847.248V847.26Z" fill="#7A7A7A"/>
<path d="M245.784 843.088C245.894 842.562 245.946 842.026 245.94 841.49C245.604 838.867 245.211 836.252 244.846 833.633C244.633 832.109 244.436 830.58 244.227 829.051C244.116 828.232 244.317 827.941 245.186 827.908C245.958 827.867 246.732 827.903 247.497 828.015C250.436 828.478 253.362 829.031 256.305 829.465C258.645 829.81 261.009 830.027 263.362 830.285C263.637 830.272 263.912 830.296 264.181 830.355C266.038 831.129 267.591 830.531 269.292 829.642C275.107 826.601 281.013 823.736 286.886 820.802L287.037 820.736C289.119 819.748 289.378 819.818 290.013 822.035C290.832 824.945 291.591 827.879 292.324 830.814C292.448 831.49 292.519 832.175 292.537 832.863L292.148 832.932C291.074 828.986 290 825.039 288.869 820.851C287.505 821.498 286.328 822.039 285.181 822.613C280.288 825.035 275.345 827.367 270.538 829.945C268.564 831.054 266.281 831.485 264.038 831.174C260.436 830.703 256.825 830.248 253.223 829.744C251.21 829.461 249.21 829.06 247.198 828.765C246.505 828.717 245.809 828.717 245.116 828.765C245.526 831.9 245.936 834.912 246.292 837.895C246.437 839.045 246.492 840.204 246.456 841.363C246.424 842.285 246.67 842.822 247.612 843.035C249.223 843.395 250.805 843.908 252.428 844.203C256.968 845.022 261.526 844.858 266.116 844.469C270.514 844.119 274.857 843.262 279.058 841.916C283.222 840.559 287.255 838.875 290.451 835.74C290.907 835.339 291.389 834.97 291.894 834.633C292.132 834.504 292.377 834.39 292.627 834.289C292.442 834.625 292.237 834.949 292.013 835.26C290.171 837.404 287.888 839.124 285.32 840.305C280.12 842.745 274.559 844.328 268.853 844.994C265.077 845.474 261.27 845.672 257.464 845.588C253.602 845.465 249.787 844.709 246.17 843.35C246.029 843.281 245.9 843.193 245.784 843.088V843.088Z" fill="#7A7A7A"/>
<path d="M43.0689 458.269C37.3208 461.093 31.5485 463.751 26.0614 467.145C25.5584 466.537 24.8429 466.54 24.1409 466.432C21.8868 466.085 19.6489 465.644 17.3922 465.324C15.5712 465.055 13.7314 464.926 11.8969 464.746C8.65574 464.428 5.41185 464.13 2.17066 463.802C1.40921 463.711 0.672339 463.474 0 463.105C0.484162 462.93 0.726242 462.858 0.957564 462.758C3.41065 461.682 5.89602 460.692 8.31145 459.53C12.8195 457.389 17.3025 455.194 21.7604 452.946C22.3991 452.64 23.1157 452.534 23.8154 452.645C25.1845 452.776 26.559 452.887 27.9308 452.948C32.7051 453.169 37.4822 453.355 42.2566 453.572C44.4999 453.675 46.7405 453.817 48.9811 453.96C49.4257 454.013 49.8674 454.088 50.3044 454.186C49.3119 455.24 48.1741 455.765 47.0767 456.338C45.9792 456.911 44.8845 457.414 43.7951 457.951C44.4568 461.308 45.14 464.587 45.7372 467.885C46.3343 471.183 46.8131 474.521 47.351 477.891C48.0746 478.066 48.3274 478.496 48.427 479.236C48.5211 479.911 49.0671 480.516 49.3657 481.175C49.6347 481.74 49.9413 482.307 49.7127 483.018L48.158 480.024L47.889 480.121L48.427 483.023C47.62 482.119 47.4479 481 47.273 479.914C46.7136 479.833 46.606 480.204 46.5845 480.495C46.564 481.033 46.5838 481.573 46.6436 482.108C46.7093 482.573 46.7425 483.041 46.7432 483.51C46.0815 482.434 45.6968 481.312 46.1326 480.037C46.2106 479.814 46.372 479.499 46.2832 479.362C45.8017 478.606 46.3504 478.327 46.9099 477.972C45.4386 471.527 45.21 464.794 43.0689 458.269ZM1.8425 463.11C2.1221 463.225 2.41096 463.315 2.70593 463.379C4.07234 463.535 5.44054 463.676 6.81054 463.802C10.4525 464.13 14.1053 464.34 17.7338 464.792C20.4236 465.12 23.0784 465.698 25.7359 466.233C25.9436 466.274 26.1574 466.271 26.3639 466.224C26.5703 466.178 26.765 466.09 26.9355 465.964C31.7772 463.113 36.8367 460.692 41.8935 458.258C44.013 457.239 46.1084 456.165 48.2091 455.106C48.4804 454.933 48.7393 454.742 48.9837 454.533C48.2575 454.441 47.7222 454.334 47.187 454.312C42.6977 454.119 38.2058 453.963 33.7192 453.755C30.3543 453.597 26.9947 453.368 23.6298 453.196C23.0957 453.14 22.5557 453.193 22.0428 453.352C21.2036 453.675 20.4289 454.159 19.622 454.562C15.9908 456.364 12.3596 458.185 8.7203 459.942C6.47432 461.029 4.19338 462.026 1.8425 463.102V463.11ZM47.889 478.631C47.2435 478.612 47.2435 478.612 46.7808 479.012C47.2946 479.491 47.5447 479.152 47.889 478.622V478.631Z" fill="#7A7A7A"/>
<path d="M12.6958 475.892C12.768 475.547 12.8023 475.196 12.7981 474.843C12.5775 473.122 12.3193 471.406 12.0799 469.687C11.94 468.686 11.8109 467.683 11.6737 466.68C11.6011 466.142 11.7329 465.951 12.3031 465.929C12.8099 465.903 13.318 465.926 13.8202 465.999C15.7488 466.303 17.6693 466.666 19.6005 466.951C21.1364 467.177 22.6884 467.32 24.2323 467.489C24.4129 467.481 24.5938 467.496 24.7703 467.535C25.9888 468.044 27.0082 467.651 28.1245 467.067C31.9413 465.071 35.8173 463.191 39.6717 461.265L39.7713 461.222C41.1377 460.574 41.3071 460.62 41.724 462.075C42.262 463.985 42.7596 465.911 43.2411 467.836C43.3221 468.28 43.3689 468.73 43.381 469.181L43.1254 469.227C42.4207 466.637 41.716 464.047 40.9736 461.298C40.0779 461.723 39.3059 462.078 38.5528 462.454C35.3412 464.044 32.0973 465.574 28.9422 467.266C27.6465 467.994 26.1481 468.277 24.6762 468.073C22.3118 467.764 19.9421 467.465 17.5778 467.134C16.2571 466.949 14.9445 466.685 13.6238 466.492C13.1689 466.46 12.7123 466.46 12.2574 466.492C12.5264 468.549 12.7954 470.526 13.0294 472.484C13.1243 473.239 13.1603 474 13.137 474.76C13.1155 475.365 13.2768 475.717 13.8955 475.857C14.9526 476.094 15.9908 476.43 17.056 476.624C20.0363 477.162 23.0273 477.054 26.0399 476.799C28.9264 476.569 31.7768 476.007 34.5342 475.123C37.2671 474.233 39.9138 473.127 42.0119 471.07C42.311 470.807 42.6273 470.564 42.9587 470.343C43.1147 470.259 43.2754 470.183 43.4401 470.117C43.3184 470.338 43.1837 470.551 43.0367 470.755C41.8277 472.162 40.3295 473.291 38.6442 474.066C35.231 475.667 31.5814 476.706 27.8367 477.143C25.3581 477.458 22.8596 477.589 20.3617 477.533C17.827 477.453 15.3227 476.956 12.9487 476.064C12.8568 476.019 12.7717 475.961 12.6958 475.892V475.892Z" fill="#7A7A7A"/>
<path d="M1294.85 148.296L1287.62 147.501C1287.05 147.441 1286.49 147.417 1285.94 147.328C1283.9 146.981 1282.66 147.806 1281.75 149.659C1279.85 153.472 1277.77 157.196 1275.77 160.95C1275.39 161.743 1274.92 162.491 1274.36 163.179C1273.33 164.375 1272.17 164.142 1271.59 162.665C1271.01 161.189 1270.51 159.473 1269.95 157.883C1268.97 155.074 1267.9 152.301 1267 149.468C1266.56 148.075 1265.87 147.537 1264.35 147.226C1260.59 146.467 1256.9 145.313 1253.19 144.303C1252.02 144.043 1250.87 143.691 1249.75 143.251C1248.17 142.534 1247.99 141.62 1249.37 140.556C1251.21 139.145 1253.26 138.015 1255.2 136.724C1256.8 135.648 1258.41 134.579 1259.93 133.389C1261.72 131.984 1262.32 130.114 1261.86 127.83C1261.26 125.081 1260.79 122.313 1260.34 119.546C1260.19 118.589 1260.16 117.618 1260.24 116.653C1260.38 114.86 1261.6 114.149 1263.29 114.896C1264.16 115.326 1264.98 115.836 1265.74 116.42C1268.25 118.171 1270.73 119.952 1273.23 121.71C1275.07 123.007 1276.93 123.007 1278.89 121.889C1282.24 119.976 1285.61 118.117 1288.98 116.235C1289.05 116.199 1289.1 116.109 1289.18 116.097C1290.01 115.948 1290.97 115.464 1291.64 115.739C1292.59 116.145 1292.65 117.263 1292.37 118.285C1291.93 119.911 1291.55 121.554 1291.08 123.174C1290.6 124.794 1290.04 126.216 1289.56 127.747C1288.37 131.512 1289 133.467 1292.06 136.031C1294.7 138.254 1297.37 140.46 1299.96 142.749C1300.82 143.508 1302.13 144.22 1301.67 145.672C1301.24 147.023 1300.02 147.621 1298.68 147.848C1297.33 148.075 1296.08 148.159 1294.85 148.296ZM1261.63 115.924C1261.54 117.198 1261.54 118.476 1261.63 119.749C1262.02 122.451 1262.62 125.129 1263.01 127.83C1263.4 130.532 1262.74 132.965 1260.32 134.596C1257.72 136.348 1255.06 138.021 1252.48 139.791C1251.6 140.388 1250.41 140.687 1249.91 141.984C1250.44 142.212 1250.98 142.412 1251.53 142.582C1255.71 143.712 1259.89 144.871 1264.08 145.917C1265.92 146.377 1267.28 147.25 1267.94 149.091C1269.01 152.032 1270.1 154.967 1271.17 157.907C1271.7 159.378 1272.22 160.866 1272.91 162.797C1273.68 161.691 1274.24 161.033 1274.65 160.286C1276.67 156.539 1278.71 152.797 1280.63 148.995C1281.78 146.718 1283.36 145.487 1286.01 145.971C1286.48 146.063 1286.96 146.129 1287.44 146.168C1290.64 146.407 1293.84 146.676 1297.04 146.862C1297.72 146.945 1298.41 146.818 1299.02 146.497C1299.63 146.177 1300.13 145.678 1300.44 145.068C1299.95 144.596 1299.47 144.1 1298.95 143.64C1295.93 140.992 1292.88 138.38 1289.88 135.696C1288.86 134.887 1288.14 133.768 1287.82 132.509C1287.49 131.25 1287.59 129.92 1288.09 128.721C1288.88 126.444 1289.5 124.113 1290.14 121.793C1290.58 120.221 1291.17 118.661 1290.94 116.713C1290.18 117.089 1289.61 117.34 1289.07 117.639C1285.76 119.468 1282.49 121.339 1279.15 123.138C1277.02 124.298 1274.84 124.334 1272.78 122.929C1270.27 121.202 1267.8 119.409 1265.29 117.681C1264.28 116.97 1263.35 116.025 1261.63 115.924V115.924Z" fill="#7A7A7A"/>
<path d="M478.556 720.72L478.855 719.638H478.134C478.07 719.489 477.977 719.374 477.998 719.284C478.424 717.217 478.803 715.138 479.315 713.096C480.014 710.318 480.751 707.556 481.603 704.82C482.014 703.636 482.567 702.506 483.248 701.454C485.552 697.686 487.891 693.94 490.263 690.216C491.929 687.612 493.672 685.051 495.411 682.498C495.888 681.799 496.493 681.19 497.039 680.537L497.376 680.712C497.253 681.069 497.102 681.415 496.924 681.748C493.404 687.181 489.858 692.602 486.346 698.04C485.413 699.485 484.552 700.972 483.691 702.459C483.458 702.905 483.254 703.367 483.082 703.84L490.476 709.904C490.762 710.757 490.314 711.272 489.692 711.877C486.739 714.681 483.596 717.279 480.286 719.651C479.835 719.979 479.336 720.239 478.556 720.72ZM482.554 705.042C481.778 707.722 481.011 710.39 480.227 713.101L483.674 715.001L489.108 710.224C487.557 708.345 484.39 705.835 482.554 705.042V705.042ZM479.046 717.916L479.498 718.193L483.112 715.547L479.907 714.132C479.588 715.543 479.319 716.727 479.046 717.916V717.916Z" fill="#7A7A7A"/>
<path d="M490.306 708.49C490.681 707.889 491.013 707.254 491.439 706.687C493.668 703.704 496.012 700.806 498.147 697.737C500.38 694.55 502.439 691.243 504.54 687.961C505.243 686.862 505.085 686.683 503.994 685.963C501.863 684.607 499.822 683.18 497.7 681.752C498.254 680.964 498.727 681.369 499.102 681.62C500.436 682.511 501.727 683.461 503.044 684.369C503.649 684.795 504.284 685.153 504.987 685.596L505.903 684.151C505.835 683.977 505.822 683.827 505.746 683.776C503.768 682.417 501.769 681.083 499.779 679.706C498.88 679.076 498.015 678.658 496.873 679.451C496.925 679.167 497.006 678.89 497.116 678.624C497.883 677.175 498.603 675.688 499.477 674.303C500.269 673.054 501.548 672.325 502.929 671.878C505.059 671.192 506.9 671.822 508.426 673.361C510.041 674.985 510.306 676.962 509.705 679.097C509.104 681.232 508 683.095 506.841 684.94C506.415 685.579 505.741 686.176 506.193 687.117C506.257 687.254 506.091 687.544 505.967 687.723C501.595 694.23 497.367 700.848 492.33 706.9C491.797 707.535 491.196 708.119 490.625 708.728L490.306 708.49ZM506.977 683.09C507.497 682.093 507.945 681.296 508.332 680.474C508.562 679.951 508.75 679.411 508.895 678.858C509.547 676.544 508.818 674.439 506.994 673.318C505.047 672.104 502.856 672.385 501.028 674.047C499.817 675.114 498.942 676.51 498.509 678.066C501.595 679.204 503.615 682.102 506.977 683.09Z" fill="#7A7A7A"/>
<path d="M466.44 737.575C470.088 734.724 472.897 731.374 475.467 727.714C475.603 732.235 477.597 735.781 481.007 739.007C479.575 738.82 478.91 738.074 478.279 737.358C477.649 736.642 477.039 735.76 476.357 734.865C475.586 735.824 476.477 737.179 475.262 738.018C474.742 736.667 475.262 735.419 475.288 734.183C475.313 732.947 475.168 731.626 475.1 730.347L474.742 730.258C474.107 731.034 473.506 731.848 472.824 732.581C471.422 734.085 470.003 735.564 468.537 737.013C468.081 737.43 467.557 737.967 466.44 737.575Z" fill="#7A7A7A"/>
</g>
<defs>
<clipPath id="clip0_8_559">
<rect width="1438" height="983" fill="white" transform="translate(0 -0.397949)"/>
</clipPath>
</defs>
</svg>
