<svg width="30" height="31" viewBox="0 0 30 31" fill="none" xmlns="http://www.w3.org/2000/svg">
<path d="M25 19.4766C23.4944 19.4765 21.9978 19.2447 20.5627 18.7893C20.1251 18.6642 19.6252 18.7265 19.3128 19.1018L16.5625 21.8515C12.9998 20.0393 10.1251 17.164 8.31234 13.6013L11.0627 10.8517C11.3751 10.5392 11.4999 10.0394 11.3751 9.60172C10.8749 8.16436 10.625 6.66406 10.625 5.10154C10.625 4.4143 10.0625 3.85156 9.375 3.85156H4.99998C4.31244 3.85156 3.75 4.4143 3.75 5.10154C3.75 16.8514 13.2502 26.3516 25 26.3516C25.6873 26.3516 26.25 25.7888 26.25 25.1016V20.7266C26.25 20.0393 25.6873 19.4766 25 19.4766Z" fill="white"/>
</svg>
