<svg width="20" height="28" viewBox="0 0 20 28" fill="none" xmlns="http://www.w3.org/2000/svg">
<path d="M10 17.2812C12.751 17.2812 14.9805 15.0781 14.9805 12.3594V5.79688C14.9805 3.07812 12.751 0.875 10 0.875C7.24902 0.875 5.01953 3.07812 5.01953 5.79688V12.3594C5.01953 15.0781 7.24902 17.2812 10 17.2812ZM19.668 12.3008C19.668 12.1719 19.5625 12.0664 19.4336 12.0664H17.6758C17.5469 12.0664 17.4414 12.1719 17.4414 12.3008C17.4414 16.4111 14.1104 19.7422 10 19.7422C5.88965 19.7422 2.55859 16.4111 2.55859 12.3008C2.55859 12.1719 2.45312 12.0664 2.32422 12.0664H0.566406C0.4375 12.0664 0.332031 12.1719 0.332031 12.3008C0.332031 17.2432 4.04102 21.3213 8.82812 21.8984V24.8984H4.57129C4.16992 24.8984 3.84766 25.3174 3.84766 25.8359V26.8906C3.84766 27.0195 3.92969 27.125 4.0293 27.125H15.9707C16.0703 27.125 16.1523 27.0195 16.1523 26.8906V25.8359C16.1523 25.3174 15.8301 24.8984 15.4287 24.8984H11.0547V21.9131C15.8975 21.3857 19.668 17.2842 19.668 12.3008Z" fill="#3D3D3D"/>
</svg>
