<svg width="694" height="389" viewBox="0 0 694 389" fill="none" xmlns="http://www.w3.org/2000/svg">
<path opacity="0.3" d="M470.428 388.047C472.805 386.646 475.156 385.199 477.483 383.706C507.119 364.668 532.548 336.617 540.948 302.409C549.348 268.2 537.318 227.9 507.236 209.593C481.07 193.68 447.573 196.656 418.105 204.995C388.636 213.333 360.251 226.515 329.789 229.673C293.713 233.411 255.029 223.16 222.264 238.715C185.897 255.984 169.502 303.171 181.288 341.665C186.687 359.31 197.005 374.857 210.321 387.559L470.428 388.047Z" fill="#EBEBFF"/>
<path opacity="0.6" d="M244.086 387.899L243.974 387.83C241.652 386.353 239.351 384.829 237.14 383.296C204.836 360.943 182.983 330.763 175.599 298.319C166.914 260.152 180.727 219.249 208.44 201.103C230.033 186.941 259.169 185.297 295.036 196.221C304.363 199.063 313.723 202.493 322.774 205.816C341.369 212.635 360.594 219.687 380.379 221.89C392.623 223.249 405.386 222.805 417.728 222.373C440.429 221.58 463.901 220.762 484.545 231.306C518.475 248.653 536.339 297.018 524.365 339.113C519.198 357.286 508.685 371.663 489.213 387.187L489.09 387.282H488.937L244.086 387.899ZM252.123 189.973C235.426 189.973 220.98 193.929 208.925 201.835C181.514 219.81 167.861 260.308 176.464 298.126C183.795 330.356 205.525 360.34 237.646 382.559C239.812 384.058 242.065 385.552 244.346 387L488.783 386.383C508.02 371.03 518.411 356.792 523.514 338.859C535.378 297.149 517.716 249.248 484.152 232.088C463.717 221.638 440.362 222.456 417.773 223.241C405.397 223.674 392.603 224.12 380.292 222.75C360.402 220.539 341.126 213.467 322.483 206.628C313.441 203.311 304.092 199.883 294.79 197.05C279.265 192.33 265.043 189.97 252.123 189.97V189.973Z" fill="#9192FF"/>
<path d="M580.379 368.861C571.642 368.861 564.531 362.219 564.531 354.065C564.531 345.911 571.642 339.27 580.379 339.27C589.117 339.27 596.23 345.911 596.23 354.065C596.23 362.219 589.131 368.861 580.379 368.861ZM580.379 344.769C574.684 344.769 570.05 348.934 570.05 354.057C570.05 359.179 574.684 363.342 580.379 363.342C586.074 363.342 590.708 359.177 590.708 354.057C590.708 348.937 586.088 344.769 580.379 344.769Z" fill="#3335CF"/>
<path d="M574.804 387.188H540.121L534.192 327.011H580.734L574.804 387.188Z" fill="white"/>
<path d="M575.354 387.782H539.594L533.55 326.417H581.398L575.354 387.782ZM540.668 386.596H574.28L580.092 327.603H534.867L540.668 386.596Z" fill="#3335CF"/>
<path d="M568.772 382.187H546.154L542.288 344.461H572.638L568.772 382.187Z" fill="#EBEBFF"/>
<path d="M136.84 147.856H130.419V146.667H136.84C138.287 146.669 139.722 146.41 141.078 145.904L141.491 147.021C140.003 147.576 138.428 147.859 136.84 147.856ZM123.998 147.856H117.578V146.667H123.998V147.856ZM111.157 147.856H104.736V146.667H111.157V147.856ZM98.3016 147.856H91.8445V146.667H98.2653L98.3016 147.856ZM85.4433 147.856H79.0031V146.667H85.4238L85.4433 147.856ZM72.5879 147.856H66.1671V146.667H72.5879V147.856ZM59.7325 147.856H53.3117V146.667H59.7325V147.856ZM46.8742 147.856H40.4535V146.667H46.8742V147.856ZM34.0188 147.856H27.598V146.667H34.0188V147.856ZM21.1633 147.856H14.7426V146.667H21.1633V147.856ZM8.2074 146.831C6.12945 145.959 4.30515 144.576 2.90331 142.811L3.83293 142.074C5.10936 143.683 6.77159 144.943 8.66523 145.737L8.2074 146.831ZM146.974 143.202L146.075 142.432C147.41 140.873 148.328 139.001 148.743 136.991L149.905 137.228C149.443 139.439 148.424 141.497 146.946 143.205L146.974 143.202ZM0.178687 136.728C0.0591596 136.008 -0.00059842 135.279 2.33654e-05 134.548V130.213H1.18646V134.548C1.18593 135.214 1.24008 135.879 1.34838 136.536L0.178687 136.728ZM150.148 130.701H148.961V124.28H150.148V130.701ZM1.18646 123.775H2.33654e-05V117.354H1.18646V123.775ZM150.148 117.837H148.961V111.417H150.148V117.837ZM1.18646 110.934H2.33654e-05V104.513H1.18646V110.934ZM150.148 104.996H148.961V98.5752H150.148V104.996ZM1.18646 98.0783H2.33654e-05V91.6575H1.18646V98.0783ZM150.148 92.1377H148.961V85.7169H150.148V92.1377ZM1.18646 85.2228H2.33654e-05V78.8021H1.18646V85.2228ZM150.148 79.2823H148.961V72.8615H150.148V79.2823ZM1.18646 72.3646H2.33654e-05V65.9439H1.18646V72.3646ZM150.148 66.4268H148.961V60.0061H150.148V66.4268ZM1.18646 59.5092H2.33654e-05V53.0884H1.18646V59.5092ZM150.148 53.5686H148.961V47.1478H150.148V53.5686ZM1.18646 46.6509H2.33654e-05V45.0765C-0.00316998 43.3787 0.320991 41.6963 0.954759 40.1213L2.05466 40.5624C1.47898 41.9976 1.18425 43.5301 1.18646 45.0765V46.6509ZM148.258 40.9979C147.566 39.0622 146.396 37.3334 144.855 35.973L145.639 35.0824C147.327 36.5735 148.611 38.4659 149.374 40.5847L148.258 40.9979ZM5.65027 35.6938L4.89932 34.7754C6.64562 33.3472 8.72636 32.3866 10.946 31.9837L11.1554 33.1506C9.13589 33.511 7.24137 34.3795 5.65027 35.6743V35.6938ZM139.45 33.2511C138.593 33.0643 137.718 32.9707 136.84 32.972H133.161V31.7632H136.829C137.792 31.7623 138.752 31.8662 139.693 32.0731L139.45 33.2511ZM126.745 32.972H120.319V31.7632H126.74L126.745 32.972ZM113.887 32.972H107.466V31.7632H113.887V32.972ZM101.032 32.972H94.611V31.7632H101.032V32.972ZM88.1903 32.972H81.7695V31.7632H88.1903V32.972ZM75.3321 32.972H68.9113V31.7632H75.3321V32.972ZM62.4906 32.972H56.0698V31.7632H62.4906V32.972ZM49.6351 32.972H43.2144V31.7632H49.6351V32.972ZM36.7769 32.972H30.3562V31.7632H36.7769V32.972ZM23.9215 32.972H17.5007V31.7632H23.9215V32.972Z" fill="#9192FF"/>
<path d="M175.705 49.3311H38.0749C30.2519 49.3311 23.9102 55.6728 23.9102 63.4958V163.182C23.9102 171.005 30.2519 177.347 38.0749 177.347H175.705C183.528 177.347 189.87 171.005 189.87 163.182V63.4958C189.87 55.6728 183.528 49.3311 175.705 49.3311Z" fill="#9192FF"/>
<path d="M54.7273 87.3359H38.5303V165.01H54.7273V87.3359Z" fill="white"/>
<path d="M84.8572 101.004H68.6602V165.008H84.8572V101.004Z" fill="white"/>
<path d="M114.987 112.96H98.79V165.01H114.987V112.96Z" fill="white"/>
<path d="M145.117 121.391H128.92V165.007H145.117V121.391Z" fill="white"/>
<path d="M175.247 146.262H159.05V165.007H175.247V146.262Z" fill="white"/>
<path d="M147.063 66.9795H66.7114V73.9446H147.063V66.9795Z" fill="white"/>
<path d="M332.997 25.4399C324.622 29.3203 313.455 35.5624 315.585 46.6563C317.668 57.5436 330.802 55.5895 338.476 52.9765C344.177 51.0562 349.623 48.4512 354.696 45.2186C357.976 43.1165 362.591 39.4818 361.471 34.9761C360.508 31.1069 356.019 29.9763 352.569 30.6854C347.563 31.7127 341.849 34.7612 337.929 37.9743C334.37 40.8916 331.598 45.4335 332.296 50.1961C332.932 54.551 336.528 57.6553 340.528 59.0204C345.511 60.7233 352.273 60.3743 357.278 58.8529C360.324 57.9289 363.141 55.1707 361.147 51.8738C358.788 47.9656 353.889 48.9147 350.497 50.6343C345.913 52.9542 340.489 55.9859 338.214 60.8489C336.492 64.5422 336.765 69.1233 340.112 71.7977C343.393 74.419 348.124 74.4274 352.097 74.1259C355.385 73.8746 360.751 73.1879 361.279 69.0395C361.806 64.8912 356.661 62.9566 353.392 64.1905C348.331 66.1028 345.16 72.3448 343.621 77.1799C341.828 82.8852 341.822 89.0021 343.602 94.7113C343.828 95.4372 344.973 95.1273 344.747 94.3959C342.455 86.9646 343.25 78.7991 347.172 72.0629C349.051 68.8274 352.756 63.7131 357.178 65.1452C359.539 65.9101 361.214 68.7046 359.132 70.8094C357.661 72.289 355.182 72.6491 353.205 72.8613C350.338 73.1656 347.259 73.2884 344.439 72.5654C339.579 71.3147 337.162 66.9179 338.971 62.1191C340.447 58.2108 344.063 55.7486 347.505 53.694C350.776 51.7398 357.3 47.6557 360.12 52.488C363.275 57.8982 353.01 58.4732 350.19 58.6854C346.05 58.9981 341.667 58.8501 338.044 56.5694C334.211 54.1574 332.497 49.9895 333.89 45.6206C335.283 41.2517 338.94 38.2982 342.823 36.1458C345.863 34.4708 349.428 32.5167 352.873 31.8439C355.29 31.3777 358.345 31.7602 359.785 34.0549C361.51 36.8018 359.453 39.8028 357.462 41.676C351.879 46.9271 343.465 50.2435 336.263 52.4601C328.759 54.7687 316.442 55.2517 316.557 44.2248C316.649 34.6718 326.096 29.9512 333.586 26.4812C334.278 26.1602 333.675 25.1384 332.988 25.4567L332.997 25.4399Z" fill="#1B1B43"/>
<path d="M246.866 81.3594C248.787 85.4016 250.534 89.5025 252.237 93.623L254.725 99.8232L257.111 106.062L253.549 105.013L259.529 100.323C261.525 98.7624 263.56 97.2521 265.576 95.7195L268.01 93.8631L269.127 96.6798C269.936 98.7065 270.687 100.758 271.472 102.796C272.256 104.834 272.968 106.9 273.705 108.938C274.411 111.009 275.148 113.067 275.813 115.152C276.477 117.237 277.144 119.339 277.744 121.436L276.028 122.139C274.978 120.21 273.969 118.264 273.001 116.302C272.013 114.348 271.098 112.363 270.151 110.392C269.249 108.402 268.314 106.428 267.438 104.427C266.561 102.425 265.668 100.435 264.825 98.4218L268.384 99.3793C266.385 100.934 264.409 102.52 262.393 104.052L256.33 108.634L253.756 110.588L252.771 107.595L250.677 101.253L248.686 94.8736C247.402 90.6052 246.174 86.3229 245.099 81.9763L246.866 81.3594Z" fill="#FFA121"/>
<path d="M415.922 94.4323C414.858 98.7789 413.621 103.061 412.334 107.33L410.347 113.708L408.253 120.051L407.265 123.044L404.694 121.09L398.644 116.517C396.629 114.984 394.652 113.399 392.653 111.844L396.213 110.886C395.375 112.899 394.468 114.889 393.6 116.891C392.731 118.893 391.788 120.869 390.886 122.857C389.94 124.828 389.024 126.812 388.033 128.767C387.042 130.721 386.059 132.675 385.007 134.604L383.293 133.9C383.892 131.79 384.536 129.695 385.225 127.616C385.889 125.531 386.621 123.474 387.332 121.402C388.044 119.331 388.801 117.287 389.566 115.261C390.331 113.234 391.101 111.171 391.911 109.144L393.027 106.327L395.462 108.184C397.477 109.719 399.512 111.227 401.508 112.787L407.488 117.477L403.926 118.527L406.313 112.288L408.8 106.087C410.5 101.967 412.251 97.866 414.171 93.8237L415.922 94.4323Z" fill="#FFA121"/>
<path d="M467.921 152.342C467.921 155.444 469.153 158.418 471.347 160.611C473.54 162.804 476.514 164.036 479.616 164.036H659.117C660.654 164.039 662.177 163.738 663.598 163.152C665.019 162.565 666.31 161.704 667.398 160.618C668.485 159.532 669.348 158.242 669.937 156.822C670.526 155.401 670.828 153.879 670.828 152.342V46.2603H467.921V152.342Z" fill="white"/>
<path opacity="0.6" d="M448.615 87.1043C449.572 78.4726 457.269 71.0832 465.923 70.4746C474.577 69.866 483.231 76.1025 485.394 84.5165C487.471 83.8732 489.69 83.8483 491.78 84.4448C493.871 85.0413 495.742 86.2334 497.167 87.8756C498.591 89.5178 499.506 91.5391 499.801 93.6929C500.096 95.8466 499.758 98.0397 498.828 100.004C507.454 101.367 513.138 112.056 509.436 119.967C512.377 119.186 515.453 119.055 518.45 119.584C521.447 120.113 524.292 121.289 526.788 123.03C529.284 124.77 531.371 127.034 532.903 129.664C534.434 132.294 535.375 135.225 535.658 138.255C537.994 130.115 546.31 124.118 554.772 124.47C563.233 124.822 571.019 131.491 572.672 139.796C598.388 100.688 665.912 112.006 685.146 155.385L657.23 226.292L491.636 230.063L416.949 145.198L448.615 87.1043Z" fill="#D1D1FF"/>
<path d="M445.499 109.058C451.56 104.532 458.117 100.404 465.467 98.6197C472.818 96.8358 481.115 97.6817 487.069 102.347C493.024 107.011 495.793 115.931 492.189 122.58C497.314 122.122 502.59 124.883 505.134 129.355C507.677 133.828 507.367 139.774 504.341 143.945C506.944 142.641 509.802 141.925 512.712 141.848C515.623 141.77 518.515 142.333 521.184 143.496C523.853 144.659 526.234 146.394 528.158 148.579C530.083 150.763 531.504 153.344 532.321 156.138C539.722 149.93 552.281 151.454 557.982 159.254C570.265 147.557 589.058 141.108 604.647 147.808C613.686 151.697 620.601 159.488 625.283 168.145C629.964 176.802 632.652 186.372 635.302 195.849L494.676 208.571L435.832 189.71L445.499 109.058Z" fill="white"/>
<path d="M592.174 71.4879C587.987 69.7459 583.676 69.5337 580.111 70.5806C578.266 68.2708 575.643 66.7119 572.732 66.1951C569.822 65.6784 566.822 66.2392 564.295 67.7727C561.767 69.3063 559.885 71.7076 558.999 74.5281C558.113 77.3485 558.285 80.395 559.481 83.0982C558.023 84.0822 556.887 85.4751 556.217 87.102C555.547 88.7289 555.372 90.5174 555.715 92.2432C556.058 93.969 556.902 95.5552 558.143 96.8029C559.383 98.0505 560.965 98.9039 562.689 99.2562C562.612 99.7953 562.572 100.339 562.569 100.884C562.568 103.868 563.664 106.748 565.648 108.976C567.632 111.205 570.366 112.627 573.33 112.972C576.293 113.316 579.281 112.56 581.723 110.846C584.165 109.132 585.893 106.58 586.577 103.675C588.182 104.562 590.021 104.933 591.845 104.739C593.669 104.544 595.388 103.792 596.77 102.586C598.152 101.381 599.129 99.7787 599.569 97.9982C600.009 96.2177 599.89 94.345 599.228 92.6344C600.496 91.6196 601.49 90.304 602.12 88.8071C604.708 82.6125 600.253 74.8518 592.174 71.4879Z" fill="#FFF2E0"/>
<path d="M542.349 64.872C540.434 64.0376 538.292 63.8772 536.274 64.417C535.347 63.2443 534.024 62.4511 532.552 62.1868C531.081 61.9226 529.564 62.2054 528.287 62.9821C527.01 63.7588 526.061 64.9758 525.619 66.4037C525.177 67.8316 525.272 69.3719 525.887 70.7344C525.154 71.2304 524.583 71.9317 524.246 72.7504C523.91 73.5691 523.822 74.4689 523.994 75.3372C524.166 76.2055 524.591 77.0037 525.215 77.632C525.838 78.2602 526.633 78.6906 527.5 78.8692C527.29 80.4271 527.687 82.0061 528.609 83.2795C529.53 84.5529 530.907 85.4231 532.452 85.7101C533.998 85.997 535.594 85.6787 536.912 84.821C538.229 83.9634 539.166 82.632 539.529 81.1025C540.337 81.5528 541.265 81.7427 542.185 81.6463C543.104 81.5498 543.972 81.1717 544.669 80.5636C545.366 79.9555 545.858 79.1471 546.079 78.2487C546.299 77.3504 546.236 76.4059 545.9 75.5444C546.538 75.0324 547.039 74.3694 547.357 73.6154C548.658 70.486 546.416 66.5777 542.349 64.872Z" fill="#FFF2E0"/>
<path d="M506.806 61.2429C506.977 61.8423 506.996 62.475 506.86 63.0835C506.725 63.6919 506.439 64.2568 506.03 64.7269C503.853 67.4236 499.997 66.2232 499.029 63.1803C498.649 61.9939 498.47 60.6902 498.867 59.5093C500.26 55.3247 505.843 57.7646 506.806 61.2429Z" fill="#D1D1FF"/>
<path d="M543.206 107.584C543.314 107.965 543.326 108.366 543.24 108.753C543.154 109.139 542.974 109.498 542.715 109.798C541.319 111.509 538.882 110.747 538.267 108.815C537.989 108.067 537.953 107.251 538.164 106.481C539.063 103.818 542.589 105.367 543.206 107.584Z" fill="#D1D1FF"/>
<path d="M627.837 74.3775C627.945 74.7584 627.957 75.1604 627.871 75.547C627.784 75.9335 627.603 76.2924 627.343 76.5912C625.947 78.3025 623.513 77.5404 622.896 75.6058C622.618 74.8587 622.583 74.043 622.795 73.2748C623.691 70.6199 627.229 72.1665 627.837 74.3775Z" fill="#D1D1FF"/>
<path d="M659.12 164.628H479.618C476.362 164.624 473.24 163.328 470.937 161.025C468.635 158.723 467.339 155.601 467.335 152.345V45.6572H671.403V152.342C671.399 155.599 670.104 158.721 667.801 161.024C665.499 163.328 662.377 164.624 659.12 164.628ZM468.516 46.8409V152.342C468.519 155.285 469.689 158.107 471.77 160.188C473.851 162.27 476.672 163.441 479.615 163.444H659.117C662.061 163.441 664.883 162.271 666.964 160.189C669.046 158.108 670.216 155.286 670.219 152.342V46.8409H468.516Z" fill="#9192FF"/>
<path d="M659.12 0.588876H479.618C476.517 0.589616 473.543 1.82191 471.35 4.01482C469.157 6.20773 467.925 9.18175 467.924 12.283V46.2487H670.828V12.283C670.828 10.7461 670.525 9.22433 669.937 7.80462C669.348 6.38491 668.485 5.09514 667.398 4.00906C666.311 2.92298 665.02 2.06189 663.599 1.47503C662.179 0.888163 660.657 0.587041 659.12 0.588876Z" fill="white"/>
<path d="M671.409 46.8407H467.318V12.2832C467.323 9.02682 468.618 5.90513 470.921 3.60255C473.223 1.29997 476.345 0.0044314 479.602 0H659.103C662.359 0.0044314 665.481 1.29997 667.784 3.60255C670.086 5.90513 671.382 9.02682 671.386 12.2832L671.409 46.8407ZM468.516 45.6571H670.222V12.2832C670.218 9.34004 669.048 6.51855 666.966 4.43771C664.885 2.35687 662.063 1.1866 659.12 1.18365H479.618C476.675 1.1866 473.854 2.35696 471.773 4.43788C469.692 6.5188 468.522 9.34029 468.519 12.2832L468.516 45.6571Z" fill="#9192FF"/>
<path d="M495.458 31.9168C500.151 31.9168 503.955 28.1123 503.955 23.4191C503.955 18.7259 500.151 14.9214 495.458 14.9214C490.765 14.9214 486.96 18.7259 486.96 23.4191C486.96 28.1123 490.765 31.9168 495.458 31.9168Z" fill="#D1D1FF"/>
<path d="M619.766 30.9286H525.298C523.306 30.9286 521.396 30.1374 519.988 28.7291C518.579 27.3208 517.788 25.4108 517.788 23.4191C517.788 21.4275 518.579 19.5174 519.988 18.1091C521.396 16.7008 523.306 15.9097 525.298 15.9097H619.766C621.758 15.9097 623.668 16.7008 625.076 18.1091C626.484 19.5174 627.276 21.4275 627.276 23.4191C627.276 25.4108 626.484 27.3208 625.076 28.7291C623.668 30.1374 621.758 30.9286 619.766 30.9286Z" fill="white"/>
<path d="M619.766 31.5233H525.3C523.151 31.5233 521.091 30.6696 519.571 29.15C518.051 27.6305 517.198 25.5695 517.198 23.4206C517.198 21.2716 518.051 19.2106 519.571 17.6911C521.091 16.1715 523.151 15.3179 525.3 15.3179H619.766C621.915 15.3179 623.976 16.1715 625.496 17.6911C627.015 19.2106 627.869 21.2716 627.869 23.4206C627.869 25.5695 627.015 27.6305 625.496 29.15C623.976 30.6696 621.915 31.5233 619.766 31.5233ZM525.3 16.5015C523.466 16.5015 521.706 17.2303 520.409 18.5277C519.112 19.825 518.383 21.5845 518.383 23.4192C518.383 25.2539 519.112 27.0134 520.409 28.3107C521.706 29.608 523.466 30.3368 525.3 30.3368H619.766C621.601 30.3368 623.36 29.608 624.658 28.3107C625.955 27.0134 626.684 25.2539 626.684 23.4192C626.684 21.5845 625.955 19.825 624.658 18.5277C623.36 17.2303 621.601 16.5015 619.766 16.5015H525.3Z" fill="#9192FF"/>
<path d="M613.837 101.741C613.837 101.741 596.808 85.7139 579.779 85.3789L592.135 93.7287L569.093 89.3877L590.466 100.071L565.422 101.746C578.838 104.125 590.694 110.289 600.482 121.45L613.837 101.741Z" fill="#FFA121"/>
<path opacity="0.6" d="M612.368 108.979C612.368 108.979 605.205 96.995 596.224 95.1665L601.808 101.738L590.105 96.7494L600.189 105.683L586.733 104.396C593.564 107.204 599.131 112.313 603.022 120.461L612.368 108.979Z" fill="white"/>
<path d="M675.367 138.814C666.261 122.876 671.933 101.785 663.171 96.3809L645.776 117.913L675.367 138.814Z" fill="#3335CF"/>
<path d="M663.17 96.3753L660.92 96.1352C659.735 96.0071 658.536 96.132 657.403 96.5016C656.27 96.8712 655.228 97.477 654.346 98.2791L639.64 111.648L645.781 117.915L663.17 96.3753Z" fill="#C5C5FF"/>
<path d="M649.625 170.691C632.13 165.144 612.703 175.127 605.571 167.701L622.965 146.164L649.625 170.691Z" fill="#3335CF"/>
<path d="M605.571 167.701L604.862 165.552C604.488 164.42 604.358 163.222 604.481 162.036C604.604 160.851 604.976 159.705 605.574 158.673L615.554 141.482L622.974 146.164L605.571 167.701Z" fill="#C5C5FF"/>
<path d="M693.44 179.848L687.111 162.09L674.747 177.402L693.44 179.848Z" fill="#1B1B43"/>
<path d="M606.559 128.445C619.322 155.739 642.822 177.073 674.753 177.394L687.111 162.09C680.077 130.944 654.274 112.461 624.903 105.73L606.559 128.445Z" fill="#C5C5FF"/>
<path d="M624.903 105.73L618.122 95.7334L595.354 123.929L606.559 128.446L624.903 105.73Z" fill="#3335CF"/>
<path d="M599.921 104.32C600.133 104.056 600.395 103.836 600.693 103.673C600.991 103.51 601.318 103.408 601.655 103.372C601.992 103.336 602.333 103.368 602.659 103.464C602.984 103.561 603.287 103.721 603.55 103.935L626.72 122.659C626.984 122.871 627.204 123.134 627.367 123.431C627.529 123.729 627.632 124.056 627.668 124.393C627.704 124.73 627.673 125.071 627.577 125.396C627.481 125.721 627.322 126.024 627.108 126.288C626.896 126.552 626.633 126.772 626.336 126.935C626.038 127.098 625.711 127.2 625.374 127.236C625.037 127.272 624.695 127.24 624.37 127.144C624.045 127.047 623.742 126.887 623.479 126.673L600.284 107.941C599.756 107.509 599.422 106.885 599.354 106.206C599.286 105.527 599.489 104.849 599.921 104.32Z" fill="#1B1B43"/>
<path d="M673.684 155.462C673.845 149.502 669.143 144.541 663.183 144.38C657.223 144.22 652.262 148.922 652.102 154.881C651.941 160.841 656.643 165.803 662.603 165.963C668.563 166.123 673.524 161.422 673.684 155.462Z" fill="#565656"/>
<path d="M384.686 216.932L343.482 214.419L289.718 228.623C280.423 231.079 271.847 235.713 264.698 242.141C257.55 248.57 252.034 256.607 248.608 265.59L215.017 353.562L281.027 295.07L299.209 387.165L422.532 386.769L422.136 258.912L384.686 216.932Z" fill="#3335CF"/>
<path d="M351.815 264.671C344.347 264.671 337.373 261.765 332.762 256.626L333.644 255.833C338.579 261.333 346.382 264.155 354.506 263.371C363.213 262.533 370.82 257.656 375.381 250.01L376.4 250.618C371.655 258.591 363.707 263.669 354.626 264.551C353.679 264.627 352.741 264.671 351.815 264.671Z" fill="#C5C5FF"/>
<path d="M356.943 248.58C349.046 252.399 339.356 248.628 335.372 240.186L334.032 237.327L320.443 208.454L312.132 190.774L352.303 171.361L369.793 208.523C376.97 223.81 371.242 241.668 356.943 248.58Z" fill="#FFBC96"/>
<path d="M356.125 200.994C352.591 218.213 343.755 230.01 334.032 237.327L320.442 208.453L356.125 200.994Z" fill="#1B1B43"/>
<path d="M360.835 179.448C360.835 200.243 349.11 214.494 334.242 221.842C318.938 229.405 302.959 200.347 295.326 180.931C287.404 160.772 309.212 145.656 327.472 145.656C345.732 145.656 360.835 158.67 360.835 179.448Z" fill="#FFBC96"/>
<path d="M361.661 167.604C359.883 146.259 355.544 126.081 335.771 131.24C328.262 120.766 296.839 120.961 289.132 145.863C284.16 161.929 268.194 169.776 268.194 169.776C287.364 179.856 305.044 176.082 329.658 157.325C337.354 168.581 359.282 169.371 359.282 169.371L361.661 167.604Z" fill="#1B1B43"/>
<path d="M367.801 177.638C368.666 170.898 365.096 164.887 359.827 164.211C354.559 163.536 349.588 168.451 348.723 175.19C347.859 181.93 351.428 187.941 356.697 188.617C361.965 189.293 366.937 184.377 367.801 177.638Z" fill="#FFBC96"/>
<path d="M360.176 171.319C358.9 172.372 358.478 173.798 358.501 175.322C358.514 176.086 358.631 176.844 358.85 177.575C359.062 178.316 359.426 179.004 359.919 179.596L359.567 180.197C358.59 179.876 357.862 179.055 357.412 178.184C356.959 177.3 356.725 176.321 356.731 175.328C356.718 174.312 356.989 173.312 357.513 172.441C357.772 172.004 358.116 171.624 358.525 171.322C358.934 171.02 359.4 170.804 359.894 170.686L360.176 171.319Z" fill="#1B1B43"/>
<path d="M327.043 187.574C328.695 187.464 329.935 185.874 329.812 184.022C329.69 182.17 328.251 180.757 326.599 180.866C324.946 180.976 323.706 182.566 323.829 184.418C323.952 186.27 325.391 187.683 327.043 187.574Z" fill="#1B1B43"/>
<path d="M312.211 193.034C313.611 192.492 314.254 190.78 313.647 189.21C313.039 187.639 311.412 186.806 310.011 187.348C308.61 187.889 307.968 189.602 308.575 191.172C309.182 192.742 310.81 193.576 312.211 193.034Z" fill="#1B1B43"/>
<path d="M334.967 175.515C335.029 176.456 330.034 176.155 327.89 176.607C326.056 176.992 323.267 178.779 322.011 176.998C320.875 175.39 323.725 173.567 327.257 173.332C330.788 173.098 334.903 174.583 334.967 175.515Z" fill="#1B1B43"/>
<path d="M302.783 185.85C303.341 186.62 305.893 183.971 307.358 183.29C308.609 182.709 311.267 182.768 310.831 180.758C310.437 178.946 307.718 178.887 305.63 180.409C303.542 181.93 302.222 185.079 302.783 185.85Z" fill="#1B1B43"/>
<path d="M322.773 207.011C323.918 205.634 325.548 204.744 327.204 204.185C328.851 203.632 330.592 203.408 332.326 203.527L332.455 204.208C330.88 204.956 329.286 205.372 327.751 205.883C326.216 206.394 324.747 206.932 323.192 207.58L322.773 207.011Z" fill="#1B1B43"/>
<path d="M318.279 192.117C318.391 193.466 318.124 194.819 317.509 196.025C317.179 196.644 316.757 197.208 316.258 197.7C315.797 198.172 315.328 198.566 315.219 198.848C315.158 198.996 315.135 199.157 315.152 199.316C315.152 199.445 315.18 199.453 315.172 199.473C315.164 199.492 315.225 199.548 315.259 199.604C315.628 199.92 316.058 200.157 316.523 200.299C317.673 200.669 318.841 200.978 320.024 201.226L320.007 201.921C318.707 202.112 317.384 202.07 316.099 201.798C315.34 201.658 314.631 201.324 314.039 200.83C313.856 200.645 313.704 200.432 313.589 200.199C313.482 199.962 313.42 199.707 313.405 199.448C313.35 198.983 313.427 198.511 313.628 198.088C314.089 197.251 314.667 196.865 315.091 196.466C315.509 196.104 315.884 195.695 316.208 195.246C316.85 194.356 317.252 193.234 317.584 192.042L318.279 192.117Z" fill="#D28572"/>
<path opacity="0.2" d="M350.623 189.12C350.674 184.931 347.32 181.494 343.131 181.443C338.942 181.391 335.505 184.746 335.454 188.934C335.403 193.123 338.757 196.56 342.946 196.611C347.134 196.662 350.571 193.308 350.623 189.12Z" fill="#FE5B52"/>
<path d="M453.382 259.892C447.629 247.794 438.737 237.46 427.634 229.965C416.531 222.47 403.621 218.088 390.25 217.275L384.686 216.932L425.703 310.334L470.601 293.668L453.382 259.892Z" fill="#3335CF"/>
<path d="M310.08 199.018C309.636 192.198 310.823 176.191 306.671 177.969C302.52 179.747 301.482 202.868 301.482 202.868C301.482 202.868 300.89 164.343 296.457 166.11C292.024 167.877 292.01 195.755 282.219 225.399L227.277 341.43C220.67 355.388 228.994 371.834 244.156 374.768C249.548 375.811 255.135 374.946 259.958 372.319C264.782 369.693 268.54 365.469 270.59 360.374C284.827 325.015 310.956 248.709 313.494 233.849C315.571 221.694 315.035 216.438 314.231 213.314C312.902 208.149 310.429 204.336 310.08 199.018Z" fill="#FFBC96"/>
<path d="M282.56 222.833C284.235 218.263 285.352 213.484 286.362 208.71C287.373 203.937 288.219 199.113 289.09 194.297L291.666 179.837C292.121 177.428 292.59 175.018 293.154 172.62C293.433 171.42 293.743 170.225 294.123 169.033C294.315 168.428 294.54 167.834 294.799 167.255C294.937 166.946 295.102 166.649 295.29 166.367C295.522 165.982 295.885 165.693 296.312 165.552H296.267C296.442 165.518 296.619 165.499 296.797 165.496C296.964 165.529 297.127 165.579 297.283 165.647C297.522 165.781 297.733 165.96 297.903 166.174C298.184 166.525 298.413 166.914 298.584 167.33C298.91 168.086 299.174 168.866 299.374 169.664C299.773 171.217 300.093 172.789 300.334 174.373C300.828 177.52 301.172 180.68 301.431 183.843C301.945 190.171 302.219 196.511 302.157 202.865L300.809 202.837C300.957 199.25 301.225 195.688 301.646 192.125C302.068 188.563 302.576 185.004 303.695 181.517C303.986 180.623 304.375 179.764 304.854 178.955C305.125 178.511 305.473 178.12 305.881 177.799C306.121 177.614 306.395 177.479 306.687 177.401C306.98 177.324 307.285 177.307 307.584 177.349C307.725 177.386 307.864 177.43 308 177.481C308.16 177.52 308.308 177.595 308.436 177.698C308.518 177.762 308.597 177.831 308.67 177.905C308.719 177.964 308.762 178.027 308.799 178.095C308.88 178.211 308.95 178.334 309.008 178.463C309.201 178.906 309.355 179.365 309.469 179.834C309.682 180.721 309.848 181.62 309.965 182.525C310.398 186.092 310.584 189.685 310.524 193.278C310.524 195.085 310.398 196.838 310.554 198.582C310.702 200.328 311.006 202.058 311.462 203.75C311.929 205.451 312.482 207.128 313.117 208.775C313.811 210.442 314.361 212.165 314.761 213.925C315.48 217.466 315.655 221.096 315.281 224.69C314.934 228.258 314.281 231.789 313.327 235.245L312.813 235.111C313.694 231.674 314.28 228.168 314.563 224.631C314.862 221.115 314.627 217.574 313.865 214.129C313.451 212.418 312.899 210.743 312.216 209.121C311.557 207.446 310.984 205.739 310.499 204.007C310.016 202.258 309.69 200.47 309.524 198.663C309.351 196.846 309.457 195.034 309.455 193.273C309.493 189.734 309.289 186.197 308.843 182.687C308.727 181.825 308.564 180.971 308.355 180.127C308.257 179.731 308.126 179.343 307.964 178.968C307.929 178.896 307.889 178.826 307.844 178.759C307.799 178.664 307.768 178.659 307.768 178.659C307.768 178.659 307.674 178.614 307.612 178.589C307.551 178.564 307.467 178.533 307.394 178.513C306.87 178.43 306.3 178.893 305.876 179.597C305.455 180.328 305.113 181.102 304.857 181.905C303.816 185.219 303.333 188.762 302.931 192.273C302.529 195.785 302.305 199.35 302.182 202.882L300.834 202.851C300.893 196.553 300.686 190.235 300.203 183.949C299.96 180.805 299.645 177.668 299.17 174.56C298.947 173.015 298.644 171.482 298.263 169.968C298.082 169.231 297.844 168.508 297.551 167.808C297.424 167.489 297.253 167.191 297.043 166.92C296.972 166.823 296.884 166.74 296.783 166.674C296.753 166.674 296.73 166.655 296.705 166.643C296.68 166.632 296.672 166.66 296.644 166.643H296.602C296.458 166.73 296.337 166.851 296.25 166.995C296.098 167.222 295.965 167.461 295.854 167.71C295.61 168.246 295.399 168.796 295.22 169.357C294.849 170.496 294.542 171.671 294.254 172.852C293.696 175.217 293.202 177.612 292.736 180.01L290.075 194.448C289.199 199.266 288.238 204.074 287.152 208.853C286.066 213.632 284.86 218.403 283.079 223.001L282.56 222.833Z" fill="#D28572"/>
<path d="M492.074 358.847C491.87 372.506 485.933 382.054 478.459 387.556L463.318 387.319L459.571 387.26H459.488L441.688 346.739L441.655 346.645L425.706 310.337L470.598 293.665L487.348 334.789C490.793 343.884 492.18 351.898 492.074 358.847Z" fill="#FFBC96"/>
<path d="M479.646 342.496L361.795 355.681L346.46 350.734C343.044 349.629 339.407 349.387 335.875 350.031C332.342 350.675 329.025 352.185 326.218 354.425C312.846 365.105 291.105 384.792 296.739 386.375C306.23 389.044 318.617 384.052 329.739 381.258C335.879 379.713 342.372 380.45 348.01 383.332L355.72 387.282L473.125 387.265L479.646 342.496Z" fill="#FFBC96"/>
<path d="M299.542 384.281C302.721 382.422 305.962 380.652 309.189 378.91C312.417 377.168 315.708 375.496 318.96 373.785C320.606 372.882 322.316 372.103 324.077 371.454C325.869 370.829 327.723 370.402 329.607 370.181C331.485 369.971 333.379 369.949 335.26 370.116C337.126 370.306 338.966 370.7 340.746 371.292L340.564 371.964C338.792 371.599 336.991 371.397 335.182 371.359C333.389 371.299 331.594 371.42 329.825 371.719C328.064 372.009 326.336 372.468 324.663 373.089C322.988 373.678 321.425 374.519 319.761 375.353C316.462 376.984 313.193 378.67 309.868 380.25C306.543 381.83 303.229 383.418 299.854 384.901L299.542 384.281Z" fill="#D28572"/>
<path d="M301.261 378.394C303.402 376.367 305.641 374.463 307.925 372.612C310.208 370.762 312.551 368.983 314.951 367.269C317.353 365.548 319.845 363.956 322.416 362.501C325.026 361.13 327.684 359.634 330.791 359.344L330.85 360.036C329.48 360.394 328.166 360.934 326.941 361.644C325.66 362.286 324.429 363.068 323.206 363.836C320.755 365.385 318.363 367.054 315.97 368.715C313.578 370.376 311.225 372.115 308.835 373.804C306.445 375.493 304.089 377.244 301.702 378.93L301.261 378.394Z" fill="#D28572"/>
<path d="M457.319 345.329L441.509 345.718L441.553 347.495L457.362 347.106L457.319 345.329Z" fill="#D28572"/>
<path d="M414.754 286.731L413.689 287.253L425.166 310.628L426.231 310.105L414.754 286.731Z" fill="#EBEBFF"/>
<path opacity="0.2" d="M492.074 358.847C491.87 372.506 485.933 382.054 478.459 387.556L463.318 387.319C463.313 387.299 463.313 387.279 463.318 387.26C462.354 383.824 462.2 380.211 462.866 376.705C463.532 373.199 465.002 369.895 467.159 367.052C469.316 364.209 472.103 361.904 475.3 360.319C478.497 358.733 482.018 357.909 485.586 357.912C487.783 357.907 489.968 358.222 492.074 358.847Z" fill="#FE5B52"/>
<path d="M304.349 372.958H236.761V387.187H304.349V372.958Z" fill="#1B1B43"/>
<path d="M259.686 387.187H152.373L121.542 279.875H228.855L259.686 387.187Z" fill="#EBEBFF"/>
<path d="M151.943 387.31L120.95 279.431H154.151V280.321H122.131L152.8 387.065L151.943 387.31Z" fill="#1B1B43"/>
<path d="M248.19 347.957L228.52 280.321H179.052V279.431H229.187L249.044 347.708L248.19 347.957Z" fill="#1B1B43"/>
<path d="M261.116 20.7386C262.517 16.0305 259.836 11.0783 255.128 9.67739C250.42 8.27653 245.468 10.9576 244.067 15.6657C242.666 20.3738 245.347 25.3261 250.055 26.7269C254.763 28.1278 259.715 25.4467 261.116 20.7386Z" fill="#EBEBFF"/>
<path d="M75.186 233.058C76.6402 226.897 72.8244 220.724 66.6632 219.269C60.5019 217.815 54.3284 221.631 52.8742 227.792C51.4201 233.954 55.2359 240.127 61.3971 241.581C67.5583 243.035 73.7319 239.22 75.186 233.058Z" fill="#EBEBFF"/>
<path d="M625.498 261.863C630.41 261.863 634.392 257.881 634.392 252.969C634.392 248.057 630.41 244.075 625.498 244.075C620.586 244.075 616.604 248.057 616.604 252.969C616.604 257.881 620.586 261.863 625.498 261.863Z" fill="#EBEBFF"/>
<path d="M614.39 258.792L614.367 257.606C615.793 257.578 617.205 257.329 618.555 256.869L618.94 257.985C617.474 258.487 615.939 258.759 614.39 258.792ZM609.806 258.172C608.314 257.728 606.902 257.054 605.618 256.173L606.291 255.196C607.469 256.005 608.766 256.626 610.135 257.036L609.806 258.172ZM623.041 255.83L622.332 254.881C623.477 254.026 624.484 253 625.316 251.838L626.279 252.528C625.377 253.786 624.284 254.896 623.041 255.819V255.83ZM602.263 252.997C601.313 251.771 600.56 250.406 600.029 248.949L601.146 248.541C601.637 249.884 602.333 251.142 603.209 252.271L602.263 252.997ZM628.359 248.393L627.242 248.03C627.678 246.67 627.899 245.249 627.898 243.821C627.898 243.455 627.884 243.092 627.856 242.737L629.037 242.642C629.068 243.033 629.085 243.427 629.085 243.821C629.081 245.373 628.836 246.916 628.359 248.393ZM599.133 244.41C599.133 244.217 599.133 244.019 599.133 243.823C599.133 242.468 599.316 241.118 599.678 239.812L600.819 240.127C600.486 241.33 600.318 242.572 600.32 243.821C600.32 243.999 600.32 244.181 600.32 244.362L599.133 244.41ZM626.857 238.589C626.313 237.273 625.569 236.049 624.652 234.96L625.559 234.198C626.558 235.384 627.367 236.718 627.954 238.154L626.857 238.589ZM602.57 236.25L601.582 235.599C602.434 234.303 603.482 233.146 604.689 232.171L605.434 233.092C604.321 233.99 603.354 235.055 602.567 236.25H602.57ZM621.438 232.146C620.231 231.387 618.913 230.821 617.53 230.471L617.823 229.324C619.328 229.707 620.762 230.325 622.075 231.155L621.438 232.146ZM609.122 230.957L608.692 229.84C610.14 229.279 611.667 228.947 613.217 228.857L613.284 230.044C611.861 230.129 610.46 230.437 609.133 230.957H609.122Z" fill="#9192FF"/>
<path d="M415.02 44.2725C413.73 44.2736 412.469 43.892 411.395 43.1761C410.322 42.4603 409.486 41.4422 408.991 40.2507C408.497 39.0592 408.367 37.7478 408.618 36.4824C408.869 35.217 409.489 34.0546 410.401 33.142C411.313 32.2294 412.475 31.6078 413.74 31.3557C415.005 31.1036 416.317 31.2324 417.509 31.7258C418.701 32.2193 419.719 33.0551 420.436 34.1276C421.153 35.2002 421.536 36.4612 421.536 37.7512C421.533 39.4791 420.846 41.1357 419.625 42.358C418.404 43.5803 416.748 44.2688 415.02 44.2725ZM415.02 32.4136C413.964 32.4136 412.932 32.7267 412.055 33.3132C411.177 33.8997 410.493 34.7333 410.089 35.7086C409.685 36.6839 409.579 37.7571 409.785 38.7925C409.991 39.8279 410.499 40.779 411.246 41.5255C411.992 42.2719 412.943 42.7803 413.979 42.9862C415.014 43.1922 416.087 43.0865 417.063 42.6825C418.038 42.2785 418.872 41.5944 419.458 40.7166C420.045 39.8389 420.358 38.8069 420.358 37.7512C420.356 36.3361 419.793 34.9793 418.793 33.9786C417.792 32.9779 416.435 32.4151 415.02 32.4136Z" fill="#9192FF"/>
<path d="M641.898 386.269H57.7056V388.05H641.898V386.269Z" fill="#1B1B43"/>
</svg>
