<svg width="786" height="693" viewBox="0 0 786 693" fill="none" xmlns="http://www.w3.org/2000/svg">
<path d="M90.7599 319.858C94.0388 311.139 93.8067 301.984 90.8469 293.816C82.7802 295.716 75.497 301.128 71.8118 310.036C70.2884 313.721 69.534 317.682 69.505 321.686C66.6178 314.113 64.0353 306.409 61.7719 298.574C68.8376 296.253 74.9311 291.001 78.921 283.674C83.3751 275.448 84.4197 266.279 82.6206 257.675C74.3653 258.429 66.4001 262.797 61.5108 271.153C59.4796 274.621 58.2029 278.466 57.608 282.456C56.4183 277.203 55.3592 271.922 54.4597 266.598C57.9562 259.677 59.6247 251.494 58.8557 242.789C57.9272 232.503 53.8068 223.348 47.6262 216.602C41.3875 223.246 37.7024 233.504 38.7035 244.574C39.5305 253.932 43.5203 262.042 49.1351 267.497C49.4978 269.587 49.875 271.676 50.2667 273.75C48.1195 270.268 45.4934 267.048 42.3886 264.262C34.9458 257.588 26.1827 254.73 17.9999 256.34C18.7978 267.294 23.6727 277.885 31.5798 284.429C38.6454 290.305 46.7121 291.915 53.9519 290.348C55.9831 298.415 58.3479 306.351 61.032 314.186C58.4205 311.066 55.3882 308.281 51.9352 306.003C43.6509 300.519 34.5831 298.981 26.705 301.723C29.0118 312.328 35.2795 322.02 44.0136 327.33C51.8191 332.089 60.0164 332.539 66.966 329.971C70.0853 337.617 73.5093 345.103 77.2525 352.444C74.2347 349.731 70.8543 347.41 67.1256 345.654C58.1884 341.418 48.99 341.2 41.5761 345.002C45.3193 355.114 52.8492 363.79 62.2072 367.794C70.5786 371.407 78.7614 370.696 85.2757 367.2C89.4106 374.309 93.8502 381.258 98.5509 388.005C95.1995 385.741 91.5288 383.913 87.5825 382.695C78.152 379.749 69.0117 380.823 62.1927 385.611C67.2852 395.07 75.9467 402.629 85.7835 405.299C94.5756 407.707 102.584 405.894 108.562 401.512C113.654 407.997 119.022 414.265 124.652 420.315C120.996 418.531 117.107 417.225 113.03 416.543C103.266 414.932 94.3725 417.239 88.2789 422.941C94.6482 431.632 104.296 437.928 114.438 439.234C123.506 440.424 131.195 437.522 136.505 432.343C142.483 438.088 148.721 443.587 155.207 448.839C151.318 447.562 147.256 446.793 143.106 446.677C133.168 446.401 124.666 449.927 119.429 456.412C127.002 464.174 137.506 469.122 147.793 469.035C157.006 468.977 164.231 465.045 168.772 459.183C179.813 467.119 191.463 474.359 203.694 480.801C205.304 481.657 207.176 481.251 207.858 479.916C208.54 478.581 207.8 476.855 206.218 476.013C197.209 471.254 188.518 466.075 180.147 460.489C184.049 454.163 185.283 446.184 183.571 437.986C181.626 428.788 176.505 421.084 169.628 415.716C163.796 421.621 160.488 430.065 162.142 439.597C162.823 443.558 164.318 447.33 166.451 450.768C159.893 445.821 153.582 440.612 147.503 435.172C152.261 429.455 154.641 421.766 154.147 413.453C153.582 404.124 149.635 395.839 143.629 389.615C137.027 394.65 132.573 402.528 132.82 412.147C132.922 416.137 133.85 420.068 135.446 423.739C129.715 417.979 124.231 411.987 119.022 405.792C124.536 400.801 127.974 393.532 128.671 385.263C129.425 375.977 126.712 367.272 121.648 360.279C114.423 364.341 108.895 371.523 107.793 381.055C107.329 385.016 107.691 389.02 108.75 392.865C103.905 386.394 99.3199 379.735 95.0254 372.887C101.177 368.723 105.602 362.005 107.445 353.91C109.49 344.827 108.01 335.832 103.948 328.201C96.2296 331.219 89.7588 337.573 87.3359 346.859C86.3348 350.718 86.1317 354.722 86.654 358.683C82.7512 351.603 79.1386 344.363 75.8307 336.978C82.5046 333.67 87.8147 327.635 90.7599 319.858Z" fill="url(#paint0_linear_395_16224)"/>
<path d="M666.934 669.277C707.368 645.453 704.34 567.944 688.919 517.421C679.173 485.467 660.459 455.78 658.078 422.47C653.293 355.848 713.598 302.012 726.103 236.391C731.6 207.55 725.614 173.972 702.026 156.449C678.75 139.149 645.527 142.684 619.158 154.804C592.811 166.923 570.492 186.313 545.191 200.478C519.89 214.665 488.736 223.427 462.011 212.13C434.952 200.701 419.598 171.882 410.986 143.818C402.397 115.733 398.169 85.8245 383.482 60.3855C359.294 18.4689 307.713 -4.39069 259.647 1.52434C211.582 7.43936 168.635 39.8386 145.603 82.4223C122.572 124.984 118.544 176.485 130.004 223.493C135.812 247.331 145.403 270.169 150.632 294.162C155.862 318.156 156.329 344.396 144.669 366.01C120.28 411.195 55.926 417.488 22.2135 456.225C-5.60205 488.202 -2.62753 530.676 9.30711 576.305C21.7855 624.013 -18.8597 653.164 84.3202 677.883C187.5 702.602 209 687.467 500.641 687.467C565.97 687.467 626.5 693.102 666.934 669.277Z" fill="#F0F0F0"/>
<path d="M627.039 122.891C648.614 136.388 680.122 127.352 699.31 144.049C709.577 152.98 715.834 168.812 729.382 170.141C741.374 171.314 750.841 159.453 753.855 147.789C760.905 120.492 745.984 92.116 726.984 71.2801C709.116 51.6818 685.815 35.2542 659.394 32.9105C638.104 31.0237 612.242 40.9003 601.923 60.7311C592.48 78.8855 610.79 112.726 627.039 122.891Z" fill="#F0F0F0"/>
<path d="M47.0881 76.4775C29.0831 106.525 28.2706 146.133 45.0279 176.891C50.3235 186.611 57.4762 195.665 67.1388 201.076C76.8015 206.488 89.2642 207.692 98.8689 202.208C113.45 193.895 116.671 174.279 115.51 157.522C114.349 140.779 110.548 123.224 117.004 107.714C121.212 97.6164 129.279 89.7383 136.446 81.4684C143.613 73.1986 150.287 63.536 150.664 52.5966C151.622 24.247 121.531 26.3653 103.381 32.2557C80.24 39.7711 59.6379 55.5273 47.0881 76.4775Z" fill="#F0F0F0"/>
<path d="M557.139 562.243L555.21 560.473C560.534 554.655 569.022 541.322 566.149 517.353C564.872 506.675 561.695 496.142 558.634 485.943C557.27 481.387 555.848 476.686 554.615 472C541.412 422.105 547.187 367.06 570.458 320.996C572.518 316.904 574.753 312.799 576.929 308.838C583.342 297.071 589.972 284.913 592.816 271.783C597.821 248.729 587.926 231.449 576.639 225.153C565.801 219.103 550.494 220.031 534.666 227.692C528.877 230.492 523.248 233.916 517.792 237.224C510.596 241.605 503.153 246.132 495.159 249.338C463.719 261.946 424.43 251.225 403.741 224.413C393.803 211.529 388.188 195.947 382.762 180.887C380.658 175.055 378.482 169.02 376.088 163.245C368.645 145.284 355.036 122.752 332.432 117.355C312.57 112.611 292.447 123.028 279.055 132.603C253.462 150.913 235.414 175.722 228.247 202.447C223.415 220.467 223.212 240.082 223.024 259.045C222.748 287.293 222.458 316.498 206.498 340.031C199.244 350.738 189.262 359.269 179.614 367.524C170.575 375.257 161.232 383.252 154.253 392.943C138.468 414.909 134.594 446.001 143.633 478.253C151.758 507.227 168.312 532.95 184.329 557.818L182.124 559.239C166.005 534.212 149.335 508.329 141.109 478.964C131.852 445.943 135.871 414.024 152.121 391.42C159.273 381.467 168.747 373.371 177.902 365.537C187.42 357.398 197.271 348.968 204.322 338.566C219.832 315.7 220.107 288.163 220.398 259.03C220.586 239.893 220.789 220.118 225.708 201.78C233.034 174.475 251.431 149.157 277.517 130.485C291.344 120.59 312.193 109.854 333.027 114.816C356.719 120.46 370.821 143.731 378.496 162.244C380.905 168.076 383.096 174.141 385.214 180.002C390.567 194.874 396.11 210.253 405.801 222.817C425.794 248.744 463.777 259.103 494.158 246.916C501.949 243.796 509.29 239.328 516.4 235.004C521.898 231.653 527.586 228.2 533.491 225.341C550.103 217.304 566.28 216.404 577.886 222.875C590.001 229.636 600.636 247.989 595.355 272.349C592.424 285.856 585.707 298.188 579.207 310.114C577.059 314.061 574.825 318.152 572.779 322.2C549.798 367.713 544.096 422.076 557.139 471.362C558.358 475.99 559.78 480.691 561.144 485.217C564.248 495.518 567.455 506.167 568.761 517.063C571.735 542.047 562.754 556.091 557.139 562.243Z" fill="#E2E2E2"/>
<path d="M651.811 443.212C650.462 435.145 652.203 427.31 656.12 420.782C662.751 423.785 668.104 429.661 669.773 437.945C670.469 441.384 670.44 444.909 669.802 448.362C673.559 442.327 677.085 436.132 680.349 429.777C674.662 426.6 670.295 421.043 668.104 414.064C665.652 406.23 666.305 398.163 669.308 391.068C676.287 393.099 682.41 398.206 685.195 406.215C686.356 409.538 686.82 413.078 686.646 416.589C688.561 412.28 690.36 407.898 692.029 403.473C690.186 396.93 690.128 389.603 692.261 382.247C694.785 373.557 699.878 366.375 706.334 361.602C710.585 368.363 712.021 377.822 709.294 387.18C707.016 395.087 702.199 401.398 696.454 405.142C695.801 406.883 695.119 408.609 694.423 410.336C696.86 407.695 699.66 405.359 702.794 403.488C710.309 399.004 718.347 398.018 725.122 400.774C722.584 410.074 716.621 418.359 708.699 422.653C701.619 426.513 694.423 426.542 688.445 423.974C685.34 430.56 681.96 437.002 678.333 443.284C681.104 441.035 684.18 439.149 687.546 437.771C695.598 434.449 703.664 434.652 709.976 438.337C706.203 447.071 699.181 454.354 690.766 457.459C683.251 460.245 676.127 459.258 670.571 455.878C666.595 461.928 662.388 467.804 657.934 473.491C660.981 471.663 664.288 470.241 667.785 469.356C676.185 467.223 684.136 468.573 689.881 473.099C684.963 481.166 677.012 487.361 668.278 489.233C660.458 490.93 653.552 488.942 648.518 484.837C643.759 490.263 638.783 495.486 633.589 500.506C636.853 499.127 640.32 498.17 643.919 497.778C652.537 496.835 660.212 499.287 665.275 504.568C659.298 511.851 650.578 516.886 641.67 517.539C633.69 518.134 627.118 515.217 622.707 510.444C617.237 515.159 611.565 519.657 605.703 523.922C609.142 522.994 612.711 522.53 616.338 522.631C625.014 522.878 632.283 526.374 636.563 532.308C629.628 538.707 620.255 542.508 611.318 541.927C603.309 541.42 597.187 537.633 593.487 532.279C587.379 536.211 581.082 539.896 574.612 543.32C578.181 542.87 581.808 542.899 585.391 543.494C593.995 544.931 600.712 549.399 604.122 555.87C596.302 561.267 586.421 563.763 577.586 561.949C569.664 560.353 564.107 555.754 561.191 549.936C550.353 554.912 539.109 559.164 527.503 562.66C525.979 563.124 524.427 562.457 524.079 561.209C523.716 559.947 524.644 558.583 526.139 558.133C534.699 555.565 543.056 552.562 551.18 549.167C548.888 543.059 549.164 535.993 552.022 529.218C555.243 521.63 560.945 515.87 567.764 512.403C571.782 518.453 573.204 526.287 570.186 534.209C568.939 537.502 567.009 540.491 564.601 543.088C571.071 539.94 577.397 536.516 583.534 532.86C580.4 527.143 579.646 520.121 581.474 513.056C583.534 505.119 588.322 498.663 594.532 494.311C599.363 499.751 601.873 507.281 600.045 515.522C599.29 518.946 597.825 522.167 595.823 525.054C601.728 521.064 607.459 516.828 612.986 512.374C609.084 507.151 607.343 500.317 608.141 493.077C609.055 484.953 612.856 477.916 618.398 472.766C623.94 477.481 627.48 484.59 626.828 492.99C626.552 496.472 625.565 499.853 624.013 502.987C629.28 498.242 634.343 493.266 639.189 488.101C634.59 483.473 631.92 476.958 631.688 469.69C631.456 461.536 634.256 454.035 639.029 448.145C645.166 452.047 649.664 458.591 650.186 467.006C650.404 470.488 649.896 473.984 648.779 477.292C653.335 471.866 657.658 466.237 661.749 460.448C656.599 456.472 653.044 450.393 651.811 443.212Z" fill="url(#paint1_linear_395_16224)"/>
<path d="M642.522 603.088H117.329C111.947 603.088 107.594 598.721 107.594 593.352C107.594 587.97 111.961 583.617 117.329 583.617H642.522C647.904 583.617 652.257 587.984 652.257 593.352C652.271 598.721 647.904 603.088 642.522 603.088Z" fill="#758AFF"/>
<path d="M274.035 451.489C263.299 445.178 255.421 434.166 252.926 421.964C250.43 409.763 253.332 396.546 260.717 386.52C266.462 378.729 275.08 372.055 276.154 362.436C277.271 352.469 269.813 343.822 266.375 334.391C262.182 322.901 264.344 309.321 271.903 299.701C277.358 292.737 285.425 287.703 289.081 279.651C291.373 274.587 291.649 268.885 292.287 263.358C292.925 257.83 294.086 252.07 297.728 247.863C301.369 243.655 308.188 241.74 312.613 245.106C321.014 236.445 330.894 225.926 342.022 221.254C353.15 216.582 366.512 215.93 376.93 222.023C385.17 226.854 390.655 235.197 397.88 241.421C404.089 246.775 411.532 250.489 418.235 255.219C424.938 259.948 431.191 266.129 433.237 274.065C436.617 287.123 427.898 300.224 427.492 313.702C427.1 326.789 434.543 338.86 436.197 351.859C437.88 365.048 433.426 378.424 426.403 389.698C419.381 400.985 409.907 410.488 400.52 419.89C396.719 436.879 384.198 448.907 368.224 455.827C352.251 462.748 334.391 463.937 316.995 463.299C302.82 462.791 286.252 458.671 274.035 451.489Z" fill="#6B3C00"/>
<path d="M293.448 417.147C289.835 412.36 289.936 405.671 291.445 399.868C292.954 394.064 295.696 388.595 296.886 382.719C298.496 374.768 297.205 366.542 295.566 358.591C293.912 350.655 291.895 342.69 292.04 334.58C292.185 326.469 294.84 317.997 301.05 312.773C322.798 294.464 358.025 300.833 386.302 303.807C400.593 305.316 410.371 319.099 414.898 332.737C419.425 346.375 417.887 361.565 412.49 374.884C407.092 388.203 398.054 399.795 387.782 409.85C381.659 415.842 370.807 411.039 362.392 412.679C354.151 414.304 347.042 419.324 339.28 422.574C326.904 427.768 312.613 428.275 299.904 423.981C296.175 422.733 293.027 421.065 293.448 417.147Z" fill="#593200"/>
<path d="M449.588 431.278C439.374 418.047 424.604 408.399 408.384 404.336C400.927 402.479 393.208 401.754 385.867 399.461C383.792 398.808 381.746 397.981 379.773 397.009C376.9 385.794 375.479 374.217 375.566 362.653H355.82H352.352H332.606C332.693 374.217 331.271 385.809 328.399 397.009C326.425 397.981 324.38 398.808 322.305 399.461C314.978 401.754 307.245 402.479 299.788 404.336C283.567 408.399 268.812 418.047 258.584 431.278C248.37 444.51 242.755 461.224 242.929 477.952V584.111L434.572 581.311C451.576 581.064 465.214 567.208 465.214 550.204V477.952C465.431 461.238 459.816 444.51 449.588 431.278Z" fill="#FFC582"/>
<path d="M375.087 577.248C378.743 567.658 379.062 557.183 380.382 546.998C382.921 527.47 389.291 508.681 393.817 489.515C398.329 470.35 402.334 449.458 397.386 430.408C369.443 433.759 341.093 433.716 313.165 430.277C302.588 434.717 297.104 448.05 295.145 459.352C293.186 470.64 294.623 482.218 294.84 493.679C295.073 506.215 293.854 518.765 294.449 531.285C295.044 543.806 297.626 556.632 304.706 566.976C309.088 573.374 314.964 578.496 321.347 582.965L372.765 582.21C373.65 580.6 374.434 578.946 375.087 577.248Z" fill="white"/>
<path d="M295.145 469.349C297.104 458.061 302.602 444.713 313.164 440.274C341.093 443.712 369.443 443.77 397.386 440.404C398.59 445.032 399.258 449.777 399.519 454.579C399.925 446.382 399.417 438.242 397.386 430.408C369.443 433.759 341.093 433.716 313.164 430.277C302.588 434.717 297.104 448.05 295.145 459.352C294.071 465.547 294.028 471.83 294.231 478.126C294.362 475.181 294.637 472.25 295.145 469.349Z" fill="#EDEDED"/>
<path d="M294.826 503.662C294.811 503.27 294.797 502.878 294.797 502.486C294.608 511.09 294.129 519.693 294.347 528.282C294.521 520.071 294.985 511.873 294.826 503.662Z" fill="#EDEDED"/>
<path d="M331.503 380.919C346.926 380.774 362.305 376.596 375.696 368.95C375.609 366.846 375.566 364.757 375.58 362.653H355.834H352.367H332.621C332.679 368.761 332.301 374.869 331.503 380.919Z" fill="#94724C"/>
<path d="M313.527 307.159C311.801 303.938 309.697 300.717 306.52 298.889C303.357 297.061 298.859 297.076 296.422 299.803C294.449 302.023 294.303 305.288 294.492 308.262C294.855 314.254 296.175 320.42 299.788 325.222C303.4 330.025 309.726 333.129 315.529 331.591C316.371 323.423 317.415 314.384 313.527 307.159Z" fill="#FFC582"/>
<path d="M313.121 313.528C313.324 313.557 313.542 313.601 313.745 313.63C312.932 311.656 312.12 309.654 310.988 307.855C309.842 306.056 308.348 304.417 306.447 303.445C304.547 302.473 302.211 302.211 300.252 303.067C298.293 303.923 296.843 305.998 297.017 308.131C298.177 306.767 300.267 306.361 302.008 306.723C303.749 307.086 305.257 308.45 305.78 310.147C304.256 310.322 303.139 311.859 302.835 313.368C302.515 314.863 302.922 316.43 303.516 317.851C303.865 318.678 304.285 319.476 304.924 320.115C305.548 320.753 306.404 321.188 307.303 321.174C306.505 322.248 305.141 323.089 303.807 323.162C306.679 324.569 310.437 324.366 313.078 322.567C313.44 319.534 313.382 316.546 313.121 313.528Z" fill="#D6A56D"/>
<path d="M392.033 310.292C393.759 307.071 395.863 303.85 399.04 302.037C402.203 300.209 406.701 300.223 409.138 302.951C411.111 305.171 411.256 308.435 411.068 311.409C410.705 317.401 409.385 323.567 405.772 328.37C402.16 333.172 395.834 336.277 390.03 334.739C389.189 326.556 388.144 317.517 392.033 310.292Z" fill="#FFC582"/>
<path d="M392.425 316.662C392.222 316.691 392.004 316.734 391.801 316.763C392.613 314.79 393.426 312.788 394.557 310.989C395.704 309.19 397.198 307.55 399.099 306.578C400.999 305.606 403.335 305.345 405.294 306.201C407.252 307.057 408.703 309.132 408.529 311.265C407.368 309.901 405.279 309.495 403.538 309.857C401.797 310.22 400.288 311.584 399.766 313.281C401.289 313.455 402.406 314.993 402.711 316.502C403.016 318.011 402.624 319.563 402.029 320.985C401.681 321.812 401.26 322.61 400.622 323.249C399.998 323.887 399.142 324.322 398.243 324.308C399.041 325.381 400.404 326.223 401.739 326.295C398.866 327.703 395.109 327.5 392.468 325.701C392.105 322.668 392.163 319.68 392.425 316.662Z" fill="#D6A56D"/>
<path d="M309.422 325.672C316.248 325.672 321.783 320.137 321.783 313.31C321.783 306.484 316.248 300.949 309.422 300.949C302.595 300.949 297.06 306.484 297.06 313.31C297.06 320.137 302.595 325.672 309.422 325.672Z" fill="#0094C6"/>
<path d="M396.951 325.672C403.778 325.672 409.313 320.137 409.313 313.31C409.313 306.484 403.778 300.949 396.951 300.949C390.124 300.949 384.59 306.484 384.59 313.31C384.59 320.137 390.124 325.672 396.951 325.672Z" fill="#0094C6"/>
<path d="M353.106 374.928C377.313 374.928 396.937 348.536 396.937 315.98C396.937 283.424 377.313 257.032 353.106 257.032C328.9 257.032 309.276 283.424 309.276 315.98C309.276 348.536 328.9 374.928 353.106 374.928Z" fill="#FFC582"/>
<path d="M311.888 293.841C310.524 293.202 312.889 290.837 316.444 289.865C325.889 287.312 336.335 286.238 344.198 292.07C344.503 293.695 342.428 295.625 340.789 295.828C339.149 296.031 337.539 295.364 335.986 294.798C328.384 292.07 319.737 291.954 311.888 293.841Z" fill="#6B3C00"/>
<path d="M393.933 293.841C395.297 293.202 392.932 290.837 389.378 289.865C379.933 287.312 369.486 286.238 361.623 292.07C361.318 293.695 363.393 295.625 365.032 295.828C366.672 296.031 368.282 295.364 369.835 294.798C377.452 292.07 386.084 291.954 393.933 293.841Z" fill="#6B3C00"/>
<path d="M340.76 330.285C340.76 331.982 335.334 333.361 328.66 333.361C321.986 333.361 316.56 331.982 316.56 330.285C316.56 328.587 321.986 327.209 328.66 327.209C335.334 327.209 340.76 328.573 340.76 330.285Z" fill="#FFA866"/>
<path d="M389 330.285C389 331.982 383.574 333.361 376.9 333.361C370.212 333.361 364.8 331.982 364.8 330.285C364.8 328.587 370.226 327.209 376.9 327.209C383.589 327.195 389 328.573 389 330.285Z" fill="#FFA866"/>
<path d="M351.96 303.241C353.121 311.221 351.133 319.621 346.52 326.237C345.547 327.63 344.416 329.095 344.474 330.793C344.546 332.708 346.215 334.289 348.057 334.826C349.9 335.363 351.888 335.073 353.759 334.681" stroke="#D9D9D9" stroke-width="2" stroke-miterlimit="10" stroke-linecap="round" stroke-linejoin="round"/>
<path d="M328.95 325.207C318.185 325.207 309.422 316.444 309.422 305.679C309.422 294.913 318.185 286.15 328.95 286.15C339.715 286.15 348.478 294.913 348.478 305.679C348.478 316.444 339.715 325.207 328.95 325.207ZM328.95 289.328C319.94 289.328 312.599 296.669 312.599 305.679C312.599 314.689 319.94 322.03 328.95 322.03C337.96 322.03 345.301 314.689 345.301 305.679C345.301 296.669 337.974 289.328 328.95 289.328Z" fill="white"/>
<path d="M377.96 325.207C367.194 325.207 358.431 316.444 358.431 305.679C358.431 294.913 367.194 286.15 377.96 286.15C388.725 286.15 397.488 294.913 397.488 305.679C397.488 316.444 388.725 325.207 377.96 325.207ZM377.96 289.328C368.95 289.328 361.609 296.669 361.609 305.679C361.609 314.689 368.95 322.03 377.96 322.03C386.969 322.03 394.311 314.689 394.311 305.679C394.311 296.669 386.984 289.328 377.96 289.328Z" fill="white"/>
<path d="M347.811 306.984L345.968 304.387C348.565 302.544 355.036 300.179 360.941 304.387L359.098 306.969C353.542 303.009 347.869 306.94 347.811 306.984Z" fill="white"/>
<path d="M340.528 343.01C348.783 347.812 359.809 347.406 367.687 341.994" stroke="#D9D9D9" stroke-width="2" stroke-miterlimit="10" stroke-linecap="round" stroke-linejoin="round"/>
<path d="M349.131 352.614C351.743 353.499 354.586 353.731 357.314 353.267" stroke="#D9D9D9" stroke-width="2" stroke-miterlimit="10" stroke-linecap="round" stroke-linejoin="round"/>
<path d="M293.128 319.071C307.927 308.305 319.374 292.999 325.511 275.763C335.899 285.44 350.727 290.649 364.902 290.039C362.102 288.777 360.041 286.267 358.344 283.713C372.04 286.949 383.821 295.262 392.845 306.071C396.516 310.453 399.621 315.342 403.755 319.274C407.905 323.206 413.433 326.194 419.12 325.585C415.58 310.511 412.127 294.914 406.44 280.507C402.957 271.657 398.837 262.647 391.554 256.525C382.501 248.908 369.849 246.978 358.054 247.849C345.46 248.777 333.056 252.578 322.276 259.122C307.608 268.015 296.103 282.001 290.212 298.106C288.906 301.66 287.862 305.404 288.036 309.19C288.21 312.977 290.082 316.807 293.128 319.071Z" fill="#6B3C00"/>
<path d="M309.363 328.733C309.363 330.938 307.579 332.723 305.374 332.723C303.168 332.723 301.384 330.938 301.384 328.733C301.384 326.528 303.168 324.743 305.374 324.743C307.579 324.743 309.363 326.528 309.363 328.733Z" fill="#FFEE3D"/>
<path d="M404.931 328.733C404.931 330.938 403.146 332.723 400.941 332.723C398.735 332.723 396.951 330.938 396.951 328.733C396.951 326.528 398.735 324.743 400.941 324.743C403.146 324.743 404.931 326.528 404.931 328.733Z" fill="#FFEE3D"/>
<path d="M329.878 299.847C328.457 299.847 327.223 301.007 326.512 302.748L329.878 306.114L326.512 309.48C327.223 311.221 328.457 312.382 329.878 312.382C332.084 312.382 333.868 309.582 333.868 306.114C333.868 302.647 332.084 299.847 329.878 299.847Z" fill="#453E18"/>
<path d="M376.509 299.847C375.087 299.847 373.853 301.007 373.143 302.748L376.509 306.114L373.143 309.48C373.853 311.221 375.087 312.382 376.509 312.382C378.714 312.382 380.498 309.582 380.498 306.114C380.498 302.647 378.714 299.847 376.509 299.847Z" fill="#453E18"/>
<path d="M301.79 291.837C300.92 285.439 301.674 278.751 303.72 272.411C305.838 266.099 309.291 260.136 313.905 255.131C318.475 250.082 324.177 246.034 330.488 243.263C336.799 240.492 343.705 239.07 350.611 239.041C357.517 239.056 364.423 240.477 370.734 243.248C377.031 246.02 382.762 250.067 387.318 255.116C391.931 260.107 395.384 266.085 397.502 272.396C399.548 278.736 400.288 285.425 399.418 291.823C397.764 279.041 391.83 267.565 382.936 259.498C374.028 251.446 362.377 246.963 350.611 246.977C338.845 246.948 327.194 251.446 318.286 259.483C309.363 267.579 303.43 279.055 301.79 291.837Z" fill="white"/>
<path d="M408.398 404.351C402.218 402.813 395.863 402.029 389.697 400.521C376.712 460.484 367.528 521.26 362.218 582.37L434.615 581.311C451.619 581.064 465.257 567.208 465.257 550.204V477.952C465.431 461.238 459.816 444.51 449.602 431.278C439.374 418.047 424.619 408.399 408.398 404.351Z" fill="#009FCF"/>
<path d="M319.911 400.158C313.31 401.928 306.462 402.683 299.831 404.337C283.611 408.399 268.856 418.047 258.627 431.279C248.413 444.511 242.799 461.224 242.973 477.953V584.111L347.477 582.588C342.167 521.275 332.954 460.296 319.911 400.158Z" fill="#009FCF"/>
<path opacity="0.18" d="M299.832 404.351C297.583 404.917 295.363 405.599 293.172 406.368C288.123 420.702 283.51 435.138 279.36 449.675C287.253 454.231 294.899 459.904 303.488 463.516C300.383 471.075 297.075 479.447 293.97 487.02C309.784 517.415 323.379 550.553 334.463 582.747L347.477 582.588C341.079 521.71 329.995 461.181 314.326 401.449C309.494 402.421 304.605 403.147 299.832 404.351Z" fill="#009FCF"/>
<path opacity="0.18" d="M415.783 487.006C412.751 479.447 409.501 471.076 406.469 463.502C414.869 459.904 422.341 454.217 430.059 449.661C426.07 435.341 421.63 421.123 416.784 406.992C414.042 405.947 411.242 405.047 408.398 404.337C403.843 403.19 399.185 402.479 394.572 401.565C379.294 461.181 368.471 521.594 362.218 582.356L376.378 582.152C387.172 550.147 400.404 517.227 415.783 487.006Z" fill="#009FCF"/>
<path d="M319.911 400.158C314.558 401.595 309.03 402.363 303.589 403.495C299.106 418.773 295.029 434.166 291.402 449.661C297.902 454.217 304.199 459.89 311.264 463.502C308.711 471.061 305.983 479.432 303.43 487.006C316.458 517.401 327.644 550.539 336.77 582.733L347.492 582.573C342.167 521.275 332.954 460.296 319.911 400.158Z" fill="#00ACE0"/>
<path d="M407.339 404.104C401.492 402.726 395.5 401.942 389.682 400.506C376.697 460.469 367.513 521.245 362.203 582.355L374.115 582.181C383.211 550.161 394.354 517.227 407.295 487.005C404.742 479.446 402.014 471.075 399.461 463.502C406.541 459.904 412.823 454.216 419.323 449.661C415.768 434.383 411.75 419.178 407.339 404.104Z" fill="#00ACE0"/>
<path d="M323.654 400.913C323.03 400.913 322.421 400.666 321.971 400.216C321.855 400.1 321.768 399.984 321.667 399.854C321.594 399.723 321.507 399.578 321.464 399.447C321.405 399.302 321.347 399.143 321.318 398.998C321.289 398.838 321.275 398.679 321.275 398.533C321.275 398.374 321.289 398.214 321.318 398.055C321.347 397.91 321.391 397.75 321.464 397.605C321.507 397.46 321.594 397.315 321.667 397.184C321.768 397.054 321.855 396.923 321.971 396.821C322.523 396.285 323.35 396.023 324.119 396.169C324.278 396.198 324.423 396.256 324.568 396.314C324.728 396.372 324.859 396.444 324.975 396.531C325.12 396.618 325.236 396.72 325.337 396.821C325.453 396.937 325.54 397.054 325.642 397.184C325.729 397.315 325.802 397.46 325.86 397.605C325.903 397.75 325.961 397.91 325.99 398.055C326.019 398.214 326.034 398.374 326.034 398.533C326.034 398.679 326.019 398.838 325.99 398.998C325.961 399.143 325.918 399.302 325.86 399.447C325.802 399.593 325.715 399.738 325.642 399.854C325.54 399.984 325.453 400.115 325.337 400.216C325.221 400.332 325.12 400.42 324.975 400.507C324.844 400.608 324.728 400.666 324.568 400.724C324.423 400.782 324.278 400.84 324.119 400.869C323.973 400.898 323.814 400.913 323.654 400.913Z" fill="#FFEE3D"/>
<path d="M351.336 414.608C350.147 414.565 349.175 413.636 349.059 412.476C348.754 413.593 347.666 414.362 346.491 414.217H346.476C345.301 414.072 344.416 413.085 344.372 411.924C343.995 413.027 342.849 413.709 341.674 413.477C340.499 413.259 339.686 412.186 339.73 411.01C339.251 412.084 338.032 412.664 336.871 412.316C335.696 411.968 335 410.793 335.217 409.618C334.579 410.633 333.259 411.054 332.156 410.503C331.039 409.966 330.531 408.66 330.967 407.514C330.125 408.413 328.732 408.544 327.746 407.789C326.759 407.006 326.541 405.613 327.238 404.583C326.193 405.279 324.786 405.062 324.017 404.061C323.219 403.016 323.408 401.522 324.467 400.709C325.511 399.911 327.006 400.114 327.804 401.159C327.804 401.159 327.804 401.159 327.818 401.159C328.442 402.001 328.457 403.118 327.891 403.945C328.732 403.393 329.849 403.408 330.691 404.046C331.532 404.699 331.808 405.816 331.46 406.759C332.156 406.019 333.288 405.758 334.245 406.237C335.246 406.716 335.754 407.775 335.566 408.805C336.117 407.906 337.22 407.456 338.279 407.775C339.338 408.094 340.02 409.11 339.962 410.169C340.412 409.182 341.485 408.602 342.588 408.805C343.719 409.008 344.488 409.98 344.532 411.083C344.895 410.053 345.925 409.371 347.056 409.487C348.188 409.618 349.044 410.517 349.16 411.605C349.45 410.561 350.422 409.792 351.554 409.835C352.686 409.879 353.6 410.706 353.788 411.779C353.977 410.72 354.905 409.893 356.023 409.821C357.154 409.777 358.126 410.517 358.417 411.547C358.518 410.474 359.345 409.56 360.448 409.4C361.565 409.24 362.609 409.879 363.001 410.88C362.987 409.806 363.698 408.82 364.8 408.544C365.888 408.268 366.977 408.776 367.484 409.734C367.354 408.675 367.963 407.615 368.993 407.224C370.038 406.832 371.184 407.195 371.808 408.065C371.547 407.035 372.011 405.918 372.998 405.396C373.984 404.873 375.159 405.105 375.87 405.903C375.493 404.902 375.812 403.742 376.712 403.103C377.611 402.45 378.815 402.537 379.613 403.219C379.106 402.276 379.265 401.101 380.063 400.347C381.021 399.447 382.53 399.476 383.429 400.419C384.358 401.377 384.3 402.886 383.357 403.785C382.486 404.627 381.122 404.656 380.194 403.901C380.76 404.931 380.484 406.266 379.483 406.977C378.496 407.688 377.147 407.514 376.334 406.643C376.77 407.76 376.32 409.023 375.232 409.603C374.158 410.169 372.838 409.835 372.171 408.878C372.461 410.024 371.837 411.228 370.705 411.678C369.559 412.113 368.311 411.62 367.745 410.575C367.891 411.736 367.136 412.867 365.961 413.172C364.786 413.477 363.596 412.838 363.161 411.736C363.161 412.911 362.305 413.941 361.115 414.115C359.911 414.289 358.794 413.549 358.475 412.403C358.373 413.578 357.43 414.521 356.211 414.579C355.007 414.623 353.977 413.781 353.745 412.635C353.556 413.752 352.57 414.594 351.409 414.594C351.394 414.608 351.365 414.608 351.336 414.608Z" fill="#FFEE3D"/>
<path d="M384.865 400.957C384.242 400.957 383.632 400.695 383.182 400.26C382.733 399.81 382.486 399.216 382.486 398.577C382.486 397.953 382.747 397.344 383.182 396.894C384.067 396.009 385.663 396.009 386.548 396.894C386.998 397.344 387.245 397.953 387.245 398.577C387.245 399.201 386.998 399.81 386.548 400.26C386.099 400.71 385.475 400.957 384.865 400.957Z" fill="#FFEE3D"/>
<path d="M338.787 355.951C338.758 355.951 338.729 355.951 338.714 355.951C334.202 355.69 329.53 355.414 324.989 354.355C319.781 353.136 315.515 351.047 312.323 348.117C307.318 343.546 305.2 337.206 304.3 332.694C303.168 327.036 303.255 321.232 303.342 315.632C303.357 314.907 304.01 314.341 304.677 314.341C305.403 314.355 305.983 314.95 305.968 315.676C305.881 321.145 305.809 326.804 306.882 332.186C307.709 336.307 309.625 342.096 314.093 346.187C316.966 348.813 320.825 350.699 325.598 351.816C329.922 352.817 334.478 353.093 338.888 353.354C339.614 353.398 340.165 354.022 340.121 354.732C340.049 355.414 339.469 355.951 338.787 355.951Z" fill="#006385"/>
<path d="M342.617 354.544C342.617 356.502 340.412 358.098 337.684 358.098C334.957 358.098 332.751 356.517 332.751 354.544C332.751 352.585 334.957 350.989 337.684 350.989C340.412 351.004 342.617 352.585 342.617 354.544Z" fill="#006385"/>
<path d="M262.109 429.668C247.282 444.902 237.068 464.155 229.929 484.176C222.791 504.213 218.569 525.134 214.362 545.982C213.158 551.974 211.953 558.213 213.462 564.147C216.567 576.291 229.987 582.935 242.436 584.386C254.884 585.837 267.637 583.748 279.955 586.055C289.124 534.26 285.308 476.879 262.109 429.668Z" fill="#009FCF"/>
<path d="M304.416 558.489C313.556 555.82 322.769 553.121 332.258 552.164C341.732 551.206 351.612 552.048 360.201 556.182C368.79 560.317 375.928 568.05 377.887 577.365C378.511 580.339 372.794 581.137 369.864 581.964C366.947 582.806 363.843 582.631 360.81 582.472C350.712 581.906 340.6 581.34 330.502 580.774C323.291 580.368 315.413 582.153 309.378 578.192C306.345 576.219 304.561 572.737 303.835 569.197C303.11 565.671 304.198 562.102 304.416 558.489Z" fill="#FFC582"/>
<path d="M241.652 542.98C268.043 541.485 294.536 541.442 320.927 542.863C323.335 555.254 326.585 568.805 325.497 581.369C304.329 587.1 282.276 587.245 260.978 582.007C246.455 578.424 241.464 557.952 241.652 542.98Z" fill="#009FCF"/>
<path opacity="0.18" d="M306.331 542.602C297.176 537.8 286.368 534.927 276.081 533.868C277.735 518.779 278.098 503.56 277.14 488.413C280.985 500.6 283.771 513.121 283.611 525.903C292.548 529.167 301.384 534.492 306.331 542.602Z" fill="#009FCF"/>
<path d="M568.006 575.028H266.535V577.524C266.535 580.875 269.248 583.603 272.614 583.603H561.942C565.293 583.603 568.021 580.89 568.021 577.524V575.028H568.006Z" fill="#E0E8FF"/>
<path d="M568.006 575.028H266.535V577.524C266.535 580.875 269.248 583.603 272.614 583.603H561.942C565.293 583.603 568.021 580.89 568.021 577.524V575.028H568.006Z" fill="#D0D8ED"/>
<path d="M371.562 577.524V575.028H266.535V577.524C266.535 580.875 269.248 583.603 272.614 583.603H365.497C368.848 583.603 371.562 580.875 371.562 577.524Z" fill="#D0D8ED"/>
<path d="M568.006 575.028H371.562L415.363 454.681C416.988 450.197 421.949 446.57 426.433 446.57H606.657C611.14 446.57 613.447 450.197 611.822 454.681L568.006 575.028Z" fill="white"/>
<path d="M505.779 510.799C503.24 517.763 495.536 523.421 488.572 523.421C481.608 523.421 478.01 517.778 480.549 510.799C483.088 503.835 490.792 498.177 497.756 498.177C504.72 498.177 508.318 503.835 505.779 510.799Z" fill="#C5CCE0"/>
<path d="M350.51 580.89H343.691C342.835 580.89 342.139 580.194 342.139 579.338C342.139 578.482 342.835 577.785 343.691 577.785H350.51C351.366 577.785 352.062 578.482 352.062 579.338C352.062 580.194 351.366 580.89 350.51 580.89Z" fill="#D0D8ED"/>
<path d="M336.683 580.89H329.864C329.008 580.89 328.312 580.194 328.312 579.338C328.312 578.482 329.008 577.785 329.864 577.785H336.683C337.539 577.785 338.236 578.482 338.236 579.338C338.236 580.194 337.539 580.89 336.683 580.89Z" fill="#D0D8ED"/>
<path d="M322.857 580.89H316.038C315.182 580.89 314.485 580.194 314.485 579.338C314.485 578.482 315.182 577.785 316.038 577.785H322.857C323.713 577.785 324.409 578.482 324.409 579.338C324.409 580.194 323.713 580.89 322.857 580.89Z" fill="#D0D8ED"/>
<path d="M239.419 567.209C227.986 567.209 218.7 557.91 218.7 546.477C218.7 535.044 228 525.759 239.419 525.759C250.837 525.759 260.137 535.059 260.137 546.477C260.151 557.91 250.851 567.209 239.419 567.209ZM239.419 532.244C231.569 532.244 225.171 538.628 225.171 546.491C225.171 554.34 231.555 560.739 239.419 560.739C247.268 560.739 253.666 554.34 253.666 546.491C253.666 538.628 247.282 532.244 239.419 532.244Z" fill="#D6D6D6"/>
<path d="M181.602 565.774C181.602 568.327 181.95 570.793 182.589 573.129C184.301 579.353 190.075 583.604 196.531 583.604H221.979C228.435 583.604 234.195 579.353 235.922 573.129C236.575 570.779 236.908 568.312 236.908 565.774V523.568H181.602V565.774Z" fill="white"/>
<path opacity="0.1" d="M222.066 523.568V565.774C222.066 568.327 221.718 570.793 221.08 573.129C219.368 579.353 213.593 583.604 207.137 583.604H221.965C228.421 583.604 234.181 579.353 235.908 573.129C236.56 570.779 236.894 568.312 236.894 565.774V523.568H222.066Z" fill="black"/>
<path d="M490.748 187.982C490.748 186.735 490.661 185.516 490.531 184.312L495.754 182.049C495.478 180.235 495.057 178.45 494.535 176.738L488.819 176.971C488.006 174.635 486.932 172.429 485.641 170.369L489.384 166.06C488.354 164.551 487.208 163.129 485.975 161.795L480.969 164.464C479.243 162.738 477.299 161.229 475.224 159.909L476.719 154.41C475.152 153.51 473.512 152.712 471.8 152.045L468.434 156.644C466.156 155.846 463.762 155.28 461.296 155.005L460.266 149.419C459.366 149.361 458.452 149.317 457.538 149.317C456.624 149.317 455.71 149.361 454.811 149.419L453.781 155.005C451.3 155.28 448.92 155.846 446.642 156.644L443.277 152.045C441.579 152.727 439.94 153.51 438.358 154.41L439.852 159.909C437.778 161.214 435.834 162.738 434.107 164.464L429.102 161.795C427.868 163.129 426.737 164.551 425.692 166.06L429.435 170.369C428.144 172.429 427.071 174.635 426.258 176.971L420.542 176.738C420.019 178.465 419.613 180.235 419.323 182.049L424.546 184.312C424.415 185.516 424.328 186.735 424.328 187.982C424.328 189.23 424.415 190.449 424.546 191.653L419.323 193.916C419.599 195.73 420.019 197.515 420.542 199.227L426.258 198.994C427.071 201.33 428.144 203.536 429.435 205.596L425.692 209.905C426.722 211.414 427.868 212.835 429.102 214.17L434.107 211.501C435.834 213.227 437.778 214.736 439.852 216.056L438.358 221.555C439.925 222.455 441.565 223.253 443.277 223.92L446.642 219.321C448.92 220.119 451.314 220.685 453.781 220.96L454.811 226.546C455.71 226.604 456.624 226.648 457.538 226.648C458.452 226.648 459.366 226.604 460.266 226.546L461.296 220.96C463.777 220.685 466.156 220.119 468.434 219.321L471.8 223.92C473.498 223.238 475.137 222.455 476.719 221.555L475.224 216.056C477.299 214.751 479.243 213.227 480.969 211.501L485.975 214.17C487.208 212.835 488.34 211.414 489.384 209.905L485.641 205.596C486.932 203.536 488.006 201.33 488.819 198.994L494.535 199.227C495.057 197.5 495.463 195.73 495.754 193.916L490.531 191.653C490.676 190.449 490.748 189.23 490.748 187.982ZM457.553 211.472C444.582 211.472 434.064 200.953 434.064 187.982C434.064 175.012 444.582 164.493 457.553 164.493C470.523 164.493 481.042 175.012 481.042 187.982C481.042 200.953 470.523 211.472 457.553 211.472Z" fill="#8F949F"/>
<path d="M214.493 332.486C214.493 331.442 214.42 330.426 214.318 329.41L218.7 327.524C218.468 326.001 218.12 324.507 217.684 323.07L212.897 323.273C212.215 321.315 211.315 319.472 210.227 317.746L213.361 314.133C212.49 312.871 211.533 311.681 210.503 310.549L206.31 312.798C204.859 311.347 203.234 310.085 201.493 308.983L202.755 304.369C201.435 303.614 200.057 302.947 198.635 302.381L195.806 306.24C193.891 305.573 191.888 305.094 189.814 304.862L188.943 300.176C188.189 300.118 187.42 300.089 186.651 300.089C185.882 300.089 185.113 300.132 184.358 300.176L183.488 304.862C181.413 305.094 179.411 305.573 177.496 306.24L174.667 302.381C173.245 302.947 171.867 303.614 170.546 304.369L171.809 308.983C170.068 310.085 168.443 311.347 166.992 312.798L162.799 310.549C161.769 311.667 160.811 312.871 159.941 314.133L163.075 317.746C161.986 319.472 161.101 321.329 160.405 323.273L155.617 323.07C155.182 324.521 154.834 326.001 154.602 327.524L158.983 329.41C158.867 330.426 158.809 331.442 158.809 332.486C158.809 333.531 158.882 334.546 158.983 335.562L154.602 337.448C154.834 338.972 155.182 340.466 155.617 341.902L160.405 341.699C161.087 343.658 161.986 345.5 163.075 347.227L159.941 350.839C160.811 352.102 161.769 353.291 162.799 354.423L166.992 352.174C168.443 353.625 170.068 354.887 171.809 355.99L170.546 360.604C171.867 361.358 173.245 362.026 174.667 362.591L177.496 358.732C179.411 359.399 181.413 359.878 183.488 360.11L184.358 364.797C185.113 364.855 185.882 364.884 186.651 364.884C187.42 364.884 188.189 364.84 188.943 364.797L189.814 360.11C191.888 359.878 193.891 359.399 195.806 358.732L198.635 362.591C200.057 362.026 201.435 361.358 202.755 360.604L201.493 355.99C203.234 354.887 204.859 353.625 206.31 352.174L210.503 354.423C211.533 353.306 212.49 352.102 213.361 350.839L210.227 347.227C211.315 345.5 212.2 343.643 212.897 341.699L217.684 341.902C218.12 340.451 218.468 338.972 218.7 337.448L214.318 335.562C214.42 334.561 214.493 333.531 214.493 332.486ZM186.651 352.174C175.769 352.174 166.963 343.353 166.963 332.486C166.963 321.619 175.784 312.798 186.651 312.798C197.532 312.798 206.339 321.619 206.339 332.486C206.339 343.353 197.532 352.174 186.651 352.174Z" fill="#8F949F"/>
<path d="M611.807 377.535C611.807 376.781 611.764 376.026 611.677 375.286L614.883 373.908C614.709 372.791 614.462 371.703 614.143 370.644L610.646 370.789C610.139 369.367 609.486 368.003 608.702 366.741L610.995 364.1C610.356 363.186 609.66 362.301 608.905 361.489L605.83 363.128C604.77 362.069 603.581 361.141 602.304 360.343L603.218 356.962C602.261 356.411 601.245 355.917 600.2 355.511L598.14 358.34C596.747 357.847 595.282 357.499 593.759 357.339L593.12 353.915C592.569 353.872 592.003 353.843 591.452 353.843C590.886 353.843 590.335 353.872 589.783 353.915L589.145 357.339C587.621 357.513 586.171 357.862 584.763 358.34L582.703 355.511C581.659 355.932 580.657 356.411 579.685 356.962L580.599 360.343C579.323 361.155 578.133 362.069 577.074 363.128L573.998 361.489C573.244 362.316 572.547 363.186 571.909 364.1L574.201 366.741C573.403 368.003 572.75 369.352 572.257 370.789L568.76 370.644C568.441 371.703 568.195 372.791 568.021 373.908L571.227 375.286C571.14 376.026 571.096 376.781 571.096 377.535C571.096 378.29 571.14 379.044 571.227 379.784L568.021 381.162C568.195 382.279 568.441 383.368 568.76 384.427L572.257 384.282C572.765 385.703 573.418 387.067 574.201 388.329L571.909 390.97C572.547 391.884 573.244 392.769 573.998 393.582L577.074 391.942C578.133 393.001 579.323 393.93 580.599 394.728L579.685 398.108C580.643 398.659 581.659 399.153 582.703 399.559L584.763 396.73C586.156 397.223 587.621 397.571 589.145 397.731L589.783 401.155C590.335 401.198 590.9 401.227 591.452 401.227C592.018 401.227 592.569 401.198 593.12 401.155L593.759 397.731C595.282 397.557 596.733 397.209 598.14 396.73L600.2 399.559C601.245 399.138 602.246 398.659 603.218 398.108L602.304 394.728C603.581 393.915 604.77 393.001 605.83 391.942L608.905 393.582C609.66 392.755 610.356 391.884 610.995 390.97L608.702 388.329C609.5 387.067 610.153 385.718 610.646 384.282L614.143 384.427C614.462 383.368 614.709 382.279 614.883 381.162L611.677 379.784C611.764 379.044 611.807 378.304 611.807 377.535ZM591.452 391.942C583.501 391.942 577.045 385.5 577.045 377.535C577.045 369.584 583.487 363.128 591.452 363.128C599.402 363.128 605.859 369.57 605.859 377.535C605.844 385.5 599.402 391.942 591.452 391.942Z" fill="#8F949F"/>
<path d="M521.318 314.481H470.843C462.66 314.481 456.03 321.112 456.03 329.295V353.422C456.03 361.605 462.66 368.235 470.843 368.235H472.54L469.102 373.081C467.985 374.663 469.639 376.737 471.438 375.968L487.542 369.149C488.978 368.54 490.531 368.221 492.083 368.221H521.318C529.5 368.221 536.131 361.59 536.131 353.408V329.28C536.131 321.126 529.5 314.481 521.318 314.481Z" fill="white"/>
<path d="M525.975 332.487H466.171C464.749 332.487 463.603 331.34 463.603 329.919C463.603 328.497 464.749 327.351 466.171 327.351H525.975C527.397 327.351 528.543 328.497 528.543 329.919C528.543 331.34 527.397 332.487 525.975 332.487Z" fill="#EDEDED"/>
<path d="M525.975 343.934H466.171C464.749 343.934 463.603 342.788 463.603 341.366C463.603 339.944 464.749 338.798 466.171 338.798H525.975C527.397 338.798 528.543 339.944 528.543 341.366C528.543 342.788 527.397 343.934 525.975 343.934Z" fill="#EDEDED"/>
<path d="M499.787 355.381H466.171C464.749 355.381 463.603 354.235 463.603 352.813C463.603 351.391 464.749 350.245 466.171 350.245H499.787C501.209 350.245 502.355 351.391 502.355 352.813C502.369 354.235 501.209 355.381 499.787 355.381Z" fill="#EDEDED"/>
<path d="M601.071 277.311H553.019C536.726 277.311 523.509 264.094 523.509 247.801V199.749C523.509 183.455 536.726 170.238 553.019 170.238H601.071C617.364 170.238 630.581 183.455 630.581 199.749V247.801C630.581 264.094 617.364 277.311 601.071 277.311Z" fill="#758AFF"/>
<path d="M548.444 251.465C534.646 235.811 536.14 211.843 551.795 198.045C567.45 184.248 591.418 185.742 605.215 201.397C606.318 202.644 606.202 204.559 604.954 205.662C603.706 206.765 601.791 206.649 600.689 205.401C589.096 192.242 568.944 190.979 555.799 202.586C542.64 214.179 541.378 234.331 552.985 247.475C564.591 260.62 584.729 261.897 597.874 250.29C606.521 242.659 610.366 230.921 607.914 219.634C607.566 218.009 608.596 216.398 610.221 216.036C611.846 215.687 613.456 216.717 613.819 218.342C616.735 231.763 612.165 245.734 601.864 254.802C586.209 268.629 562.241 267.12 548.444 251.465Z" fill="white"/>
<path d="M589.749 211.143C589.329 210.664 589.053 210.054 589.009 209.373C588.879 207.704 590.127 206.253 591.795 206.123L605.027 205.093L603.997 191.861C603.866 190.192 605.114 188.742 606.782 188.611C608.451 188.48 609.902 189.728 610.032 191.397L611.294 207.646C611.352 208.444 611.091 209.242 610.583 209.851C610.061 210.461 609.321 210.838 608.523 210.896L592.274 212.158C591.258 212.231 590.344 211.825 589.749 211.143Z" fill="white"/>
<path d="M559.612 229.453C559.967 229.17 560.129 229.04 560.098 229.06C561.123 228.213 561.928 227.518 562.514 226.974C563.11 226.431 563.612 225.861 564.019 225.265C564.427 224.669 564.631 224.088 564.631 223.523C564.631 223.095 564.532 222.76 564.333 222.52C564.134 222.279 563.836 222.159 563.439 222.159C563.042 222.159 562.728 222.31 562.498 222.614C562.278 222.907 562.168 223.325 562.168 223.869H559.58C559.601 222.98 559.79 222.237 560.145 221.641C560.511 221.045 560.987 220.606 561.572 220.324C562.168 220.041 562.827 219.9 563.549 219.9C564.793 219.9 565.729 220.219 566.357 220.857C566.994 221.495 567.313 222.326 567.313 223.351C567.313 224.47 566.932 225.51 566.168 226.472C565.405 227.424 564.432 228.355 563.251 229.264H567.486V231.445H559.612V229.453ZM568.73 229.562V227.398L573.686 220.308H576.682V227.241H577.968V229.562H576.682V231.602H574V229.562H568.73ZM574.188 223.257L571.553 227.241H574.188V223.257ZM585.525 216.7L581.321 234.535H578.733L582.937 216.7H585.525ZM593.699 222.159L589.762 231.602H587.017L591.001 222.457H586.123V220.167H593.699V222.159Z" fill="white"/>
<path d="M123.51 258.202C126.202 258.202 128.384 256.019 128.384 253.327C128.384 250.635 126.202 248.452 123.51 248.452C120.817 248.452 118.635 250.635 118.635 253.327C118.635 256.019 120.817 258.202 123.51 258.202Z" fill="#E0E8FF"/>
<path d="M87.6738 377.536C89.3965 377.536 90.7931 376.139 90.7931 374.416C90.7931 372.693 89.3965 371.297 87.6738 371.297C85.951 371.297 84.5544 372.693 84.5544 374.416C84.5544 376.139 85.951 377.536 87.6738 377.536Z" fill="#E0E8FF"/>
<path d="M118.635 515.321C118.635 516.612 117.59 517.657 116.299 517.657C115.008 517.657 113.963 516.612 113.963 515.321C113.963 514.03 115.008 512.985 116.299 512.985C117.59 512.985 118.635 514.03 118.635 515.321Z" fill="#E0E8FF"/>
<path d="M130.017 216.148C130.035 215.082 129.185 214.203 128.12 214.185C127.054 214.167 126.176 215.017 126.158 216.082C126.14 217.148 126.989 218.026 128.055 218.044C129.12 218.062 129.999 217.213 130.017 216.148Z" fill="#E0E8FF"/>
<path d="M250.314 110.056C252.165 110.056 253.665 108.556 253.665 106.705C253.665 104.854 252.165 103.354 250.314 103.354C248.463 103.354 246.962 104.854 246.962 106.705C246.962 108.556 248.463 110.056 250.314 110.056Z" fill="#E0E8FF"/>
<path d="M371.561 107.242C371.561 109.389 369.82 111.13 367.673 111.13C365.525 111.13 363.784 109.389 363.784 107.242C363.784 105.095 365.525 103.354 367.673 103.354C369.82 103.354 371.561 105.095 371.561 107.242Z" fill="#E0E8FF"/>
<path d="M396.138 144.804C396.138 147.256 394.151 149.243 391.699 149.243C389.247 149.243 387.259 147.256 387.259 144.804C387.259 142.352 389.247 140.364 391.699 140.364C394.151 140.364 396.138 142.352 396.138 144.804Z" fill="#E0E8FF"/>
<path d="M513.976 140.365C516.668 140.365 518.851 138.182 518.851 135.49C518.851 132.798 516.668 130.615 513.976 130.615C511.284 130.615 509.101 132.798 509.101 135.49C509.101 138.182 511.284 140.365 513.976 140.365Z" fill="#E0E8FF"/>
<path d="M459.947 115.498C459.947 116.586 459.062 117.456 457.988 117.456C456.9 117.456 456.03 116.571 456.03 115.498C456.03 114.41 456.915 113.539 457.988 113.539C459.062 113.539 459.947 114.41 459.947 115.498Z" fill="#E0E8FF"/>
<path d="M568.006 147.967C568.006 149.708 566.584 151.129 564.843 151.129C563.102 151.129 561.68 149.708 561.68 147.967C561.68 146.226 563.102 144.804 564.843 144.804C566.599 144.804 568.006 146.226 568.006 147.967Z" fill="#E0E8FF"/>
<path d="M652.271 207.133C652.271 209.019 650.733 210.557 648.847 210.557C646.961 210.557 645.423 209.019 645.423 207.133C645.423 205.247 646.961 203.709 648.847 203.709C650.733 203.709 652.271 205.247 652.271 207.133Z" fill="#E0E8FF"/>
<path d="M649.37 292.196C649.37 295.17 646.961 297.579 643.987 297.579C641.013 297.579 638.604 295.17 638.604 292.196C638.604 289.222 641.013 286.813 643.987 286.813C646.961 286.828 649.37 289.236 649.37 292.196Z" fill="#E0E8FF"/>
<path d="M684.146 337.883C685.636 337.883 686.845 336.675 686.845 335.185C686.845 333.695 685.636 332.486 684.146 332.486C682.656 332.486 681.448 333.695 681.448 335.185C681.448 336.675 682.656 337.883 684.146 337.883Z" fill="#E0E8FF"/>
<path d="M634.6 343.222C636.819 343.222 638.619 341.423 638.619 339.203C638.619 336.984 636.819 335.185 634.6 335.185C632.38 335.185 630.581 336.984 630.581 339.203C630.581 341.423 632.38 343.222 634.6 343.222Z" fill="#E0E8FF"/>
<path d="M661.745 505.978C663.764 505.978 665.401 504.341 665.401 502.322C665.401 500.303 663.764 498.666 661.745 498.666C659.726 498.666 658.089 500.303 658.089 502.322C658.089 504.341 659.726 505.978 661.745 505.978Z" fill="#E0E8FF"/>
<path d="M632.046 534.212C634.875 534.212 637.168 531.919 637.168 529.09C637.168 526.262 634.875 523.969 632.046 523.969C629.218 523.969 626.925 526.262 626.925 529.09C626.925 531.919 629.218 534.212 632.046 534.212Z" fill="#E0E8FF"/>
<path d="M163.292 127.714C164.221 134.272 169.386 139.437 175.943 140.365C169.386 141.294 164.221 146.459 163.292 153.017C162.363 146.459 157.198 141.294 150.641 140.365C157.198 139.437 162.363 134.272 163.292 127.714Z" fill="#E0E8FF"/>
<path d="M681.448 254.518C682.173 259.61 686.163 263.6 691.256 264.325C686.163 265.051 682.173 269.041 681.448 274.133C680.722 269.041 676.733 265.051 671.64 264.325C676.733 263.6 680.737 259.61 681.448 254.518Z" fill="#E0E8FF"/>
<path d="M90.8077 475.961C91.5332 481.053 95.523 485.043 100.615 485.769C95.523 486.494 91.5332 490.484 90.8077 495.576C90.0823 490.484 86.0925 486.494 81 485.769C86.078 485.043 90.0823 481.053 90.8077 475.961Z" fill="#E0E8FF"/>
<path d="M686.845 460.03C687.57 465.123 691.56 469.113 696.653 469.838C691.56 470.563 687.57 474.553 686.845 479.646C686.119 474.553 682.13 470.563 677.037 469.838C682.13 469.113 686.134 465.123 686.845 460.03Z" fill="#E0E8FF"/>
<path d="M90.8077 281.634C91.3881 285.754 94.6234 288.99 98.7439 289.57C94.6234 290.15 91.3881 293.386 90.8077 297.506C90.2274 293.386 86.992 290.15 82.8716 289.57C86.9775 288.99 90.2129 285.754 90.8077 281.634Z" fill="#E0E8FF"/>
<path d="M417.553 95.4326C418.133 99.553 421.369 102.788 425.489 103.369C421.369 103.949 418.133 107.184 417.553 111.305C416.973 107.184 413.737 103.949 409.617 103.369C413.737 102.774 416.973 99.5385 417.553 95.4326Z" fill="#E0E8FF"/>
<path d="M635.282 130.63C636.21 137.188 641.361 142.338 647.919 143.267C641.361 144.195 636.21 149.346 635.282 155.904C634.353 149.346 629.203 144.195 622.645 143.267C629.203 142.338 634.353 137.188 635.282 130.63Z" fill="#E0E8FF"/>
<path d="M235.356 213.525H158.432C144.736 213.525 133.651 202.426 133.651 188.745V148.382C133.651 134.686 144.75 123.602 158.432 123.602H235.356C249.052 123.602 260.136 134.701 260.136 148.382V188.745C260.151 202.441 249.052 213.525 235.356 213.525Z" fill="#758AFF"/>
<path d="M169.445 157.087C171.976 151.85 169.783 145.552 164.546 143.02C159.308 140.489 153.01 142.682 150.479 147.919C147.947 153.157 150.14 159.455 155.378 161.986C160.615 164.518 166.913 162.325 169.445 157.087Z" fill="white"/>
<path d="M235.036 148.441H181.732C179.948 148.441 178.497 146.99 178.497 145.205C178.497 143.421 179.948 141.97 181.732 141.97H235.036C236.821 141.97 238.272 143.421 238.272 145.205C238.272 146.99 236.821 148.441 235.036 148.441Z" fill="white"/>
<path d="M235.036 163.181H181.732C179.948 163.181 178.497 161.73 178.497 159.945C178.497 158.161 179.948 156.71 181.732 156.71H235.036C236.821 156.71 238.272 158.161 238.272 159.945C238.272 161.73 236.821 163.181 235.036 163.181Z" fill="white"/>
<path d="M169.875 188.048C171.847 182.575 169.009 176.54 163.536 174.568C158.063 172.596 152.027 175.434 150.055 180.907C148.083 186.38 150.921 192.415 156.394 194.387C161.867 196.359 167.902 193.521 169.875 188.048Z" fill="white"/>
<path d="M235.036 180.432H181.732C179.948 180.432 178.497 178.981 178.497 177.196C178.497 175.412 179.948 173.961 181.732 173.961H235.036C236.821 173.961 238.272 175.412 238.272 177.196C238.272 178.981 236.821 180.432 235.036 180.432Z" fill="white"/>
<path d="M235.036 195.158H181.732C179.948 195.158 178.497 193.707 178.497 191.923C178.497 190.138 179.948 188.688 181.732 188.688H235.036C236.821 188.688 238.272 190.138 238.272 191.923C238.272 193.707 236.821 195.158 235.036 195.158Z" fill="white"/>
<path d="M176.718 466.417H139.097C126.345 466.417 116 456.072 116 443.32V405.699C116 392.946 126.345 382.602 139.097 382.602H176.718C189.471 382.602 199.815 392.946 199.815 405.699V443.32C199.83 456.072 189.485 466.417 176.718 466.417Z" fill="#758AFF"/>
<path d="M157.268 407.331C160.278 407.331 162.683 408.119 164.484 409.694C166.313 411.27 167.227 413.492 167.227 416.362C167.227 419.006 166.355 421.074 164.611 422.565C162.894 424.028 160.616 424.774 157.774 424.802L157.563 427.967H151.233L151.022 420.118H153.554C155.72 420.118 157.366 419.85 158.491 419.316C159.645 418.781 160.222 417.811 160.222 416.404C160.222 415.419 159.954 414.646 159.42 414.083C158.885 413.52 158.14 413.239 157.183 413.239C156.17 413.239 155.383 413.534 154.82 414.125C154.257 414.688 153.976 415.461 153.976 416.446H147.182C147.125 414.73 147.477 413.183 148.237 411.804C149.024 410.425 150.178 409.342 151.697 408.555C153.244 407.739 155.101 407.331 157.268 407.331ZM154.482 438.939C153.216 438.939 152.175 438.573 151.36 437.842C150.572 437.082 150.178 436.154 150.178 435.057C150.178 433.931 150.572 432.989 151.36 432.229C152.175 431.47 153.216 431.09 154.482 431.09C155.72 431.09 156.733 431.47 157.521 432.229C158.337 432.989 158.745 433.931 158.745 435.057C158.745 436.154 158.337 437.082 157.521 437.842C156.733 438.573 155.72 438.939 154.482 438.939Z" fill="white"/>
<path d="M385.62 103.657H337.568C321.275 103.657 308.058 90.4399 308.058 74.1469V55.1118C308.058 38.8188 321.275 25.6016 337.568 25.6016H385.62C401.913 25.6016 415.13 38.8188 415.13 55.1118V74.1469C415.13 90.4399 401.927 103.657 385.62 103.657Z" fill="#758AFF"/>
<path d="M391.075 64.6295C391.075 68.953 387.564 72.4641 383.241 72.4641C378.917 72.4641 375.406 68.953 375.406 64.6295C375.406 60.306 378.917 56.7949 383.241 56.7949C387.564 56.7949 391.075 60.2915 391.075 64.6295Z" fill="white"/>
<path d="M361.594 72.4641C365.921 72.4641 369.428 68.9564 369.428 64.6295C369.428 60.3026 365.921 56.7949 361.594 56.7949C357.267 56.7949 353.759 60.3026 353.759 64.6295C353.759 68.9564 357.267 72.4641 361.594 72.4641Z" fill="white"/>
<path d="M339.947 72.4641C344.274 72.4641 347.782 68.9564 347.782 64.6295C347.782 60.3026 344.274 56.7949 339.947 56.7949C335.62 56.7949 332.113 60.3026 332.113 64.6295C332.113 68.9564 335.62 72.4641 339.947 72.4641Z" fill="white"/>
<defs>
<linearGradient id="paint0_linear_395_16224" x1="233.705" y1="231.154" x2="-75.0359" y2="364.053" gradientUnits="userSpaceOnUse">
<stop stop-color="#00780C"/>
<stop offset="1" stop-color="#A2FFAB"/>
</linearGradient>
<linearGradient id="paint1_linear_395_16224" x1="752.198" y1="372.665" x2="467.276" y2="543.325" gradientUnits="userSpaceOnUse">
<stop stop-color="#00780C"/>
<stop offset="1" stop-color="#A2FFAB"/>
</linearGradient>
</defs>
</svg>
