<svg width="143" height="35" viewBox="0 0 143 35" fill="none" xmlns="http://www.w3.org/2000/svg">
<path fill-rule="evenodd" clip-rule="evenodd" d="M2.23311 15.3908C2.65732 15.3908 3.072 15.5166 3.42468 15.7523C3.77736 15.9881 4.0522 16.3231 4.21441 16.7151C4.37662 17.1071 4.41892 17.5383 4.33595 17.9544C4.25299 18.3704 4.04849 18.7525 3.74833 19.0522C3.44818 19.352 3.06585 19.556 2.64972 19.6384C2.23359 19.7208 1.80236 19.678 1.4106 19.5152C1.01884 19.3525 0.684153 19.0772 0.448877 18.7243C0.2136 18.3713 0.0883152 17.9564 0.088869 17.5322C0.0888688 17.2508 0.144345 16.9721 0.252138 16.7121C0.359931 16.4521 0.517918 16.2159 0.717067 16.017C0.916215 15.8181 1.15262 15.6604 1.41275 15.553C1.67289 15.4455 1.95166 15.3904 2.23311 15.3908ZM28.1153 13.5936C28.8937 13.5936 29.6546 13.8245 30.3019 14.2569C30.9491 14.6894 31.4536 15.3041 31.7515 16.0233C32.0494 16.7424 32.1273 17.5338 31.9754 18.2972C31.8236 19.0607 31.4487 19.762 30.8983 20.3124C30.3479 20.8629 29.6466 21.2377 28.8831 21.3896C28.1196 21.5414 27.3283 21.4635 26.6091 21.1656C25.8899 20.8677 25.2752 20.3633 24.8428 19.716C24.4103 19.0688 24.1795 18.3078 24.1795 17.5294C24.1791 17.0125 24.2807 16.5005 24.4783 16.0228C24.676 15.5451 24.9659 15.1111 25.3314 14.7456C25.697 14.38 26.131 14.0901 26.6087 13.8925C27.0863 13.6948 27.5983 13.5933 28.1153 13.5936ZM21.2822 25.1714C21.7063 25.1714 22.1209 25.2972 22.4735 25.5328C22.8261 25.7684 23.101 26.1033 23.2633 26.4951C23.4255 26.8869 23.468 27.3181 23.3853 27.734C23.3025 28.15 23.0983 28.532 22.7984 28.8319C22.4985 29.1318 22.1165 29.336 21.7005 29.4188C21.2846 29.5015 20.8535 29.459 20.4616 29.2967C20.0698 29.1344 19.735 28.8596 19.4993 28.507C19.2637 28.1544 19.138 27.7398 19.138 27.3157C19.138 26.747 19.3639 26.2016 19.766 25.7995C20.1681 25.3974 20.7135 25.1714 21.2822 25.1714Z" fill="#469FD7"/>
<path fill-rule="evenodd" clip-rule="evenodd" d="M9.72387 26.7335C10.5023 26.7335 11.2632 26.9643 11.9105 27.3967C12.5577 27.8292 13.0622 28.4439 13.3601 29.1631C13.658 29.8822 13.7359 30.6736 13.584 31.4371C13.4322 32.2005 13.0573 32.9018 12.5069 33.4523C11.9565 34.0027 11.2552 34.3775 10.4917 34.5294C9.72824 34.6813 8.93688 34.6033 8.21771 34.3054C7.49853 34.0075 6.88385 33.5031 6.45138 32.8559C6.01891 32.2086 5.78809 31.4477 5.78809 30.6692C5.78809 29.6254 6.20276 28.6243 6.94086 27.8862C7.67896 27.1481 8.68004 26.7335 9.72387 26.7335ZM14.3231 9.49828C15.9128 9.49772 17.467 9.96867 18.7891 10.8515C20.1112 11.7344 21.1417 12.9896 21.7503 14.4582C22.359 15.9268 22.5183 17.543 22.2083 19.1022C21.8983 20.6615 21.1328 22.0937 20.0087 23.2178C18.8846 24.342 17.4523 25.1075 15.8931 25.4175C14.3339 25.7275 12.7177 25.5681 11.2491 24.9595C9.78044 24.3508 8.5253 23.3203 7.64242 21.9982C6.75955 20.6762 6.2886 19.122 6.28915 17.5322C6.28915 15.4015 7.13559 13.358 8.64225 11.8514C10.1489 10.3447 12.1924 9.49828 14.3231 9.49828ZM14.2111 11.5334C15.3976 11.5098 16.5644 11.8386 17.564 12.4783C18.5636 13.118 19.3509 14.0397 19.8265 15.127C20.3021 16.2143 20.4445 17.4182 20.2357 18.5864C20.0269 19.7546 19.4764 20.8346 18.6537 21.6899C17.8309 22.5451 16.773 23.1371 15.6138 23.391C14.4545 23.6449 13.246 23.5492 12.1411 23.1161C11.0363 22.683 10.0847 21.932 9.40675 20.9579C8.72882 19.9839 8.35501 18.8307 8.33262 17.6442C8.30338 16.0548 8.90594 14.5186 10.008 13.373C11.1101 12.2273 12.6217 11.5657 14.2111 11.5334ZM21.3465 5.5261C21.7706 5.5261 22.1852 5.65186 22.5378 5.88747C22.8904 6.12309 23.1652 6.45797 23.3275 6.84978C23.4898 7.24159 23.5323 7.67272 23.4495 8.08867C23.3668 8.50461 23.1626 8.88668 22.8627 9.18656C22.5628 9.48644 22.1808 9.69066 21.7648 9.7734C21.3489 9.85613 20.9177 9.81367 20.5259 9.65137C20.1341 9.48908 19.7992 9.21425 19.5636 8.86163C19.328 8.50901 19.2022 8.09444 19.2022 7.67035C19.2022 7.10166 19.4282 6.55626 19.8303 6.15413C20.2324 5.75201 20.7778 5.5261 21.3465 5.5261ZM9.95622 0.39502C10.7346 0.39502 11.4956 0.62585 12.1428 1.05832C12.7901 1.49079 13.2945 2.10547 13.5924 2.82464C13.8903 3.54381 13.9682 4.33517 13.8164 5.09864C13.6645 5.8621 13.2897 6.5634 12.7392 7.11383C12.1888 7.66426 11.4875 8.0391 10.724 8.19097C9.96057 8.34283 9.16922 8.26489 8.45005 7.967C7.73088 7.66911 7.11619 7.16465 6.68372 6.51741C6.25125 5.87018 6.02043 5.10923 6.02043 4.33081C6.02043 3.28697 6.43508 2.28589 7.17319 1.54778C7.91129 0.80968 8.91238 0.39502 9.95622 0.39502Z" fill="black" fill-opacity="0.87"/>
<path d="M55.7217 4.34757C57.9415 4.33854 60.1274 4.89128 62.0761 5.95435C63.9939 6.95548 65.6016 8.46162 66.7257 10.31C67.8285 12.0968 68.4102 14.156 68.4053 16.2557C68.4107 18.3748 67.8294 20.454 66.7257 22.263C65.6228 24.1071 64.04 25.6174 62.1461 26.6326C60.179 27.6882 57.9763 28.2275 55.7441 28.2002C54.1257 28.2322 52.517 27.9429 51.0111 27.349C49.5052 26.7551 48.1321 25.8685 46.9712 24.7403C45.8047 23.669 44.8776 22.3634 44.2505 20.909C43.6234 19.4546 43.3104 17.8842 43.3321 16.3005C43.3321 12.7547 44.7019 9.7987 47.4415 7.43237C49.7265 5.42035 52.6745 4.32371 55.7189 4.35316L55.7217 4.34757ZM55.8113 9.70259C54.9531 9.67817 54.099 9.8289 53.301 10.1456C52.503 10.4623 51.778 10.9383 51.1701 11.5445C49.9356 12.779 49.3142 14.3438 49.3142 16.2725C49.3142 18.2432 49.9253 19.8397 51.1477 21.0621C51.756 21.6689 52.4821 22.1449 53.2812 22.4607C54.0804 22.7765 54.9357 22.9255 55.7945 22.8984C56.6599 22.9221 57.5211 22.7695 58.3257 22.45C59.1303 22.1304 59.8615 21.6506 60.4749 21.0397C61.715 19.8052 62.3364 18.2124 62.3364 16.2809C62.3364 14.3494 61.7234 12.751 60.5029 11.5221C59.2824 10.2932 57.7036 9.70259 55.8169 9.70259H55.8113ZM87.8407 8.1238L84.1512 11.6845C82.6583 10.2568 81.2959 9.54303 80.0643 9.54303C79.5113 9.51168 78.9624 9.65356 78.4939 9.94892C78.3233 10.0563 78.1826 10.2049 78.0848 10.381C77.9869 10.5572 77.9351 10.7552 77.934 10.9567C77.9399 11.2731 78.0695 11.5746 78.2951 11.7965C78.5331 12.054 79.1349 12.4011 80.0839 12.8518L82.2701 13.8959C84.5748 14.9746 86.1611 16.0766 87.0289 17.2019C87.8905 18.338 88.3432 19.7317 88.3138 21.1573C88.3285 22.1186 88.1263 23.0709 87.7221 23.9433C87.3179 24.8157 86.7221 25.5857 85.9791 26.196C84.4227 27.5452 82.3345 28.218 79.7144 28.2142C76.2414 28.2142 73.4645 26.92 71.3837 24.3316L75.0732 20.505C75.7741 21.2843 76.6143 21.926 77.5505 22.3973C78.3235 22.8283 79.1858 23.0745 80.0699 23.1168C80.7485 23.1497 81.4193 22.9589 81.979 22.5737C82.192 22.44 82.3693 22.2565 82.4956 22.0389C82.6219 21.8214 82.6935 21.5765 82.704 21.3252C82.704 20.4462 81.8334 19.5915 80.0923 18.7611L78.0768 17.7981C74.2175 15.9469 72.2869 13.6337 72.2851 10.8587C72.2851 9.06528 73.011 7.53221 74.4629 6.25947C75.9148 4.98673 77.7614 4.34943 80.0027 4.34757C81.5151 4.34042 83.0096 4.67435 84.3752 5.32451C85.7332 5.97399 86.9201 6.93272 87.8407 8.1238ZM104.225 4.34757C106.445 4.33879 108.632 4.89151 110.582 5.95435C112.498 6.95636 114.105 8.46235 115.229 10.31C116.333 12.0962 116.915 14.1559 116.908 16.2557C116.913 18.3746 116.331 20.4535 115.229 22.263C114.124 24.1067 112.541 25.6168 110.646 26.6326C108.683 27.6897 106.483 28.2319 104.253 28.2086C102.634 28.2398 101.026 27.9492 99.52 27.3539C98.0145 26.7585 96.6422 25.8701 95.4827 24.7403C94.3158 23.6693 93.3884 22.3638 92.7613 20.9093C92.1341 19.4548 91.8214 17.8842 91.8437 16.3005C91.8437 12.7547 93.2134 9.7987 95.953 7.43237C98.238 5.42035 101.186 4.32371 104.23 4.35316L104.225 4.34757ZM104.314 9.70259C103.455 9.6774 102.6 9.82776 101.801 10.1445C101.002 10.4612 100.276 10.9376 99.6676 11.5445C98.4331 12.779 97.8117 14.3438 97.8117 16.2725C97.8117 18.2432 98.4229 19.8397 99.6452 21.0621C100.254 21.6692 100.981 22.1453 101.78 22.4611C102.58 22.7769 103.436 22.9257 104.295 22.8984C105.16 22.9217 106.02 22.7689 106.825 22.4494C107.629 22.1299 108.359 21.6503 108.972 21.0397C110.215 19.8052 110.837 18.2124 110.837 16.2809C110.837 14.3494 110.221 12.751 109 11.5221C107.78 10.2932 106.218 9.70259 104.314 9.70259ZM121.757 4.90462H127.73V7.24483C128.841 6.31205 130.085 5.54975 131.42 4.983C132.499 4.56405 133.647 4.3486 134.804 4.34757C135.914 4.32269 137.018 4.51818 138.052 4.92276C139.086 5.32733 140.03 5.93295 140.828 6.70456C142.213 8.04635 142.907 10.0236 142.911 12.6362V27.6404H136.982V17.7057C136.982 14.9942 136.854 13.1952 136.599 12.3087C136.398 11.4989 135.928 10.7813 135.266 10.2736C134.579 9.79276 133.755 9.54723 132.917 9.57382C131.768 9.55077 130.653 9.96385 129.796 10.7299C128.882 11.5871 128.252 12.7037 127.991 13.9295C127.82 14.6433 127.73 16.1689 127.73 18.5427V27.6404H121.757V4.90462Z" fill="black" fill-opacity="0.87"/>
</svg>
