<svg width="118" height="34" viewBox="0 0 118 34" fill="none" xmlns="http://www.w3.org/2000/svg">
<path d="M34.4858 21.2348C34.4858 21.2348 33.5551 23.1863 30.2527 23.1863C29.4721 23.2163 28.6615 23.0062 28.001 22.5558C27.4005 22.1055 27.1003 21.3549 27.1603 20.6344C27.1003 19.6136 27.6407 18.6829 28.5714 18.2326C29.9224 17.7222 31.3335 17.482 32.7745 17.5421C33.6152 17.422 34.3958 17.9924 34.5158 18.833C34.5158 18.9231 34.5459 18.9831 34.5459 19.0732L34.4858 21.2348ZM39.4095 10.3367C39.2294 9.91636 38.9892 9.49605 38.689 9.1658C38.3887 8.83555 38.0285 8.56535 37.6382 8.32517C37.2179 8.05497 36.7976 7.81479 36.3172 7.60463C35.8368 7.4245 35.3565 7.27439 34.8761 7.18432C34.3057 7.06423 33.7353 6.97416 33.1648 6.94414C32.5644 6.88409 31.8739 6.85407 31.1233 6.85407C26.0495 6.85407 23.1673 8.44526 22.4768 11.6577C22.3567 12.108 22.6269 12.5884 23.1073 12.6784C23.1373 12.6784 23.1974 12.7085 23.2274 12.7085H26.3497C27.1904 12.7085 27.1904 12.4383 27.5206 11.7177C27.6707 11.3274 27.9109 10.9671 28.2411 10.727C29.0518 10.2166 29.9824 9.97641 30.9131 10.0365C31.7838 9.94639 32.6845 10.1565 33.405 10.6669C33.9754 11.1773 34.3057 11.9279 34.3357 12.6784C34.3357 13.7292 34.0055 14.4197 32.7145 14.4197C29.6222 14.2996 26.2897 14.6599 24.3983 15.7407C22.5069 16.8816 21.396 18.9531 21.4561 21.1448C21.426 21.9854 21.6062 22.826 21.9664 23.5766C22.2967 24.2371 22.7771 24.8375 23.3775 25.2879C24.008 25.7982 24.7285 26.1585 25.4791 26.3987C26.3497 26.6389 27.2504 26.759 28.1511 26.7289C29.352 26.759 30.5829 26.5788 31.7238 26.2186C32.7445 25.7982 33.7052 25.2578 34.6059 24.5973V25.1978C34.6059 25.7982 34.786 26.3086 35.4465 26.3086H39.0492C39.7698 26.3086 39.9499 25.7982 39.9499 25.1378V14.0294C39.9499 13.3389 39.9199 12.6484 39.7998 11.9579C39.7698 11.3574 39.6197 10.817 39.4095 10.3367ZM44.4233 29.5511C44.1531 29.5511 43.8528 29.521 43.5826 29.491C43.2224 29.431 42.5619 29.491 42.5619 30.0915V32.6434C42.5619 33.6341 43.0422 33.6942 43.2824 33.7542C44.063 33.9343 44.8736 34.0244 45.6842 33.9944C46.6449 34.0244 47.5756 33.8142 48.4463 33.424C49.2269 33.0337 49.9474 32.4632 50.5178 31.8027C51.1783 31.0522 51.7187 30.2416 52.139 29.3709C52.6194 28.4402 53.0697 27.3894 53.49 26.2486L53.9704 24.8976C52.9797 25.8583 48.6264 29.9413 44.4233 29.5511ZM59.1643 7.27439H55.8618C55.2013 7.24436 54.6309 7.66468 54.4808 8.29515L50.6379 18.8931C50.6379 18.8931 47.2454 9.22585 46.9752 8.50531C46.8251 7.78477 46.1946 7.27439 45.474 7.27439H42.4118C41.3309 7.27439 41.3309 8.11501 41.4811 8.44526C41.6312 8.77551 45.8043 20.2141 47.4255 24.5673C47.6957 25.1077 47.8758 25.6782 47.9659 26.2786C47.8458 26.849 47.6357 27.4195 47.3354 27.8998C47.2153 28.11 47.0652 28.3201 46.9151 28.5003C50.0675 27.5696 53.7002 24.147 55.5316 20.4843C57.393 15.3805 59.8248 8.59538 59.9149 8.23511C60.0349 7.72472 60.0349 7.27439 59.1643 7.27439ZM6.41481 22.0454C4.31324 21.2949 2.42182 20.094 0.830632 18.5328V25.1978C0.770587 25.7082 1.13086 26.1885 1.64124 26.2786H1.67126H5.51414C6.5349 26.2786 6.41481 25.1978 6.41481 25.1978V22.0454ZM15.0012 10.4568C14.701 10.9671 14.2507 11.3875 13.7403 11.6276C13.1699 11.8978 12.5394 12.078 11.9089 12.108C11.2184 12.1981 10.5279 12.2281 9.80735 12.2281H7.37553C6.77508 12.2281 6.41481 11.7477 6.41481 11.0572V5.38297C6.38479 4.90261 6.74506 4.51232 7.1954 4.4823C7.25544 4.4823 7.31549 4.4823 7.34551 4.4823H9.77733C10.5579 4.4823 11.3085 4.51232 12.029 4.54234C12.6595 4.57236 13.2599 4.72248 13.8304 4.99268C14.3407 5.23286 14.7911 5.62315 15.0913 6.10351C15.4216 6.764 15.5717 7.51457 15.5116 8.23511C15.5416 9.01569 15.3615 9.79627 15.0012 10.4568ZM19.9549 3.37147C19.5346 2.71097 19.0242 2.14054 18.3938 1.66018C17.7633 1.23987 17.0728 0.879601 16.3222 0.669443C15.5116 0.399241 14.701 0.249129 13.8604 0.159061C12.8997 0.0689939 11.9389 0.00894894 10.9482 0.00894894H2.45185C1.64124 -0.0811185 0.920699 0.519331 0.830632 1.32994V1.35996V1.45003V15.2303C2.00151 17.7522 3.95297 19.8538 6.41481 21.1748V18.4127C6.32474 17.512 6.98524 16.7315 7.88591 16.6414H10.4378C13.9204 16.6414 16.5624 15.9209 18.3938 14.4498C20.2251 13.0087 21.1558 10.8471 21.1859 7.9649C21.1859 7.1543 21.0958 6.31367 20.8856 5.53308C20.7055 4.78252 20.4053 4.06198 19.9549 3.37147Z" fill="black" fill-opacity="0.87"/>
<path d="M116.988 14.0888C117.829 15.4699 117.829 17.2112 116.988 18.5622C116.148 19.8531 111.524 24.8069 109.993 26.368C108.672 27.7491 106.871 29.1301 105.099 29.1301H68.3518C63.3681 29.1301 63.0679 27.4188 63.0679 23.636V8.23445C63.0679 4.36156 64.2087 3.2207 67.6313 3.2207H105.189C106.961 3.2207 108.522 4.12138 110.293 5.95275C111.824 7.48389 116.388 13.1882 116.988 14.0888Z" fill="#00A6D1"/>
<path d="M71.4134 9.19482V9.10475C71.4134 8.59437 71.4134 8.11401 70.5727 8.11401H67.4804C66.7599 8.11401 66.7299 8.50431 66.7299 9.10475V13.1878C67.9308 11.5066 69.552 10.1255 71.4134 9.19482Z" fill="white"/>
<path d="M92.0692 23.937V23.7268V13.8795C92.0692 9.76638 90.2378 7.69482 86.6051 7.69482C85.5843 7.69482 84.5936 7.99505 83.753 8.53545C82.8223 9.1359 81.9816 9.85644 81.2611 10.6971C80.9308 9.76637 80.3304 8.98579 79.4898 8.47541C78.5591 7.96503 77.4783 7.69482 76.4275 7.75487C74.8663 7.75487 73.3352 8.29527 72.0742 9.25599C71.804 9.52619 66.7002 13.4892 66.7002 17.6323V23.937C66.7002 24.1471 66.6101 24.8977 67.4508 24.8977H70.6632C71.6539 24.8977 71.5638 24.2372 71.5638 23.967V13.7894C72.1042 13.0688 73.185 11.3576 75.0164 11.3576C75.6169 11.2975 76.1873 11.5677 76.5175 12.0481C76.8778 12.7686 77.0279 13.5792 76.9679 14.3898V22.3158V23.937C76.9679 24.1471 76.8778 24.8977 77.7184 24.8977H80.8708C81.8615 24.8977 81.7715 24.2372 81.7715 23.967V23.7568V13.7594C82.3419 13.0388 83.4828 11.3275 85.2241 11.3275C85.8245 11.2675 86.3949 11.5377 86.7552 12.0181C87.1155 12.7386 87.2956 13.5492 87.2356 14.3598V22.2857V23.907C87.2356 24.1171 87.1455 24.8677 87.9861 24.8677H91.1985C92.1893 24.8377 92.0692 24.2072 92.0692 23.937Z" fill="white"/>
<path d="M102.307 11.0574C100.356 11.0574 99.0349 12.4084 98.7647 14.6301H105.73C105.55 12.6786 104.499 11.0574 102.307 11.0574ZM109.723 19.944C108.612 22.9463 105.67 24.8677 102.457 24.7176C97.5638 24.7176 94.2914 21.3851 94.2914 16.4014C94.2914 11.4177 97.6839 7.90503 102.277 7.90503C106.871 7.90503 109.933 11.0874 110.113 16.1912C110.113 16.8517 109.963 17.4222 109.122 17.4222H98.7347C98.7948 20.1542 100.116 21.6553 102.457 21.6553C103.718 21.6853 104.889 20.9648 105.46 19.8239C105.67 19.4937 106.06 19.3136 106.45 19.3136H109.122C109.423 19.3136 109.663 19.5237 109.693 19.8239C109.693 19.854 109.693 19.914 109.693 19.944H109.723Z" fill="white"/>
</svg>
