<svg width="25" height="31" viewBox="0 0 25 31" fill="none" xmlns="http://www.w3.org/2000/svg">
<path d="M21.2502 30.0833H3.75016C2.97661 30.0833 2.23475 29.776 1.68777 29.2291C1.14079 28.6821 0.833496 27.9402 0.833496 27.1667V3.83332C0.833496 3.05978 1.14079 2.31791 1.68777 1.77093C2.23475 1.22395 2.97661 0.916658 3.75016 0.916658H13.9585C13.9716 0.914947 13.9848 0.914947 13.9979 0.916658H14.0066C14.0204 0.920963 14.0346 0.923894 14.0489 0.925408C14.1772 0.934158 14.3041 0.95895 14.4266 0.999783H14.4879C14.5148 1.01862 14.5401 1.03959 14.5637 1.06249C14.7226 1.13314 14.8673 1.23195 14.991 1.35416L23.741 10.1042C23.8632 10.2278 23.962 10.3726 24.0327 10.5315C24.0454 10.563 24.0566 10.5951 24.0662 10.6277L24.0808 10.6685C24.1216 10.7896 24.145 10.9164 24.1522 11.0448C24.1535 11.0593 24.157 11.0736 24.1625 11.0871V11.0958C24.1648 11.1054 24.1663 11.1152 24.1668 11.125V27.1667C24.1668 27.9402 23.8595 28.6821 23.3126 29.2291C22.7656 29.776 22.0237 30.0833 21.2502 30.0833ZM16.0352 18.4167V25.7083H17.406V22.7333H19.5352V21.5112H17.406V19.6431H19.7918V18.4167H16.0352ZM10.6393 18.4167V25.7083H12.3981C12.7624 25.7263 13.126 25.6623 13.4622 25.521C13.7984 25.3796 14.0986 25.1645 14.3406 24.8917C14.8436 24.2499 15.0955 23.4468 15.0493 22.6327V21.4515C15.0833 20.6459 14.8242 19.8553 14.3202 19.226C13.8462 18.6865 13.1535 18.389 12.4345 18.4167H10.6393ZM5.2085 18.4167V25.7083H6.57933V23.1431H7.49225C8.10183 23.1767 8.69683 22.9506 9.13141 22.5219C9.54542 22.0585 9.76024 21.4508 9.72933 20.8302C9.75639 20.1947 9.54171 19.5725 9.1285 19.089C8.92663 18.8651 8.67771 18.6887 8.39959 18.5725C8.12148 18.4562 7.82107 18.403 7.51995 18.4167H5.2085ZM13.9585 3.83332V11.125H21.2502L13.9585 3.83332ZM12.4214 24.4862H12.0102V19.6431H12.5089C12.6832 19.6328 12.8573 19.6664 13.0153 19.7408C13.1732 19.8152 13.31 19.928 13.4131 20.069C13.6275 20.5108 13.7193 21.0023 13.6785 21.4923V22.7596C13.7106 23.2262 13.61 23.6929 13.3868 24.1027C13.2691 24.2401 13.1197 24.3469 12.9515 24.4137C12.7833 24.4805 12.6014 24.5054 12.4214 24.4862ZM7.51995 21.9167H6.57787V19.6431H7.53308C7.65039 19.6444 7.76545 19.6754 7.86748 19.7333C7.96952 19.7912 8.05517 19.8741 8.11641 19.9742C8.27391 20.2352 8.34975 20.5356 8.33516 20.8404C8.35345 21.124 8.27814 21.4058 8.12079 21.6425C8.04928 21.7322 7.95759 21.8039 7.85319 21.8515C7.74879 21.8991 7.63461 21.9215 7.51995 21.9167Z" fill="#3D3D3D"/>
</svg>
