<svg width="32" height="30" viewBox="0 0 32 30" fill="none" xmlns="http://www.w3.org/2000/svg">
<path d="M31.432 14.486C31.429 14.2361 31.3547 13.9923 31.2179 13.7832C31.081 13.574 30.8873 13.4083 30.6595 13.3055L2.69235 0.583345C2.44842 0.476413 2.17774 0.446218 1.91624 0.496773C1.65475 0.547328 1.41483 0.67624 1.22834 0.866386C1.04185 1.05653 0.917617 1.29892 0.872149 1.56134C0.82668 1.82376 0.862123 2.09381 0.973772 2.33562L5.87072 13.4441L17.6566 13.3111L17.682 15.9282L5.85883 16.043L1.18784 27.2536C1.08628 27.4961 1.05986 27.7634 1.11201 28.0211C1.16415 28.2787 1.29246 28.5147 1.48031 28.6986C1.67348 28.8805 1.91722 28.9995 2.17939 29.04C2.44157 29.0806 2.70988 29.0407 2.94894 28.9257L30.6638 15.6629C30.8903 15.5597 31.0827 15.3943 31.2187 15.186C31.3547 14.9776 31.4287 14.7348 31.432 14.486Z" fill="#3D3D3D"/>
</svg>
