<svg width="18" height="15" viewBox="0 0 18 15" fill="none" xmlns="http://www.w3.org/2000/svg">
<path fill-rule="evenodd" clip-rule="evenodd" d="M0.600098 7.60183C0.600098 7.32606 0.71071 7.06158 0.907601 6.86658C1.10449 6.67157 1.37153 6.56202 1.64998 6.56202H13.8139L9.30572 2.09915C9.20811 2.00247 9.13068 1.8877 9.07785 1.76138C9.02502 1.63507 8.99783 1.49968 8.99783 1.36296C8.99783 1.22624 9.02502 1.09085 9.07785 0.964539C9.13068 0.838223 9.20811 0.723451 9.30572 0.626773C9.40334 0.530095 9.51922 0.453406 9.64676 0.401085C9.7743 0.348763 9.91099 0.321835 10.049 0.321835C10.1871 0.321835 10.3238 0.348763 10.4513 0.401085C10.5789 0.453406 10.6947 0.530095 10.7924 0.626773L17.0917 6.86565C17.1894 6.96224 17.267 7.07698 17.3199 7.20331C17.3729 7.32964 17.4001 7.46506 17.4001 7.60183C17.4001 7.73861 17.3729 7.87403 17.3199 8.00036C17.267 8.12669 17.1894 8.24143 17.0917 8.33802L10.7924 14.5769C10.6947 14.6736 10.5789 14.7503 10.4513 14.8026C10.3238 14.8549 10.1871 14.8818 10.049 14.8818C9.91099 14.8818 9.7743 14.8549 9.64676 14.8026C9.51922 14.7503 9.40334 14.6736 9.30572 14.5769C9.10858 14.3816 8.99783 14.1168 8.99783 13.8407C8.99783 13.704 9.02502 13.5686 9.07785 13.4423C9.13068 13.316 9.20811 13.2012 9.30572 13.1045L13.8139 8.64165H1.64998C1.37153 8.64165 1.10449 8.5321 0.907601 8.33709C0.71071 8.14209 0.600098 7.87761 0.600098 7.60183Z" fill="#3D3D3D"/>
</svg>
