<svg width="28" height="37" viewBox="0 0 28 37" fill="none" xmlns="http://www.w3.org/2000/svg">
<path fill-rule="evenodd" clip-rule="evenodd" d="M0.5 35.375V5C0.5 3.80653 0.974106 2.66193 1.81802 1.81802C2.66193 0.974106 3.80653 0.5 5 0.5L23 0.5C24.1935 0.5 25.3381 0.974106 26.182 1.81802C27.0259 2.66193 27.5 3.80653 27.5 5V35.375C27.5001 35.5704 27.4494 35.7624 27.3528 35.9322C27.2562 36.102 27.117 36.2437 26.949 36.3434C26.781 36.4431 26.5899 36.4973 26.3946 36.5007C26.1992 36.5041 26.0064 36.4565 25.835 36.3628L14 29.9053L2.165 36.3628C1.99362 36.4565 1.80077 36.5041 1.60544 36.5007C1.41011 36.4973 1.21903 36.4431 1.05101 36.3434C0.882987 36.2437 0.74382 36.102 0.647205 35.9322C0.55059 35.7624 0.499857 35.5704 0.5 35.375ZM20.4215 13.6715C20.6327 13.4603 20.7514 13.1737 20.7514 12.875C20.7514 12.5763 20.6327 12.2897 20.4215 12.0785C20.2103 11.8673 19.9237 11.7486 19.625 11.7486C19.3263 11.7486 19.0397 11.8673 18.8285 12.0785L12.875 18.0343L10.2965 15.4535C10.1919 15.3489 10.0677 15.2659 9.93106 15.2093C9.7944 15.1527 9.64792 15.1236 9.5 15.1236C9.35208 15.1236 9.2056 15.1527 9.06894 15.2093C8.93227 15.2659 8.8081 15.3489 8.7035 15.4535C8.5989 15.5581 8.51593 15.6823 8.45932 15.8189C8.40271 15.9556 8.37358 16.1021 8.37358 16.25C8.37358 16.3979 8.40271 16.5444 8.45932 16.6811C8.51593 16.8177 8.5989 16.9419 8.7035 17.0465L12.0785 20.4215C12.183 20.5263 12.3071 20.6094 12.4438 20.6661C12.5805 20.7228 12.727 20.752 12.875 20.752C13.023 20.752 13.1695 20.7228 13.3062 20.6661C13.4429 20.6094 13.567 20.5263 13.6715 20.4215L20.4215 13.6715Z" fill="#007AFF"/>
</svg>
