<svg width="27" height="24" viewBox="0 0 27 24" fill="none" xmlns="http://www.w3.org/2000/svg">
<path d="M25.541 5.30858C25.1483 4.39932 24.5821 3.57535 23.874 2.8828C23.1654 2.18819 22.33 1.63619 21.4131 1.25683C20.4623 0.861884 19.4426 0.65973 18.4131 0.662099C16.9688 0.662099 15.5596 1.05761 14.335 1.80468C14.042 1.98339 13.7637 2.17968 13.5 2.39354C13.2363 2.17968 12.958 1.98339 12.665 1.80468C11.4404 1.05761 10.0313 0.662099 8.58692 0.662099C7.54688 0.662099 6.53906 0.861318 5.58692 1.25683C4.66699 1.63769 3.83789 2.18554 3.12598 2.8828C2.41698 3.57457 1.85062 4.39873 1.45898 5.30858C1.05176 6.25487 0.84375 7.25975 0.84375 8.29393C0.84375 9.26952 1.04297 10.2861 1.43848 11.3203C1.76953 12.1846 2.24414 13.081 2.85059 13.9863C3.81152 15.4189 5.13281 16.9131 6.77344 18.4277C9.49219 20.9385 12.1846 22.6728 12.2988 22.7432L12.9932 23.1885C13.3008 23.3848 13.6963 23.3848 14.0039 23.1885L14.6982 22.7432C14.8125 22.6699 17.502 20.9385 20.2236 18.4277C21.8643 16.9131 23.1856 15.4189 24.1465 13.9863C24.7529 13.081 25.2305 12.1846 25.5586 11.3203C25.9541 10.2861 26.1533 9.26952 26.1533 8.29393C26.1563 7.25975 25.9482 6.25487 25.541 5.30858Z" fill="#007AFF"/>
</svg>
