<svg width="20" height="22" viewBox="0 0 20 22" fill="none" xmlns="http://www.w3.org/2000/svg">
<path d="M9.44582 21.5667C9.76432 21.7368 10.1641 21.7357 10.4826 21.5656C19.1622 16.903 19.7787 7.7932 19.7711 5.20295C19.7702 4.99477 19.7087 4.79134 19.594 4.61759C19.4794 4.44384 19.3165 4.3073 19.1254 4.2247L10.4046 0.361538C10.2658 0.300362 10.1158 0.268857 9.96408 0.269044C9.81241 0.26923 9.66246 0.301104 9.52382 0.362622L0.863655 4.22579C0.675368 4.30843 0.514807 4.44346 0.401101 4.61479C0.287396 4.78611 0.225338 4.98652 0.222322 5.19212C0.185488 7.76937 0.704405 16.8986 9.44582 21.5667ZM6.39732 9.15062L8.8814 11.6347L13.5322 6.98395L15.064 8.51579L8.8814 14.6984L4.86549 10.6825L6.39732 9.15062Z" fill="#0096B2"/>
</svg>
