<svg width="17" height="18" viewBox="0 0 17 18" fill="none" xmlns="http://www.w3.org/2000/svg">
<path d="M13.2233 17.4956C13.0871 17.4962 12.9527 17.4625 12.8315 17.3972L8.48722 15.0094L4.14294 17.3972C4.00187 17.4751 3.84282 17.5099 3.68387 17.4976C3.52492 17.4853 3.37245 17.4264 3.24378 17.3277C3.11512 17.2289 3.01542 17.0942 2.95602 16.939C2.89663 16.7837 2.87992 16.614 2.9078 16.4493L3.75962 11.4143L0.25012 7.83704C0.140625 7.72232 0.0629507 7.57846 0.0254333 7.42091C-0.0120842 7.26335 -0.00802862 7.09804 0.0371647 6.94272C0.0865362 6.78378 0.177354 6.64255 0.299313 6.53506C0.421271 6.42757 0.569487 6.35812 0.727139 6.33459L5.58252 5.59231L7.72058 1.00449C7.79034 0.853288 7.89924 0.725771 8.03483 0.636547C8.17042 0.547323 8.3272 0.5 8.48722 0.5C8.64724 0.5 8.80403 0.547323 8.93962 0.636547C9.0752 0.725771 9.18411 0.853288 9.25386 1.00449L11.4175 5.58337L16.2729 6.32565C16.4305 6.34918 16.5787 6.41862 16.7007 6.52612C16.8226 6.63361 16.9135 6.77484 16.9628 6.93378C17.008 7.0891 17.0121 7.25441 16.9746 7.41196C16.937 7.56952 16.8594 7.71338 16.7499 7.82809L13.2404 11.4053L14.0922 16.4403C14.1226 16.608 14.1067 16.7813 14.0463 16.9398C13.9859 17.0982 13.8836 17.2352 13.7515 17.3346C13.5972 17.4481 13.4115 17.5047 13.2233 17.4956Z" />
<defs>
<linearGradient id="paint0_linear_346_5129" x1="17.5409" y1="-0.994517" x2="-1.04704" y2="18.9945" gradientUnits="userSpaceOnUse">
<stop stop-color="#FFD700"/>
<stop offset="1" stop-color="#FDEC64"/>
</linearGradient>
</defs>
</svg>
