<svg width="26" height="26" viewBox="0 0 26 26" fill="none" xmlns="http://www.w3.org/2000/svg">
<path d="M16.75 14.25L13 18M13 18L9.25 14.25M13 18V8M13 24.25C11.5226 24.25 10.0597 23.959 8.69481 23.3936C7.3299 22.8283 6.08971 21.9996 5.04505 20.955C4.00039 19.9103 3.17172 18.6701 2.60636 17.3052C2.04099 15.9403 1.75 14.4774 1.75 13C1.75 11.5226 2.04099 10.0597 2.60636 8.69481C3.17172 7.3299 4.00039 6.08971 5.04505 5.04505C6.08971 4.00039 7.3299 3.17172 8.69481 2.60636C10.0597 2.04099 11.5226 1.75 13 1.75C15.9837 1.75 18.8452 2.93526 20.955 5.04505C23.0647 7.15483 24.25 10.0163 24.25 13C24.25 15.9837 23.0647 18.8452 20.955 20.955C18.8452 23.0647 15.9837 24.25 13 24.25Z" stroke="#3D3D3D" stroke-width="2" stroke-linecap="round" stroke-linejoin="round"/>
</svg>
