<svg width="27" height="25" viewBox="0 0 27 25" fill="none" xmlns="http://www.w3.org/2000/svg">
<path d="M24.25 0.101562H10.9166V4.26823H14.25V5.9349H3.41663C1.99996 5.9349 0.916626 7.01823 0.916626 8.4349V17.6016C0.916626 19.0182 1.99996 20.1016 3.41663 20.1016H4.24996V24.3516L9.49996 20.1016H15.0833V14.2682H24.25C25.6666 14.2682 26.75 13.1849 26.75 11.7682V2.60156C26.75 1.1849 25.6666 0.101562 24.25 0.101562ZM9.91663 16.6849L9.49996 15.3516H6.91663L6.41663 16.6849H4.41663L7.16663 9.26823H9.16663L11.9166 16.6849H9.91663ZM22.5833 10.1016V11.7682C21.5 11.7682 20.3333 11.4349 19.3333 10.9349C18.3333 11.4349 17.1666 11.6849 16 11.7682L15.9166 10.1016C16.5 10.1016 17.0833 10.0182 17.6666 9.85156C16.9166 9.10156 16.4166 8.1849 16.1666 7.1849H17.9166C18.1666 7.9349 18.6666 8.51823 19.25 9.01823C20.1666 8.26823 20.75 7.1849 20.8333 5.9349H15.8333V4.26823H18.3333V2.60156H20V4.26823H22.75L22.8333 5.10156C22.9166 6.85156 22.25 8.60156 21 9.85156C21.5833 10.0182 22.0833 10.1016 22.5833 10.1016Z" fill="#3D3D3D"/>
</svg>
