<svg width="20" height="23" viewBox="0 0 20 23" fill="none" xmlns="http://www.w3.org/2000/svg">
<path d="M6.5013 3.33326C6.19188 3.33326 5.89514 3.45618 5.67634 3.67497C5.45755 3.89376 5.33464 4.19051 5.33464 4.49993C5.33464 4.80935 5.45755 5.10609 5.67634 5.32489C5.89514 5.54368 6.19188 5.6666 6.5013 5.6666C6.81072 5.6666 7.10747 5.54368 7.32626 5.32489C7.54505 5.10609 7.66797 4.80935 7.66797 4.49993C7.66797 4.19051 7.54505 3.89376 7.32626 3.67497C7.10747 3.45618 6.81072 3.33326 6.5013 3.33326ZM3.19964 3.33326C3.44067 2.65014 3.88766 2.0586 4.479 1.64018C5.07034 1.22177 5.7769 0.99707 6.5013 0.99707C7.2257 0.99707 7.93226 1.22177 8.5236 1.64018C9.11494 2.0586 9.56193 2.65014 9.80297 3.33326H18.168C18.4774 3.33326 18.7741 3.45618 18.9929 3.67497C19.2117 3.89376 19.3346 4.19051 19.3346 4.49993C19.3346 4.80935 19.2117 5.10609 18.9929 5.32489C18.7741 5.54368 18.4774 5.6666 18.168 5.6666H9.80297C9.56193 6.34972 9.11494 6.94126 8.5236 7.35967C7.93226 7.77809 7.2257 8.00279 6.5013 8.00279C5.7769 8.00279 5.07034 7.77809 4.479 7.35967C3.88766 6.94126 3.44067 6.34972 3.19964 5.6666H1.83464C1.52522 5.6666 1.22847 5.54368 1.00968 5.32489C0.790885 5.10609 0.667969 4.80935 0.667969 4.49993C0.667969 4.19051 0.790885 3.89376 1.00968 3.67497C1.22847 3.45618 1.52522 3.33326 1.83464 3.33326H3.19964ZM13.5013 10.3333C13.1919 10.3333 12.8951 10.4562 12.6763 10.675C12.4576 10.8938 12.3346 11.1905 12.3346 11.4999C12.3346 11.8093 12.4576 12.1061 12.6763 12.3249C12.8951 12.5437 13.1919 12.6666 13.5013 12.6666C13.8107 12.6666 14.1075 12.5437 14.3263 12.3249C14.5451 12.1061 14.668 11.8093 14.668 11.4999C14.668 11.1905 14.5451 10.8938 14.3263 10.675C14.1075 10.4562 13.8107 10.3333 13.5013 10.3333ZM10.1996 10.3333C10.4407 9.65014 10.8877 9.0586 11.479 8.64018C12.0703 8.22176 12.7769 7.99707 13.5013 7.99707C14.2257 7.99707 14.9323 8.22176 15.5236 8.64018C16.1149 9.0586 16.5619 9.65014 16.803 10.3333H18.168C18.4774 10.3333 18.7741 10.4562 18.9929 10.675C19.2117 10.8938 19.3346 11.1905 19.3346 11.4999C19.3346 11.8093 19.2117 12.1061 18.9929 12.3249C18.7741 12.5437 18.4774 12.6666 18.168 12.6666H16.803C16.5619 13.3497 16.1149 13.9413 15.5236 14.3597C14.9323 14.7781 14.2257 15.0028 13.5013 15.0028C12.7769 15.0028 12.0703 14.7781 11.479 14.3597C10.8877 13.9413 10.4407 13.3497 10.1996 12.6666H1.83464C1.52522 12.6666 1.22847 12.5437 1.00968 12.3249C0.790885 12.1061 0.667969 11.8093 0.667969 11.4999C0.667969 11.1905 0.790885 10.8938 1.00968 10.675C1.22847 10.4562 1.52522 10.3333 1.83464 10.3333H10.1996ZM6.5013 17.3333C6.19188 17.3333 5.89514 17.4562 5.67634 17.675C5.45755 17.8938 5.33464 18.1905 5.33464 18.4999C5.33464 18.8093 5.45755 19.1061 5.67634 19.3249C5.89514 19.5437 6.19188 19.6666 6.5013 19.6666C6.81072 19.6666 7.10747 19.5437 7.32626 19.3249C7.54505 19.1061 7.66797 18.8093 7.66797 18.4999C7.66797 18.1905 7.54505 17.8938 7.32626 17.675C7.10747 17.4562 6.81072 17.3333 6.5013 17.3333ZM3.19964 17.3333C3.44067 16.6501 3.88766 16.0586 4.479 15.6402C5.07034 15.2218 5.7769 14.9971 6.5013 14.9971C7.2257 14.9971 7.93226 15.2218 8.5236 15.6402C9.11494 16.0586 9.56193 16.6501 9.80297 17.3333H18.168C18.4774 17.3333 18.7741 17.4562 18.9929 17.675C19.2117 17.8938 19.3346 18.1905 19.3346 18.4999C19.3346 18.8093 19.2117 19.1061 18.9929 19.3249C18.7741 19.5437 18.4774 19.6666 18.168 19.6666H9.80297C9.56193 20.3497 9.11494 20.9413 8.5236 21.3597C7.93226 21.7781 7.2257 22.0028 6.5013 22.0028C5.7769 22.0028 5.07034 21.7781 4.479 21.3597C3.88766 20.9413 3.44067 20.3497 3.19964 19.6666H1.83464C1.52522 19.6666 1.22847 19.5437 1.00968 19.3249C0.790885 19.1061 0.667969 18.8093 0.667969 18.4999C0.667969 18.1905 0.790885 17.8938 1.00968 17.675C1.22847 17.4562 1.52522 17.3333 1.83464 17.3333H3.19964Z" fill="#212121"/>
</svg>
