<svg width="141" height="113" viewBox="0 0 141 113" fill="none" xmlns="http://www.w3.org/2000/svg">
<path d="M38.5 81.2866C38.5 68.5066 46.1985 56.9851 58.0057 52.0945C69.8129 47.2039 83.4035 49.9074 92.4401 58.9444C101.477 67.9814 104.18 81.5721 99.2888 93.3791C94.3978 105.186 82.876 112.884 70.096 112.884C52.6458 112.883 38.5 98.7367 38.5 81.2866H38.5Z" fill="#2ED47A"/>
<path d="M59.834 81L67.834 89L81.1673 73" stroke="white" stroke-width="3" stroke-linecap="round" stroke-linejoin="round"/>
<path d="M16.7081 72.8284L16.5918 70.5193C16.5918 70.5193 20.9053 70.1971 21.8421 73.5168L20.7535 75.3195C20.7535 75.3195 19.2015 72.3986 16.7087 72.8284H16.7081Z" fill="#2ED47A"/>
<path d="M108.228 65.8688L108.111 63.5603C108.111 63.5603 112.425 63.2381 113.362 66.5579L112.274 68.3605C112.274 68.3605 110.722 65.4379 108.228 65.8688H108.228Z" fill="#2ED47A"/>
<path d="M137.48 53.3464L138.047 51.8828C138.047 51.8828 140.81 52.8772 140.472 55.1973L139.297 56.0114C139.297 56.0114 139.147 53.7703 137.481 53.3464H137.48Z" fill="#2ED47A"/>
<path d="M0.525885 40.6911L2.48435 39.1641C2.48435 39.1641 2.9007 42.5652 5.78898 42.8275L4.91906 45.204C4.91906 45.204 0.106629 44.3236 0.525885 40.6911Z" fill="#2ED47A"/>
<path d="M122.417 40.2257C122.417 39.1447 122.501 38.2666 122.605 38.2666C122.709 38.2666 122.794 39.1441 122.794 40.2257C122.794 41.3072 122.709 42.1847 122.605 42.1847C122.502 42.1847 122.417 41.3055 122.417 40.2245V40.2257Z" fill="#2ED47A"/>
<path d="M124.895 39.2327C124.516 38.7791 124.274 38.3564 124.353 38.2901C124.432 38.2238 124.806 38.5378 125.184 38.9914C125.563 39.4449 125.806 39.8677 125.726 39.934C125.718 39.9401 125.708 39.9432 125.698 39.9427C125.579 39.9415 125.24 39.6444 124.895 39.2315V39.2327Z" fill="#2ED47A"/>
<path d="M119.654 39.5414C119.576 39.4711 119.803 39.096 120.16 38.7035C120.517 38.311 120.87 38.0511 120.948 38.122C121.026 38.193 120.797 38.5674 120.439 38.9594C120.244 39.2186 119.986 39.4233 119.689 39.5537C119.676 39.5541 119.663 39.5498 119.654 39.5414Z" fill="#2ED47A"/>
<path d="M116.562 37.0616C116.562 36.9576 117.427 36.8732 118.494 36.8732C119.561 36.8732 120.423 36.9576 120.423 37.0616C120.423 37.1657 119.559 37.2512 118.494 37.2512C117.428 37.2512 116.562 37.1634 116.562 37.0587V37.0616Z" fill="#2ED47A"/>
<path d="M41.873 36.9879C41.873 36.9879 42.1522 34.0641 44.4799 33.8164L45.5649 34.7514C45.5649 34.7514 43.4326 35.4539 43.4344 37.1722L41.873 36.9879Z" fill="#2ED47A"/>
<path d="M124.656 36.9323C124.656 36.8283 125.52 36.7439 126.586 36.7439C127.651 36.7439 128.517 36.8283 128.517 36.9323C128.517 37.0364 127.653 37.1208 126.586 37.1208C125.519 37.1208 124.656 37.0359 124.656 36.9323H124.656Z" fill="#2ED47A"/>
<path d="M122.284 33.7667C122.284 32.6857 122.367 31.8076 122.473 31.8076C122.578 31.8076 122.66 32.6851 122.66 33.7667C122.66 34.8482 122.576 35.7257 122.473 35.7257C122.369 35.7257 122.284 34.8477 122.284 33.7667Z" fill="#2ED47A"/>
<path d="M120.321 35.0753C119.946 34.7642 119.696 34.4449 119.763 34.3658C119.829 34.2867 120.188 34.4728 120.562 34.7863C120.935 35.0997 121.187 35.4148 121.12 35.4957C121.107 35.5088 121.088 35.5153 121.069 35.5137C120.788 35.4304 120.531 35.2799 120.321 35.0753Z" fill="#2ED47A"/>
<path d="M124.12 35.4152C124.046 35.3419 124.306 34.9604 124.701 34.5633C125.097 34.1661 125.474 33.9044 125.547 33.9783C125.62 34.0521 125.363 34.4319 124.969 34.829C124.751 35.091 124.473 35.2963 124.158 35.4274C124.144 35.428 124.131 35.4229 124.121 35.4134L124.12 35.4152Z" fill="#2ED47A"/>
<path d="M17.2804 29.4669C17.2804 28.3859 17.3647 27.5078 17.4688 27.5078C17.5729 27.5078 17.6566 28.3853 17.6566 29.4669C17.6566 30.5484 17.5723 31.4259 17.4688 31.4259C17.3653 31.4259 17.2804 30.5496 17.2804 29.4669Z" fill="#2ED47A"/>
<path d="M19.7577 28.4729C19.3786 28.0194 19.1367 27.5966 19.2163 27.5303C19.296 27.464 19.6676 27.778 20.0479 28.2316C20.4282 28.6852 20.6678 29.1079 20.5887 29.1742C20.5805 29.1804 20.5704 29.1834 20.5602 29.1829C20.4415 29.1835 20.102 28.8864 19.7571 28.4729H19.7577Z" fill="#2ED47A"/>
<path d="M14.5147 28.7807C14.4386 28.7103 14.6653 28.3353 15.023 27.9428C15.3806 27.5503 15.7324 27.2903 15.8085 27.3613C15.8847 27.4322 15.6591 27.8067 15.3021 28.1986C15.1068 28.4581 14.8478 28.6628 14.5502 28.7929C14.5367 28.7942 14.5233 28.79 14.513 28.7813L14.5147 28.7807Z" fill="#2ED47A"/>
<path d="M72.2498 27.6032L70.8379 24.7394C70.8379 24.7394 75.8347 25.1464 77.3239 21.6133L80.3674 23.3479C80.3674 23.3479 77.935 27.8574 73.9128 27.8568C73.3488 27.855 72.7882 27.7697 72.2492 27.6038L72.2498 27.6032Z" fill="#2ED47A"/>
<path d="M107.649 27.525L106.732 26.4283C106.732 26.4283 108.951 26.0794 109.227 24.3838L110.735 24.8199C110.735 24.8199 110.022 27.5302 107.808 27.5302C107.755 27.5297 107.702 27.5285 107.648 27.5256L107.649 27.525Z" fill="#2ED47A"/>
<path d="M11.4238 26.3009C11.4238 26.1968 12.2879 26.1125 13.3532 26.1125C14.4185 26.1125 15.2844 26.1968 15.2844 26.3009C15.2844 26.405 14.4191 26.4905 13.3532 26.4905C12.2873 26.4905 11.4238 26.4062 11.4238 26.3009Z" fill="#2ED47A"/>
<path d="M19.5195 26.1758C19.5195 26.0717 20.3836 25.9874 21.4495 25.9874C22.5154 25.9874 23.3801 26.0717 23.3801 26.1758C23.3801 26.2799 22.516 26.3636 21.4495 26.3636C20.383 26.3636 19.5195 26.2799 19.5195 26.1764V26.1758Z" fill="#2ED47A"/>
<path d="M17.1447 23.0079C17.1447 21.9269 17.229 21.0488 17.3331 21.0488C17.4372 21.0488 17.5227 21.9263 17.5227 23.0079C17.5227 24.0895 17.4378 24.9669 17.3331 24.9669C17.2285 24.9669 17.1447 24.0906 17.1447 23.0085V23.0079Z" fill="#2ED47A"/>
<path d="M15.1836 24.3168C14.8091 24.0057 14.5596 23.6876 14.6259 23.6074C14.6922 23.5271 15.051 23.7155 15.4249 24.0272C15.7988 24.3389 16.0488 24.6564 15.9825 24.7366C15.969 24.75 15.9503 24.7566 15.9314 24.7546C15.6504 24.6714 15.3939 24.5214 15.1836 24.3174V24.3168Z" fill="#2ED47A"/>
<path d="M18.9833 24.6564C18.9094 24.5831 19.1682 24.2016 19.5613 23.8045C19.9544 23.4073 20.3329 23.1457 20.4079 23.2195C20.483 23.2934 20.2224 23.6731 19.8265 24.0702C19.6086 24.332 19.3307 24.5373 19.0164 24.6686C19.0041 24.6683 18.9924 24.6635 18.9833 24.6552V24.6564Z" fill="#2ED47A"/>
<path d="M55.0762 1.46362L55.6408 0C55.6408 0 58.4046 0.995516 58.0668 3.31451L56.8922 4.1286C56.8922 4.1286 56.7404 1.88869 55.0762 1.46362Z" fill="#2ED47A"/>
</svg>
