<svg width="21" height="16" viewBox="0 0 21 16" fill="none" xmlns="http://www.w3.org/2000/svg">
<path d="M19.8752 0.708374H1.12516C0.848896 0.708374 0.583944 0.818121 0.388593 1.01347C0.193243 1.20882 0.0834961 1.47377 0.0834961 1.75004V5.91671H1.0137C2.0512 5.91671 3.0137 6.62608 3.18037 7.65004C3.23115 7.94904 3.21606 8.25551 3.13617 8.54808C3.05628 8.84064 2.9135 9.11225 2.71781 9.34395C2.52212 9.57564 2.27823 9.76184 2.00315 9.88955C1.72807 10.0173 1.42844 10.0834 1.12516 10.0834H0.0834961V14.25C0.0834961 14.5263 0.193243 14.7913 0.388593 14.9866C0.583944 15.182 0.848896 15.2917 1.12516 15.2917H19.8752C20.1514 15.2917 20.4164 15.182 20.6117 14.9866C20.8071 14.7913 20.9168 14.5263 20.9168 14.25V10.0834H19.8752C19.5719 10.0834 19.2723 10.0173 18.9972 9.88955C18.7221 9.76184 18.4782 9.57564 18.2825 9.34395C18.0868 9.11225 17.944 8.84064 17.8642 8.54808C17.7843 8.25551 17.7692 7.94904 17.82 7.65004C17.9866 6.62608 18.9491 5.91671 19.9866 5.91671H20.9168V1.75004C20.9168 1.47377 20.8071 1.20882 20.6117 1.01347C20.4164 0.818121 20.1514 0.708374 19.8752 0.708374ZM7.37516 4.87504C7.65143 4.87504 7.91638 4.98479 8.11173 5.18014C8.30708 5.37549 8.41683 5.64044 8.41683 5.91671C8.41683 6.19297 8.30708 6.45793 8.11173 6.65328C7.91638 6.84863 7.65143 6.95837 7.37516 6.95837C7.0989 6.95837 6.83394 6.84863 6.63859 6.65328C6.44324 6.45793 6.3335 6.19297 6.3335 5.91671C6.3335 5.64044 6.44324 5.37549 6.63859 5.18014C6.83394 4.98479 7.0989 4.87504 7.37516 4.87504ZM6.54183 11.5417L12.7918 3.20837L14.4585 4.45837L8.2085 12.7917L6.54183 11.5417ZM13.6252 11.125C13.3489 11.125 13.0839 11.0153 12.8886 10.8199C12.6932 10.6246 12.5835 10.3596 12.5835 10.0834C12.5835 9.80711 12.6932 9.54215 12.8886 9.3468C13.0839 9.15145 13.3489 9.04171 13.6252 9.04171C13.9014 9.04171 14.1664 9.15145 14.3617 9.3468C14.5571 9.54215 14.6668 9.80711 14.6668 10.0834C14.6668 10.3596 14.5571 10.6246 14.3617 10.8199C14.1664 11.0153 13.9014 11.125 13.6252 11.125Z" fill="#007AFF"/>
</svg>
