<svg width="19" height="20" viewBox="0 0 19 20" fill="none" xmlns="http://www.w3.org/2000/svg">
<path d="M9.4325 0C8.25011 0.0154997 7.1216 0.490833 6.29179 1.32287C5.46199 2.15492 4.99782 3.27655 5 4.44444C4.9325 6.26667 4.78625 8.3 3.90875 9.54445C6.92375 11.3556 9.5 11.1111 9.5 11.1111C9.5 11.1111 12.0762 11.3556 15.0912 9.54445C14.135 8.02222 13.9325 6.15556 14 4.44444C14 1.98889 11.9862 0 9.5 0H9.4325ZM5.9675 11.4667C2.75 12.1444 0.5 13.7222 0.5 15.5556V20H9.5L6.125 15.5556H3.3125L5.9675 11.4667ZM9.5 20L11.5025 12.0111C11.5025 12.0111 10.625 12.2222 9.5 12.2222C8.375 12.2222 7.4975 12.0111 7.4975 12.0111L9.5 20ZM9.5 20H18.5V15.5556C18.5 13.7222 16.25 12.1444 13.0325 11.4667L15.6875 15.5556H12.875L9.5 20Z" fill="#434343"/>
</svg>
