<svg width="32" height="33" viewBox="0 0 32 33" fill="none" xmlns="http://www.w3.org/2000/svg">
<path d="M15.9999 11.3947C13.1328 11.3947 10.7929 13.7346 10.7929 16.6017C10.7929 19.4689 13.1328 21.8088 15.9999 21.8088C18.8671 21.8088 21.207 19.4689 21.207 16.6017C21.207 13.7346 18.8671 11.3947 15.9999 11.3947ZM31.6171 16.6017C31.6171 14.4455 31.6367 12.3088 31.5156 10.1564C31.3945 7.65643 30.8242 5.43768 28.996 3.60956C27.164 1.77753 24.9492 1.21112 22.4492 1.09003C20.2929 0.968935 18.1562 0.988467 16.0038 0.988467C13.8476 0.988467 11.7109 0.968935 9.55854 1.09003C7.05854 1.21112 4.83979 1.78144 3.01166 3.60956C1.17963 5.44159 0.613222 7.65643 0.492129 10.1564C0.371035 12.3127 0.390566 14.4494 0.390566 16.6017C0.390566 18.7541 0.371035 20.8947 0.492129 23.0471C0.613222 25.5471 1.18353 27.7658 3.01166 29.5939C4.84369 31.426 7.05854 31.9924 9.55854 32.1135C11.7148 32.2346 13.8515 32.215 16.0038 32.215C18.1601 32.215 20.2968 32.2346 22.4492 32.1135C24.9492 31.9924 27.1679 31.4221 28.996 29.5939C30.8281 27.7619 31.3945 25.5471 31.5156 23.0471C31.6406 20.8947 31.6171 18.758 31.6171 16.6017ZM15.9999 24.6135C11.5663 24.6135 7.98822 21.0353 7.98822 16.6017C7.98822 12.1682 11.5663 8.59003 15.9999 8.59003C20.4335 8.59003 24.0117 12.1682 24.0117 16.6017C24.0117 21.0353 20.4335 24.6135 15.9999 24.6135ZM24.3398 10.133C23.3046 10.133 22.4687 9.29706 22.4687 8.2619C22.4687 7.22675 23.3046 6.39081 24.3398 6.39081C25.3749 6.39081 26.2109 7.22675 26.2109 8.2619C26.2112 8.50771 26.163 8.75115 26.0691 8.9783C25.9752 9.20545 25.8373 9.41185 25.6635 9.58565C25.4897 9.75946 25.2833 9.89727 25.0562 9.9912C24.829 10.0851 24.5856 10.1333 24.3398 10.133Z" fill="white" fill-opacity="0.9"/>
</svg>
