<svg width="55" height="55" viewBox="0 0 55 55" fill="none" xmlns="http://www.w3.org/2000/svg">
<circle cx="27.5" cy="27.5" r="27.5" fill="#3BB3BD"/>
<path d="M27.3599 39.1925C27.7274 39.3888 28.1887 39.3875 28.5562 39.1913C38.5712 33.8113 39.2824 23.3 39.2737 20.3113C39.2727 20.071 39.2018 19.8363 39.0694 19.6358C38.9371 19.4354 38.7492 19.2778 38.5287 19.1825L28.4662 14.725C28.3061 14.6544 28.1329 14.6181 27.9579 14.6183C27.7829 14.6185 27.6099 14.6553 27.4499 14.7263L17.4574 19.1838C17.2402 19.2791 17.0549 19.4349 16.9237 19.6326C16.7925 19.8303 16.7209 20.0615 16.7174 20.2988C16.6749 23.2725 17.2737 33.8063 27.3599 39.1925ZM23.8424 24.8663L26.7087 27.7325L32.0749 22.3663L33.8424 24.1338L26.7087 31.2675L22.0749 26.6338L23.8424 24.8663Z" fill="white"/>
</svg>
