<svg width="115" height="35" viewBox="0 0 115 35" fill="none" xmlns="http://www.w3.org/2000/svg">
<path d="M106.834 0.5H99.667C97.5003 0.5 95.8337 1.16667 94.8337 3.33333L81.167 34.5H90.8337C90.8337 34.5 92.5003 30.3333 92.8337 29.3333C93.8337 29.3333 103.334 29.3333 104.667 29.3333C105 30.5 105.834 34.3333 105.834 34.3333H114.5L106.834 0.5ZM95.5003 22.3333C96.3337 20.3333 99.167 12.8333 99.167 12.8333C99.167 13 100 10.8333 100.334 9.66667L101 12.6667C101 12.6667 102.834 20.8333 103.167 22.5H95.5003V22.3333Z" fill="black" fill-opacity="0.87"/>
<path d="M81.8335 23.3333C81.8335 30.3333 75.5002 35 65.6668 35C61.5002 35 57.5002 34.1667 55.3335 33.1667L56.6668 25.5L57.8335 26C60.8335 27.3333 62.8335 27.8333 66.5002 27.8333C69.1668 27.8333 72.0002 26.8333 72.0002 24.5C72.0002 23 70.8335 22 67.1668 20.3333C63.6668 18.6667 59.0002 16 59.0002 11.1667C59.0002 4.5 65.5002 0 74.6668 0C78.1668 0 81.1668 0.666667 83.0002 1.5L81.6668 8.83333L81.0002 8.16667C79.3335 7.5 77.1668 6.83333 74.0002 6.83333C70.5002 7 68.8335 8.5 68.8335 9.83333C68.8335 11.3333 70.8335 12.5 74.0002 14C79.3335 16.5 81.8335 19.3333 81.8335 23.3333Z" fill="black" fill-opacity="0.87"/>
<path d="M0.5 0.833293L0.666667 0.166626H15C17 0.166626 18.5 0.833293 19 2.99996L22.1667 18C19 9.99996 11.6667 3.49996 0.5 0.833293Z" fill="#F9B50B"/>
<path d="M42.3332 0.500041L27.8332 34.3334H17.9998L9.6665 6.00004C15.6665 9.83337 20.6665 15.8334 22.4998 20L23.4998 23.5L32.4998 0.333374H42.3332V0.500041Z" fill="black" fill-opacity="0.87"/>
<path d="M46.1668 0.333374H55.3335L49.5002 34.3334H40.3335L46.1668 0.333374Z" fill="black" fill-opacity="0.87"/>
</svg>
